<svg enable-background="new 0 0 686.4 435.1" viewBox="0 0 686.4 435.1" xmlns="http://www.w3.org/2000/svg"><path d="m225.2 108c-2.2 18.5-18.9 31.8-37.5 29.6-18.5-2.2-31.8-18.9-29.6-37.5l-88.1-10.3-33.7 286.9 82 9.6 6.2.7c2.2-18.5 18.9-31.8 37.5-29.6 9.9 1.2 18.3 6.5 23.6 14.1 4.7 6.6 7 14.8 6 23.4l83.1 9.8 33.7-286.9z"/><path d="m190.9 115.8c0 18.6-15.1 33.8-33.8 33.8-18.6 0-33.8-15.1-33.8-33.8h-88.7v288.9h82.5 6.2c0-18.6 15.1-33.8 33.8-33.8 10 0 18.9 4.3 25.1 11.2 5.4 6 8.7 13.9 8.7 22.6h83.7v-288.9z" fill="#cd1f45"/><path d="m155 128.7c2.4 18.5-10.7 35.4-29.2 37.8s-35.4-10.7-37.8-29.2l-88 11.2 36.6 286.5 81.9-10.4c-6.1-.1-12.3-.8-18.4-2.4-40.7-10.5-65.1-52.1-54.6-92.7 3.3-12.6 9.5-23.6 17.8-32.7.2-.3.9-.9-.5-.7-17.6 2.4-34.3-4.2-42.7-18.4-11.7-19.9-2.2-47.3 21.3-61.1s52-8.9 63.7 11c8.3 14 6 31.8-4.3 45.9-.9 1.2-.7 1.3.6 1 11.7-2.8 24.3-2.9 36.8.4 12.5 3.2 23.4 9.4 32.3 17.5.7.6 1.2 1.1 1-.5-2.2-17.2 4.4-33.9 18.5-42.2 19.9-11.7 47.3-2.2 61.1 21.3s8.9 52-11 63.7c-14.1 8.3-32 5.9-46.1-4.5-.4-.3-1.1-.7-.7.7 2.8 11.8 2.9 24.2-.4 36.7-2.6 9.8-6.9 18.7-12.7 26.4 6.1 5.3 10.4 12.7 11.5 21.3l83-10.6-36.7-286.6z" fill="#fcb816"/><path d="m193.1 330.9c-.3-1.3.3-1 .7-.7 14.1 10.4 32 12.8 46.1 4.5 19.9-11.7 24.9-40.3 11-63.7-13.8-23.5-41.2-33-61.1-21.3-14 8.3-20.6 25-18.5 42.2.2 1.5-.3 1.1-1 .5-8.9-8.1-19.8-14.3-32.3-17.5s-25.1-3.2-36.8-.4c-1.3.3-1.5.2-.6-1 10.3-14.1 12.6-31.8 4.3-45.9-11.7-19.9-40.3-24.9-63.7-11-23.5 13.8-33 41.2-21.3 61.1 8.3 14.2 25.1 20.8 42.7 18.4 1.4-.2.7.4.5.7-8.4 9-14.6 20-17.8 32.7-10.5 40.7 13.9 82.2 54.6 92.7 6.2 1.6 12.3 2.4 18.4 2.4l6.2-.8c-2.4-18.5 10.7-35.4 29.2-37.8 9.9-1.3 19.3 1.9 26.3 7.9 5.7-7.7 10.1-16.6 12.7-26.4 3.3-12.4 3.2-24.8.4-36.6"/><g fill-rule="evenodd"><g fill="#fcb816"><path d="m388 31.3 8-12.2-5.6-13.5 14.1 3.9 11.1-9.5.8 14.5 12.4 7.7-13.7 5.2-3.4 14.2-9.1-11.4z"/><path d="m292.4 67 11.7-8.6-.4-14.6 11.8 8.5 13.8-4.9-4.5 13.9 8.9 11.5h-14.5l-8.3 12.1-4.5-13.8z"/></g><path d="m130.2 221.9 13.9-10.2-.5-17.2 14 10.1 16.2-5.9-5.3 16.4 10.6 13.7h-17.3l-9.7 14.3-5.4-16.4z" fill="#fff"/><g fill="#fcb816"><path d="m238.4 156.3c4 1.9 5.7 6.7 3.7 10.7-1.9 4-6.7 5.6-10.7 3.7s-5.7-6.7-3.7-10.7c1.9-4 6.7-5.7 10.7-3.7"/><path d="m397.8 45.4c3.4 1.6 4.8 5.7 3.1 9-1.6 3.4-5.6 4.8-9 3.1-3.4-1.6-4.8-5.7-3.2-9 1.7-3.4 5.7-4.8 9.1-3.1"/></g><path d="m213.3 195.2c3.4 1.6 4.8 5.7 3.1 9-1.6 3.4-5.6 4.8-9 3.1-3.4-1.6-4.8-5.7-3.2-9 1.7-3.3 5.8-4.8 9.1-3.1" fill="#fff"/><g fill="#fcb816"><path d="m160.5 184.3c2.7 1.3 3.8 4.5 2.5 7.2s-4.5 3.8-7.1 2.5c-2.7-1.3-3.8-4.5-2.5-7.1 1.3-2.7 4.5-3.9 7.1-2.6"/><path d="m343.8 24.2c2.3 1.1 3.2 3.8 2.1 6.1-1.1 2.2-3.8 3.2-6 2.1s-3.2-3.8-2.1-6c1-2.4 3.7-3.3 6-2.2"/><path d="m259.3 95.2c2.7 1.3 3.8 4.5 2.5 7.2s-4.5 3.8-7.1 2.5c-2.7-1.3-3.8-4.5-2.5-7.1 1.2-2.8 4.4-3.9 7.1-2.6"/><path d="m283.5 68.4c2.7 1.3 3.8 4.5 2.5 7.2s-4.5 3.8-7.1 2.5c-2.7-1.3-3.8-4.5-2.5-7.1 1.2-2.8 4.4-3.9 7.1-2.6"/><path d="m366.9 34.7c2.3 1.1 3.2 3.8 2.1 6.1-1.1 2.2-3.8 3.2-6 2.1-2.3-1.1-3.2-3.8-2.1-6 1.1-2.3 3.8-3.3 6-2.2"/><path d="m524.5 37.5c2.3 1.1 3.2 3.8 2.1 6.1-1.1 2.2-3.8 3.2-6 2.1-2.3-1.1-3.2-3.8-2.1-6 1-2.3 3.7-3.3 6-2.2"/><path d="m490.6 54.1c2.3 1.1 3.2 3.8 2.1 6s-3.8 3.2-6 2.1c-2.3-1.1-3.2-3.8-2.1-6 1-2.2 3.7-3.1 6-2.1"/><path d="m552.8 65.1c2.3 1.1 3.2 3.8 2.1 6s-3.8 3.2-6 2.1c-2.3-1.1-3.2-3.8-2.1-6 1.1-2.3 3.8-3.2 6-2.1"/><path d="m520.6 69.5c3.1 1.5 4.3 5.1 2.9 8.2-1.5 3-5.1 4.3-8.2 2.8-3-1.5-4.3-5.1-2.8-8.2 1.4-3 5.1-4.3 8.1-2.8"/><path d="m456.3 6.8c3.1 1.5 4.3 5.1 2.9 8.2-1.5 3-5.1 4.3-8.2 2.8-3-1.5-4.3-5.1-2.8-8.2 1.4-3 5.1-4.3 8.1-2.8"/><path d="m360.3 60.3c2.3 1.1 3.2 3.8 2.1 6.1s-3.8 3.2-6 2.1-3.2-3.8-2.1-6c1-2.4 3.7-3.3 6-2.2"/><path d="m263 118.3v10.2l8.4 5.8-9.7 3.2-3 9.8-6-8.3-10.2.3 6-8.3-3.4-9.7 9.7 3.2z"/><path d="m500.9 26.3-6.8 5.4.6 8.7-7.2-4.8-8 3.2 2.3-8.3-5.5-6.6 8.6-.4 4.6-7.4 3 8.1z"/><path d="m454.1 51.3-7.8 3.7-1.4 8.6-5.9-6.3-8.6 1.3 4.2-7.6-3.9-7.7 8.5 1.6 6.1-6.1 1.1 8.6z"/><path d="m294.5 85.5-2.5 6.1 3.6 5.6-6.6-.5-4.2 5.2-1.6-6.5-6.2-2.3 5.7-3.5.3-6.7 5.1 4.3z"/></g><path d="m210.4 164.8-9.7 3.3-2.7 9.9-6.2-8.1-10.2.4 5.9-8.4-3.6-9.6 9.8 3 8-6.4.1 10.2z" fill="#fff"/><path d="m541.9 90.7 17.9 1.7 11.6-13.8 3.9 17.6 16.7 6.7-15.5 9.1-1.3 18-13.4-11.9-17.5 4.3 7.2-16.5z" fill="#fcb816"/></g><g fill="#010101"><path d="m340.3 172-1.8-5.8h-10l-1.8 5.8h-9.9l12-33.2h9.3l12 33.2zm-4.6-15.3c-.3-1.1-.5-2-.8-2.8-.2-.8-.4-1.5-.6-2.1s-.3-1.2-.5-1.7c-.1-.5-.2-1.1-.3-1.6-.1.6-.2 1.1-.3 1.7-.1.5-.3 1.1-.5 1.8-.2.6-.4 1.3-.6 2.1s-.5 1.7-.8 2.7l-.6 2.2h5.5z"/><path d="m386.8 164.5c-.7 1.9-1.8 3.4-3.1 4.6s-2.9 2-4.6 2.6c-1.8.5-3.7.8-5.8.8s-4-.3-5.8-.8-3.3-1.4-4.6-2.6-2.3-2.7-3-4.6-1.1-4.1-1.1-6.7v-19h9.4v19c0 2.1.4 3.7 1.3 4.8.8 1.2 2.2 1.8 4 1.8s3.1-.6 3.9-1.8 1.2-2.8 1.2-4.8v-19h9.4v19c-.1 2.6-.4 4.9-1.2 6.7"/><path d="m417.2 146.8v25.2h-9.2v-25.2h-9.3v-8h27.8v8z"/><path d="m457.2 172v-13.1h-10.3v13.1h-9.4v-33.2h9.4v12.1h10.3v-12.1h9.4v33.2z"/><path d="m508.3 155.3c0 2.7-.4 5.2-1.1 7.3-.8 2.1-1.8 3.9-3.2 5.4s-3 2.6-4.9 3.3c-1.9.8-4 1.1-6.2 1.1s-4.3-.4-6.2-1.1-3.5-1.8-4.9-3.3c-1.4-1.4-2.4-3.2-3.2-5.4-.7-2.1-1.1-4.6-1.1-7.3 0-2.8.4-5.2 1.1-7.3.8-2.1 1.8-3.9 3.2-5.4s3-2.6 4.9-3.3c1.9-.8 4-1.1 6.2-1.1s4.3.4 6.2 1.1 3.5 1.8 4.8 3.3c1.3 1.4 2.4 3.2 3.2 5.4.9 2.1 1.2 4.6 1.2 7.3m-9.5.1c0-3-.5-5.3-1.5-6.8s-2.5-2.3-4.3-2.3c-1.9 0-3.3.8-4.3 2.3s-1.5 3.8-1.5 6.8.5 5.3 1.5 6.8 2.5 2.3 4.3 2.3c1.9 0 3.3-.8 4.3-2.3s1.5-3.8 1.5-6.8"/><path d="m537.5 172-5.4-11.2h-3.7v11.2h-9v-33.2h14.8c1.9 0 3.7.2 5.3.6s3 1 4.1 1.9 2 2 2.6 3.3c.6 1.4.9 3 .9 5 0 2.5-.5 4.5-1.6 6.1s-2.5 2.8-4.4 3.6l6.7 12.7zm.5-22.2c0-1-.3-1.9-.9-2.6s-1.7-1-3.1-1h-5.6v7.3h5.4c1.5 0 2.6-.3 3.2-.9.7-.6 1-1.6 1-2.8"/><path d="m559.2 172v-33.2h9.4v33.2z"/><path d="m580.9 172v-6.6l9.7-11.9c.5-.6 1.1-1.3 1.7-2s1.2-1.4 1.8-2c.6-.7 1.1-1.3 1.7-1.9.5-.6 1-1.1 1.4-1.5-.6 0-1.4.1-2.2.1s-1.7 0-2.5 0c-.9 0-1.7 0-2.6 0s-1.7 0-2.5 0h-5.4v-7.5h26v6.6l-9.7 11.9c-.5.6-1.1 1.3-1.7 2s-1.2 1.4-1.8 2c-.6.7-1.1 1.3-1.7 1.9-.5.6-1 1.1-1.4 1.5.6 0 1.4-.1 2.2-.1h2.5 2.6 2.5 6.5v7.5z"/><path d="m620.5 172v-33.2h25.4v7.7h-16.3v4.5h9.8v7.6h-9.8v5.7h16.6v7.7z"/><path d="m686.4 155.2c0 3.1-.4 5.8-1.1 7.9-.8 2.1-1.9 3.9-3.4 5.2s-3.4 2.3-5.6 2.8c-2.2.6-4.8.9-7.8.9h-10.8v-33.2h11.6c2.6 0 4.9.3 7.1.8 2.1.5 3.9 1.4 5.4 2.7s2.6 3 3.4 5c.8 2.2 1.2 4.8 1.2 7.9m-9.4.1c0-1.5-.1-2.8-.4-3.9s-.7-2-1.3-2.7-1.4-1.2-2.4-1.5-2.2-.5-3.6-.5h-2.3v17.4h2c1.4 0 2.6-.2 3.7-.5 1-.3 1.8-.8 2.5-1.5.6-.7 1.1-1.6 1.4-2.7.2-1 .4-2.4.4-4.1"/></g><g fill="#231f20"><path d="m341.7 294.5c-6.3 0-12.4-2.1-16.4-4.7l5.2-8.5c2.8 2 7.8 3.9 11.4 3.9 3.8 0 5.1-.7 5.1-2.5 0-1.4-1.4-2.3-6.6-3.6-9.4-2.2-13.9-4.7-13.9-12.5 0-7.3 6-12.3 15.4-12.3 6.6 0 11.4 1.6 15.5 4.5l-5.2 8.5c-3.4-2.3-6.9-3.7-10.9-3.7-3.2 0-4 1-4 2.4 0 1.5 1.4 2.1 6.4 3.3 9.8 2.3 14.1 5.3 14.1 12.6 0 9-6.7 12.6-16.1 12.6"/><path d="m392.5 293.9v-39h29.8v9.1h-19.1v5.2h11.5v9h-11.5v6.7h19.5v9.1h-30.2z"/><path d="m460.4 293.9v-39h10.9v29.6h17.3v9.4z"/><path d="m522.7 293.9v-39h10.9v29.6h17.3v9.4z"/><path d="m584 293.9v-39h29.8v9.1h-19.1v5.2h11.5v9h-11.5v6.7h19.5v9.1h-30.2z"/><path d="m671.7 293.9-6.3-13.1h-4.3v13.1h-10.6v-39h17.4c9.1 0 15.2 3.4 15.2 12.7 0 5.8-2.7 9.5-7 11.4l7.8 14.9zm-4.1-30.1h-6.5v8.5h6.3c3.5 0 4.9-1.6 4.9-4.3 0-2.5-1.3-4.2-4.7-4.2"/></g><g fill="#cd1f45"><path d="m350.8 197.2v48h-17.6v-48h-17.7v-15.3h53v15.3z"/><path d="m384.5 245.2v-63.3h17.9v41.7 21.7h-17.9z"/><path d="m448.8 246.2c-18.8 0-28.9-13.9-28.9-32.7 0-20.4 11.9-32.7 29-32.7 15.6 0 21.7 6.7 26.1 18.6l-15.9 6.2c-2.3-5.9-4.4-9.6-10.2-9.6-7.3 0-10.5 7.3-10.5 17.4 0 9.7 3.1 17.4 10.7 17.4 5.5 0 7.9-3 11.3-9l14.8 7.9c-4.3 8.5-11.4 16.5-26.4 16.5"/><path d="m530.9 245.2-13.2-27-6.5 7.9v19.1h-17.9v-63.3h17.9v7.4c0 5.3-.1 11-.3 15.7 2.6-4.2 8.1-11.5 12.2-16.6l5.1-6.4h21.4l-19.1 22.3 21.3 41h-20.9z"/><path d="m568.6 245.2v-63.3h48.5v14.7h-31.1v8.4h18.7v14.6h-18.7v10.9h31.8v14.7z"/><path d="m668 197.2v48h-17.6v-48h-17.7v-15.3h53v15.3z"/></g><path d="m314.6 304.7h371.1v6.2h-371.1z" fill="#231f20"/><g fill="#cd1f45"><path d="m366.4 333.6c12.6 4 16 17.6 17.8 29.1.5 13 .7 27.2-10.6 36.1-4.2 3.8-8.7 9-13.5 12.4-10.4-5.5-25.1-6.1-36.9-3 4.5-4.2 9.7-6.9 15.1-9.1 3.6-5 2-10 1.7-16-1.2-12.3-4.9-27.6 5.2-37.3.8-1.1 1.7-1.8 2.5-3-10.6 0-21.8-6.2-26.3-15.9l-.8-2c12.5 9.4 31.5 4 45.8 8.7m295.8-8.1-9 7 2.4.8c2.4 1.6 3.3 4.4 3.6 7l-.3 10.3c-2-1.2-3.7-3-5.9-3.7 0 0-9.3 7.3-9.3 7.3-7.1 9.5-8.2 24.3-3.8 35 2.8 4.6 6.9 9.5 12.5 9.2l7.7-7.7.9.9c1 3.4 3.8 6.1 7.4 6.6l7.7-7-2.7-.7c-1.5-.9-3-2.4-3.4-4.1l-.7-49.9-.7-4.6c-1-2.9-3.5-5.4-6.4-6.4m-113.7.5-9.2 7c5.1.9 5.8 5.3 5.7 8.7l.4 48c.8 4 2.9 8.5 7.3 9.3l8.1-6.9c-1.8-.9-4.1-2-4.6-4.4-1.2-18 .3-37.7-1.3-55-.8-2.9-3.5-5.7-6.4-6.7m-153.3 6.6-7.8 5.9v.7c1.7 2.6 4.5 5.2 8.1 4.6 4-.4 7.8-3.7 9.5-7.3-1.6.7-3.6.1-5.2-.3-1.8-.6-3.1-2.6-4.6-3.6m-42.1 10.7c-4.8 5.4-1.9 14.1-2 20.6-.5 10.8 5.3 25.1-4.9 33.3 2.1.7 4.6 0 7.1.5 4.6.3 8.6 2.1 12.9 3.2 4.2-3.2 5.6-8.3 6.4-13.4.1-11.8 0-25.8-5.3-36.9-2.7-5.2-8.4-7.4-14.2-7.3m226.9 3.6s-10.8 6.9-10.8 6.9c-9.1 9.6-8.7 25-5.3 36.6 2.1 4 5.8 8.1 10.3 8.7l8.9-7.4c.6.5.9 1.2 1.1 2 1.6 2.8 4.6 4.9 7.7 4.9l7.1-6.7c-1.4-.3-2.9-.7-4.1-1.7-1.1-1.1-1.7-2.4-2-3.7l-.5-27.5c-1.2-6.5-6.5-10.4-12.4-12.1m26 .1-8.1 6.5c1.2 1.2 3.4 2.1 3.8 4.2l.1 16.1.2 14.6c.4 6.8 2.4 9.5 5.9 10.4l7.9-7.1c-1.5-.5-3.1-1.8-3.3-3.6l-.3-29.5 4.9-3.5c.5-.1 1 0 1.6.2 1.2 1.1 2.1 2.5 2.5 4l.1 27.4c.1 6.6 2.3 10 6.5 11.9l8.3-7-1.6-.5c-2-1-3.1-3-3.1-5l-.5-29.7c0-3.6-5.2-7.9-9.5-9.2-.1.2-9.8 7.3-9.8 7.3-1.2-3-2.5-5.8-5.6-7.5m-183.4.1-12.2 8.7c-2.6 2.3-3 6.7-2.9 9.7.1 11 13 10.8 19 16.9 1.5 2.4 1.7 5.5 1.1 8.3-.4 1-1.5 1.8-2.6 1.8-3.4-.1-6.2-2.8-7.7-5.7-.9-1.7-1.1-2.3-1.4-4 0 0-7.9 6.5-7.8 6.2.3 1.4.7 2.5 1.5 4 2.6 4 7 6.7 11.8 6.5 0 .1 13.2-9.4 13.2-9.4 2-1.7 2.5-3.6 2.8-5.8 2.2-12.4-11.9-13.7-18.8-19.4-2.1-2.4-2.6-6.2-1.6-9.3.4-1.5 2-1.5 3.3-1.5 3.7.5 6.1 4.1 7.5 7.3.9 1.9 0 0 .9 1.9l7.6-5.5-.4-.9c-2.5-5.4-6.8-9.8-13.3-9.8m65 3.6c-10.2 5.7-12.7 17.6-11.8 27.6 0 8.6 5.2 16.7 12.6 20.1 7 4.1 11.7-4.3 16.3-8.1h-.1c-2.5.9-6.1.9-8.6 0-4.9-1.2-9.6-6.2-10-11.4l18.1-14.5c-3-6-5.8-11.5-9.5-17.3-2.4 1-4.6 2.4-7 3.6m-26.4-3.3-10.3 6.9c-1.3-2.2-2-5-4.6-6.6l-8.5 6.6c1.7 1.1 2.9 2.5 3.2 4.5l.4 32c.5 3.6 2.4 7.3 5.9 8.6l8.5-7c-1.5-.5-3-1.5-3.8-3-1.2-9-.4-21.5-.7-30.4l5-3.6c1.6.4 3.4 2 3.8 3.6.3 9.7.4 21.4.5 31.7.5 3.4 2.9 7.3 6.1 8.5l8.6-6.7v-.3c-2-.7-4.1-2.1-4.5-4.4v-14c-.1-.7-.3-2.1 0-2.6-.7-5.8.9-12.6-1.5-17.6-1.8-3-4.7-5.9-8.1-6.2m-65.4.3-8.7 6.6c2.4.5 3.7 3 4.1 5.2v13.9c1.7 8.9-3.6 21.3 6.1 26l8.7-6.7c-1.6-1.3-3.6-2.4-4-4.6-.8-9.9.1-21.5-.7-32.9-.4-3.3-2.4-6.4-5.5-7.5m115.7 0-8.2 6.5c1.8.7 3 2.6 3.6 4.2.8 11.1-.1 22.1 1.5 32.4 1.7 4 5.4 7.7 9.8 8.3 0 0 9.2-6.7 9.1-6.9 1.3 4.9 4 10 2.5 15.3-2 3.3-5.5 4.9-9.1 5.2-2.9-.5-6.6 0-8.2-3-1.6-1.9-.1-4.2.1-6.1l-7.3-6.2-1.5 1.4c-1.7 2.5-2.6 6.4-1.2 9.4 4.5 5.9 12.8 7.1 19.4 7.1 6.6-.7 14-2.8 17.1-9.2 1.3-9.6-2-17.9-1.4-28.4.6-11.5 3.4-22.7-6.4-30l-8.2 6.3c2.1.5 3 3.2 3.7 4.9.8 9.5 0 19.4 0 28.8 0 0-4.2 3.2-4.5 3.3-2.1-.8-4.5-3.3-4.8-5.8l-.1-23.4c.5-5.6-.8-10.8-5.9-14.1m69.8 11.1c2 7.1 1.2 16.7 1.1 25.6 0 .8 0 .9-.4 2l-3.8 3.1s-1.5 0-2.8-1.6c-5.4-6.1-4.5-15.5-4-23.7.3-3.4 1.2-6.6 2.4-9.6 2.9-.7 5.9 1.6 7.5 4.2m70.2-3.2c3.4 1.9 6.9 5 7.7 8.2v22.6l-3.5 3.7s-.2-.2-1.4-.7c-8.7-5.3-7.4-17.1-7.1-26.3.3-2.8.7-5.7 1.7-8.2 1 0 1.8.2 2.6.7m-157.4 11.4-8.9 7.4c-1.6-6.5-1.2-13.8 2.1-19.2 2.9 3.3 4.7 8 6.8 11.8"/><path d="m675.4 396c0-1.6 1.3-2.8 2.9-2.8s2.9 1.2 2.9 2.8c0 1.7-1.3 2.9-2.9 2.9s-2.9-1.2-2.9-2.9m2.9 2.4c1.3 0 2.3-1 2.3-2.4 0-1.3-1-2.4-2.3-2.4s-2.3 1-2.3 2.4 1 2.4 2.3 2.4m-.6-.7h-.5v-3.3h1.2c.8 0 1.2.3 1.2.9s-.4.8-.9.9l1 1.5h-.6l-.9-1.4h-.6v1.4zm.6-1.9c.4 0 .8 0 .8-.5 0-.4-.4-.5-.7-.5h-.7v1z"/><path d="m603.1 404.8h2.7c1.5 0 2.5.1 3 .3s1 .5 1.3.9.5.9.5 1.5c0 .5-.1.9-.4 1.3-.3.3-.8.6-1.5.9l1.8 3.8h-2l-1.7-3.4h-1.8v3.4h-2v-8.7zm2 1.5v2.3h1.6c.6 0 1.1-.2 1.5-.4.3-.2.4-.4.4-.8 0-.3-.1-.6-.5-.8-.3-.2-.8-.3-1.4-.3z"/><path d="m615.5 404.8h6.7v1.5h-4.8v1.9h2.9v1.3h-2.9v2.4h4.8v1.5h-6.7z"/><path d="m628.2 410.9c.3.4.7.7 1 .9s.7.2 1.1.2c.5 0 .9-.1 1.2-.3s.4-.5.4-.8-.1-.5-.3-.7-.8-.4-1.6-.6c-1.1-.2-1.9-.5-2.4-.9-.6-.5-.9-1-.9-1.7s.3-1.3.9-1.8 1.4-.7 2.5-.7c.6 0 1.1.1 1.6.2.5.2.9.4 1.2.7.2.2.4.4.6.7l-1.7.6c-.3-.3-.6-.6-.9-.8s-.6-.2-1-.2-.8.1-1.1.3-.4.5-.4.8c0 .2.1.4.3.6s.7.3 1.6.5 1.5.4 2 .6c.4.2.8.6 1 1s.3.8.3 1.2-.1.9-.4 1.3-.7.8-1.3 1-1.2.3-1.9.3-1.3-.1-1.8-.3-.9-.5-1.3-.8c-.2-.2-.5-.5-.7-.9z"/><path d="m642.4 404.6c1 0 1.7.1 2.3.4.8.4 1.3.9 1.7 1.5.4.7.6 1.5.6 2.6 0 1.5-.4 2.5-1.2 3.3-.8.7-1.9 1.1-3.2 1.1s-2.4-.4-3.2-1.1c-.8-.8-1.2-1.9-1.2-3.3 0-.9.2-1.7.5-2.3.2-.4.5-.8.8-1.1.4-.3.8-.6 1.3-.8s1.1-.3 1.6-.3m.2 1.5c-.7 0-1.2.2-1.7.7-.4.5-.7 1.2-.7 2.3 0 1 .2 1.8.7 2.3.4.5 1 .7 1.7.7s1.2-.2 1.7-.7c.4-.5.7-1.2.7-2.2 0-1.2-.3-2-.8-2.4-.4-.5-.9-.7-1.6-.7"/><path d="m651.9 404.8h2.7c1.5 0 2.5.1 3 .3.6.2 1 .5 1.3.9s.5.9.5 1.5c0 .5-.1.9-.4 1.3-.3.3-.8.6-1.5.9l1.8 3.8h-2l-1.7-3.4h-1.8v3.4h-2v-8.7zm2 1.5v2.3h1.6c.6 0 1.1-.2 1.5-.4.3-.2.4-.4.4-.8 0-.3-.1-.6-.4-.8s-.8-.3-1.4-.3z"/><path d="m663.4 404.8h7.6v1.5h-2.8v7.1h-2v-7.1h-2.8z"/></g></svg>