<svg xmlns="http://www.w3.org/2000/svg" viewBox="0 0 250 240.3" style="enable-background:new 0 0 250 240.3"><g style="opacity:.1"><path d="m24.7 57.1c0-2.2 1.8-4 4-4h189.9c2.2 0 4 1.8 4 4v145.3c0 2.2-1.7 4.6-3.8 5.3l-91.4 32.7c-2.1.7-5.4.7-7.5-.1l-91.5-35.6c-2.1-.8-3.7-3.2-3.7-5.4v-142.2"/></g><path d="m230.7 32.5l-19.7 6.3c-1.2 0-2.2-1-2.2-2.2l6-19.1c.5-1.7-.1-3.6-1.6-4.5-12.9-8.4-28.3-13.2-44.9-13-44.8.6-80.3 37.3-79.5 82.1.8 43.8 36.6 79.1 80.6 79.1 44.5 0 80.6-36.1 80.6-80.6 0-17.4-5.5-33.4-14.8-46.6-1-1.4-2.8-2-4.5-1.5" style="fill:#74b780"/><path d="m52.1 11.7l.3 20.7c-.4 1.2-1.6 1.9-2.8 1.5l-16.5-11.2c-1.5-1-3.4-.9-4.8.3-11.7 9.9-20.7 23.3-25.2 39.2-12.3 43.1 12.7 87.7 55.9 99.7 42.2 11.8 86.3-12.4 98.9-54.6 12.7-42.6-11.5-87.5-54.2-100.3-16.6-5-33.6-4.3-48.9.9-1.6.6-2.7 2.1-2.7 3.8" style="fill:#8ccc9b"/><path d="m24.7 49.8c0-2.2 1.8-4 4-4h189.9c2.2 0 4 1.8 4 4v145.3c0 2.2-1.7 4.6-3.8 5.3l-91.4 32.7c-2.1.7-5.4.7-7.5-.1l-91.5-35.6c-2.1-.8-3.7-3.2-3.7-5.4v-142.2" style="fill:#009c93"/><g style="fill:#fff"><path d="m38.1 98.1v-.9h10.1c0 .6 0 1.1 0 1.5s.1.9.1 1.6c.1.6.2 1.2.3 1.6.2.4.4.9.6 1.3.3.4.6.8 1 1s.9.3 1.5.3 1.1-.2 1.5-.5c.5-.3.8-.7 1.1-1.1s.5-1 .7-1.8c.2-.7.3-1.4.4-2 .1-.6.2-1.3.2-2.2 0-.9.1-1.5.1-2 0-.4 0-1 0-1.7 0-.3 0-.5 0-.6v-1.3c-1.8 1-3.8 1.5-5.9 1.5-8.4 0-12.5-5.4-12.5-16.2 0-1.9.2-3.7.5-5.4.3-1.7.8-3.4 1.6-5 .7-1.6 1.6-3 2.7-4.2 1.1-1.2 2.4-2.1 4.1-2.8 1.6-.7 3.5-1.1 5.5-1.1s3.8.4 5.4 1.1c1.6.7 3 1.7 4.1 2.9s2 2.6 2.8 4.2 1.3 3.3 1.6 5 .5 3.5.5 5.3v16.6c0 2-.1 4-.4 5.8-.2 1.8-.7 3.6-1.4 5.4-.7 1.8-1.5 3.4-2.6 4.6-1 1.3-2.4 2.3-4.1 3.1-1.7.8-3.7 1.2-5.9 1.2-2.3 0-4.3-.4-6-1.2-1.7-.8-3.2-1.9-4.3-3.2-1.1-1.4-1.9-3-2.5-4.8-.4-1.8-.8-3.8-.8-6m17.8-16.2v-7c0-.8 0-1.6-.1-2.3-.1-.8-.3-1.6-.5-2.4-.3-.9-.7-1.6-1.3-2.2-.6-.5-1.3-.8-2.1-.8-.6 0-1 .1-1.5.4-.4.2-.8.5-1.1.9-.3.3-.5.8-.7 1.4s-.3 1.1-.4 1.6c-.1.5-.2 1-.2 1.7s-.1 1.2-.1 1.6c0 .3 0 .8 0 1.4s0 1.1 0 1.4 0 .8.1 1.5.1 1.2.2 1.6.2.8.4 1.4c.2.5.4.9.7 1.2.3.3.6.6 1.1.8.4.2.9.3 1.5.3.8 0 1.5-.2 2.3-.7.6-.5 1.2-1.1 1.7-1.8"/><path d="m71.2 96.9v-21.9c0-2.4.3-4.5.8-6.5.6-2 1.4-3.7 2.5-5.3s2.6-2.7 4.5-3.6c1.9-.9 4-1.3 6.5-1.3 2.4 0 4.6.4 6.5 1.3 1.9.9 3.4 2.1 4.5 3.6 1.1 1.5 2 3.3 2.5 5.3s.8 4.1.8 6.5v22c0 2.3-.3 4.4-.9 6.4s-1.5 3.7-2.6 5.3c-1.2 1.5-2.7 2.8-4.5 3.7-1.9.9-4 1.3-6.3 1.3-2.4 0-4.5-.4-6.4-1.3s-3.4-2.1-4.5-3.6-2-3.3-2.6-5.3c-.5-2.2-.8-4.3-.8-6.6m18.4 0v-21.9c0-5.1-1.3-7.7-4-7.7-.7 0-1.4.2-1.9.6s-.9.8-1.2 1.3c-.3.5-.5 1.2-.6 1.9-.1.8-.2 1.4-.3 2 0 .5 0 1.2 0 1.9v22c0 .6 0 1.2.1 1.8.1.6.2 1.2.3 2 .2.7.4 1.4.7 1.9.3.5.7 1 1.2 1.4s1.1.6 1.8.6c.8 0 1.5-.3 2.1-.8s1-1.2 1.2-2.1c.3-.9.4-1.7.5-2.4s.1-1.7.1-2.5"/><path d="m148.3 112.5l11.5-53.3h9.5l11.5 53.3h-10.6l-2.2-11.4h-7l-2.1 11.4h-10.6m13.5-18h5.5l-2.7-19.8-2.8 19.8"/><path d="m189.8 112.5v-17.6l-10-35.7h10.2l5 23.4c.6-2.6 1.5-6.5 2.8-11.7 1.2-5.2 2.1-9.1 2.7-11.7h9.9l-10 35.7v17.6h-10.6"/><path d="m117.7 112.5v-53.3h11.1c3.6 0 6.5.3 8.8 1 2.3.6 4.1 1.7 5.4 3.2 1.3 1.5 2.2 3.2 2.7 5.3.5 2.1.8 4.7.8 7.8v17.5c0 1.9-.1 3.5-.2 5-.1 1.4-.3 2.8-.7 4.1-.3 1.4-.8 2.5-1.3 3.4-.6.9-1.3 1.8-2.2 2.6-.9.8-2 1.5-3.2 1.9-1.3.5-2.7.8-4.4 1.1-1.7.3-3.6.4-5.8.4h-11m11.2-7.5c1 0 1.8 0 2.4 0 .6 0 1.2-.1 1.8-.2s1-.3 1.3-.5.5-.5.8-.9c.2-.4.4-.9.5-1.4s.1-1.2.1-2v-28.8c0-1.8-.5-2.9-1.6-3.5-1-.6-2.8-.9-5.3-.9v38.2"/></g><g style="fill:#a6ffe4"><path d="M69.2,161.6v-33h-5.7v-5.9h19.2v5.9H77v33H69.2z"/><path d="m85.2 161.6v-38.9h7.9v38.9h-7.9"/><path d="m97.2 148.6v-12.9c0-9.2 3.8-13.8 11.3-13.8 1.6 0 3 .2 4.2.6s2.3 1 3.1 1.8c.8.7 1.5 1.7 2.1 2.8.5 1.1.9 2.3 1.2 3.6.2 1.3.4 2.7.4 4.2v3.3h-7.7v-3.6c0-.7 0-1.3 0-1.8s-.1-1.1-.2-1.8-.3-1.2-.5-1.6c-.2-.4-.5-.8-.9-1-.4-.3-.9-.4-1.5-.4-2.3 0-3.4 1.9-3.4 5.7v16.8c0 3.8 1.1 5.7 3.4 5.7.7 0 1.2-.2 1.7-.6.5-.4.8-.9 1-1.7.2-.7.3-1.4.4-2.1.1-.7.1-1.5.1-2.3v-4h7.7v3.3c0 1.5-.2 2.9-.4 4.1-.2 1.3-.6 2.5-1.1 3.6s-1.2 2.2-2 3-1.8 1.5-3.1 2c-1.3.5-2.7.7-4.4.7-1.7 0-3.2-.2-4.5-.7s-2.4-1.1-3.2-1.9c-.8-.8-1.5-1.8-2.1-3-.5-1.2-.9-2.4-1.2-3.7-.3-1.3-.4-2.8-.4-4.3"/><path d="m123.1 161.6v-38.9h7.9v14.7l6.1-14.7h8.8l-7.9 15.9 8.5 23h-8.2l-5.9-17.8-1.4 3.7v14.1h-7.9"/><path d="m147.9 161.6v-38.9h16.2v5.4h-8.4v10.6h5.9v5.5h-5.9v12h8.4v5.4h-16.2"/><path d="m170.6 161.6v-33h-5.7v-5.9h19.1v5.9h-5.6v33h-7.8"/><path d="m65.4 198.6v-28.8h6.3c1.4 0 2.7.1 3.8.4 1.1.3 2.1.7 2.9 1.3s1.4 1.4 1.9 2.4c.4 1 .6 2.2.6 3.5 0 .6 0 1.1-.1 1.6 0 .5-.1 1-.3 1.6-.2.6-.4 1.1-.6 1.6-.3.5-.7.9-1.2 1.4-.5.4-1.1.8-1.8 1.1 1.7 5.5 3.2 10.1 4.5 13.9h-6l-3.3-13.3h-1v13.3h-5.7m5.8-16.8h1.7c.4 0 .8-.1 1.2-.4.3-.3.6-.7.7-1.1.1-.5.2-.9.3-1.3.1-.4.1-.7.1-1.1 0-.3 0-.7-.1-1.1 0-.4-.1-.8-.3-1.2-.1-.4-.3-.8-.6-1.1s-.6-.4-1-.4h-1.9l-.1 7.7z"/><path d="m83.3 198.6v-28.8h12v4h-6.2v7.8h4.4v4.1h-4.4v8.9h6.2v4h-12"/><path d="M100.2,198.6v-24.4H96v-4.4h14.2v4.4H106v24.4H100.2"/><path d="m111.9 187.9v-18.1h5.8v17.9c0 1 0 1.8 0 2.2 0 .5 0 1 .1 1.7 0 .7.1 1.1.2 1.4.1.3.3.6.4.9.2.3.4.5.7.6.3.1.7.1 1.1.1s.8 0 1.1-.1c.3-.1.5-.3.7-.6s.3-.6.4-.9c.1-.3.2-.7.2-1.4s.1-1.2.1-1.7 0-1.2 0-2.2v-.1-17.9h5.8v18.1c0 .9 0 1.7-.1 2.5-.1.7-.2 1.5-.3 2.3-.1.8-.4 1.5-.6 2.1-.3.6-.6 1.2-1 1.8s-.9 1-1.5 1.4-1.3.7-2.1.9c-.8.2-1.7.3-2.8.3-1 0-1.9-.1-2.8-.3s-1.5-.5-2.1-.9-1.1-.8-1.5-1.4c-.4-.6-.8-1.1-1-1.8-.3-.6-.5-1.3-.6-2.1-.2-.8-.3-1.6-.3-2.3.2-.6.1-1.5.1-2.4"/><path d="m132 198.6v-28.8h6.3c1.4 0 2.7.1 3.8.4 1.1.3 2 .7 2.9 1.3.8.6 1.4 1.4 1.9 2.4.4 1 .6 2.2.6 3.5 0 .6 0 1.1-.1 1.6 0 .5-.1 1-.3 1.6s-.4 1.1-.6 1.6c-.3.5-.7.9-1.2 1.4-.5.4-1.1.8-1.8 1.1 1.7 5.5 3.2 10.1 4.5 13.9h-6l-3.3-13.3h-1v13.3h-5.7m5.8-16.8h1.7c.4 0 .8-.1 1.2-.4.3-.3.6-.7.7-1.1.1-.5.2-.9.3-1.3.1-.4.1-.7.1-1.1 0-.3 0-.7-.1-1.1 0-.4-.1-.8-.3-1.2-.1-.4-.3-.8-.6-1.1s-.6-.4-1-.4h-1.9l-.1 7.7z"/><path d="m150 198.6v-28.8h4.2l6.3 15.1v-15.1h4.8v28.8h-4l-6.3-16v16h-5"/><path d="m167.7 190.4l5.9-1.1c0 .6 0 1.1 0 1.6 0 .4.1.9.2 1.5.1.5.2 1 .4 1.3s.4.6.7.8.6.3 1 .3c1.2 0 1.7-.7 1.7-2.2 0-2-1.1-4-3.4-6l-1.8-1.5c-.6-.5-1-.9-1.4-1.2-.3-.3-.7-.8-1.2-1.3s-.8-1.1-1.1-1.6-.5-1.1-.7-1.8-.3-1.5-.3-2.3c0-2.3.7-4.2 2.2-5.5 1.5-1.4 3.5-2 5.9-2 2 0 3.8.7 5.2 2.2s2.1 3.2 2.1 5.2v.2c0 .1 0 .3 0 .5l-6 .8c0-.1 0-.3 0-.6s0-.5 0-.6c0-.4 0-.8-.1-1.1-.1-.4-.1-.7-.3-1.1-.1-.4-.3-.6-.6-.8s-.6-.3-.9-.3c-.6 0-1.1.3-1.4.8-.3.5-.5 1.1-.5 1.8 0 .6.1 1.2.3 1.7s.5 1 .8 1.5c.4.5.7.8 1 1.1s.7.7 1.3 1.1c.5.4.9.8 1.1 1 .8.7 1.5 1.4 2.1 2s1.1 1.4 1.6 2.2.9 1.7 1.1 2.6c.3.9.4 1.9.4 3 0 2-.7 3.7-2.2 5-1.4 1.3-3.2 1.9-5.2 1.9-1.3 0-2.5-.2-3.6-.7-1-.5-1.9-1.2-2.5-2s-1.1-1.8-1.5-2.8c0-1.4-.2-2.5-.3-3.6"/></g></svg>