<svg xmlns="http://www.w3.org/2000/svg" viewBox="0 0 2250 1221" style="enable-background:new 0 0 2250 1221"><path d="m2252.9 769c-22.5 0-44.9 0-67.8 0 0 61.8 0 123.1 0 184.6-22.8 0-45.1 0-68 0 0-61.3 0-122.6 0-184.3-22.9 0-45.3 0-68 0 0-19.9 0-39.3 0-59.4 67.9 0 135.8 0 203.7 0 .1 19.8.1 39.4.1 59.1" style="fill:#d21245"/><path d="m876.9 0c7.9 6.1 15.6 12.4 23.7 18.3 1.8 1.3 4.9 1.8 7 1.2 8.2-2.3 16.2-5.1 24.2-7.7 1.2-.4 2.4-.6 4.7-1.2-3.3 9.5-6.2 18.3-9.6 26.9-1.5 3.9-1.1 6.7 1.4 10 5.7 7.4 11 15 16.8 23.1-7.4 0-14.4.8-21-.2-9.5-1.5-16 .8-20.7 9.7-3.3 6.2-8.2 11.5-13 18.1-3.1-10.4-6-19.7-8.6-29.1-.8-3-2.2-4.6-5.4-5.6-9.3-2.8-18.5-6-28.8-9.4 8.8-6 16.6-11.6 24.6-16.8 2.9-1.9 3.9-3.9 3.8-7.3-.3-10-.2-19.9-.3-29.9.6-.1.9-.1 1.2-.1" style="fill:#fcb816"/><path d="m2252.9 603c-.5 1.1-1.1 2.2-1.5 3.3-3.1 7.8-10.9 12.1-19.3 10.4-7.6-1.5-13-8.1-13-16-.1-8.3 5.4-14.7 13.8-16.3 7.7-1.5 15.3 2.8 18.4 10.3.5 1.1 1.1 2.2 1.7 3.2-.1 1.8-.1 3.4-.1 5.1m-8.8 7.3c5.7-5.1 6.2-13.2 1.3-18.7-4.7-5.3-13.1-5.8-18.4-1.1-5.4 4.8-5.8 13.9-.8 19.3 4.8 5.2 12.1 5.6 16.5 1.5-3-3.3-5.9-6.5-8.9-9.7-1.3 2.5-1.1 4.2-1.4 5.8-.2 1-1.2 1.8-1.8 2.8-.5-.9-1.4-1.8-1.4-2.7-.1-5.3-.1-10.5-.1-17.7 5.3 1.7 9.7 2.7 13.5 4.8.7.4-1.3 5.6-2 8.5-.5-.1-.9-.1-1.4-.2 1.7 2.4 3.3 4.9 4.9 7.4m-11.4-10.4c2.9-1 5-1.7 7.1-2.4-.5-1.1-.7-2.9-1.4-3.1-1.7-.6-3.7-.4-5.7-.5 0 2 0 3.3 0 6" style="fill:#d31a49"/><path d="m233.9 1221c.1-1-.1-2.1.3-2.9 4.5-7.5 3-14.6-.3-22.1-3.2-7.3-5.5-14.9-8.3-22.7 1.9 0 3.5 0 5.3 0 3.1 9.2 6.2 18.4 9.8 28.8 3.1-9.1 5.9-17 8.4-25 1.1-3.6 2.9-4.9 6.6-3.5-5.3 14.5-10.6 29-15.9 43.5-.5 1.3-.5 2.7-.8 4-1.7-.1-3.4-.1-5.1-.1" style="fill:#2f2c2e"/><path d="m3.1 954.1c0-35.1-.1-70.2-.2-105.3 0-35.9.1-71.8.2-107.8 0-1.8.1-3.7.2-5.5.1-7.5.4-14.9.4-22.4.1-21.9-.1-22.2 18.9-33.2 32.8-19.1 67.6-26 104.6-14.6 49.4 15.2 79 59.6 84.8 109.7 1 8.7 1.1 17.4 1.6 26.5 59.6-63.8 132.7-90.4 219.2-80.5-.2-.9-.1-1.3-.3-1.6-.7-.9-1.5-1.8-2.3-2.7-25.8-30.7-40.1-65.3-36.3-106.1 2.6-27.6 14-51.5 34-70.5 34-32.3 75.5-42.2 121-36.8 38.1 4.5 71.8 19.8 100.1 45.8 34.1 31.4 53.9 69.5 51.1 117-1.9 31.5-15.4 57.7-38.8 78.5-24.8 21.9-54.4 32.1-87.3 33.6-5.1.2-10.1.5-15.5.8.5.9.5 1.1.6 1.2 58.8 54.4 86.3 121.4 81.1 201.5-2.8 42.1-16.1 80.9-40 115.6-10.4 15.1-23.3 28.5-35.1 42.7-1.9.3-3.9.9-5.8.9-107.9 0-215.9.1-323.8-.1-2.9 0-6.4-1.6-8.6-3.7-23.2-22.5-41.2-48.8-53.8-78.6-9.4-22-15.7-44.8-18-68.7-.3-2.3-.5-4.6-.8-6.9-.1-1.1-.1-2.1-.2-3.2 0-11.2 0-22.5 0-33.7.1-1.1.1-2.1.2-3.2.3-2.6.6-5.2.9-7.8.1-.7.1-1.5.2-2.2-.3-1.9-.6-3.8-.9-5.6-4.6 3.9-8.9 8-13.7 11.5-19.7 14.3-40.9 24.1-64.9 27.3-1.6.2-3.3.5-4.9.7-1.5.1-3 .3-4.4.4-22.4 1.5-43.5-2.9-63.5-13" style="fill:#231f20"/><path d="m565 1140.1c11.8-14.2 24.7-27.6 35.1-42.7 23.9-34.7 37.2-73.5 40-115.6 5.3-80.1-22.2-147.1-81.1-201.5-.1-.1-.2-.3-.6-1.2 5.4-.3 10.4-.5 15.5-.8 32.8-1.5 62.5-11.7 87.3-33.6 23.5-20.8 36.9-47 38.8-78.5 2.9-47.6-17-85.7-51.1-117-28.3-26-62-41.3-100.1-45.8-45.5-5.4-87 4.5-121 36.8-20 19-31.4 42.8-34 70.5-3.9 40.8 10.5 75.4 36.3 106.1.8.9 1.6 1.7 2.3 2.7.2.2.1.6.3 1.6-86.5-9.9-159.6 16.7-219.2 80.5-.5-9.1-.6-17.8-1.6-26.5-5.8-50.1-35.4-94.5-84.8-109.7-37-11.4-71.8-4.5-104.6 14.6-19 11-18.8 11.3-18.8 33.2 0 7.5-.3 14.9-.4 22.4-.1-15.7-.3-31.3-.3-47 0-97.3 0-194.7 0-292 0-1.6 0-3.3 0-5.4 120 0 239.6 0 359.2 0-.6 1-1 2.1-1.8 2.9-12.9 12.6-25.8 25.1-38.6 37.6-2.3 2.2-4.4 4.6-7 7.2 1.5.5 2.1.8 2.7.9 19.6 2.8 39.2 5.5 58.7 8.5 2.5.4 5.7 2.3 6.8 4.4 6.2 11.8 11.9 23.8 17.7 35.8 3.4 6.8 6.8 13.6 10.4 21 .8-1.2 1.4-1.9 1.7-2.5 8.8-17.9 17.7-35.8 26.4-53.8 1.5-3.1 3.5-4.5 6.7-4.9 10.2-1.3 20.4-2.8 30.6-4.3 10.3-1.5 20.6-3 30.6-4.5-5.2-5.6-10.1-11.2-15.3-16.5-10.5-10.7-21.1-21.2-31.6-31.8 95.5 0 190.9 0 286.4.1 2 0 3.9 0 6.5 0 0 2.2 0 3.9 0 5.7 0 246.2 0 492.5 0 738.7 0 1.8-.3 3.6-.5 5.4-60.6 0-121.3 0-181.9 0-1.9-.1-3.8-.7-5.7-1m-248.8-442.1c-.5-10.5 0-20.1-1.8-29.3-1.9-9.8 2.1-15 9.5-19.9 7.6-5.1 14.6-11.3 22.5-17.5-12.6-3.3-24.2-6.1-35.7-9.4-2.2-.6-4.8-2.9-5.6-5.1-4-9.9-7.4-20-11.1-30-.5-1.3-1.1-2.4-2-4.4-7 10.9-13.3 21.1-19.9 31-1.2 1.7-3.7 3.3-5.8 3.5-11.1.7-22.3.8-33.4 1.2-1 0-2.1.3-3.9.5 6.3 7.6 11.6 15.2 18 21.6 6.8 6.8 8.4 13.4 4.7 22.5-3.5 8.5-5.2 17.7-7.9 27.4 11.4-4.5 21.9-8.2 32-12.7 4.7-2.1 8.1-1.5 12.2 1.4 8.8 6.5 18.1 12.4 28.2 19.2" style="fill:#d21245"/><path d="m1754.8 139.1c4.2 15.1 8.1 29.4 12 43.6 4.9 17.8 9.8 35.6 14.5 53.5 1 3.7 2.7 5.5 6.3 6.7 30.1 10.3 60.1 20.8 90.1 31.2 1.4.5 2.7 1 4.9 1.9-11.4 7.5-22 14.5-32.6 21.5-17.4 11.4-34.7 22.9-52.2 34.2-2.6 1.7-3.7 3.5-3.8 6.8-.5 32.6-1.2 65.2-1.9 97.9 0 .8-.2 1.6-.4 3.2-9.4-7.5-18.2-14.5-26.9-21.5-17.3-13.8-34.6-27.6-51.8-41.6-2.6-2.1-4.8-2.6-8.1-1.6-30.2 9.3-60.5 18.3-90.8 27.5-1.6.5-3.2.9-5.6 1.6.7-2.2 1.1-3.9 1.7-5.5 11.2-29.6 22.3-59.1 33.6-88.7 1.3-3.3 1-5.7-1.1-8.6-17.7-25.2-35.2-50.6-52.8-75.9-1.3-1.9-2.6-3.8-4.1-6 7.3 0 14.2-.2 21 0 26.9 1.1 53.9 2.4 80.8 3.4 1.9.1 4.6-1.7 5.8-3.4 19.3-25.1 38.4-50.3 57.6-75.5 1-1.2 2.2-2.6 3.8-4.7" style="fill:#fcb714"/><g style="fill:#d21345"><path d="m1581 795.3c20.9-27.3 42.1-54.9 63.4-82.4 1.1-1.4 3.1-2.7 4.7-2.7 26.3-.2 52.6-.1 80-.1-3.5 4.2-6.5 7.9-9.6 11.5-20.1 23.6-40.2 47.2-60.5 70.6-2.7 3.1-2.9 5.4-1.1 9 26 49.7 51.8 99.5 77.6 149.2.5 1 .9 2 1.7 3.7-2.1 0-3.5 0-4.9 0-23.7 0-47.3-.1-71 .1-3.3 0-5-.9-6.4-3.9-15.4-31.7-30.9-63.4-46.5-95.1-.6-1.3-1.3-2.6-2.3-4.5-8.2 9.9-16.2 19.5-23.9 29.2-.9 1.1-.7 3.2-.7 4.8 0 21.2 0 42.3 0 63.5 0 1.8 0 3.6 0 5.7-23.2 0-46 0-69.1 0 0-81.1 0-162.1 0-243.4 22.8 0 45.6 0 68.6 0 0 28.4 0 57 0 84.8"/><path d="m1802.3 953.8c0-81.2 0-162.1 0-243.4 62.1 0 124.1 0 186.5 0 0 18.7 0 37.4 0 56.6-39.7 0-79.3 0-119.1 0 0 10.8 0 21.1 0 31.9 23.7 0 47.4 0 71.4 0 0 19 0 37.4 0 56.4-23.6 0-47.2 0-71.2 0 0 14 0 27.6 0 41.6 40.3 0 80.8 0 121.5 0 0 19.2 0 37.9 0 56.9-63 0-125.9 0-189.1 0"/></g><path d="m565 1140.1c1.9.3 3.8.8 5.8.8 60.6 0 121.3 0 181.9 0-1.8.2-3.5.6-5.3.6-169.9.1-339.9.1-509.8.1-76.3 0-152.6-.1-228.9-.1-1.6 0-3.3 0-5.3 0-.1-1.4-.3-2.5-.3-3.6 0-60.3 0-120.6 0-180.9 0-1 .1-2 .2-3 19.9 10.1 41.1 14.5 63.4 13 1.5-.1 3-.3 4.4-.4 1.6-.2 3.3-.5 4.9-.7 24-3.2 45.3-12.9 64.7-27.1 4.8-3.5 9.2-7.7 13.7-11.5.3 1.9.6 3.8.9 5.6-.1.7-.1 1.5-.2 2.2-.3 2.6-.6 5.2-.9 7.8-.1 1.1-.1 2.1-.2 3.2 0 11.2 0 22.5 0 33.7.1 1.1.1 2.1.2 3.2.3 2.3.5 4.6.8 6.9 2.3 23.9 8.6 46.7 18 68.7 12.7 29.8 30.6 56 53.8 78.6 2.1 2 5.7 3.7 8.6 3.7 107.9.2 215.9.2 323.8.1 1.9 0 3.8-.6 5.8-.9" style="fill:#d21546"/><g style="fill:#d21345"><path d="m1385.6 864.4c19 10.1 37.9 20.1 57.1 30.3-16.3 32.7-40.5 54.9-77.2 61.3-21.5 3.7-42.9 3-63.6-4.1-26.9-9.2-46.7-27-58-53-19.4-44.6-20-89.9.7-134 18.2-38.8 51.1-57.3 93.3-58.3 14.3-.3 28.9 1.7 42.9 4.9 19.1 4.3 34.1 15.8 44.4 32.5 6.6 10.7 11.8 22.2 18 33.9-21.7 8.5-42.1 16.5-62.4 24.5-2.9-6.1-5.4-11.9-8.3-17.5-6.6-12.6-16.9-19.6-31.3-19.5-14.6.1-24.8 7.5-31.4 20.2-5.5 10.7-7.6 22.3-8.4 34.2-1.3 18.2-.6 36.3 6.3 53.6 5.5 13.7 14.5 23.5 30 25.2 15.3 1.7 27.4-4.1 36.2-16.6 4-5.7 7.7-11.6 11.7-17.6"/><path d="m828.1 769.4c0-20.1 0-39.4 0-59 68 0 135.9 0 204.1 0 0 19.3 0 38.7 0 58.6-22.4 0-44.8 0-67.8 0 0 61.8 0 123.2 0 184.8-23 0-45.4 0-68.2 0 0-61.4 0-122.6 0-184.4-22.9 0-45.3 0-68.1 0"/></g><path d="m1058.8 587.7c-7.5 0-14.5-.2-21.4.1-1.6.1-4 1.7-4.6 3.2-2.8 6.9-5.2 14-7.5 21.1-1.1 3.5-1.9 6.9-6.6 6.7-4.6-.1-8.8-1.6-9.7-6.2-1.1-5.7-1.1-11.7-.9-17.5.1-2.5 1.4-5.2 2.7-7.4 3.6-6.3 1.6-11.4-3.2-16.3-3.5 5.8-6.9 11.6-10.5 17.2-10.5 16.1-25 27.6-42.3 35.4-25.6 11.5-47.7 4.5-63-18.8-8 1.1-15.7 3.3-23.3 3-19.7-.8-31.9-11.1-37.4-30.1-5.4-18.4-2.8-36.6 1.9-54.7 8-30.5 22.5-56.9 47.9-76.3 4.8-3.7 10.4-6.6 15.9-9.3 1.7-.8 4.3.2 6.5.5-.5 1.8-.5 3.9-1.5 5.4-2.2 3.1-4.7 6.1-7.3 8.8-32.1 33.6-45.9 73.8-42.9 119.8.3 5.2 2.6 10.7 5.4 15.3 5.2 8.8 16.3 11.3 25.5 6.8 2.7-1.3 3.9-2.7 3.1-6.1-3.8-17.5-6.2-35.1-3.4-53 3.6-22.6 20.9-41.5 41.9-45.7 9.4-1.9 16.1 1.1 20 9.8 9.3 20.2 7.7 40.3-4 58.6-7.2 11.2-17 20.8-26.2 30.6-2.8 3-2.9 5-.8 8 5.4 7.9 15 11.5 25.7 9 11-2.5 19.7-8.8 26.9-17.1 18.6-21.7 26.3-47.7 27.6-75.5 1.5-32-6.4-61.4-28.3-85.9-1.9-2.1-4.1-3.9-6-6-.8-1-1.1-2.4-1.7-3.7 1.3-.2 2.8-.8 4-.4 9.1 2.9 16.5 8.6 23 15.4 19.3 20.4 29 45.1 31.7 72.7 2.1 20.5.1 40.5-6.8 60-.2.4-.1 1-.1 1.5 8.3 2.2 7.8 1.9 12.1-5.4 8.6-14.6 17.8-28.8 26.8-43.1.7-1.1 1.8-2.2 1.9-3.3.5-3.5 2.6-4.6 5.8-4.9 3.5-.3 5.1 1.5 6.2 4.5 6.8 17.1 11.1 34.9 12.8 53.2 1.3 13.9 1.6 27.9 2.2 41.9.1 1.8-.8 3.7-1.3 5.6-2-.5-4.3-.6-6-1.7-7.2-4.4-9.8-11.4-10.2-19.5-.1-2-.4-3.8-.6-6.2m-152.7-15.1c.5.1 1 .2 1.5.3.5-.6 1.1-1.1 1.6-1.8 12.9-16.1 18.4-34.8 18.6-55.1 0-4.2-1.3-8.5-2.8-12.5-1.8-4.7-3.7-4.9-6.4-.8-2.3 3.4-4.7 7.1-5.6 11-2.7 11.4-5.2 23-6.7 34.6-1 8-.2 16.2-.2 24.3m135.6-5.4c5.2-.5 9-.7 12.6-1.3 1-.2 2.7-1.6 2.6-2.3-.7-6.2-1.8-12.3-2.8-18.5-.6 0-1.3 0-1.9 0-3.2 6.8-6.5 13.6-10.5 22.1" style="fill:#d31646"/><path d="m1162.4 953.8c-23.1 0-45.8 0-68.8 0 0-81.3 0-162.3 0-243.6 23 0 45.8 0 68.8 0 0 81.1 0 162.1 0 243.6" style="fill:#d31546"/><path d="m1293.9 622.9c-2.2 12.4-4.8 12.6-14 12.9-2 .1-5.1-1.6-5.9-3.3-2.2-4.4-3.9-9.2-4.7-14-.6-3.6-2.1-5.3-5.2-6.9-16.9-9-32.3-19.9-45.4-33.9-2.3-2.4-4.3-5.1-6.1-7.9-6.1-9.5-4.8-16.5 4.2-23.4 12.2-9.4 26.7-13.3 41.5-16.2 11.6-2.3 11.4-2.3 12.7-14 1-8.9 2.1-17.8 3.8-26.6.5-2.7 3.2-5 4.9-7.5 2.9 2.1 7.5 3.6 8.3 6.3 2.4 7.5 3.4 15.5 4.5 23.3.6 4.4.1 9 .1 13.8 10.2.6 19.8.9 29.4 1.7 12.2 1 24 3.6 34.7 10 2.4 1.4 4.8 3.1 6.9 4.9 7.1 6 8.9 13.9 4.8 20.9-5.7 9.7-15.6 14.2-24.2 11-1.2-.5-2.2-1.3-5.2-3.1 5.3-3.9 9.9-7.3 14.4-10.6-.4-.7-.9-1.4-1.3-2.1-18.6-7.9-38.3-11.3-59.1-11.9 0 5.3 0 10.2 0 15.1.1 12.7.4 25.3.1 38-.1 4.3 1.5 6.3 5.4 6.6 9.6.8 19.3 2.6 28.8 1.7 14.5-1.3 29.4-2.8 43.1-7.3 36.7-12 41-42.7 26.9-69.8-7.8-15-19.6-26.4-33-36.3-42.4-31.3-89.6-49.4-142.7-50.1-12.1-.2-24.1 1.9-36.2 3-1.1.1-2.1.8-4.1 1.5 3.6 1 6.4 1.5 9 2.6 1.2.5 2 2 2.9 3.1-1.1.9-2.1 1.9-3.2 2.6-.7.4-1.6.5-2.4.6-7.4.9-15.1-1.2-16-4.4-1.4-5.3 6.4-17.1 13.3-18.9 8-2.2 16.2-4 24.4-5.1 45-5.9 86.9 5 127 24.4 29.6 14.3 56 32.9 76.1 59.3 8.4 11 14.6 23 16.7 36.9 3 20.3-5 36.4-19.1 50.1-17.7 17.1-39.6 24.5-63.5 27.1-16.4 1.7-32.6-.1-48.6-3.4-1.5-.2-2.6-.4-4-.7m-25.5-75.6c-8.6 1.1-17.2 1.7-25.7 3.3-7.8 1.5-15.4 3.9-23 6.3-4.2 1.4-5.5 4.1-1.9 7.8 2.4 2.5 4.6 5.3 7.1 7.7 12.2 11.5 26.6 18.9 43.5 24 0-16.4 0-32.2 0-49.1" style="fill:#d31647"/><path d="m460.2 391.1c10.5 10.6 21.2 21.1 31.6 31.8 5.2 5.3 10.1 10.9 15.3 16.5-10 1.5-20.3 3-30.6 4.5-10.2 1.5-20.4 2.9-30.6 4.3-3.2.4-5.2 1.8-6.7 4.9-8.7 18-17.6 35.9-26.4 53.8-.3.7-.9 1.3-1.7 2.5-3.7-7.3-7.1-14.1-10.4-21-5.9-11.9-11.5-24-17.7-35.8-1.1-2.1-4.3-4-6.8-4.4-19.5-3.1-39.1-5.7-58.7-8.5-.6-.1-1.2-.4-2.7-.9 2.6-2.6 4.7-5 7-7.2 12.9-12.5 25.8-25.1 38.6-37.6.8-.8 1.2-1.9 1.8-2.9-2.2-14.1-4.4-28.1-6.7-42.2-1.2-7.5-2.5-15-4-23.8 2.7 1.3 4.6 2.1 6.4 3 16.3 8.6 32.7 17.1 48.9 25.9 3.3 1.8 5.7 1.9 9.1.1 16.8-9.1 33.8-17.8 50.8-26.7 1.2-.6 2.4-1.1 4.7-2.2-3.9 22.6-7.6 44.3-11.2 65.9" style="fill:#fcb714"/><path d="m2158.3 1141.2c-14.2 0-27.5 0-40.9 0 0-49.9 0-99.5 0-149.4.6-.2 1.2-.5 1.8-.5 25.5.2 51 0 76.5.8 12.5.4 24.4 3.9 33.9 12.7 21.8 20.4 16.9 62.2-8.8 77.2-1.4.8-2.9 1.6-4.6 2.5 9.8 18.8 19.6 37.4 29.8 57-7 0-13.3 0-19.5 0-7.5 0-15-.2-22.5.1-3.4.1-5.3-.7-6.8-4-6.5-14-13.5-27.8-20-41.9-1.6-3.5-3.3-5.2-7.4-4.7-3.6.4-7.3.1-11.4.1-.1 16.7-.1 33.3-.1 50.1m.1-115.4c0 10.9 0 21.4 0 31.7 10.3 0 20.3.7 30.1-.2 9.3-.9 13-6.8 12.6-17.1-.3-8.3-4.9-13.7-13.6-14.3-9.5-.6-19.1-.1-29.1-.1" style="fill:#242021"/><g style="fill:#252122"><path d="m1903.1 1046.2c14.5 0 28.9 0 43.6 0 0 11.7 0 22.9 0 34.7-14.5 0-29 0-43.7 0 0 8.8 0 17 0 25.6 25 0 49.8 0 74.7 0 0 11.7 0 23 0 34.6-38.7 0-77.4 0-116.3 0 0-49.9 0-99.6 0-149.6 38.2 0 76.3 0 114.7 0 0 11.3 0 22.8 0 34.7-24.1 0-48.4 0-73 0 0 6.8 0 13.2 0 20"/><path d="m1238.9 991.5c0 11.6 0 22.9 0 34.7-24.3 0-48.5 0-73.1 0 0 6.8 0 13 0 19.8 14.3 0 28.9 0 43.8 0 0 11.8 0 23 0 34.9-14.4 0-29.2 0-44 0 0 8.7 0 16.8 0 25.6 25 0 49.9 0 74.9 0 0 11.9 0 23.2 0 34.7-38.8 0-77.3 0-116.1 0 0-50 0-99.7 0-149.7 38.1 0 76 0 114.5 0"/></g><path d="m865.5 1125.6c6.8-10.9 13.4-21.7 20.2-32.6 11.8 7.1 24 12.7 37.6 14.3 5.7.7 11.6.1 17.4-.3 4.2-.3 7.7-2.2 8.4-7.1.7-4.9-2.3-7.6-6.2-9-7.2-2.5-14.6-4.5-21.9-6.8-7.9-2.4-16-4.4-23.8-7.4-17.3-6.6-26.8-19-27.1-37.9-.3-18.5 7.1-32.6 23.3-41.6 13.7-7.6 28.7-8.9 44.1-8 18.6 1.1 36 5.9 51.8 17.3-6.7 10.8-13.4 21.6-20.2 32.7-10.7-7-21.7-12.5-34.2-13.6-5.4-.5-10.9-.1-16.3.5-3.7.4-7 3-6.3 7 .5 2.8 2.7 6.6 5 7.5 7.9 3 16.2 4.7 24.3 7.4 9.1 3 18.4 5.8 27.1 9.9 16.8 7.8 23.1 22.1 22.3 40-.8 18-8.5 31.8-25.4 39.1-21 9.2-42.8 8.5-64.6 3.5-12.6-2.9-24.5-7.6-35.5-14.9" style="fill:#242021"/><path d="m1419.5 35.5c-5.1 17.3-9.7 33.4-14.7 49.4-1.5 4.6-.8 7.8 2.3 11.6 10.8 12.9 21.2 26.1 33 40.7-9.9 0-18.3-.1-26.7 0-9.3.1-18.6.2-27.9.8-2.2.1-5 1.7-6.2 3.5-9.2 13.6-18.1 27.5-27.1 41.3-.7 1.1-1.5 2.1-2.7 3.8-4.6-13.1-10.1-25.4-13.1-38.1-3.1-13-10-19.3-23-21.4-12.6-2.1-24.8-6.4-37.1-9.7-.5-.1-.9-.4-1.9-.8 13.1-10.1 25.8-20.4 39.1-29.7 6.1-4.2 7-8.8 6.5-15.5-1.2-15.6-1.8-31.2-2.7-48 2.1 1.3 3.6 2.1 4.9 3 13.2 9.1 26.4 18.1 39.4 27.3 2.6 1.8 4.7 2.2 7.7 1 14.8-5.9 29.8-11.5 44.7-17.2 1.3-.6 2.9-1.1 5.5-2" style="fill:#fcb815"/><path d="m1625.8 991.5c13.9 0 27.6 0 41.8 0 0 37.8 0 75.4 0 113.5 22.3 0 44.2 0 66.3 0 0 12.2 0 24 0 36.2-35.9 0-71.8 0-108 0-.1-49.9-.1-99.7-.1-149.7" style="fill:#242021"/><path d="m1386 1141c0-49.9 0-99.6 0-149.6 14 0 27.7 0 41.8 0 0 37.8 0 75.4 0 113.5 22.3 0 44.2 0 66.3 0 0 12.2 0 24 0 36.1-35.9 0-71.8 0-108.1 0" style="fill:#231f20"/><path d="m720.5 273.8c-12-7.6-22.8-14.4-33.4-21.4-3.1-2.1-5.6-2.4-9.1-.8-11.7 5.2-23.5 10-36.4 15.4 1-4.4 1.8-7.8 2.7-11.3 2.5-9.5 5.2-18.9 7.4-28.5.4-1.8-.2-4.6-1.5-6.1-8.5-10.2-17.3-20.2-26.9-31.2 8.1-.5 15.2-1 22.4-1.5 5.3-.3 10.6-1 15.9-.9 4.8.1 7.4-1.8 9.7-5.9 6.1-10.8 12.7-21.3 19.8-32.9 4.9 12.4 9.6 23.7 13.7 35.2 1.8 5 4.4 7.2 9.6 8.2 11.9 2.3 23.6 5.4 36.4 8.3-1.7 1.6-2.7 2.7-3.9 3.7-8.5 7-16.8 14.3-25.6 20.8-4.2 3.1-4.8 6.5-4.3 11.1 1.3 12.1 2.3 24.2 3.5 37.8" style="fill:#fcb815"/><path d="m1752.8 521.9c-1.5 5.3-2.5 10.8-4.7 15.9-3.2 7.5-7.6 14.4-10.8 21.9-2.4 5.5-3.7 11.5-5.9 18.7 9.4-10.5 17.1-20 25.8-28.5 6.6-6.5 14.1-12.1 21.7-17.5 6.3-4.5 10.4-3.9 16 1.5 10.3 10 12.6 22.5 8.6 35.5-7.6 24.7-24.9 39.8-49.9 46.1-1.3.3-2.7.7-3.9.3-6.1-1.6-8.4 1.4-9.8 6.9-5.2 20.6-10.7 41.2-16 61.7-.4 1.4-.7 2.9-1 4.2-9.2.3-18.7-10-18.2-19.3 1.4-23 7.8-44.8 15.8-66.2 1.3-3.4 1.5-6.3 0-9.9-4.6-11-3.5-22.2.7-33.1 5.2-13.4 13.7-24.7 23.1-35.3 1.6-1.8 4.1-2.9 6.2-4.3.8.5 1.5.9 2.3 1.4m36.3 24.4c-14.5 13.3-25.7 28.2-34.3 45.5 22.4 1.2 43.8-26.8 34.3-45.5" style="fill:#d31646"/><path d="m1521.5 372.5c-7.3 0-14.6 0-22.2 0-.2-1-.4-2.2-.7-3.6-.6.4-1 .6-1.4.8-12.2 9.8-26.9 6.5-31.7-8.3-3.3-10.3-5.2-21.4-5.3-32.2-.2-16.2 1.4-32.5 2.8-48.7.4-4.3 2.4-8.7 4.5-12.6 5.8-10.9 17.4-13.5 27.6-6.6 1.1.7 2.1 1.5 3.8 2.8 0-11.7.1-22.8-.1-33.9 0-2.9.8-4.4 3.5-5.5 6.3-2.5 12.4-5.4 19.1-8.4.1 52.4.1 104.2.1 156.2m-22.6-55.6c0-10.1-.2-20.3.1-30.4.2-5-3-6.3-6.6-7.1-4-.9-6.3 1.4-7.3 5-.6 2.1-1.2 4.2-1.2 6.3-.3 15.4-.6 30.9-.5 46.3 0 4.4 1 9 2.7 13 .8 1.9 4.6 3.7 6.9 3.6 3.2-.1 6.1-1.8 6-6.3-.3-10.1-.1-20.3-.1-30.4" style="fill:#242021"/><path d="m1114.8 372.6c-7.5 0-14.8 0-22.7 0 0-1.9 0-3.6 0-5.4 0-25.3 0-50.7 0-76 0-1.7 0-3.3-.1-5-.3-3.9-1.2-7.4-6.3-7.2-5.2.2-8 2.9-8 7.8 0 26.7 0 53.3 0 80 0 1.8 0 3.6 0 5.7-7.8 0-15.1 0-23 0 0-1.8 0-3.5 0-5.1 0-45.3.1-90.6-.1-136 0-4.1 1.3-5.9 4.9-7.2 5.9-2.3 11.5-5 17.9-7.8 0 16.3 0 32 0 46.5 6.4-1.7 12.5-4.4 18.8-4.8 9.6-.7 15.2 4.1 17.5 13.6.9 3.9 1.4 7.9 1.4 11.9.1 28.7.1 57.3.1 86-.1.8-.3 1.8-.4 3" style="fill:#262224"/><g style="fill:#252122"><path d="m947.9 260c1.5 0 2.5 0 3.5 0 6.3 0 12.6 0 19.2 0 0 37.6 0 75 0 112.6-7.4 0-14.7 0-22.3 0-.2-1.3-.4-2.7-.6-4.2-.5.2-.9.4-1.3.6-4.3 2-8.4 5.2-12.9 5.9-13.3 2.1-21.1-4.2-22.5-17.6-.8-7.1-.8-14.3-.8-21.4-.1-25 0-50 0-75.4 7.6 0 14.9 0 23 0 0 1.6 0 3.4 0 5.1 0 25.5 0 51 0 76.5 0 1.5-.1 3 .1 4.5.6 3.9 1.3 7.9 6.7 7.5 5.4-.4 8-3 8-8.4-.1-28.4-.1-56.8-.1-85.7"/><path d="m866.2 303c0-5.8.3-11-.1-16.1-.5-6.3-4.3-9.2-10.3-7.4-5.1 1.5-9.8 4.6-15.3 7.4-2.6-4.7-5.7-10.1-8.7-15.4 9.7-12.7 33.2-17.7 46.9-10.1 7.7 4.3 10.9 11.6 11 19.6.4 30.4.2 60.9.2 91.9-7.1 0-14.1.2-21-.2-1.1 0-2.2-2.1-2.9-2.8-3.8 1.7-7.7 4.3-11.9 5-10.1 1.8-18.3-2.7-21.9-12.5-5.8-15.8-6-32.1-.1-47.9 4.6-12.3 17.4-17.3 30.1-13.1 1.2.5 2.4 1 4 1.6m.3 34.5c0-3.7 0-7.3 0-11 0-2.9.5-5.8-3.5-6.5-3.9-.7-8.3-1.6-10.1 2.8-3.9 9.6-3.9 19.5 0 29.1 1.5 3.6 4.9 4.1 8.5 3.2 3.5-.9 5.5-2.6 5.2-6.6-.3-3.7-.1-7.4-.1-11"/><path d="m1132.9 317.8c2-13.6.7-25.4 3.4-36.6 4.7-18.9 20-27.4 37.6-22.3 8.7 2.6 14.4 8.6 17 16.9 2.6 8.2 4.5 16.7 5.3 25.2 1.6 17.1 1.5 34.3-3.4 51-5.4 18.6-20.2 27.1-37.4 21.9-9.3-2.8-15.3-9.5-17.5-18.4-3.2-12.9-3-26.2-5-37.7m21.9-1.1c.2 0 .3 0 .5 0 0 2.5-.2 5 0 7.5.8 8.1 1.3 16.2 2.9 24.1.5 2.3 4.2 5.4 6.4 5.4 2.2 0 4.9-3.1 6.5-5.4 1.2-1.7 1.6-4.4 1.6-6.7.3-15.1.6-30.2.5-45.3 0-3.9-.7-8.1-2.3-11.6-1.1-2.5-4.2-5.5-6.4-5.6-2.2 0-4.7 3.2-6.6 5.4-1 1.1-1.1 3.1-1.2 4.7"/></g><path d="m1483.8 550.3c7.1 1.2 14.1 2.7 21.2 3.6 9.4 1.3 19 1.5 28.2 3.3 17.7 3.5 24.4 13 22.5 29.9-.7 6.7-3.7 12.1-9.2 15.9-14.5 10.2-49.7 15.4-68.8-5.4-10-10.9-7.3-22.8 6.9-26.5 15.3-4 30.1-.2 44.4 5.1 3.9 1.4 3.8 4.2 0 6.5-7.2 4.5-14.9 5.5-23 2.8-3.5-1.1-6.7-2.9-10.2-3.9-2.7-.8-5.8-2-8.2-1.3-3 .9-5.4 3.7-8 5.7 2.4 1.9 4.6 4.9 7.2 5.5 18 3.6 35-1 51.4-8 4.8-2 4.8-5.6.5-8.6-10.4-7-22.4-8-34.4-8.9-8.6-.7-17.2-1.3-25.9-2.1-5.2-.5-9.8-2.5-11-7.8-1.3-5.9-1.2-12.1 3.9-16.7 10.1-9.2 22.3-13.6 35.6-15.5 14.5-2 28.9-.9 43.2 2 3.4.7 8.1 1 8 5.8-.1 4.6-3.6 6.8-8.1 7.3-14.7 1.6-29.5 3-44.1 4.8-7.4.9-14.8 2.5-22.2 3.8.1 1 .1 1.9.1 2.7" style="fill:#d31747"/><g style="fill:#252122"><path d="m1445.3 323.8c-14.4 0-27.1 0-41.6 0 1.5 9 2.7 17.6 4.6 26 .4 1.9 3.7 4.2 5.8 4.3 2 .1 4.7-2.1 5.9-4 1.9-3 2.8-6.7 4.3-10.6 6.4 2.1 12.8 4.3 19.1 6.4-2.9 18.1-13.7 28.9-28.8 29.3-10.9.3-19.5-4.2-23.8-14-3.5-8.1-6-17-7.1-25.7-2.2-17.2-2-34.5 2.3-51.5 1.2-4.9 3.2-9.9 5.8-14.2 10.2-16.6 34.2-16.4 43.8.6 3.1 5.5 5.4 11.9 6.3 18.2 1.8 11.3 2.3 22.9 3.4 35.2m-21.9-18.4c-1.5-8.3-2.6-16-4.5-23.5-.5-1.9-3.5-4.5-5.1-4.4-2 .2-5.1 2.5-5.6 4.5-1.8 7.6-2.8 15.3-4.1 23.4 6.9 0 12.3 0 19.3 0"/><path d="m997.1 281.7c-2.9-.2-5.4-.3-8-.5 0-7 0-13.8 0-21.1 2.5 0 5 0 8 0 0-10.3.1-20.1-.1-29.9-.1-3 .9-4.4 3.7-5.5 6.3-2.5 12.4-5.4 19.2-8.4 0 14.7 0 28.8 0 43.4 5.1 0 9.8 0 14.8 0 0 7.4 0 14.3 0 21.7-4.7 0-9.3 0-14.6 0 0 2.2 0 3.9 0 5.7 0 18.2 0 36.3 0 54.5 0 12 3.1 14.1 14.1 9.4.4-.2.9-.2 1.8-.4-.7 6.4-1.2 12.7-2 18.9-.2 1.1-1.6 2.9-2.6 3-6.5.8-13.2 2.4-19.5 1.7-8.5-.9-12.5-7.6-13.8-15.6-.7-3.9-.8-7.9-.8-11.9-.1-19.8 0-39.6 0-59.5-.2-1.8-.2-3.5-.2-5.5"/></g><path d="m1580.5 559c0 5.3.4 10.7-.1 16-.9 10.6-2 21.2-3.5 31.7-.8 5.2-5.1 6.7-9.7 4.1-5.2-3-7-8.2-7-13.6.1-21.1 2.2-41.9 10.9-61.4 3.4-7.6 6.9-8.5 12.3-2 6.7 8 12.8 16.6 18.8 25.1 5.1 7.2 9.7 14.6 14.6 22 .6-.1 1.2-.2 1.8-.3 0-3.1.5-6.2-.1-9.2-3.2-15.3-6.6-30.5-10-45.7-.9-3.9-2-7.7-2.5-11.7-.4-3.4 1.6-4.9 4.6-3.2 2.8 1.6 5.8 3.5 7.8 6 17 22.1 23.6 46.7 16.5 74.1-1.1 4.3-4.3 8.7-7.7 11.8-7.9 7-15.2 5.9-20.8-3.1-7.3-11.7-14-23.8-21-35.7-1-1.7-1.9-3.4-2.8-5.1-.7 0-1.4.1-2.1.2" style="fill:#d31747"/><path d="m1662.1 591.6c8.6-1.4 16-2.6 23.4-3.6 3.9-.5 8-.5 11.9-1 4.9-.6 6.8 2.4 8.3 6.2 1.6 3.9-1.1 5.7-3.8 7.6-9.5 6.8-19.2 13.2-30.9 15.6-19.7 4.2-33.8-11-28.3-30.7.8-3 2.5-5.9 3.2-8.9.7-3.4.5-6.9 1.1-10.4.4-2.1 1.4-5.8 2.4-6 6.2-.7 7.4-5.5 9.1-9.9.8-2 1.5-4.1 2.4-6.5-2.6-.8-5.3-1.2-7.6-2.3-2.3-1.1-5-2.4-6.3-4.4-3.2-4.7-2.1-6.7 3.5-7.5 16.3-2.1 32.7-4.2 49-6.1 9.1-1.1 14 4.7 18 11.7 1.7 3 1 5.7-2.3 6.9-2.9 1.1-6.1 1.9-9.1 2.1-8.3.5-16.6.5-24.9.8-1.1.1-2.8 1.1-3.2 2.1-1.3 3.2-2.2 6.6-3.4 10.6 7.3 0 14-.2 20.8.1 3.8.1 7.7.5 8 6.1.3 5.6-2.7 7.6-7.3 8.1-7.3.7-14.6 1.3-21.9 1.4-4.4.1-6.8 1.7-7.9 5.7-1.4 3.7-2.6 7.3-4.2 12.3" style="fill:#d31647"/><path d="m1506.7 95.1c9.2-1.2 18.4-2.5 27.7-3.4 4-.4 6.4-2 8.2-5.8 3.9-8.4 8.4-16.6 13.1-25.9 3.7 7.7 7.5 14.2 10 21.3 2.8 7.9 7.5 11.4 15.8 11.9 7.4.4 14.7 2.3 23.2 3.7-7.2 6.8-13.5 13-20.1 18.9-3.7 3.3-5.2 6.4-4.1 11.6 1.9 8.9 2.9 18 4.3 27.7-8.8-4.8-17-9-25-13.8-3.9-2.3-6.9-2.4-10.9-.1-7.9 4.5-16.2 8.3-25.4 12.9 1.7-9.1 2.7-17.3 4.8-25.2 1.7-6.4.7-10.9-4.5-15.1-6.4-5.2-12.3-11.2-18.4-16.8.5-.7.9-1.3 1.3-1.9" style="fill:#fcb815"/><path d="m1340.4 352.3c10.2 0 20.1 0 30.3 0 0 6.9 0 13.5 0 20.3-18.1 0-36 0-54.5 0 .3-8.8-1.1-17.4 2.8-25.9 9.4-20.9 18-42.1 27-63.2.3-.7.6-1.5 1-2.6-9.3 0-18.2 0-27.5 0 0-6.9 0-13.6 0-20.5 16.9 0 33.8 0 51.5 0-.7 8.6 1 17.1-2.7 25.7-9.6 21.5-18.4 43.6-27.9 66.2" style="fill:#262224"/><g style="fill:#d31647"><path d="m1143.6 551.3c-4.7-2.7-10.7-5.6-16.2-9.3-5.8-3.9-9.6-9.6-8.5-16.9.5-3.5 3-6.8 5.2-9.9 5.2 14 17.6 15.3 28.7 18.4 1.1.3 2.8-1.1 4-2.1 4.4-3.5 8.3-7.9 13.1-10.6 13.2-7.4 24.8-1.4 27.1 13.5 1.7 11.1-2.9 18.2-13.9 20.8-3.7.9-7.7 1.7-11.3 1.2-4.5-.5-5.6 1.4-6.4 5.1-4.8 20.7-5 41.6-3.9 62.6.1 2.8.4 5.6.5 8.5.2 5.3-1.6 7.6-6.6 6.2-4-1.1-8.4-3.7-10.8-7-8.1-10.9-9.2-23.9-7.8-36.8 1.5-14.5 4.4-29 6.8-43.7m29-15c4.8-1.4 8.5-2.3 11.8-3.7 1.1-.5 1.6-2.5 2.4-3.8-1.4-.7-2.9-2-4.2-1.9-4.6.4-8.1 2.6-10 9.4"/><path d="m1423.9 504c-.9-2.1-1.6-4.5-2.9-6.4-4.3-6.6-5.5-13.6-2.4-20.8 7.7-17.8 22.7-26.1 40.4-31 11-3 21.1-2 29.4 6.7.8.8 2.3 1.2 3.5 1.5 10.7 2.3 15.8 10.8 12.6 21.3-.6 1.9-1.3 3.9-2.5 5.4-12.2 15.9-26.8 28.2-47.6 30.5-4.5.5-9.2-1-13.8-1.3-1.3-.1-3.2.3-4 1.2-2.2 2.6-3.8 6.5-8.2 4.6-4.2-1.8-5.3-5.7-5.3-9.9 0-.5 0-1 0-1.5.2 0 .5-.2.8-.3m34.1-8.9c7.4-2.7 15.4-4.4 22.1-8.3 5-2.9 8.9-8.2 12.1-13.3 2.5-4-.1-8.3-4.9-8.4-4.1-.1-8.8.4-12.4 2.3-11.5 6-20.7 14.9-28.1 25.6.2 1 .5 2.9.7 2.9 3.5-.2 7-.5 10.5-.8m-7.1-31.8c-12.1 2.2-22.4 13.5-20.5 22.1 6.8-7.3 13.6-14.6 20.5-22.1"/></g><path d="m1214.9 260.1c7.5 0 14.7 0 22.1 0 .3 1.3.5 2.5.8 3.9.5-.2 1-.2 1.3-.5 5.1-5.3 11.4-6.6 18.3-5.4 2.9.5 4.7 1.5 4 5.3-1.2 6.7-1.7 13.5-2.5 20-4.2-.9-8.2-2.4-12.3-2.5-6.7-.2-9.2 2.7-9.2 9.3 0 25.5 0 51 0 76.5 0 1.8 0 3.6 0 5.7-7.6 0-14.9 0-22.5 0 0-37.2 0-74.6 0-112.3" style="fill:#242021"/><path d="m1297.4 372.6c-7.7 0-14.9 0-22.6 0 0-37.4 0-74.8 0-112.4 7.5 0 14.9 0 22.6 0 0 37.4 0 74.6 0 112.4" style="fill:#262224"/><path d="m1080.5 582.6c1.3-21.2 6.1-39.2 13.3-56.4 1.8-4.4 5.8-7.9 9.3-11.4 2.7-2.8 5.8-1.6 6.2 2 .6 5.3.8 10.9-.2 16.1-2.9 15.1-6.4 30.2-9.7 45.2-.2 1.1-.1 2.3-.2 3.5-.4 4.3 1.4 5.4 5.3 3.8 6.8-2.7 13.6-5.4 20.5-7.6 2.5-.8 7.3-1.3 7.7-.3 1.2 2.5 1.6 6.2.7 9-3.1 10.4-10.4 17.4-20.2 21.3-4.7 1.9-10 3.4-14.9 3.2-6.9-.3-12.4-4.2-14.4-11.2-1.7-6.4-2.6-13-3.4-17.2" style="fill:#d31647"/><g style="fill:#fcb815"><path d="m874.6 199c-15.1 0-27.5-12.2-27.5-27.1 0-14.7 12.3-27 27.1-27 15.2-.1 27.3 11.9 27.3 27.1 0 14.9-12 27-26.9 27"/><path d="m1183.1 88.2c-15.2.1-27.3-11.9-27.3-27.1 0-15 11.9-27 26.8-27.1 15.2-.1 27.4 12 27.4 27-.1 15-12.1 27.1-26.9 27.2"/></g><path d="m1459.6 596.2c-.1 2.8-.3 5.6-.4 8.5-.2 4 .4 8.1-5.5 8.8-6.8.8-11.8-1.2-13.7-6.4-.6-1.5-1.1-3.2-1-4.8.9-23.1 1.8-46.1 3.2-69.2.2-2.8 3.1-5.4 4.7-8 2.6 2 5.6 3.8 7.8 6.3 1.3 1.4 1.6 4 1.8 6.1 1.3 19.6 2.5 39.2 3.7 58.8-.2-.1-.4-.1-.6-.1" style="fill:#d31747"/><g style="fill:#fcb816"><path d="m1076.7 150.8c0 10-8.2 18.2-18.1 18.2-9.9 0-18.1-8.2-18.3-18.1-.1-10 8.5-18.6 18.4-18.4 10.2.2 18 8.3 18 18.3"/><path d="m521.6 227.2c-10.1 0-18.1-8-18.2-18-.1-9.9 8.1-18.1 18.1-18.2 10.3 0 18.5 8.1 18.4 18.3-.1 10.1-8.1 17.9-18.3 17.9"/></g><path d="m65.2 1207.8c0-15.6 0-30.8 0-46.8 10 .3 20.6-2.5 28.6 6.6 6 6.8 6.9 20.8 2.3 29.8-4.6 9-11.8 11.5-30.9 10.4m5.3-5c7.7.3 15.7 1.6 20.2-6.3 4.3-7.7 4.4-16.1 0-23.8-4.5-7.8-12.4-6.9-20.2-6.5 0 12.3 0 24.3 0 36.6" style="fill:#2f2c2e"/><path d="m1272.8 230.5c.1-7.8 6-13.7 13.5-13.6 7.5.1 13.4 6.2 13.3 13.9-.1 7.6-6.1 13.7-13.7 13.6-7.5-.1-13.3-6.1-13.1-13.9" style="fill:#262224"/><path d="m55.1 1184.9c-.2 14.3-10.5 24.4-24.8 24.1-13.9-.2-23.7-10.7-23.5-24.9.2-14.3 10.5-24.4 24.8-24.1 13.8.2 23.7 10.7 23.5 24.9m-24.2 21.1c12 0 20.8-9 20.9-21.4.1-12.4-8.7-21.5-20.7-21.6-12.3-.1-21.2 9-21.1 21.6.1 12.4 8.9 21.4 20.9 21.4" style="fill:#2f2c2e"/><path d="m221.7 1193.1c-8.7 0-16.2 0-23.6 0 .4 9.6 7.1 13.6 15.9 9.3 2.8-1.3 4.2-1.4 5 2-5.2 4.3-11 6.2-17.4 3.4-6.2-2.7-8.5-8.4-8.6-14.7 0-4.2.5-8.7 1.9-12.7 2-5.8 7.6-8.9 13.4-8.5 5.7.4 10.1 3.8 11.8 9.9.8 3.5 1 7.1 1.6 11.3m-23.8-5.4c6.3 0 12.4 0 18.5 0-.9-7.7-3.8-10.9-9.5-10.7-5.4.1-8.3 3.5-9 10.7" style="fill:#262224"/><g style="fill:#2f2c2e"><path d="m178.6 1207.8c0-7.1.1-13.7 0-20.4-.2-7.1-2.8-10.3-8.1-10.3-5.6 0-8.7 3.5-8.8 10.4-.1 6.6 0 13.3 0 20.3-1.6.1-3 .3-4.8.4 0-11.8 0-23.4 0-36.1 2.2 1 4 1.8 6.4 2.9 3.5-3.2 8.6-4.2 14.1-1.5 5.4 2.7 6.1 8 6.2 13.2.1 7 0 13.9 0 21.2-1.8-.1-3.2-.1-5-.1"/><path d="m147.2 1175.4c-1.9 2.4-2.7 3.5-3.1 4-3.6-.8-6.8-2.1-9.9-2.1-1.7 0-4.4 1.7-4.8 3.2-.4 1.4 1.1 4.1 2.5 5.1 2.7 1.9 5.9 3 8.9 4.5 4.5 2.2 7.1 5.4 6.3 10.7-.8 5.4-4.7 7.4-9.4 8.2-5.6.9-10.4-1-14.7-5.1.8-1.1 1.6-2.1 2.3-3.2.6.1 1.1.2 1.6.4 3.6.9 7.2 2.4 10.8 2.6 1.4.1 3.9-2.2 4.3-3.8.3-1.6-1-4.2-2.4-5.3-2.6-1.9-5.8-3.1-8.8-4.5-4.7-2.2-7.7-5.6-6.3-11 1.4-5.3 5.8-7.3 10.8-6.9 3.7.3 7.3 1.9 11.9 3.2"/></g><path d="m113.6 1207.9c-1.7 0-3 0-4.5 0 0-11.5 0-22.9 0-34.6 1.4 0 2.8 0 4.5 0 0 11.4 0 22.8 0 34.6" style="fill:#262224"/><g style="fill:#2f2c2e"><path d="m116.3 1162.8c-2.3 1.5-3.9 3.3-5 3-1.4-.4-2.4-2.4-3.5-3.7 1.3-1 2.5-2.8 3.8-2.8 1.3-.1 2.6 1.7 4.7 3.5"/><path d="m154 979.9c0-11.2 0-22.5 0-33.7 0 11.2 0 22.4 0 33.7"/><path d="m154.1 943c.3-2.6.6-5.2.9-7.8-.3 2.5-.6 5.2-.9 7.8"/><path d="m155.2 933c-.3-1.9-.6-3.7-.9-5.6.3 1.8.6 3.7.9 5.6"/><path d="m155 989.9c-.3-2.3-.5-4.6-.8-6.9.2 2.3.5 4.6.8 6.9"/><path d="m75.9 966c-1.6.2-3.3.5-4.9.7 1.6-.2 3.2-.5 4.9-.7"/></g><path d="m316.2 698c-10-6.7-19.4-12.7-28.4-19.2-4.1-3-7.4-3.5-12.2-1.4-10.2 4.5-20.7 8.3-32 12.7 2.7-9.7 4.4-18.9 7.9-27.4 3.7-9.1 2.1-15.7-4.7-22.5-6.4-6.4-11.7-14-18-21.6 1.8-.3 2.8-.5 3.9-.5 11.1-.4 22.3-.5 33.4-1.2 2-.1 4.6-1.7 5.8-3.5 6.7-9.9 13-20.1 19.9-31 .9 1.9 1.6 3.1 2 4.4 3.7 10 7.1 20.1 11.1 30 .9 2.1 3.4 4.4 5.6 5.1 11.5 3.3 23.1 6.1 35.7 9.4-7.9 6.3-14.9 12.4-22.5 17.5-7.4 5-11.4 10.2-9.5 19.9 2 9.2 1.5 18.8 2 29.3" style="fill:#fbb614"/><path d="m1446.8 492.9c1.6.7 3.2 1.7 4.9 2 2 .4 4.2.1 6.3.1-3.5.3-7 .6-10.5.8-.2.1-.5-1.8-.7-2.9" style="fill:#e47390"/><path d="m39.7 1194c-5.3 5.1-11.8 5.4-16.2.8-5-5.1-4.9-15.5 0-20.6 4.4-4.5 10.7-4.3 17.3 1.9-2.6-.2-4.1.2-5.1-.4-5.3-3.1-10.1-1.7-11.5 4.2-.7 3.1-.7 6.7.2 9.7 1.6 5.4 6.3 6.7 11.1 3.8 1.1-.7 2.6-.8 3.9-1.2.2.6.2 1.2.3 1.8" style="fill:#2f2c2e"/><g style="fill:#d31546"><path d="m1848.8 495.5v3.4c-3.7.1-6.3.5-7.9 1-2.8 1-4.2 2.9-4.2 5.6 0 1.2.2 2.4.5 3.5.3 1.1.8 2.6 1.5 4.4l26.9 69.8 19.6-52-8.7-22.8c-1.6-4.1-4.1-6.9-7.3-8.3-1.9-.8-4.9-1.3-8.8-1.4v-3.4h49.7v3.4c-4.7.1-7.9.4-9.6 1-2.8 1-4.2 3.1-4.2 6.3 0 1.1.1 2 .4 2.9.2.8.8 2.5 1.8 5l26.8 69.6 23.2-63c1.3-3.6 2.2-6.7 2.7-9.5.3-1.6.5-2.8.5-3.8 0-3.4-1.6-5.8-4.9-7.2-1.8-.8-4.5-1.2-8.2-1.4v-3.4h36.9v3.4c-3.3.5-5.9 1.2-7.6 2.3-3.1 1.8-5.5 4.8-7.1 9.1l-19.4 55.3-7.5 21.4-11.8 33.5h-2.9l-8.1-21.2-21.5-57.2-28.5 78.4h-2.8l-13.8-38.5-15.7-43.5c-6.5-17.9-11-28.9-13.5-33-2.6-4.1-6.6-6.3-12-6.6v-3.4h45.5z"/><path d="m1965.7 545.8c7.6-8.3 17.5-12.5 29.5-12.5 12 0 21.9 3.9 29.7 11.8 7.9 7.9 11.8 18.3 11.8 31.4 0 12-3.8 22.5-11.4 31.4-7.6 8.9-17.5 13.3-29.6 13.3-11.6 0-21.4-4.3-29.5-12.8s-12.1-19.2-12.1-32.1c.1-12 3.9-22.2 11.6-30.5m14.4-2.3c-6.1 5.5-9.1 15-9.1 28.5 0 10.8 2.4 20.8 7.3 30.1 4.9 9.3 11.6 14 20.3 14 6.8 0 12-3.1 15.7-9.3 3.7-6.2 5.5-14.4 5.5-24.5 0-10.5-2.3-20.3-7-29.6-4.7-9.2-11.4-13.9-20.3-13.9-4.7 0-8.9 1.5-12.4 4.7"/><path d="m2034.5 615.4c5.6-.5 9.2-1.5 11.1-2.9 1.8-1.5 2.7-4.6 2.7-9.5v-40.9c0-6-.6-10.3-1.7-12.8-1.1-2.6-3.2-3.9-6.1-3.9-.6 0-1.4.1-2.4.2-1 .2-2 .3-3.1.6v-3c3.4-1.2 7-2.4 10.6-3.7 3.6-1.3 6.1-2.2 7.5-2.7 3-1.1 6.1-2.4 9.3-3.9.4 0 .7.2.8.5.1.3.1.9.1 1.9v14.9c3.9-5.4 7.6-9.6 11.2-12.6 3.6-3 7.3-4.5 11.2-4.5 3.1 0 5.6.9 7.5 2.8 1.9 1.8 2.9 4.2 2.9 6.9 0 2.5-.7 4.6-2.2 6.3-1.5 1.7-3.3 2.5-5.6 2.5-2.3 0-4.6-1.1-6.9-3.2-2.3-2.1-4.2-3.2-5.5-3.2-2.1 0-4.7 1.7-7.8 5.1-3.1 3.4-4.6 6.9-4.6 10.6v40.9c0 5.2 1.2 8.8 3.6 10.8 2.4 2 6.4 3 12.1 2.9v3h-44.7v-3.1"/><path d="m2088.8 615.8c5.6-.5 9.4-1.7 11.4-3.4 2-1.7 3-5.1 3-10.1v-88.6c0-4-.3-6.7-1-8.2-1.2-2.5-3.7-3.8-7.3-3.8-.8 0-1.8.1-2.8.3s-2.3.5-3.8.8v-3c8.2-2.2 18-5.1 29.5-8.7.4 0 .7.2.8.5.1.4.1 1.1.1 2.4v108.7c0 5.3.9 8.7 2.7 10.2 1.8 1.5 5.6 2.5 11.2 2.9v2.5h-43.9v-2.5z"/><path d="m2182.5 535.6c2.4 1.3 4.7 3 7 5.3v-28.9c0-3.7-.4-6.2-1.2-7.6-.8-1.4-2.8-2.1-5.8-2.1-.7 0-1.4 0-1.9.1-.5.1-1.8.2-3.6.4v-3l7.4-1.9c2.7-.7 5.4-1.5 8.2-2.3 2.7-.8 5.1-1.5 7.2-2.3 1-.3 2.6-.9 4.8-1.7l.5.2-.2 9.5c-.1 3.4-.1 7-.2 10.7-.1 3.7-.1 7.3-.1 10.8l-.2 74.1c0 3.9.5 6.7 1.5 8.2 1 1.6 3.5 2.4 7.7 2.4.7 0 1.3 0 2 0 .7 0 1.3-.1 2-.2v3c-.4.1-4.7 1.6-13.1 4.5l-14.2 5.3-.6-.8v-11.1c-3.4 3.7-6.3 6.3-8.8 7.9-4.4 2.7-9.5 4.1-15.3 4.1-10.3 0-18.6-4-25-11.9-6.4-7.9-9.6-17.1-9.6-27.6 0-13.1 3.8-24.4 11.5-33.8 7.6-9.4 17-14.1 28.1-14.1 4.1-.1 8.2.9 11.9 2.8m2.6 70.5c2.9-2.8 4.4-5.4 4.4-7.9v-38.9c0-7.9-2.1-13.4-6.3-16.6-4.2-3.2-8.3-4.8-12.3-4.8-7.6 0-13.5 3.4-17.8 10.1-4.2 6.7-6.3 15-6.3 24.9 0 9.7 2.3 18.4 6.8 26 4.5 7.6 11.2 11.4 20.2 11.4 4.6 0 8.4-1.4 11.3-4.2"/></g></svg>