<svg xmlns="http://www.w3.org/2000/svg" xmlns:xlink="http://www.w3.org/1999/xlink" viewBox="0 0 130.2 226.4" enable-background="new 0 0 130.2 226.4"><defs><path id="1" d="m102.5 149c-5-.5-10-.8-15.1-.8-4.8-.1-9.5.2-14.2.6-4.2 9-12.4 31.6-13.6 38.1 6.7 1.4 15 11.2 23.5 11.2 11.5 0 30-6.5 35.6-5.6-3.6-7.2-12.5-39.3-16.2-43.5"/><clipPath id="0"><use xlink:href="#1"/></clipPath></defs><g fill="#8ccc9a"><path d="m49.8 131.8c0 0 1.9-11 9.1-5.9 7.1 5-4.6 15-9.1 5.9"/><path d="m59 128l-.4-.1c-.8-.2-1.3-1.1-1.1-1.9l.7-2.8c.2-.8 1-1.3 1.8-1.1 0 0 0 0 .1 0l.4.1c.8.2 1.3 1.1 1.1 1.9l-.7 2.8c-.2.7-1 1.2-1.9 1.1"/><path d="m92.8 192.5c.2 11 5 22.5.1 27.5-2.8 2.9-3.5 4-2.5 5 1.3 1.2 5.4.1 6.4-2.2-.4 1.2.7 3.3 3.5 2.2 1.1-.4 1.1-1.8 1.3-2.8.6 1 1.3 2.1 2.6 2.3 1.4 0 2.6-1 2.8-2.4.1-1.3-2.4-2.9-2.9-4.1-4.3-9.4-.7-19.7 1.2-29.8-2.7-.6-10.6 2.3-12.5 4.3"/><path d="m73.4 193.6c.6 11 5.5 19.4.1 29.2-.3.4-.4 1-.2 1.5.4 1.1 4.4 1.9 5.3-.4-.3 1.2.8 3.3 3.6 2.2 1.1-.4 1.1-1.8 1.2-2.8.6 1 1.7 2.7 3.8 2.7 1.5 0 1.5-1.6.2-3.9-.7-1.2-2-3.7-2.6-4.9-4.6-9.4-.5-17.8 1-27.9-2.8-.6-10.5 2.3-12.4 4.3"/></g><path d="m36.2 68.8c2.9 2.5 4.5 6.2 4.5 10 0 2.4-.7 4.7-.8 7.1s.3 5.1 2 6.6 4.6 1.4 6.4 3.1c1.6 1.5 2 4.1 1.8 6.4-.3 3.3-1.4 6.4-1.8 9.7s.1 7.1 2.5 9.2c1.4 1.2 3.1 1.6 4.6 2.6s2.8 2.9 2.1 4.7" fill="none" stroke="#a4a5a5" stroke-width=".75" stroke-miterlimit="10"/><path d="m58.9 29.6c-2.1-18.1-16.9-31.3-33.1-29.4s-27.6 18-25.6 36.1 16.9 31.3 33 29.5c.8-.1 1.7-.2 2.5-.4l-1.4 5.4 8.9-1.7-4.7-4.4c13.4-4.5 22.2-19 20.4-35.1" fill="#5cacc4"/><g fill="#fff"><path d="m17.6 29.2l-3.6.3 1 12.2c0 1-.9 1.8-1.9 1.8-.8 0-1.5-.6-1.7-1.5l-1-12.2-3.5.3c-.9-.1-1.6-.8-1.5-1.7.1-.7.5-1.2 1.2-1.4l10.7-.9c.9-.1 1.7.6 1.7 1.5.1.8-.6 1.6-1.4 1.6"/><path d="m29.9 42.4c-4.7.6-9-2.7-9.6-7.4 0-.2 0-.4-.1-.6-.5-4.7 2.8-8.9 7.5-9.5.2 0 .4 0 .6 0 4.7-.6 9 2.7 9.6 7.4 0 .2 0 .4.1.6.5 4.7-2.8 9-7.5 9.5-.2 0-.4 0-.6 0m-1.2-14.4c-3.1.3-5 2.8-4.7 6s2.5 5.4 5.6 5.2 5-2.9 4.7-6-2.5-5.5-5.6-5.2"/><path d="m48.8 34.4l-4.3.4.4 4.4c0 1-.8 1.8-1.8 1.9-.9 0-1.7-.6-1.8-1.6l-1.1-13.3c-.2-1.2.6-2.1 1.7-2.2l5.9-.5c2.9-.5 5.6 1.5 6.1 4.4 0 .2.1.4.1.6.3 2.9-1.8 5.6-4.7 5.9-.2 0-.4 0-.5 0m-1.2-7.7l-3.8.3.4 4.6 3.8-.3c1.3 0 2.3-1.1 2.3-2.3 0-1.3-1.1-2.3-2.3-2.3-.1-.1-.2 0-.4 0"/></g><g fill="#8ccc9a"><path d="m107.5 148.3l11-18 4.3 3-14.7 31.2c0 0-1.3-14.5-.6-16.2"/><path d="m124.4 130.9l.7 1.2c.3.5.9.6 1.3.4l3.2-2c.5-.3.6-.9.3-1.4l-.7-1.3c-.3-.5-.9-.6-1.3-.4l-3.2 2c-.4.4-.6 1-.3 1.5"/><path d="m125.7 132.4c0 0-1.8-10.6-8.7-5.7-6.9 4.8 4.3 14.4 8.7 5.7"/><path d="m119.5 126.5l1.4.4c.5.1 1-.2 1.2-.7l.9-3.8c.1-.5-.2-1.1-.7-1.2l-1.4-.4c-.5-.1-1 .2-1.2.7l-.9 3.8c-.2.5.2 1 .7 1.2"/><path d="m121.7 128.4l1 1c.4.4 1 .4 1.4 0l3.8-3.9c.4-.4.4-1 0-1.4l-1-1c-.4-.4-1-.4-1.4 0l-3.8 3.9c-.4.4-.4 1 0 1.4"/><path d="m117.1 129.2l.3-.2c.6-.5.7-1.5.2-2.1l-1.7-2.2c-.5-.6-1.4-.8-2.1-.3l-.3.2c-.6.5-.7 1.5-.2 2.1l1.7 2.2c.6.7 1.5.8 2.1.3"/></g><path d="m103.7 146.8c0 0 5.7-3.1 5.1.9-.3 2.2-.5 16.5-.5 16.5l-3.2-6.7-5-8.5 3.6-2.2" fill="#d77f73"/><path d="m103.1 151c-10-1-20.1-1-30.2 0-3.7 4.2-11.6 31.4-12.7 38 6.7 1.4 15 11.2 23.5 11.2 11.5 0 29.3-8.4 35-7.5-3.2-6.9-11.9-37.6-15.6-41.7" fill="#c46e62"/><path d="m102.5 149c-5-.5-10-.8-15.1-.8-4.4 0-8.7.3-13.1.9-4.1 3.5-13.6 31.3-14.7 37.8 6.7 1.4 15 11.2 23.5 11.2 11.5 0 30-6.5 35.6-5.6-3.4-6.4-12.5-39.3-16.2-43.5" fill="#df8575"/><g fill="#fff"><g clip-path="url(#0)"><circle cx="66.8" cy="162.9" r="5.9" opacity=".25"/><circle cx="108.1" cy="186.1" r="5.9" opacity=".25"/><circle cx="83.3" cy="190.5" r="5.9" opacity=".25"/><circle cx="108.1" cy="164.2" r="5.9" opacity=".25"/><circle cx="71.1" cy="178.6" r="5.9" opacity=".25"/><circle cx="94.7" cy="177.3" r="5.9" opacity=".25"/><circle cx="84.3" cy="166.1" r="5.9" opacity=".25"/></g><path d="m74.4 149.1c-1.3.3-2.8 2.1-2.7 3.1 0 1.1.6 2 1.6 2.4 1.3.4 2.8-.7 4.1 0 1.8 1 .8 4.6 2.8 5 1.3.3 2.2-1.4 3.4-1.9 1.1-.3 2.3-.1 3.2.7.9.6 1.7 1.5 2.6 2.1.2.2.5.3.8.3 1.1 0 1.1-1.7 1.8-2.6.9-1.2 2.7-.7 4.1-.1s3.2 1.1 4.1 0c.7-.8.5-2.2 1.4-2.7.7-.3 1.4-.3 2.1-.1.7.1 1.6-.1 1.8-.8.1-.5-.1-1.1-.5-1.4-.8-1.2-2.2-3.5-3-4.7-9.9 2.9-17.6 3.9-27.4.7"/></g><circle cx="105.4" cy="137.4" r="6.6" fill="#8ccc9a"/><path d="m65.7 124.6c0 0 3.4-12.9 18.8-14 18.1-1.3 24 14.6 24 14.6s-14.1-13.4-42.8-.6" fill="#e9a7a1"/><g fill="#df8575"><path d="m76.4 108.2c0 0-8.2-3.7-8.7-1.4s1 12.7 3.4 11.5 7.1-5.9 7.1-5.9l-1.8-4.2"/><path d="m82.3 111.5c0 0 8.2 3.7 8.7 1.4s-1-12.7-3.4-11.5-7.1 5.9-7.1 5.9l1.8 4.2"/></g><ellipse transform="matrix(.9098-.415.415.9098-38.456 42.802)" cx="79.3" cy="109.9" rx="3.4" ry="3.4" fill="#d57567"/><path d="m102.9 139.6c-8.6-8-22-8-30.7 0 4.7-.4 9.9-.6 15.3-.6s10.7.2 15.4.6" fill="#4d724a"/><circle cx="86.9" cy="132.5" r="17.6" fill="#8ccc9a"/><circle cx="86.9" cy="128.8" r="12.8" fill="#72b380"/><ellipse cx="75.3" cy="125.6" rx="10.6" ry="12.1" fill="#8ccc9a"/><ellipse cx="75.3" cy="125.6" rx="9.2" ry="10.9" fill="#72b380"/><ellipse cx="75.3" cy="125.6" rx="7.9" ry="9.3" fill="#fff"/><ellipse cx="98.3" cy="125.6" rx="10.6" ry="12.1" fill="#8ccc9a"/><ellipse cx="98.3" cy="125.6" rx="9.2" ry="10.9" fill="#72b380"/><ellipse cx="98.3" cy="125.6" rx="7.9" ry="9.3" fill="#fff"/><ellipse cx="75.5" cy="125.4" rx="3" ry="3.1" fill="#1b5766"/><ellipse cx="76.5" cy="124.2" rx=".9" ry=".9" fill="#fff"/><ellipse cx="98.9" cy="125.8" rx="3.1" ry="3.1" fill="#1b5766"/><ellipse cx="99.9" cy="124.5" rx=".9" ry=".9" fill="#fff"/><g fill="#8ccc9a"><circle cx="69.5" cy="136.9" r="6.5"/><path d="m87.7 152.3c10.1 0 18-4.8 23.3-12.5-4.3-6.2-11.1-10.3-18.7-11.2h-.2l-1.1-.1-.7-.1c-.6 0-1.2-.1-1.8-.1h-1.9c-.6 0-1.2 0-1.8.1l-.7.1-1.1.1c-7.7 1-14.6 5.1-19.1 11.5 5.6 7.1 13.7 12.2 23.8 12.2"/></g><g fill="#f9eb6b"><path d="m97.5 137.2c-3.2-.7-6.4-1-9.7-.9-3.2 0-6.5.3-9.7.9-7.4 1.2-6.7.2-8.6 0 2.3 8.7 9.1 15.9 18.2 15.9s15.8-6.8 18.4-15.6c-2.8.4-5.7.3-8.6-.3"/><circle cx="86.7" cy="148.2" r="6.7"/></g><path d="m86.8 144.5c2.5 0 4.8 1.1 6.5 2.9-1.7-3.6-6-5.2-9.7-3.5-1.7.8-3.1 2.3-3.8 4.1 1.7-2.2 4.3-3.5 7-3.5" fill="#8ccc9a"/><path d="m72.8 138.1c-2.1 0-3.4-.4-4-1.2-.3-.4-.4-.8-.2-1.3 0-.1.2-.2.3-.1.1.1.2.2.1.3-.1.3 0 .6.2.8.5.6 2.1 1.5 8.2.6 9.8-1.6 11.4-1.7 20.5-.4 5.4.8 8.2.9 9.1.1.2-.2.3-.5.3-.7 0-.1.1-.2.2-.2.1 0 .2.1.2.3 0 .4-.2.8-.5 1.1-1 .9-3.7.9-9.4 0-9-1.4-10.6-1.2-20.3.4-1.6.1-3.2.2-4.7.3" fill="#32747f"/><g fill="#629398"><path d="m80.2 117.3c0 0-.2-.1-.6-.3-.2-.1-.4-.2-.7-.2s-.6-.2-.9-.3-.7-.2-1.1-.2c-.4-.1-.8-.1-1.2-.1-.4 0-.9 0-1.3 0-.5 0-.9.1-1.4.2l-.3.1-.3.1c-.2.1-.4.1-.7.2s-.4.2-.6.2l-.6.3c-.2.1-.4.2-.6.3l-.6.3-.5.4-.4.4c-.1.1-.2.2-.3.4s-.2.2-.3.3-.3.4-.4.6l-.3.5.4-.5c.1-.2.3-.3.5-.5s.2-.2.3-.3.2-.2.4-.3l.4-.3.5-.3.5-.3.6-.3.6-.2.3-.1.3-.1c.4-.1.9-.2 1.3-.3.4-.1.9-.2 1.3-.2.4 0 .9-.1 1.3 0s.8 0 1.2 0l1.1.1.9.1.7.1.4.1.1.1"/><path d="m72.5 116.7l-1.2.1-1.2.1h-.7-.7c-.2 0-.5 0-.7 0h-.3l-.3-.1-.3-.1-.3-.1c-.2-.1-.4-.1-.5-.2l-.2-.1-.2-.1-.3-.2-.3-.2v.1c0 .1.1.1.1.2.1.1.2.2.2.3l.2.2.2.2c.2.1.3.2.5.3l.3.2.3.1c.2.1.5.1.7.2.3 0 .5.1.8.1.3 0 .5 0 .8 0 .2 0 .5-.1.7-.1.4-.1.8-.2 1.2-.3.3-.1.6-.2.8-.4.2 0 .3-.1.4-.2"/><path d="m70.4 117.6l-1.2.1-1.2.1h-.7-.7c-.2 0-.5 0-.7 0h-.3l-.3-.1-.3-.1-.3-.1c-.2-.1-.4-.1-.5-.2l-.2-.1-.2-.1-.3-.2-.3-.2v.1c0 .1.1.1.1.2.1.1.2.2.2.3l.2.2.2.2c.2.1.3.2.5.3l.3.2.3.1c.2.1.5.1.7.2.3 0 .5.1.8.1.3 0 .5 0 .8 0 .2 0 .5-.1.7-.1.4-.1.8-.2 1.2-.3.3-.1.6-.2.8-.4.2 0 .3-.1.4-.2"/><path d="m69.5 118l-.3.1-.8.2-1.1.2-.6.1-.6.1h-.6-.6l-.5-.1-.5-.1-.2-.1-.2-.1-.3-.1-.3-.1v.1l.1.2c.1.1.2.2.2.3l.2.2.2.1c.2.1.3.2.5.3l.3.1.3.1c.2 0 .5.1.7.1.2 0 .5 0 .7 0 .2 0 .5-.1.7-.1.2 0 .4-.1.6-.2.4-.1.7-.3 1.1-.5.2-.1.5-.3.7-.4.1-.2.2-.3.3-.4"/><path d="m68.8 118.4l-.2.1-.5.2-.7.3-.4.2-.4.2-.4.2-.2.1-.2.1-.4.1h-.3-.5-.2l.1.1c.1.1.1.1.2.2l.1.1.2.1c.1 0 .3.1.4.1.2 0 .3 0 .5 0 .2 0 .3 0 .5-.1.2 0 .3-.1.5-.2.2-.1.3-.1.4-.2.1-.1.3-.2.4-.3.2-.2.4-.3.6-.6.1-.1.2-.3.3-.5.1-.1.2-.1.2-.2"/><path d="m93.3 117.6c0 0 .2-.1.6-.3.2-.1.4-.2.7-.2s.6-.2.9-.3.7-.2 1.1-.2c.4-.1.8-.1 1.3-.1.5 0 .9 0 1.4 0 .5 0 .9.1 1.4.2l.3.1.3.1c.2.1.5.1.7.2s.4.2.7.2l.6.3c.2.1.4.2.6.3l.5.4.5.4.4.4c.1.1.2.2.3.4s.2.2.3.3.3.4.4.6l.3.5-.4-.5c-.1-.2-.3-.3-.5-.5s-.2-.2-.3-.3-.2-.2-.4-.3l-.4-.3-.5-.3-.5-.3-.6-.3-.6-.2-.3-.1-.3-.1c-.4-.1-.9-.2-1.3-.3-.4-.1-.9-.2-1.3-.2-.4 0-.9-.1-1.3-.1s-.8 0-1.2 0-.8.1-1.1.1l-.9.2-.7.1-.5.1h-.2"/><path d="m101.1 116.9l1.2.1 1.2.1h.7.7c.2 0 .5 0 .7 0h.3l.3-.1.3-.1.3-.1c.2-.1.4-.1.5-.2l.2-.1.2-.1.3-.2.3-.2v.1c0 .1-.1.1-.1.2-.1.1-.2.2-.2.3l-.2.2-.2.2c-.2.1-.3.3-.5.4l-.3.2-.3.1c-.2.1-.5.1-.8.2-.3 0-.5.1-.8.1-.3 0-.5 0-.8 0-.2 0-.5-.1-.7-.1-.4-.1-.9-.2-1.3-.4-.3-.1-.6-.2-.8-.4 0 0-.1-.1-.2-.2"/><path d="m103.3 117.8l1.2.1 1.2.1h.7.7c.2 0 .5 0 .7 0h.3l.3-.1.3-.1.3-.1c.2-.1.4-.1.5-.2l.2-.1.2-.1.3-.2.3-.2v.1c0 .1-.1.1-.1.2-.1.1-.2.2-.2.3l-.2.2v.3c-.2.1-.3.3-.5.4l-.3.2-.3.1c-.2.1-.5.1-.8.2-.3 0-.5.1-.8.1-.3 0-.5 0-.8 0-.2 0-.5-.1-.7-.1-.4-.1-.9-.2-1.3-.4-.3-.1-.6-.2-.8-.4-.2-.1-.3-.2-.4-.3"/><path d="m104.2 118.3l.3.1.8.2 1.1.2.6.1.6.1h.6.6c.2 0 .4 0 .6-.1l.5-.1.2-.1.2-.1.3-.1.3-.1v.1l-.1.2c-.1.1-.2.2-.2.3l-.2.2-.2.2c-.2.1-.3.2-.5.3l-.3.1-.3.1c-.2 0-.5.1-.7.1-.2 0-.5 0-.7 0-.2 0-.5-.1-.7-.1-.2 0-.4-.1-.6-.2-.4-.1-.7-.3-1.1-.5-.2-.1-.5-.3-.7-.4-.2-.4-.3-.4-.4-.5"/><path d="m104.9 118.7l.2.1.5.2.7.3.4.2.4.2.4.2.2.1.2.1.4.1h.3.5.2l-.1.1c-.1.1-.1.1-.2.2l-.2.1-.2.1c-.1 0-.3.1-.4.1-.2 0-.3 0-.5 0-.2 0-.3 0-.5-.1-.2 0-.3-.1-.5-.2-.2-.1-.3-.1-.4-.2-.1-.1-.3-.2-.4-.3-.2-.2-.4-.4-.6-.6-.1-.1-.2-.3-.3-.5 0-.2-.1-.2-.1-.2"/></g><path d="m55.9 84c-.4 2.9-1.6 5.7-3.5 8-1.7 2.4-6 5.9-5.8 9 .2 4.5 7.2 6.3 8.3 10.6.6 2.2-.4 4.5-.9 6.7-1.3 5.8 5.7 10.3 1.7 10.3" fill="none" stroke="#a4a5a5" stroke-width=".75" stroke-miterlimit="10"/><path d="m68.4 39.6c-10.2-2.7-21 4.3-24.1 15.8-3 11.1 2.4 22.2 12 25.4l-3.2 3.3 8.3 2.6-1.7-5.1c9.5 1.1 18.9-5.7 21.7-16.3 3-11.5-2.8-23-13-25.7" fill="#63c6c6"/><path fill="#fff" d="m74.4 60.2l-7.1-10.7-11.7 5 5.6 1.7-4.4 14.6 7.3 2.2 4.4-14.6z"/><path d="m68.7 148.3l-11.4-18.7-4.5 3.1 15.2 32.5c0 0 1.4-15.1.7-16.9" fill="#8ccc9a"/><path d="m72.7 146.9c0 0-5.9-3.3-5.2.9.3 2.3.5 17.1.5 17.1l3.3-6.9 5.2-8.8-3.8-2.3" fill="#d77f73"/><path d="m56.4 130.5c1-.5 1.6-1.5 1.5-2.6-.2-.6-.5-1.1-1-1.5.5-.5.7-1.1.6-1.8-.3-1-1.2-1.8-2.2-2-1.1-.2-2.1-.3-3.2-.2-.4 0-.7.2-1 .4-.2.8-.4 1.6-.3 2.5-.3.1-.6.2-.8.4-.3 1-.4 2-.4 3 0 .6.2 1.2.6 1.7.1.1.2.2.4.3-.1.5-.2 1-.1 1.6 0 .5.2.9.5 1.2.4.3.9.4 1.4.5 1.1.2 2.3.1 3.4-.2 1-.4 1.7-1.2 1.5-2.1-.1-.6-.4-1-.9-1.2" opacity=".1" fill="#0a0a0a"/><g fill="#8ccc9b"><path d="m50.7 129.5c1.1-.1 2.2 0 3.3.3 1 .2 1.8.8 2.2 1.8.2.9-.5 1.7-1.5 2.1-1.1.3-2.2.4-3.4.2-.5 0-1-.2-1.4-.5-.4-.3-.6-.8-.5-1.2 0-.8.1-1.5.3-2.2.2-.4.6-.5 1-.5"/><path d="m50.1 125.1c1.3-.1 2.7 0 4 .3 1.3.3 2.3 1.1 2.7 2.4.1 1.3-.7 2.4-1.9 2.8-1.3.5-2.7.6-4.1.3-.6 0-1.2-.3-1.7-.6-.4-.4-.7-1-.6-1.7 0-1 .1-2 .4-3 .3-.3.8-.5 1.2-.5"/><path d="m51 122.3c1.1-.1 2.2 0 3.2.2 1 .2 1.9 1 2.2 2 .1 1.1-.5 2.1-1.5 2.4-1.1.4-2.2.5-3.3.3-.5 0-1-.2-1.4-.5-.4-.4-.5-.9-.5-1.4 0-.9.1-1.7.3-2.5.3-.3.7-.4 1-.5"/></g></svg>