<svg xmlns="http://www.w3.org/2000/svg" viewBox="0 0 23 24" enable-background="new 0 0 23 24"><path d="m21 0h-19c-1.1 0-2 .9-2 2v22h23v-22c0-1.1-.9-2-2-2" fill="#5e6c70"/><g fill="#fff"><path d="m19.5 8.7l-8-6.7-8.2 6.5 4.8.1-.1 4.4h6.3l.2-4.3z"/><path d="m7.9 16.5h-1.1v4c0 .3-.3.6-.6.6-.3 0-.6-.3-.6-.6v-4h-1.2c-.3 0-.5-.2-.5-.5 0-.3.2-.5.5-.5h3.5c.3.1.4.4.4.6-.1.1-.2.3-.4.4"/><path d="m11.6 21.1c-1.6.1-3-1.1-3.1-2.7s1.1-3 2.7-3.1c.1 0 .2 0 .3 0 1.6-.1 3 1.1 3.1 2.7s-1.1 3-2.7 3.1c-.1 0-.2 0-.3 0m0-4.7c-.9 0-1.7.8-1.7 1.7 0 0 0 .1 0 .1-.1.9.6 1.8 1.6 1.8.9.1 1.8-.6 1.8-1.6 0-.1 0-.2 0-.3.1-.9-.6-1.7-1.5-1.8-.1.1-.2.1-.2.1"/><path d="m18 19h-1.4v1.5c0 .3-.3.6-.6.6-.3 0-.6-.3-.6-.6v-4.4c0-.4.3-.7.7-.7h1.9c1 0 1.8.8 1.8 1.8 0 1-.9 1.8-1.8 1.8m-.2-2.5h-1.3v1.5h1.3c.4 0 .8-.3.8-.7s-.3-.8-.7-.8c0 0-.1 0-.1 0"/></g></svg>