<svg viewBox="0 0 332.95 118.06" xmlns="http://www.w3.org/2000/svg"><g style="opacity:.1"><path d="m29.58 77.49-28.58 14.75 12.91 8.3-2.77 17.52 27.66-13.83z"/><path d="m24.05 104.23l13.18-4.58 1.57 4.58z"/><path d="m304.36 74.72l28.59 14.75-12.91 8.3 2.77 17.52-27.67-13.83z"/><path d="m309.9 101.46-13.18-4.57-1.58 4.57z"/><path d="m13.91 72a461.79 461.79 0 0 1 307-2.76l-11.01 32.22c-34-11.63-75.64-22.49-141.08-22.13-67.08.37-110.63 12.52-144.77 24.9z"/><path d="m35.17 87-1.31-4.29-2.2.67 1.34 4.27a2.13 2.13 0 1 1 -4.07 1.24l-3.58-11.64a2.12 2.12 0 1 1 4.06-1.25l1.17 3.83 2.21-.67-1.18-3.86a2.11 2.11 0 0 1 4-1.23l3.56 11.69a2.11 2.11 0 1 1 -4 1.23z"/><path d="m39.45 81.63c-.87-3.12-.07-6.28 3.21-7.19s5.64 1.38 6.51 4.5 0 6.31-3.26 7.23-5.59-1.41-6.46-4.54m6-1.65c-.44-1.6-1-2.56-1.87-2.32s-.8 1.34-.35 2.94 1 2.58 1.82 2.35.82-1.35.37-2.95z"/><path d="m57.11 81.28a1.72 1.72 0 0 1 -.84 2 3.05 3.05 0 0 1 -.86.32c-2.27.59-3.41-.28-4-2.49l-1.29-5c-.67.17-1.39-.39-1.62-1.29a1.46 1.46 0 0 1 .8-1.89l-.3-1.42a1.9 1.9 0 0 1 3.68-1l.32 1.49a1.65 1.65 0 0 1 .81 3.19l1.09 4.23c.14.53.35.77.68.74h.22a1.38 1.38 0 0 1 1.31 1.12z"/><path d="m60 70c3.17-.76 5.17 1.31 5.86 4.25.26 1.08-.35 2-1.77 2.3l-3.76.89a1.79 1.79 0 0 0 2.38 1.28 2.55 2.55 0 0 0 1.07-.57 1.24 1.24 0 0 1 .61-.32 1.42 1.42 0 0 1 1.71 1 1.4 1.4 0 0 1 -.36 1.29 5.59 5.59 0 0 1 -2.74 1.67c-3.2.76-5.63-1.18-6.47-4.73-.8-3.27.28-6.31 3.47-7.06zm-.26 4.94 2.47-.59c-.19-.79-.6-1.6-1.63-1.36s-1.04 1.16-.85 1.95z"/><path d="m68 78.6-2.68-12.35a1.89 1.89 0 1 1 3.7-.81l2.71 12.35a1.89 1.89 0 1 1 -3.7.81z"/><path d="m72.85 77.41a1.48 1.48 0 0 1 1.15-1.77 1.24 1.24 0 0 1 .72 0 3.41 3.41 0 0 0 1.62.13c.77-.15 1.12-.52 1-1s-.66-.46-1.44-.55c-1.47-.16-3.63-.41-4.19-3.18-.39-1.88.62-3.9 3.52-4.49a6.27 6.27 0 0 1 3 .15 1.44 1.44 0 0 1 -.11 2.81 1.39 1.39 0 0 1 -.64 0 4 4 0 0 0 -1.61-.06c-.51.1-.86.44-.79.8s.65.4 1.4.5c1.53.17 3.79.43 4.35 3.2.44 2.19-1 4.09-3.59 4.62a7.18 7.18 0 0 1 -3.42-.08 1.5 1.5 0 0 1 -.97-1.08z"/><path d="m84.74 71c-.56-3.2.55-6.26 3.9-6.84s5.48 1.93 6 5.12-.57 6.28-4 6.87-5.35-1.99-5.9-5.15m6.1-1.06c-.28-1.63-.75-2.65-1.63-2.49s-.92 1.25-.64 2.88.73 2.68 1.58 2.53.97-1.29.69-2.95z"/><path d="m99.1 62.27.07.45a1.65 1.65 0 0 1 .5 3.25l1 6.55a1.9 1.9 0 0 1 -3.75.57l-1-6.55c-.68.11-1.34-.52-1.48-1.44a1.48 1.48 0 0 1 1-1.81l-.07-.45c-.41-2.7.62-4.34 3-4.7a3.71 3.71 0 0 1 .48 0 1.63 1.63 0 0 1 1.9 1.48 1.28 1.28 0 0 1 -.88 1.57l-.21.06c-.39.02-.66.38-.56 1.02z"/><path d="m112.5 71a1.74 1.74 0 0 1 -1.08 1.94 4.14 4.14 0 0 1 -.89.21c-2.33.3-3.36-.7-3.65-3l-.68-5.15c-.69.09-1.33-.55-1.45-1.48a1.47 1.47 0 0 1 1-1.78l-.2-1.48a1.9 1.9 0 0 1 3.77-.49l.19 1.47a1.65 1.65 0 0 1 .42 3.27l.57 4.33c.07.55.25.81.59.82h.22a1.39 1.39 0 0 1 1.19 1.34z"/><path d="m118.91 70.16-.66-5.94c-.07-.59-.31-.85-.79-.8s-.87.7-1 1.24l.64 5.7a1.91 1.91 0 0 1 -1.68 2.1 1.89 1.89 0 0 1 -2.09-1.68l-1.4-12.56a1.9 1.9 0 1 1 3.77-.42l.45 4.1a3.65 3.65 0 0 1 2.68-2 2.44 2.44 0 0 1 3 2.39l.83 7.44a1.9 1.9 0 1 1 -3.77.42z"/><path d="m127.94 59c3.25-.28 4.92 2 5.19 5.06.1 1.1-.63 1.89-2.09 2l-3.85.34a1.79 1.79 0 0 0 2.17 1.61 2.51 2.51 0 0 0 1.14-.41 1.34 1.34 0 0 1 .66-.23 1.42 1.42 0 0 1 1.53 1.29 1.4 1.4 0 0 1 -.54 1.23 5.6 5.6 0 0 1 -3 1.2c-3.28.29-5.41-2-5.73-5.62-.24-3.3 1.26-6.16 4.52-6.47zm-1 4.86 2.53-.22c-.07-.82-.36-1.68-1.42-1.59s-1.16 1.02-1.05 1.83z"/><path d="m137.65 67.64l1.9-11.64a2.29 2.29 0 0 1 2.36 -2.12l2.78-.16c2.47-.13 4.88 1.75 5.08 5.35.21 3.78-1.27 10.47-7.57 10.82l-2.42.13a1.84 1.84 0 0 1 -2.13 -2.38m7.83-8.27c-.07-1.38-.68-1.95-1.35-1.91h-.63l-1.41 8.71h.64c2.21-.17 2.86-4.9 2.75-6.8"/><path d="m150 67.45 1.55-8.38a1.86 1.86 0 0 1 1.75-1.51 1.82 1.82 0 0 1 1.88 2.19l-1.55 8.39a1.87 1.87 0 0 1 -1.75 1.51 1.82 1.82 0 0 1 -1.88-2.2zm4.52-15.55a1.88 1.88 0 0 1 2 1.78 2.5 2.5 0 0 1 -2.36 2.58 1.89 1.89 0 0 1 -2-1.78 2.5 2.5 0 0 1 2.31-2.58z"/><path d="m155.09 67.4a1.55 1.55 0 0 1 2.35-1.35 3.09 3.09 0 0 0 1.64.5c.68 0 1.08-.33 1.07-.74s-.52-.62-1.17-.92c-1.14-.55-2.71-1.29-2.75-3.23a4.18 4.18 0 0 1 4.43-4.36 6 6 0 0 1 3 .75 1.51 1.51 0 0 1 -.66 2.85 1.35 1.35 0 0 1 -.77-.2 2.8 2.8 0 0 0 -1.5-.45c-.55 0-.9.26-.9.67s.49.51 1.12.79c1.19.55 2.91 1.34 2.95 3.35a4.46 4.46 0 0 1 -4.69 4.44 6.74 6.74 0 0 1 -3.28-.78 1.56 1.56 0 0 1 -.84-1.32z"/><path d="m175.47 60-1.74 7.87a1.84 1.84 0 0 1 -1.8 1.46 1.8 1.8 0 0 1 -1.8-2.26l1.24-5.54c.12-.55.09-1-.51-1s-1.05.6-1.37 1.13l-1.38 6.16a1.85 1.85 0 0 1 -1.8 1.46 1.8 1.8 0 0 1 -1.8-2.26l1.87-8.32a1.84 1.84 0 0 1 3.62.3 4.16 4.16 0 0 1 3.12-1.75c1.71-.02 2.74 1.02 2.35 2.75z"/><path d="m181.91 57.39c3 .08 4.1 2 4 4.42a7 7 0 0 1 -.09 1 2.18 2.18 0 0 1 -2.5 1.93l-4.05-.1a2 2 0 0 0 0 .36c0 .44.28 1.45 1.91 1.49a2.41 2.41 0 0 0 1-.19 1.14 1.14 0 0 1 .53-.08 1.35 1.35 0 0 1 .56 2.58 6.3 6.3 0 0 1 -3 .69c-2.9-.07-4.53-1.91-4.46-4.86.12-3.33 2.36-7.33 6.1-7.24zm.69 4.2a1.07 1.07 0 0 0 -1.08-1.18c-1 0-1.48 1-1.62 1.69l2.64.06a5.51 5.51 0 0 0 .06-.57z"/><path d="m186.25 70.79h.24a1 1 0 0 0 .82-.53l.44-.7-.18-9.91a1.86 1.86 0 1 1 3.72.11l-.36 5.1 2.82-5.86a1.83 1.83 0 0 1 1.71-1 1.78 1.78 0 0 1 1.46 2.67l-6 10.47c-1.47 2.48-2.53 3-4.28 3h-.21a1.65 1.65 0 0 1 -1.6-1.71 1.71 1.71 0 0 1 1.42-1.64z"/><path d="m196.36 67.85 3.64-12.52a1.85 1.85 0 0 1 1.87-1.33 1.8 1.8 0 0 1 1.65 2.37l-3.62 12.5a1.87 1.87 0 0 1 -1.9 1.35 1.81 1.81 0 0 1 -1.64-2.37z"/><path d="m213.41 61.57-2.53 8.17a1.83 1.83 0 0 1 -1.9 1.44 2 2 0 0 1 -1.83-1.79 3 3 0 0 1 -2.61 1.35c-1.82-.15-2.7-1.52-2.48-4.18.26-3.16 2.21-8.06 5.48-7.79a2.31 2.31 0 0 1 2.34 1.81v-.12a1.87 1.87 0 0 1 1.91-1.26 1.81 1.81 0 0 1 1.62 2.37zm-4.29 1.5a1 1 0 0 0 -.89-.89c-1.36-.11-2.14 2.91-2.24 4.13-.07.76.23 1.22.85 1.27a1.32 1.32 0 0 0 1.1-.7z"/><path d="m224.39 63.2-2.56 7.65a1.84 1.84 0 0 1 -1.94 1.26 1.8 1.8 0 0 1 -1.55-2.43l1.8-5.38c.18-.54.2-.95-.4-1s-1.11.48-1.48 1l-2 6a1.85 1.85 0 0 1 -1.95 1.27 1.81 1.81 0 0 1 -1.55-2.44l2.72-8.13a1.86 1.86 0 0 1 1.93-1.37 1.84 1.84 0 0 1 1.67 2 4.19 4.19 0 0 1 3.29-1.41c1.63.17 2.63 1.31 2.02 2.98z"/><path d="m237.22 60-4.46 12.29a1.82 1.82 0 0 1 -2 1.34 2 2 0 0 1 -1.74-1.85 3 3 0 0 1 -2.68 1.2c-1.81-.23-2.62-1.65-2.27-4.29.41-3.14 2.59-7.94 5.85-7.51a2.29 2.29 0 0 1 2.24 1.91l1.59-4.34a1.83 1.83 0 0 1 1.95-1.2 1.86 1.86 0 0 1 1.52 2.45zm-5.9 5.54a1 1 0 0 0 -.85-.93c-1.36-.18-2.28 2.8-2.44 4-.1.77.18 1.24.8 1.32a1.29 1.29 0 0 0 1.12-.65z"/><path d="m238.07 63a5.09 5.09 0 1 1 4.22 5.81 5.07 5.07 0 0 1 -4.22-5.81zm9.24 1.44a4.27 4.27 0 1 0 -4.9 3.56 4.26 4.26 0 0 0 4.9-3.59zm-3.95 2.18-.6-2.25-1-.16-.77 2a.43.43 0 0 1 -.48.29.42.42 0 0 1 -.32-.61l1.83-4.71a.56.56 0 0 1 .61-.37l1.78.28a1.59 1.59 0 0 1 1.5 1.78 2 2 0 0 1 -2.2 1.65l.53 1.88a.48.48 0 0 1 -.53.6.46.46 0 0 1 -.35-.41zm-.53-5.06-.76 1.92 1.47.23a1.18 1.18 0 0 0 1.46-1c.07-.45-.13-.87-.89-1z"/><path d="m258.91 78.11a2.18 2.18 0 0 1 -1.68-1.78l-.77-4.33-.75-.14-.64 3.35a2.12 2.12 0 1 1 -4.17-.8l2.21-11.62a2 2 0 0 1 2.64-1.79l3.25.62a5 5 0 0 1 3.93 6 5.28 5.28 0 0 1 -2.51 4l1 4.07a1.51 1.51 0 0 1 0 .64 2.08 2.08 0 0 1 -2.51 1.78zm-1.91-9.76c.82.15 1.48-.33 1.67-1.35s-.23-1.73-1.06-1.88l-.61-.12-.61 3.23z"/><path d="m268.81 67.82c3.19.68 4.1 3.41 3.47 6.37-.23 1.07-1.16 1.61-2.59 1.31l-3.78-.82a1.8 1.8 0 0 0 1.6 2.19 2.53 2.53 0 0 0 1.21 -.06 1.24 1.24 0 0 1 .69 0 1.4 1.4 0 0 1 .21 2.69 5.62 5.62 0 0 1 -3.18 .28c-3.21-.69-4.57-3.49-3.81-7.06.71-3.3 2.99-5.59 6.18-4.9m-2.36 4.35l2.49.54c.17-.8.15-1.71-.89-1.94s-1.43.61-1.6 1.4"/><path d="m271.94 78.82a1.48 1.48 0 0 1 1.8-1.13 1.33 1.33 0 0 1 .63.34 3.36 3.36 0 0 0 1.41.81c.77.18 1.24 0 1.34-.45s-.4-.69-1.07-1.09c-1.27-.77-3.13-1.9-2.48-4.66.44-1.87 2.21-3.28 5.08-2.6a6.23 6.23 0 0 1 2.68 1.4 1.45 1.45 0 0 1 -1.28 2.56 1.56 1.56 0 0 1 -.58-.28 3.76 3.76 0 0 0 -1.43-.74c-.51-.12-1 0-1.05.39s.41.65 1.06 1.05c1.31.8 3.26 2 2.6 4.73-.51 2.17-2.6 3.31-5.2 2.69a7.24 7.24 0 0 1 -3.07-1.51 1.5 1.5 0 0 1 -.44-1.51z"/><path d="m281.83 77c.82-3.13 3.08-5.47 6.38-4.61s4.19 4 3.38 7.14-3.11 5.49-6.43 4.63-4.16-3.98-3.33-7.16m6 1.56c.41-1.61.4-2.72-.46-2.95s-1.37.81-1.77 2.39-.44 2.74.39 3 1.41-.78 1.84-2.4z"/><path d="m300.37 77.56a1.66 1.66 0 0 1 -1.88 1.37 2.65 2.65 0 0 0 -1.65.55l-1.52 5.43a1.9 1.9 0 0 1 -3.66-1l2.23-7.91a1.9 1.9 0 0 1 2.34-1.34 2 2 0 0 1 1.4 1.94 2.55 2.55 0 0 1 .66-.76 1.3 1.3 0 0 1 1.27-.25c.65.15 1.13.84.81 1.97z"/><path d="m304.39 87.67a1.72 1.72 0 0 1 -1.77 1.33 4.05 4.05 0 0 1 -.9-.16c-2.26-.67-2.79-2-2.14-4.19l1.48-5a1.71 1.71 0 0 1 .94-3.16l.42-1.42a1.9 1.9 0 0 1 3.64 1.08l-.43 1.42a1.58 1.58 0 0 1 1 2 1.6 1.6 0 0 1 -2 1.15l-1.25 4.18c-.16.53-.1.85.21 1l.2.09a1.38 1.38 0 0 1 .6 1.68z"/></g><path d="m28.58 75.49-28.58 14.75 12.91 8.3-2.77 17.52 27.66-13.83z" style="fill:#dfe561"/><path d="m23.05 102.23l13.18-4.58 1.57 4.58z" style="fill:#c9c94f"/><path d="m303.36 72.72l28.59 14.75-12.91 8.3 2.77 17.52-27.67-13.83z" style="fill:#dfe561"/><path d="m308.9 99.46-13.18-4.57-1.58 4.57z" style="fill:#c9c94f"/><path d="m12.91 70a461.79 461.79 0 0 1 307-2.76l-11.01 32.22c-34-11.63-75.64-22.49-141.08-22.13-67.08.37-110.63 12.52-144.77 24.9z" style="fill:#f2ff7f"/><g style="fill:#d36b46"><path d="m34.17 85-1.31-4.29-2.2.67 1.34 4.27a2.13 2.13 0 1 1 -4.07 1.24l-3.58-11.64a2.12 2.12 0 1 1 4.06-1.25l1.17 3.83 2.21-.67-1.18-3.86a2.11 2.11 0 0 1 4-1.23l3.56 11.69a2.11 2.11 0 1 1 -4 1.23z"/><path d="m38.45 79.63c-.87-3.12-.07-6.28 3.21-7.19s5.64 1.38 6.51 4.5 0 6.31-3.26 7.23-5.59-1.41-6.46-4.54m6-1.65c-.44-1.6-1-2.56-1.87-2.32s-.8 1.34-.35 2.94 1 2.58 1.82 2.35.82-1.35.37-2.95z"/><path d="m56.11 79.28a1.72 1.72 0 0 1 -.84 2 3.05 3.05 0 0 1 -.86.32c-2.27.59-3.41-.28-4-2.49l-1.29-5c-.67.17-1.39-.39-1.62-1.29a1.46 1.46 0 0 1 .8-1.89l-.3-1.42a1.9 1.9 0 0 1 3.68-1l.32 1.49a1.65 1.65 0 0 1 .81 3.19l1.09 4.23c.14.53.35.77.68.74h.22a1.38 1.38 0 0 1 1.31 1.12z"/><path d="m59 68c3.17-.76 5.17 1.31 5.86 4.25.26 1.08-.35 2-1.77 2.3l-3.76.89a1.79 1.79 0 0 0 2.38 1.28 2.55 2.55 0 0 0 1.07-.57 1.24 1.24 0 0 1 .61-.32 1.42 1.42 0 0 1 1.71 1 1.4 1.4 0 0 1 -.36 1.29 5.59 5.59 0 0 1 -2.74 1.67c-3.2.76-5.63-1.18-6.47-4.73-.8-3.27.28-6.31 3.47-7.06zm-.26 4.94 2.47-.59c-.19-.79-.6-1.6-1.63-1.36s-1.04 1.16-.85 1.95z"/><path d="m67 76.6-2.68-12.35a1.89 1.89 0 1 1 3.7-.81l2.71 12.35a1.89 1.89 0 1 1 -3.7.81z"/><path d="m71.85 75.41a1.48 1.48 0 0 1 1.15-1.77 1.24 1.24 0 0 1 .72 0 3.41 3.41 0 0 0 1.62.13c.77-.15 1.12-.52 1-1s-.66-.46-1.44-.55c-1.47-.16-3.63-.41-4.19-3.18-.39-1.88.62-3.9 3.52-4.49a6.27 6.27 0 0 1 3 .15 1.44 1.44 0 0 1 -.11 2.81 1.39 1.39 0 0 1 -.64 0 4 4 0 0 0 -1.61-.06c-.51.1-.86.44-.79.8s.65.4 1.4.5c1.53.17 3.79.43 4.35 3.2.44 2.19-1 4.09-3.59 4.62a7.18 7.18 0 0 1 -3.42-.08 1.5 1.5 0 0 1 -.97-1.08z"/><path d="m83.74 69c-.56-3.2.55-6.26 3.9-6.84s5.48 1.93 6 5.12-.57 6.28-4 6.87-5.35-1.99-5.9-5.15m6.1-1.06c-.28-1.63-.75-2.65-1.63-2.49s-.92 1.25-.64 2.88.73 2.68 1.58 2.53.97-1.29.69-2.95z"/><path d="m98.1 60.27.07.45a1.65 1.65 0 0 1 .5 3.25l1 6.55a1.9 1.9 0 0 1 -3.75.57l-1-6.55c-.68.11-1.34-.52-1.48-1.44a1.48 1.48 0 0 1 1-1.81l-.07-.45c-.41-2.7.62-4.34 3-4.7a3.71 3.71 0 0 1 .48 0 1.63 1.63 0 0 1 1.9 1.48 1.28 1.28 0 0 1 -.88 1.57l-.21.06c-.39.02-.66.38-.56 1.02z"/><path d="m111.5 69a1.74 1.74 0 0 1 -1.08 1.94 4.14 4.14 0 0 1 -.89.21c-2.33.3-3.36-.7-3.65-3l-.68-5.15c-.69.09-1.33-.55-1.45-1.48a1.47 1.47 0 0 1 1-1.78l-.2-1.48a1.9 1.9 0 0 1 3.77-.49l.19 1.47a1.65 1.65 0 0 1 .42 3.27l.57 4.33c.07.55.25.81.59.82h.22a1.39 1.39 0 0 1 1.19 1.34z"/><path d="m117.91 68.16-.66-5.94c-.07-.59-.31-.85-.79-.8s-.87.7-1 1.24l.64 5.7a1.91 1.91 0 0 1 -1.68 2.1 1.89 1.89 0 0 1 -2.09-1.68l-1.4-12.56a1.9 1.9 0 1 1 3.77-.42l.45 4.1a3.65 3.65 0 0 1 2.68-2 2.44 2.44 0 0 1 3 2.39l.83 7.44a1.9 1.9 0 1 1 -3.77.42z"/><path d="m126.94 57c3.25-.28 4.92 2 5.19 5.06.1 1.1-.63 1.89-2.09 2l-3.85.34a1.79 1.79 0 0 0 2.17 1.61 2.51 2.51 0 0 0 1.14-.41 1.34 1.34 0 0 1 .66-.23 1.42 1.42 0 0 1 1.53 1.29 1.4 1.4 0 0 1 -.54 1.23 5.6 5.6 0 0 1 -3 1.2c-3.28.29-5.41-2-5.73-5.62-.24-3.3 1.26-6.16 4.52-6.47zm-1 4.86 2.53-.22c-.07-.82-.36-1.68-1.42-1.59s-1.16 1.02-1.05 1.83z"/><path d="m136.65 65.64l1.9-11.64a2.29 2.29 0 0 1 2.36 -2.12l2.78-.16c2.47-.13 4.88 1.75 5.08 5.35.21 3.78-1.27 10.47-7.57 10.82l-2.42.13a1.84 1.84 0 0 1 -2.13 -2.38m7.83-8.27c-.07-1.38-.68-1.95-1.35-1.91h-.63l-1.41 8.71h.64c2.21-.17 2.86-4.9 2.75-6.8"/><path d="m149 65.45 1.55-8.38a1.86 1.86 0 0 1 1.75-1.51 1.82 1.82 0 0 1 1.88 2.19l-1.55 8.39a1.87 1.87 0 0 1 -1.75 1.51 1.82 1.82 0 0 1 -1.88-2.2zm4.52-15.55a1.88 1.88 0 0 1 2 1.78 2.5 2.5 0 0 1 -2.36 2.58 1.89 1.89 0 0 1 -2-1.78 2.5 2.5 0 0 1 2.31-2.58z"/><path d="m154.09 65.4a1.55 1.55 0 0 1 2.35-1.35 3.09 3.09 0 0 0 1.64.5c.68 0 1.08-.33 1.07-.74s-.52-.62-1.17-.92c-1.14-.55-2.71-1.29-2.75-3.23a4.18 4.18 0 0 1 4.43-4.36 6 6 0 0 1 3 .75 1.51 1.51 0 0 1 -.66 2.85 1.35 1.35 0 0 1 -.77-.2 2.8 2.8 0 0 0 -1.5-.45c-.55 0-.9.26-.9.67s.49.51 1.12.79c1.19.55 2.91 1.34 2.95 3.35a4.46 4.46 0 0 1 -4.69 4.44 6.74 6.74 0 0 1 -3.28-.78 1.56 1.56 0 0 1 -.84-1.32z"/><path d="m174.47 58-1.74 7.87a1.84 1.84 0 0 1 -1.8 1.46 1.8 1.8 0 0 1 -1.8-2.26l1.24-5.54c.12-.55.09-1-.51-1s-1.05.6-1.37 1.13l-1.38 6.16a1.85 1.85 0 0 1 -1.8 1.46 1.8 1.8 0 0 1 -1.8-2.26l1.87-8.32a1.84 1.84 0 0 1 3.62.3 4.16 4.16 0 0 1 3.12-1.75c1.71-.02 2.74 1.02 2.35 2.75z"/><path d="m180.91 55.39c3 .08 4.1 2 4 4.42a7 7 0 0 1 -.09 1 2.18 2.18 0 0 1 -2.5 1.93l-4.05-.1a2 2 0 0 0 0 .36c0 .44.28 1.45 1.91 1.49a2.41 2.41 0 0 0 1-.19 1.14 1.14 0 0 1 .53-.08 1.35 1.35 0 0 1 .56 2.58 6.3 6.3 0 0 1 -3 .69c-2.9-.07-4.53-1.91-4.46-4.86.12-3.33 2.36-7.33 6.1-7.24zm.69 4.2a1.07 1.07 0 0 0 -1.08-1.18c-1 0-1.48 1-1.62 1.69l2.64.06a5.51 5.51 0 0 0 .06-.57z"/><path d="m185.25 68.79h.24a1 1 0 0 0 .82-.53l.44-.7-.18-9.91a1.86 1.86 0 1 1 3.72.11l-.36 5.1 2.82-5.86a1.83 1.83 0 0 1 1.71-1 1.78 1.78 0 0 1 1.46 2.67l-6 10.47c-1.47 2.48-2.53 3-4.28 3h-.21a1.65 1.65 0 0 1 -1.6-1.71 1.71 1.71 0 0 1 1.42-1.64z"/><path d="m195.36 65.85 3.64-12.52a1.85 1.85 0 0 1 1.87-1.33 1.8 1.8 0 0 1 1.65 2.37l-3.62 12.5a1.87 1.87 0 0 1 -1.9 1.35 1.81 1.81 0 0 1 -1.64-2.37z"/><path d="m212.41 59.57-2.53 8.17a1.83 1.83 0 0 1 -1.9 1.44 2 2 0 0 1 -1.83-1.79 3 3 0 0 1 -2.61 1.35c-1.82-.15-2.7-1.52-2.48-4.18.26-3.16 2.21-8.06 5.48-7.79a2.31 2.31 0 0 1 2.34 1.81v-.12a1.87 1.87 0 0 1 1.91-1.26 1.81 1.81 0 0 1 1.62 2.37zm-4.29 1.5a1 1 0 0 0 -.89-.89c-1.36-.11-2.14 2.91-2.24 4.13-.07.76.23 1.22.85 1.27a1.32 1.32 0 0 0 1.1-.7z"/><path d="m223.39 61.2-2.56 7.65a1.84 1.84 0 0 1 -1.94 1.26 1.8 1.8 0 0 1 -1.55-2.43l1.8-5.38c.18-.54.2-.95-.4-1s-1.11.48-1.48 1l-2 6a1.85 1.85 0 0 1 -1.95 1.27 1.81 1.81 0 0 1 -1.55-2.44l2.72-8.13a1.86 1.86 0 0 1 1.93-1.37 1.84 1.84 0 0 1 1.67 2 4.19 4.19 0 0 1 3.29-1.41c1.63.17 2.63 1.31 2.02 2.98z"/><path d="m236.22 58-4.46 12.29a1.82 1.82 0 0 1 -2 1.34 2 2 0 0 1 -1.74-1.85 3 3 0 0 1 -2.68 1.2c-1.81-.23-2.62-1.65-2.27-4.29.41-3.14 2.59-7.94 5.85-7.51a2.29 2.29 0 0 1 2.24 1.91l1.59-4.34a1.83 1.83 0 0 1 1.95-1.2 1.86 1.86 0 0 1 1.52 2.45zm-5.9 5.54a1 1 0 0 0 -.85-.93c-1.36-.18-2.28 2.8-2.44 4-.1.77.18 1.24.8 1.32a1.29 1.29 0 0 0 1.12-.65z"/><path d="m237.07 61a5.09 5.09 0 1 1 4.22 5.81 5.07 5.07 0 0 1 -4.22-5.81zm9.24 1.44a4.27 4.27 0 1 0 -4.9 3.56 4.26 4.26 0 0 0 4.9-3.59zm-3.95 2.18-.6-2.25-1-.16-.77 2a.43.43 0 0 1 -.48.29.42.42 0 0 1 -.32-.61l1.83-4.71a.56.56 0 0 1 .61-.37l1.78.28a1.59 1.59 0 0 1 1.5 1.78 2 2 0 0 1 -2.2 1.65l.53 1.88a.48.48 0 0 1 -.53.6.46.46 0 0 1 -.35-.41zm-.53-5.06-.76 1.92 1.47.23a1.18 1.18 0 0 0 1.46-1c.07-.45-.13-.87-.89-1z"/><path d="m257.91 76.11a2.18 2.18 0 0 1 -1.68-1.78l-.77-4.33-.75-.14-.64 3.35a2.12 2.12 0 1 1 -4.17-.8l2.21-11.62a2 2 0 0 1 2.64-1.79l3.25.62a5 5 0 0 1 3.93 6 5.28 5.28 0 0 1 -2.51 4l1 4.07a1.51 1.51 0 0 1 0 .64 2.08 2.08 0 0 1 -2.51 1.78zm-1.91-9.76c.82.15 1.48-.33 1.67-1.35s-.23-1.73-1.06-1.88l-.61-.12-.61 3.23z"/><path d="m267.81 65.82c3.19.68 4.1 3.41 3.47 6.37-.23 1.07-1.16 1.61-2.59 1.31l-3.78-.82a1.8 1.8 0 0 0 1.6 2.19 2.53 2.53 0 0 0 1.21 -.06 1.24 1.24 0 0 1 .69 0 1.4 1.4 0 0 1 .21 2.69 5.62 5.62 0 0 1 -3.18 .28c-3.21-.69-4.57-3.49-3.81-7.06.71-3.3 2.99-5.59 6.18-4.9m-2.36 4.35l2.49.54c.17-.8.15-1.71-.89-1.94s-1.43.61-1.6 1.4"/><path d="m270.94 76.82a1.48 1.48 0 0 1 1.8-1.13 1.33 1.33 0 0 1 .63.34 3.36 3.36 0 0 0 1.41.81c.77.18 1.24 0 1.34-.45s-.4-.69-1.07-1.09c-1.27-.77-3.13-1.9-2.48-4.66.44-1.87 2.21-3.28 5.08-2.6a6.23 6.23 0 0 1 2.68 1.4 1.45 1.45 0 0 1 -1.28 2.56 1.56 1.56 0 0 1 -.58-.28 3.76 3.76 0 0 0 -1.43-.74c-.51-.12-1 0-1.05.39s.41.65 1.06 1.05c1.31.8 3.26 2 2.6 4.73-.51 2.17-2.6 3.31-5.2 2.69a7.24 7.24 0 0 1 -3.07-1.51 1.5 1.5 0 0 1 -.44-1.51z"/><path d="m280.83 75c.82-3.13 3.08-5.47 6.38-4.61s4.19 4 3.38 7.14-3.11 5.49-6.43 4.63-4.16-3.98-3.33-7.16m6 1.56c.41-1.61.4-2.72-.46-2.95s-1.37.81-1.77 2.39-.44 2.74.39 3 1.41-.78 1.84-2.4z"/><path d="m299.37 75.56a1.66 1.66 0 0 1 -1.88 1.37 2.65 2.65 0 0 0 -1.65.55l-1.52 5.43a1.9 1.9 0 0 1 -3.66-1l2.23-7.91a1.9 1.9 0 0 1 2.34-1.34 2 2 0 0 1 1.4 1.94 2.55 2.55 0 0 1 .66-.76 1.3 1.3 0 0 1 1.27-.25c.65.15 1.13.84.81 1.97z"/><path d="m303.39 85.67a1.72 1.72 0 0 1 -1.77 1.33 4.05 4.05 0 0 1 -.9-.16c-2.26-.67-2.79-2-2.14-4.19l1.48-5a1.71 1.71 0 0 1 .94-3.16l.42-1.42a1.9 1.9 0 0 1 3.64 1.08l-.43 1.42a1.58 1.58 0 0 1 1 2 1.6 1.6 0 0 1 -2 1.15l-1.25 4.18c-.16.53-.1.85.21 1l.2.09a1.38 1.38 0 0 1 .6 1.68z"/></g><g style="opacity:.1"><path d="m86.7 34.93a4 4 0 0 1 -3.91-3.53l-1.87-18.32a4.5 4.5 0 0 1 4-4.92 3.54 3.54 0 0 1 .46 0 4.47 4.47 0 0 1 4.1 2.68l2 4.53-.4-3.87a3.93 3.93 0 0 1 .92-2.89 3.84 3.84 0 0 1 2.6-1.43 2.68 2.68 0 0 1 .4 0 3.94 3.94 0 0 1 3.87 3.53l1.9 18.58a4.21 4.21 0 0 1 -.93 3.08 4.17 4.17 0 0 1 -2.84 1.53 3 3 0 0 1 -.42 0 4.28 4.28 0 0 1 -3.84-2.43l-2.61-5.63.49 4.74a3.94 3.94 0 0 1 -3.52 4.31z"/><path d="m95 7.9a3.19 3.19 0 0 1 3.14 2.87l1.86 18.57a3.49 3.49 0 0 1 -3.11 3.81 1.94 1.94 0 0 1 -.34 0 3.55 3.55 0 0 1 -3.17-2l-4.48-9.69.94 9.2a3.19 3.19 0 0 1 -2.84 3.5h-.32a3.22 3.22 0 0 1 -3.17-2.86l-1.84-18.3a3.74 3.74 0 0 1 3.33-4.09 2.55 2.55 0 0 1 .39 0 3.72 3.72 0 0 1 3.41 2.23l3.91 8.86-.87-8.57a3.18 3.18 0 0 1 2.84-3.49h.31m0-1.5a3.55 3.55 0 0 0 -.46 0 4.66 4.66 0 0 0 -4.2 4.44l-.16-.35a5.2 5.2 0 0 0 -4.78-3.13h-.54a5.25 5.25 0 0 0 -4.68 5.74l1.83 18.33a4.73 4.73 0 0 0 4.66 4.21 3.71 3.71 0 0 0 .47 0 4.68 4.68 0 0 0 4.18-5.13v-.27l.69 1.52a5.06 5.06 0 0 0 4.53 2.87h.5a5 5 0 0 0 4.44-5.46l-1.85-18.6a4.65 4.65 0 0 0 -4.62-4.21z"/></g><path d="m85.7 32.93a4 4 0 0 1 -3.91-3.53l-1.87-18.32a4.5 4.5 0 0 1 4-4.92 3.54 3.54 0 0 1 .46 0 4.47 4.47 0 0 1 4.1 2.68l2 4.53-.4-3.87a3.93 3.93 0 0 1 .92-2.89 3.84 3.84 0 0 1 2.6-1.43 2.68 2.68 0 0 1 .4 0 3.94 3.94 0 0 1 3.87 3.53l1.9 18.58a4.21 4.21 0 0 1 -.93 3.08 4.17 4.17 0 0 1 -2.84 1.53 3 3 0 0 1 -.42 0 4.28 4.28 0 0 1 -3.84-2.43l-2.61-5.63.49 4.74a3.94 3.94 0 0 1 -3.52 4.31z" style="fill:#fff"/><path d="m94 5.9a3.19 3.19 0 0 1 3.14 2.87l1.86 18.57a3.49 3.49 0 0 1 -3.11 3.81 1.94 1.94 0 0 1 -.34 0 3.55 3.55 0 0 1 -3.17-2l-4.48-9.69.94 9.2a3.19 3.19 0 0 1 -2.84 3.5h-.32a3.22 3.22 0 0 1 -3.17-2.86l-1.84-18.3a3.74 3.74 0 0 1 3.33-4.09 2.55 2.55 0 0 1 .39 0 3.72 3.72 0 0 1 3.41 2.21l3.91 8.88-.87-8.57a3.18 3.18 0 0 1 2.84-3.49h.31m0-1.5a3.55 3.55 0 0 0 -.46 0 4.66 4.66 0 0 0 -4.2 4.44l-.16-.35a5.2 5.2 0 0 0 -4.78-3.13h-.54a5.25 5.25 0 0 0 -4.68 5.74l1.83 18.33a4.73 4.73 0 0 0 4.66 4.21 3.71 3.71 0 0 0 .47 0 4.68 4.68 0 0 0 4.18-5.13v-.27l.69 1.52a5.06 5.06 0 0 0 4.53 2.87h.5a5 5 0 0 0 4.44-5.46l-1.85-18.6a4.65 4.65 0 0 0 -4.62-4.21z" style="fill:#d36b46"/><g style="opacity:.1"><path d="m123.23 30.75a4.48 4.48 0 0 1 -4.33-3.24l-3.51-11.94a4.73 4.73 0 0 1 -.13-.87 3.6 3.6 0 0 1 3.41-3.77h.18a3.6 3.6 0 0 1 3.51 2.76l1 4 .5-3.81a4.07 4.07 0 0 1 3.86-3.44h.2a3.79 3.79 0 0 1 3.68 2.93l1.11 4.18.59-4.39a3.58 3.58 0 0 1 3.4-3.15h.18a3.62 3.62 0 0 1 3.62 3.46 4.19 4.19 0 0 1 0 .79l-2.34 12.27a4.51 4.51 0 0 1 -4.22 3.67h-.22a4.51 4.51 0 0 1 -4.34-3.34l-1-3.82-.63 3.9a4.49 4.49 0 0 1 -4.22 3.76z"/><path d="m136.84 10.8a2.9 2.9 0 0 1 2.88 2.75 3.85 3.85 0 0 1 -.05.67l-2.33 12.21a3.74 3.74 0 0 1 -3.51 3.06h-.19a3.72 3.72 0 0 1 -3.64-2.78l-1.91-7.23-1.19 7.39a3.75 3.75 0 0 1 -3.49 3.13h-.18a3.76 3.76 0 0 1 -3.61-2.71l-3.51-11.93a4 4 0 0 1 -.1-.7 2.84 2.84 0 0 1 2.7-3h.14a2.86 2.86 0 0 1 2.78 2.19l1.91 8 1-7.86a3.35 3.35 0 0 1 3.16-2.78h.16a3 3 0 0 1 3 2.37l2.09 7.82 1.05-8.09a2.87 2.87 0 0 1 2.7-2.5h.14m0-1.5h-.22a4.31 4.31 0 0 0 -4.1 3.79l-.09.67-.15-.55a4.51 4.51 0 0 0 -4.4-3.48h-.23a4.85 4.85 0 0 0 -4.54 3.87v-.09a4.36 4.36 0 0 0 -4.24-3.34h-.21a4.35 4.35 0 0 0 -4.13 4.55 5.08 5.08 0 0 0 .15 1v.06l3.51 11.94a5.24 5.24 0 0 0 5 3.78h.26a5.24 5.24 0 0 0 4.92-4.39l.06-.41.11.4a5.26 5.26 0 0 0 5.06 3.9h.26a5.27 5.27 0 0 0 4.92-4.27l2.33-12.22v-.11a5 5 0 0 0 .05-.91 4.38 4.38 0 0 0 -4.37-4.18z"/></g><path d="m122.23 28.75a4.48 4.48 0 0 1 -4.33-3.24l-3.51-11.94a4.73 4.73 0 0 1 -.13-.87 3.6 3.6 0 0 1 3.41-3.77h.18a3.6 3.6 0 0 1 3.51 2.76l1 4.05.5-3.81a4.07 4.07 0 0 1 3.86-3.44h.2a3.79 3.79 0 0 1 3.68 2.93l1.11 4.18.59-4.39a3.58 3.58 0 0 1 3.4-3.15h.18a3.62 3.62 0 0 1 3.62 3.46 4.19 4.19 0 0 1 0 .79l-2.34 12.27a4.51 4.51 0 0 1 -4.22 3.67h-.22a4.51 4.51 0 0 1 -4.34-3.34l-1-3.82-.63 3.9a4.49 4.49 0 0 1 -4.22 3.76z" style="fill:#fff"/><path d="m135.84 8.8a2.9 2.9 0 0 1 2.88 2.75 3.85 3.85 0 0 1 -.05.67l-2.33 12.21a3.74 3.74 0 0 1 -3.51 3.06h-.19a3.72 3.72 0 0 1 -3.64-2.78l-1.91-7.23-1.19 7.39a3.75 3.75 0 0 1 -3.49 3.13h-.18a3.76 3.76 0 0 1 -3.61-2.71l-3.51-11.93a4 4 0 0 1 -.1-.7 2.84 2.84 0 0 1 2.7-3h.14a2.86 2.86 0 0 1 2.78 2.19l1.91 8 1-7.86a3.35 3.35 0 0 1 3.16-2.78h.16a3 3 0 0 1 3 2.37l2.09 7.82 1.05-8.09a2.87 2.87 0 0 1 2.7-2.5h.14m0-1.5h-.22a4.31 4.31 0 0 0 -4.1 3.79l-.09.67-.15-.55a4.51 4.51 0 0 0 -4.4-3.48h-.23a4.85 4.85 0 0 0 -4.54 3.87v-.09a4.36 4.36 0 0 0 -4.24-3.34h-.21a4.35 4.35 0 0 0 -4.13 4.55 5.08 5.08 0 0 0 .15 1v.06l3.51 11.94a5.24 5.24 0 0 0 5 3.78h.26a5.24 5.24 0 0 0 4.92-4.39l.06-.41.11.4a5.26 5.26 0 0 0 5.06 3.9h.26a5.27 5.27 0 0 0 4.92-4.27l2.33-12.22v-.11a5 5 0 0 0 .05-.91 4.38 4.38 0 0 0 -4.37-4.18z" style="fill:#d36b46"/><g style="opacity:.1"><path d="m157.08 29.8c-6.12 0-9.67-4.89-9.76-13.41 0-4 .73-7.29 2.22-9.61a8.48 8.48 0 0 1 7.38 -4h.08c6.12 0 9.68 4.89 9.76 13.41 0 4-.73 7.29-2.22 9.61a8.47 8.47 0 0 1 -7.38 4zm-.08-19.74c-.17 0-.69 0-1.09 1.39a18.32 18.32 0 0 0 -.43 4.86c.05 5.62 1.16 6.22 1.63 6.22s1.58-.62 1.53-6.25-1.16-6.22-1.64-6.22"/><path d="m157 3.54c6.07 0 8.94 5.24 9 12.67s-2.68 12.79-8.82 12.84h-.1c-6.07 0-8.93-5.24-9-12.67s2.72-12.78 8.86-12.84h.1m.08 19.74c1.73 0 2.3-2.83 2.26-7s-.66-7-2.39-7c-1.74 0-2.3 2.8-2.26 7s.65 7 2.38 7m-.11-21.28h-.12c-6.57.07-10.43 5.43-10.35 14.36s4 14.15 10.51 14.15h.12a9.18 9.18 0 0 0 8 -4.33c1.59-2.48 2.38-5.86 2.34-10-.05-8.85-3.97-14.18-10.5-14.18zm.07 19.72c-.18-.2-.84-1.19-.88-5.45s.6-5.3.77-5.48c.18.18.84 1.14.89 5.46s-.6 5.27-.78 5.47"/></g><path d="m156.08 27.8c-6.12 0-9.67-4.89-9.76-13.41 0-4 .73-7.29 2.22-9.61a8.48 8.48 0 0 1 7.38 -4h.08c6.12 0 9.68 4.89 9.76 13.41 0 4-.73 7.29-2.22 9.61a8.47 8.47 0 0 1 -7.38 4zm-.08-19.74c-.17 0-.69 0-1.09 1.39a18.32 18.32 0 0 0 -.43 4.86c.05 5.62 1.16 6.22 1.63 6.22s1.58-.62 1.53-6.25-1.16-6.22-1.64-6.22" style="fill:#fff"/><path d="m156 1.54c6.07 0 8.94 5.24 9 12.67s-2.68 12.79-8.82 12.84h-.1c-6.07 0-8.93-5.24-9-12.67s2.72-12.78 8.86-12.84h.1m.08 19.74c1.73 0 2.3-2.83 2.26-7s-.66-7-2.39-7c-1.74 0-2.3 2.8-2.26 7s.65 7 2.38 7m-.11-21.28h-.12c-6.57.07-10.43 5.43-10.35 14.36s4 14.15 10.51 14.15h.12a9.18 9.18 0 0 0 8 -4.33c1.59-2.48 2.38-5.86 2.34-10-.05-8.85-3.97-14.18-10.5-14.18zm.07 19.72c-.18-.2-.84-1.19-.88-5.45s.6-5.3.77-5.48c.18.18.84 1.14.89 5.46s-.6 5.27-.78 5.47" style="fill:#d36b46"/><g style="opacity:.1"><path d="m194.42 30.3a8.13 8.13 0 0 1 -6.42-3.08 11.22 11.22 0 0 1 -2-7.37c.21-5.86 3.62-9.79 8.49-9.79h.34c5 .18 7.9 3.82 7.7 9.5-.07 2.1-1.64 3.41-4.09 3.41h-.26l-5.06-.19c.2.65.76 1.31 2.17 1.36a3.3 3.3 0 0 0 1.46-.34 2.62 2.62 0 0 1 1.27-.3h.13a2.92 2.92 0 0 1 1.41 5.42 9.39 9.39 0 0 1 -4.86 1.39zm1.14-12.89a1.56 1.56 0 0 0 -.34-.87 1 1 0 0 0 -.77-.29l-.07-.76v.75c-.27 0-.89 0-1.13 1.09z"/><path d="m194.51 10.8h.32c5 .18 7.14 4.07 7 8.72-.06 1.64-1.23 2.69-3.34 2.69h-.23l-5.98-.21a2.75 2.75 0 0 0 3 2.89h.12a4 4 0 0 0 1.71-.42 1.89 1.89 0 0 1 .94-.22h.1a2.17 2.17 0 0 1 2.1 2.26 2.14 2.14 0 0 1 -1.06 1.77 8.56 8.56 0 0 1 -4.46 1.28h-.28c-5.06-.18-7.89-4.05-7.68-9.67.18-5.06 2.91-9.07 7.74-9.08m1.83 7.39c0-1.26-.24-2.63-1.87-2.69h-.09c-1.51 0-1.92 1.32-2 2.55l3.92.14m-1.79-8.9c-5.3 0-9 4.23-9.24 10.53a11.86 11.86 0 0 0 2.18 7.84 8.83 8.83 0 0 0 6.94 3.38h.34a10.09 10.09 0 0 0 5.24-1.5 3.67 3.67 0 0 0 .3-6.09 4 4 0 0 0 3-3.88c.22-6.05-3.09-10.09-8.42-10.28z"/></g><path d="m193.42 28.3a8.13 8.13 0 0 1 -6.42-3.08 11.22 11.22 0 0 1 -2-7.37c.21-5.86 3.62-9.79 8.49-9.79h.34c5 .18 7.9 3.82 7.7 9.5-.07 2.1-1.64 3.41-4.09 3.41h-.26l-5.06-.19c.2.65.76 1.31 2.17 1.36a3.3 3.3 0 0 0 1.46-.34 2.62 2.62 0 0 1 1.27-.3h.13a2.92 2.92 0 0 1 1.41 5.42 9.39 9.39 0 0 1 -4.86 1.39zm1.14-12.89a1.56 1.56 0 0 0 -.34-.87 1 1 0 0 0 -.77-.29l-.07-.76v.75c-.27 0-.89 0-1.13 1.09z" style="fill:#fff"/><path d="m193.51 8.8h.32c5 .18 7.14 4.07 7 8.72-.06 1.64-1.23 2.69-3.34 2.69h-.23l-5.98-.21a2.75 2.75 0 0 0 3 2.89h.12a4 4 0 0 0 1.71-.42 1.89 1.89 0 0 1 .94-.22h.1a2.17 2.17 0 0 1 2.1 2.26 2.14 2.14 0 0 1 -1.06 1.77 8.56 8.56 0 0 1 -4.46 1.28h-.28c-5.06-.18-7.89-4.05-7.68-9.67.18-5.06 2.91-9.07 7.74-9.08m1.83 7.39c0-1.26-.24-2.63-1.87-2.69h-.09c-1.51 0-1.92 1.32-2 2.55l3.92.14m-1.79-8.9c-5.3 0-9 4.23-9.24 10.53a11.86 11.86 0 0 0 2.18 7.84 8.83 8.83 0 0 0 6.94 3.38h.34a10.09 10.09 0 0 0 5.24-1.5 3.67 3.67 0 0 0 .3-6.09 4 4 0 0 0 3-3.88c.22-6.05-3.09-10.09-8.42-10.28z" style="fill:#d36b46"/><g style="opacity:.1"><path d="m218.3 31.37a3.68 3.68 0 0 1 -3.42-3.91l.84-12.65a3.69 3.69 0 0 1 3.66-3.43h.25a3.62 3.62 0 0 1 2.52 1.26 3.68 3.68 0 0 1 .9 2.65l-.85 12.71a3.67 3.67 0 0 1 -3.66 3.43zm1.36-20.44a4.07 4.07 0 0 1 -3.8-4.34 4.1 4.1 0 0 1 4.07-3.84h.27a4 4 0 0 1 2.8 1.41 4.14 4.14 0 0 1 1 3 4.09 4.09 0 0 1 -4.06 3.8z"/><path d="m219.93 3.5h.22a3.34 3.34 0 0 1 -.21 6.68h-.23a3.31 3.31 0 0 1 -3.1-3.54 3.34 3.34 0 0 1 3.32-3.14m-.55 8.63h.2a2.93 2.93 0 0 1 2.72 3.11l-.85 12.65a2.93 2.93 0 0 1 -2.91 2.73h-.19a2.92 2.92 0 0 1 -2.72-3.11l.84-12.65a2.93 2.93 0 0 1 2.91-2.73m.55-10.13a4.85 4.85 0 0 0 -2.41 9.05 4.43 4.43 0 0 0 -2.52 3.71l-.84 12.65a4.43 4.43 0 0 0 4.12 4.71h.29a4.43 4.43 0 0 0 4.43-4.12l.84-12.65a4.38 4.38 0 0 0 -1.07-3.19 4.14 4.14 0 0 0 -.95-.83 4.85 4.85 0 0 0 -1.57-9.33z"/></g><path d="m217.3 29.37a3.68 3.68 0 0 1 -3.42-3.91l.84-12.65a3.69 3.69 0 0 1 3.66-3.43h.25a3.62 3.62 0 0 1 2.52 1.26 3.68 3.68 0 0 1 .9 2.65l-.85 12.71a3.67 3.67 0 0 1 -3.66 3.43zm1.36-20.44a4.07 4.07 0 0 1 -3.8-4.34 4.1 4.1 0 0 1 4.07-3.84h.27a4 4 0 0 1 2.8 1.41 4.14 4.14 0 0 1 1 3 4.09 4.09 0 0 1 -4.06 3.8z" style="fill:#fff"/><path d="m218.93 1.5h.22a3.34 3.34 0 0 1 -.21 6.68h-.23a3.31 3.31 0 0 1 -3.1-3.54 3.34 3.34 0 0 1 3.32-3.14m-.55 8.63h.2a2.93 2.93 0 0 1 2.72 3.11l-.85 12.65a2.93 2.93 0 0 1 -2.91 2.73h-.19a2.92 2.92 0 0 1 -2.72-3.11l.84-12.65a2.93 2.93 0 0 1 2.91-2.73m.55-10.13a4.85 4.85 0 0 0 -2.41 9.05 4.43 4.43 0 0 0 -2.52 3.71l-.84 12.65a4.43 4.43 0 0 0 4.12 4.71h.29a4.43 4.43 0 0 0 4.43-4.12l.84-12.65a4.38 4.38 0 0 0 -1.07-3.19 4.14 4.14 0 0 0 -.95-.83 4.85 4.85 0 0 0 -1.57-9.33z" style="fill:#d36b46"/><g style="opacity:.1"><path d="m108.38 31.92c-4.72 0-8-3.72-8.49-9.49a11.75 11.75 0 0 1 1.5-7.13 7.69 7.69 0 0 1 6.18-3.6h.76c4.74 0 8.1 3.71 8.54 9.45a11.79 11.79 0 0 1 -1.52 7.16 7.79 7.79 0 0 1 -6.23 3.61zm-.3-13.6c-.15 0-.43 0-.62.71a8.87 8.87 0 0 0 -.1 2.83c.17 2.2.59 3.41 1.19 3.41.22 0 .52 0 .73-.72a8.64 8.64 0 0 0 .12-2.85c-.1-1.26-.39-3.38-1.26-3.38z"/><path d="m108.33 12.42c4.82 0 7.43 4 7.79 8.76.38 5-1.78 9.56-7.06 10h-.68c-4.8 0-7.38-4-7.74-8.8-.39-5 1.75-9.51 7-9.92h.71m.22 13.6h.12c1.36-.11 1.68-1.8 1.48-4.38s-.73-4.07-2-4.07h-.17c-1.33.1-1.61 1.79-1.41 4.33s.7 4.11 1.94 4.11m-.22-15.1c-.27 0-.54 0-.82 0a8.42 8.42 0 0 0 -6.76 3.94 12.39 12.39 0 0 0 -1.61 7.59c.48 6.18 4.1 10.18 9.24 10.18h.8a8.51 8.51 0 0 0 6.8-4 12.54 12.54 0 0 0 1.64-7.62c-.48-6.16-4.12-10.14-9.29-10.14zm.23 13.4a8.54 8.54 0 0 1 -.45-2.52 8 8 0 0 1 .07-2.53 7.9 7.9 0 0 1 .47 2.49 7.55 7.55 0 0 1 -.09 2.56z"/></g><path d="m107.38 29.92c-4.72 0-8-3.72-8.49-9.49a11.75 11.75 0 0 1 1.5-7.13 7.69 7.69 0 0 1 6.18-3.6h.76c4.74 0 8.1 3.71 8.54 9.45a11.79 11.79 0 0 1 -1.52 7.16 7.79 7.79 0 0 1 -6.23 3.61zm-.3-13.6c-.15 0-.43 0-.62.71a8.87 8.87 0 0 0 -.1 2.83c.17 2.2.59 3.41 1.19 3.41.22 0 .52 0 .73-.72a8.64 8.64 0 0 0 .12-2.85c-.1-1.26-.39-3.38-1.26-3.38z" style="fill:#fff"/><path d="m107.33 10.42c4.82 0 7.43 4 7.79 8.76.38 5-1.78 9.56-7.06 10h-.68c-4.8 0-7.38-4-7.74-8.8-.39-5 1.75-9.51 7-9.92h.71m.22 13.6h.12c1.36-.11 1.68-1.8 1.48-4.38s-.73-4.07-2-4.07h-.17c-1.33.1-1.61 1.79-1.41 4.33s.7 4.11 1.94 4.11m-.22-15.1c-.27 0-.54 0-.82 0a8.42 8.42 0 0 0 -6.76 3.94 12.39 12.39 0 0 0 -1.61 7.59c.48 6.18 4.1 10.18 9.24 10.18h.8a8.51 8.51 0 0 0 6.8-4 12.54 12.54 0 0 0 1.64-7.62c-.48-6.16-4.12-10.14-9.29-10.14zm.23 13.4a8.54 8.54 0 0 1 -.45-2.52 8 8 0 0 1 .07-2.53 7.9 7.9 0 0 1 .47 2.49 7.55 7.55 0 0 1 -.09 2.56z" style="fill:#d36b46"/><g style="opacity:.1"><path d="m181.66 29.79a3.66 3.66 0 0 1 -3.66-3.72l.13-9.58a2.64 2.64 0 0 1 -1.23-1 3.28 3.28 0 0 1 -1.6 1l-.09 9.51a3.67 3.67 0 1 1 -7.34-.1l.13-9.58a3.23 3.23 0 0 1 -1.88-3.2 3.21 3.21 0 0 1 2-3.11v-.01c.06-4.6 2.3-7.13 6.3-7.13h.13a4.68 4.68 0 0 1 .84.06 3.22 3.22 0 0 1 3.15 3.48 2.7 2.7 0 0 1 -2.44 2.9h-.3c-.18 0-.33.28-.34.76a3.13 3.13 0 0 1 1.57 1 2.59 2.59 0 0 1 1.25-.93v-.04c.07-4.6 2.31-7.13 6.31-7.13h.13a6 6 0 0 1 .84 0 3.23 3.23 0 0 1 3.15 3.49 2.72 2.72 0 0 1 -2.44 2.9h-.3c-.18 0-.34.28-.34.76v.05a3.25 3.25 0 0 1 2.37 3.2 3.3 3.3 0 0 1 -2.45 3.17l-.13 9.55a3.68 3.68 0 0 1 -3.67 3.62z"/><path d="m174.39 3.58h.12a4.6 4.6 0 0 1 .74 0 2.5 2.5 0 0 1 2.51 2.73 2 2 0 0 1 -1.76 2.21h-.33c-.52 0-1 .5-1 1.5v.71a2.53 2.53 0 0 1 0 5.06l-.21 10.21a2.92 2.92 0 0 1 -2.92 2.88 2.92 2.92 0 0 1 -2.88-3l.14-10.2c-1.07 0-1.91-1.13-1.89-2.58a2.26 2.26 0 0 1 1.94-2.48v-.62c.06-4.17 2-6.39 5.55-6.39m10.17.14h.12a3.59 3.59 0 0 1 .73 0 2.5 2.5 0 0 1 2.52 2.73 2 2 0 0 1 -1.73 2.16h-.34c-.51 0-1 .5-1 1.5v.7a2.54 2.54 0 0 1 0 5.07l-.14 10.2a2.92 2.92 0 0 1 -3.02 2.89 2.92 2.92 0 0 1 -2.88-3l.14-10.2c-1.08 0-1.91-1.14-1.89-2.58s.87-2.49 1.93-2.49v-.7c.05-4.17 2-6.39 5.55-6.39m-10.17-1.56c-4.29 0-6.84 2.72-7 7.48a4 4 0 0 0 -2 3.58 4.14 4.14 0 0 0 1.87 3.68l-.12 9.1a4.42 4.42 0 0 0 4.36 4.48h.06a4.43 4.43 0 0 0 4.44-4.4l.12-9a3.92 3.92 0 0 0 .8-.45 3.39 3.39 0 0 0 .53.38l-.12 9.1a4.42 4.42 0 0 0 4.36 4.48h.06a4.44 4.44 0 0 0 4.42-4.36l.12-9a4.09 4.09 0 0 0 .69-7.12 3.56 3.56 0 0 0 2.49-3.53 4 4 0 0 0 -3.83-4.24 6.19 6.19 0 0 0 -.91-.06h-.13a6.5 6.5 0 0 0 -5.6 2.55 4 4 0 0 0 -3.59-2.61 6.06 6.06 0 0 0 -.9-.06zm2.38 7.83a2.9 2.9 0 0 0 .75-.31v.09a3.53 3.53 0 0 0 -.55.37z"/></g><path d="m180.66 27.79a3.66 3.66 0 0 1 -3.66-3.72l.13-9.58a2.64 2.64 0 0 1 -1.23-1 3.28 3.28 0 0 1 -1.6 1l-.09 9.51a3.67 3.67 0 1 1 -7.34-.1l.13-9.58a3.23 3.23 0 0 1 -1.88-3.2 3.21 3.21 0 0 1 2-3.11v-.01c.06-4.6 2.3-7.13 6.3-7.13h.13a4.68 4.68 0 0 1 .84.06 3.22 3.22 0 0 1 3.15 3.48 2.7 2.7 0 0 1 -2.44 2.9h-.3c-.18 0-.33.28-.34.76a3.13 3.13 0 0 1 1.57 1 2.59 2.59 0 0 1 1.25-.93v-.04c.07-4.6 2.31-7.13 6.31-7.13h.13a6 6 0 0 1 .84.05 3.23 3.23 0 0 1 3.15 3.49 2.72 2.72 0 0 1 -2.44 2.9h-.3c-.18 0-.34.28-.34.76v.05a3.25 3.25 0 0 1 2.37 3.2 3.3 3.3 0 0 1 -2.45 3.17l-.13 9.55a3.68 3.68 0 0 1 -3.67 3.62z" style="fill:#fff"/><path d="m173.39 1.58h.12a4.6 4.6 0 0 1 .74 0 2.5 2.5 0 0 1 2.51 2.73 2 2 0 0 1 -1.76 2.21h-.33c-.52 0-1 .5-1 1.5v.71a2.53 2.53 0 0 1 0 5.06l-.21 10.21a2.92 2.92 0 0 1 -2.92 2.88 2.92 2.92 0 0 1 -2.88-3l.14-10.2c-1.07 0-1.91-1.13-1.89-2.58a2.26 2.26 0 0 1 1.94-2.48v-.62c.06-4.17 2-6.39 5.55-6.39m10.17.14h.12a3.59 3.59 0 0 1 .73.05 2.5 2.5 0 0 1 2.52 2.73 2 2 0 0 1 -1.73 2.16h-.34c-.51 0-1 .5-1 1.5v.7a2.54 2.54 0 0 1 0 5.07l-.14 10.2a2.92 2.92 0 0 1 -3.02 2.84 2.92 2.92 0 0 1 -2.88-3l.14-10.2c-1.08 0-1.91-1.14-1.89-2.58s.87-2.49 1.93-2.49v-.7c.05-4.17 2-6.39 5.55-6.39m-10.17-1.56c-4.29 0-6.84 2.72-7 7.48a4 4 0 0 0 -2 3.58 4.14 4.14 0 0 0 1.87 3.68l-.12 9.1a4.42 4.42 0 0 0 4.36 4.48h.06a4.43 4.43 0 0 0 4.44-4.4l.12-9a3.92 3.92 0 0 0 .8-.45 3.39 3.39 0 0 0 .53.38l-.12 9.1a4.42 4.42 0 0 0 4.36 4.48h.06a4.44 4.44 0 0 0 4.42-4.36l.12-9a4.09 4.09 0 0 0 .69-7.12 3.56 3.56 0 0 0 2.49-3.53 4 4 0 0 0 -3.87-4.22 6.19 6.19 0 0 0 -.91-.06h-.13a6.5 6.5 0 0 0 -5.56 2.53 4 4 0 0 0 -3.57-2.61 6.06 6.06 0 0 0 -.9-.06zm2.38 7.83a2.9 2.9 0 0 0 .75-.31v.09a3.53 3.53 0 0 0 -.55.37z" style="fill:#d36b46"/><g style="opacity:.1"><path d="m206 30.7a3.66 3.66 0 0 1 -2.54-1.22 3.62 3.62 0 0 1 -.92-2.64l.67-12.66a3.69 3.69 0 0 1 3.67-3.51h.2a3.73 3.73 0 0 1 2.76 1.49l.16-.16a2.67 2.67 0 0 1 2.16-1h.22c1.34.07 2.72 1.2 2.6 3.52-.1 1.89-1 2.9-2.94 3.37a3.4 3.4 0 0 0 -1.73 1l-.45 8.41a3.68 3.68 0 0 1 -3.67 3.48z"/><path d="m206.87 11.42h.13a3 3 0 0 1 2.75 2.45 3.75 3.75 0 0 1 .74-1.37 1.94 1.94 0 0 1 1.64-.8h.18c1 0 2 .92 1.89 2.73-.08 1.44-.6 2.26-2.36 2.68a4.11 4.11 0 0 0 -2.3 1.4l-.46 8.67a2.94 2.94 0 0 1 -2.89 2.82h-.19a2.92 2.92 0 0 1 -2.76-3.07l.76-12.71a2.94 2.94 0 0 1 2.92-2.8m0-1.5a4.44 4.44 0 0 0 -4.42 4.22l-.67 12.66a4.41 4.41 0 0 0 4.17 4.65h.24a4.41 4.41 0 0 0 4.41-4.19l.44-8.12a2.67 2.67 0 0 1 1.17-.57 4 4 0 0 0 3.52-4.06c.15-2.83-1.61-4.22-3.31-4.31h-.26a3.38 3.38 0 0 0 -2.33.86 4.42 4.42 0 0 0 -2.73-1.13z"/></g><path d="m205 28.7a3.66 3.66 0 0 1 -2.54-1.22 3.62 3.62 0 0 1 -.92-2.64l.67-12.66a3.69 3.69 0 0 1 3.67-3.51h.2a3.73 3.73 0 0 1 2.76 1.49l.16-.16a2.67 2.67 0 0 1 2.16-1h.22c1.34.07 2.72 1.2 2.6 3.52-.1 1.89-1 2.9-2.94 3.37a3.4 3.4 0 0 0 -1.73 1l-.45 8.41a3.68 3.68 0 0 1 -3.67 3.48z" style="fill:#fff"/><path d="m205.87 9.42h.13a3 3 0 0 1 2.75 2.45 3.75 3.75 0 0 1 .74-1.37 1.94 1.94 0 0 1 1.64-.8h.18c1 0 2 .92 1.89 2.73-.08 1.44-.6 2.26-2.36 2.68a4.11 4.11 0 0 0 -2.3 1.4l-.46 8.67a2.94 2.94 0 0 1 -2.89 2.82h-.19a2.92 2.92 0 0 1 -2.76-3.07l.76-12.71a2.94 2.94 0 0 1 2.92-2.8m0-1.5a4.44 4.44 0 0 0 -4.42 4.22l-.67 12.66a4.41 4.41 0 0 0 4.17 4.65h.24a4.41 4.41 0 0 0 4.41-4.19l.44-8.12a2.67 2.67 0 0 1 1.17-.57 4 4 0 0 0 3.52-4.06c.15-2.83-1.61-4.22-3.31-4.31h-.26a3.38 3.38 0 0 0 -2.33.86 4.42 4.42 0 0 0 -2.73-1.13z" style="fill:#d36b46"/><g style="opacity:.1"><path d="m235.5 32.69h-.31a3.6 3.6 0 0 1 -2.5-1.3 3.66 3.66 0 0 1 -.85-2.67l.77-9.1c0-.69-.12-.7-.27-.72-.33 0-.77.45-1.08 1.05l-.73 8.66a3.68 3.68 0 0 1 -3.65 3.39h-.31a3.66 3.66 0 0 1 -3.35-4l1.06-12.64a3.67 3.67 0 0 1 3.66-3.4h.31a3.7 3.7 0 0 1 3 2 6.7 6.7 0 0 1 4-1.49 2.3 2.3 0 0 1 .37 0c3.15.26 4.8 2.23 4.53 5.4l-1 11.42a3.69 3.69 0 0 1 -3.65 3.4z"/><path d="m227.94 12.7h.25a2.94 2.94 0 0 1 2.7 2.75 5.65 5.65 0 0 1 4.33-2.22h.31c3 .26 4.05 2.16 3.84 4.59l-1 11.43a2.93 2.93 0 0 1 -2.91 2.67h-.25a2.91 2.91 0 0 1 -2.66-3.15l.76-9.1c.08-.93-.21-1.47-.94-1.53h-.09c-.78 0-1.44.84-1.79 1.59l-.74 8.81a2.94 2.94 0 0 1 -2.91 2.68h-.25a2.92 2.92 0 0 1 -2.59-3.17l1-12.64a2.94 2.94 0 0 1 2.91-2.71m0-1.5a4.42 4.42 0 0 0 -4.41 4.09l-1.06 12.64a4.43 4.43 0 0 0 4 4.77h.38a4.45 4.45 0 0 0 4.23-3.15 4.43 4.43 0 0 0 4 3.86h.37a4.44 4.44 0 0 0 4.4-4l1-11.42c.3-3.59-1.65-5.91-5.22-6.21h-.43a7.29 7.29 0 0 0 -3.77 1.17 4.41 4.41 0 0 0 -3.14-1.7z"/></g><path d="m234.5 30.69h-.31a3.6 3.6 0 0 1 -2.5-1.3 3.66 3.66 0 0 1 -.85-2.67l.77-9.1c0-.69-.12-.7-.27-.72-.33 0-.77.45-1.08 1.05l-.73 8.66a3.68 3.68 0 0 1 -3.65 3.39h-.31a3.66 3.66 0 0 1 -3.35-4l1.06-12.64a3.67 3.67 0 0 1 3.66-3.4h.31a3.7 3.7 0 0 1 3 2 6.7 6.7 0 0 1 4-1.49 2.3 2.3 0 0 1 .37 0c3.15.26 4.8 2.23 4.53 5.4l-1 11.42a3.69 3.69 0 0 1 -3.65 3.4z" style="fill:#fff"/><path d="m226.94 10.7h.25a2.94 2.94 0 0 1 2.7 2.75 5.65 5.65 0 0 1 4.33-2.22h.31c3 .26 4.05 2.16 3.84 4.59l-1 11.43a2.93 2.93 0 0 1 -2.91 2.67h-.25a2.91 2.91 0 0 1 -2.66-3.15l.76-9.1c.08-.93-.21-1.47-.94-1.53h-.09c-.78 0-1.44.84-1.79 1.59l-.74 8.81a2.94 2.94 0 0 1 -2.91 2.68h-.25a2.92 2.92 0 0 1 -2.59-3.17l1-12.64a2.94 2.94 0 0 1 2.91-2.71m0-1.5a4.42 4.42 0 0 0 -4.41 4.09l-1.06 12.64a4.43 4.43 0 0 0 4 4.77h.38a4.45 4.45 0 0 0 4.23-3.15 4.43 4.43 0 0 0 4 3.86h.37a4.44 4.44 0 0 0 4.4-4.05l1-11.42c.3-3.59-1.65-5.91-5.22-6.21h-.43a7.29 7.29 0 0 0 -3.77 1.17 4.41 4.41 0 0 0 -3.14-1.7z" style="fill:#d36b46"/><g style="opacity:.1"><path d="m247.53 40.79a13.34 13.34 0 0 1 -1.39-.07 11.1 11.1 0 0 1 -4.84-1.53 3.14 3.14 0 0 1 -1.48-3 3.18 3.18 0 0 1 3.18-2.88 2.06 2.06 0 0 1 .35 0 2.73 2.73 0 0 1 1.26.4 3.86 3.86 0 0 0 1.58.54h.31c1.12 0 1.81-.73 2-2.17a4.46 4.46 0 0 1 -2.48.75 3.62 3.62 0 0 1 -.47 0c-2.94-.32-6.26-2.36-5.41-10.27s4.59-8.94 6.75-8.94a6.23 6.23 0 0 1 .74 0 4.64 4.64 0 0 1 3.32 2 3.79 3.79 0 0 1 2.74-1.21h.39a3.67 3.67 0 0 1 3.25 4l-1.51 14c-.74 7.31-5.52 8.38-8.29 8.38zm1.33-20.29c-.31 0-1 0-1.27 2.89s.34 3 .77 3.08a1.1 1.1 0 0 0 .86-.59l.5-4.61c-.11-.29-.34-.72-.72-.77z"/><path d="m246.93 14.39a5.07 5.07 0 0 1 .66 0 3.87 3.87 0 0 1 3.33 2.85 2.94 2.94 0 0 1 2.81-2.06h.31a2.93 2.93 0 0 1 2.59 3.22l-1.52 14c-.64 5.97-4.11 7.6-7.58 7.6a11.2 11.2 0 0 1 -1.3-.07 10.38 10.38 0 0 1 -4.54-1.42 2.4 2.4 0 0 1 -1.12-2.31 2.44 2.44 0 0 1 2.43-2.14h.27a2.12 2.12 0 0 1 .93.29 4.62 4.62 0 0 0 1.91.65 2.55 2.55 0 0 0 .39 0c1.44 0 2.6-.91 2.85-3.2l.2-1.8a4.12 4.12 0 0 1 -3.48 2.09 2.55 2.55 0 0 1 -.39 0c-3.64-.39-5.39-3.48-4.74-9.43.59-5.45 2.73-8.28 6-8.28m1.49 12.84a1.89 1.89 0 0 0 1.57-1.08l.54-5a1.82 1.82 0 0 0 -1.41-1.42h-.23c-1.23 0-1.76 1.2-2 3.56s0 3.76 1.44 3.91h.14m-1.49-14.34c-2.41 0-6.58 1.25-7.49 9.61-.65 6 1.07 8.79 3.09 10.09a3.93 3.93 0 0 0 -3.45 3.48 3.87 3.87 0 0 0 1.85 3.77 11.81 11.81 0 0 0 5.13 1.62 12.29 12.29 0 0 0 1.47.08c3 0 8.23-1.15 9.07-8.92l1.52-14a4.42 4.42 0 0 0 -3.92-4.87 3.59 3.59 0 0 0 -.47 0 4.5 4.5 0 0 0 -2.64.88 5.41 5.41 0 0 0 -3.34-1.66 7.67 7.67 0 0 0 -.82 0zm1.45 12.83a4.93 4.93 0 0 1 0-2.25 4.93 4.93 0 0 1 .53-2.22.5.5 0 0 1 .1.14l-.46 4.21-.12.12z"/></g><path d="m246.53 38.79a13.34 13.34 0 0 1 -1.39-.07 11.1 11.1 0 0 1 -4.84-1.53 3.14 3.14 0 0 1 -1.48-3 3.18 3.18 0 0 1 3.18-2.88 2.06 2.06 0 0 1 .35 0 2.73 2.73 0 0 1 1.26.4 3.86 3.86 0 0 0 1.58.54h.31c1.12 0 1.81-.73 2-2.17a4.46 4.46 0 0 1 -2.48.75 3.62 3.62 0 0 1 -.47 0c-2.94-.32-6.26-2.36-5.41-10.27s4.59-8.94 6.75-8.94a6.23 6.23 0 0 1 .74 0 4.64 4.64 0 0 1 3.32 2 3.79 3.79 0 0 1 2.74-1.21h.39a3.67 3.67 0 0 1 3.25 4l-1.51 14c-.74 7.31-5.52 8.38-8.29 8.38zm1.33-20.29c-.31 0-1 0-1.27 2.89s.34 3 .77 3.08a1.1 1.1 0 0 0 .86-.59l.5-4.61c-.11-.29-.34-.72-.72-.77z" style="fill:#fff"/><path d="m245.93 12.39a5.07 5.07 0 0 1 .66 0 3.87 3.87 0 0 1 3.33 2.85 2.94 2.94 0 0 1 2.81-2.06h.31a2.93 2.93 0 0 1 2.59 3.22l-1.52 14c-.64 5.97-4.11 7.6-7.58 7.6a11.2 11.2 0 0 1 -1.3-.07 10.38 10.38 0 0 1 -4.54-1.42 2.4 2.4 0 0 1 -1.12-2.31 2.44 2.44 0 0 1 2.43-2.14h.27a2.12 2.12 0 0 1 .93.29 4.62 4.62 0 0 0 1.91.65 2.55 2.55 0 0 0 .39 0c1.44 0 2.6-.91 2.85-3.2l.2-1.8a4.12 4.12 0 0 1 -3.48 2.09 2.55 2.55 0 0 1 -.39 0c-3.64-.39-5.39-3.48-4.74-9.43.59-5.45 2.73-8.28 6-8.28m1.49 12.84a1.89 1.89 0 0 0 1.57-1.08l.54-5a1.82 1.82 0 0 0 -1.41-1.42h-.23c-1.23 0-1.76 1.2-2 3.56s0 3.76 1.44 3.91h.14m-1.49-14.34c-2.41 0-6.58 1.25-7.49 9.61-.65 6 1.07 8.79 3.09 10.09a3.93 3.93 0 0 0 -3.45 3.48 3.87 3.87 0 0 0 1.85 3.77 11.81 11.81 0 0 0 5.13 1.62 12.29 12.29 0 0 0 1.47.08c3 0 8.23-1.15 9.07-8.92l1.52-14a4.42 4.42 0 0 0 -3.92-4.87 3.59 3.59 0 0 0 -.47 0 4.5 4.5 0 0 0 -2.64.88 5.41 5.41 0 0 0 -3.34-1.66 7.67 7.67 0 0 0 -.82 0zm1.45 12.83a4.93 4.93 0 0 1 0-2.25 4.93 4.93 0 0 1 .53-2.22.5.5 0 0 1 .1.14l-.46 4.21-.12.12z" style="fill:#d36b46"/></svg>