<?xml version="1.0" encoding="utf-8"?>
<!-- Generator: Adobe Illustrator 23.0.4, SVG Export Plug-In . SVG Version: 6.00 Build 0)  -->
<svg version="1.1" id="Layer_1" xmlns="http://www.w3.org/2000/svg" xmlns:xlink="http://www.w3.org/1999/xlink" x="0px" y="0px"
	 viewBox="0 0 296 251.4" style="enable-background:new 0 0 296 251.4;" xml:space="preserve">
<style type="text/css">
	.st0{fill:#FFFFFF;}
	.st1{opacity:0.1;}
	.st2{fill:#754C28;}
	.st3{fill:#F6CE7F;}
	.st4{opacity:0.5;fill:#F3F8A9;}
	.st5{fill:#F6F38D;}
	.st6{fill:#AA470F;}
	.st7{opacity:0.5;fill:#DF6C44;}
	.st8{opacity:0.6;fill:#D2E7E8;}
	.st9{fill:#58391E;}
	.st10{opacity:0.5;fill:#754C28;}
	.st11{fill:#EA9892;}
	.st12{fill:#E16B5A;}
	.st13{fill:#D9564A;}
	.st14{fill:#8CC99A;}
	.st15{fill:#D76359;}
	.st16{fill:#C34E44;}
	.st17{fill:#E0695B;}
	.st18{clip-path:url(#SVGID_1_);}
	.st19{opacity:0.25;fill:#FFFFFF;enable-background:new    ;}
	.st20{fill:#3C592D;}
	.st21{fill:#68A95F;}
	.st22{fill:#173849;}
	.st23{fill:#F2F147;}
	.st24{fill:#2C5963;}
	.st25{fill:#59807D;}
	.st26{clip-path:url(#SVGID_2_);}
	.st27{clip-path:url(#SVGID_3_);fill:#2D7B8E;}
	.st28{clip-path:url(#SVGID_4_);}
	.st29{clip-path:url(#SVGID_5_);fill:#2D7B8E;}
	.st30{clip-path:url(#SVGID_6_);}
	.st31{clip-path:url(#SVGID_7_);fill:#73B481;}
	.st32{clip-path:url(#SVGID_8_);}
	.st33{clip-path:url(#SVGID_9_);fill:#73B481;}
	.st34{clip-path:url(#SVGID_10_);}
	.st35{clip-path:url(#SVGID_11_);fill:#625D55;}
	.st36{clip-path:url(#SVGID_12_);}
	.st37{clip-path:url(#SVGID_13_);fill:#2D7B8E;}
	.st38{clip-path:url(#SVGID_14_);}
	.st39{clip-path:url(#SVGID_15_);fill:#2D7B8E;}
	.st40{clip-path:url(#SVGID_16_);}
	.st41{clip-path:url(#SVGID_17_);fill:#625D55;}
	.st42{clip-path:url(#SVGID_18_);}
	.st43{clip-path:url(#SVGID_19_);fill:#625D55;}
	.st44{clip-path:url(#SVGID_20_);}
	.st45{clip-path:url(#SVGID_21_);fill:#7A746C;}
	.st46{clip-path:url(#SVGID_22_);}
	.st47{clip-path:url(#SVGID_23_);fill:#7A746C;}
	.st48{clip-path:url(#SVGID_24_);}
	.st49{clip-path:url(#SVGID_25_);fill:#8CC99A;}
	.st50{clip-path:url(#SVGID_26_);}
	.st51{clip-path:url(#SVGID_27_);fill:#2A8EB1;}
	.st52{clip-path:url(#SVGID_28_);}
	.st53{clip-path:url(#SVGID_29_);fill:#1E7370;}
	.st54{clip-path:url(#SVGID_30_);}
	.st55{clip-path:url(#SVGID_31_);fill:#4C724A;}
	.st56{clip-path:url(#SVGID_32_);}
	.st57{clip-path:url(#SVGID_33_);fill:#8CC99A;}
	.st58{clip-path:url(#SVGID_34_);}
	.st59{clip-path:url(#SVGID_35_);fill:#73B481;}
	.st60{clip-path:url(#SVGID_36_);}
	.st61{clip-path:url(#SVGID_37_);fill:#8CC99A;}
	.st62{clip-path:url(#SVGID_38_);}
	.st63{clip-path:url(#SVGID_39_);fill:#73B481;}
	.st64{clip-path:url(#SVGID_40_);}
	.st65{clip-path:url(#SVGID_41_);fill:#FFFFFF;}
	.st66{clip-path:url(#SVGID_42_);}
	.st67{clip-path:url(#SVGID_43_);fill:#1C5766;}
	.st68{clip-path:url(#SVGID_44_);}
	.st69{clip-path:url(#SVGID_45_);fill:#8CC99A;}
	.st70{clip-path:url(#SVGID_46_);}
	.st71{clip-path:url(#SVGID_47_);fill:#73B481;}
	.st72{clip-path:url(#SVGID_48_);}
	.st73{clip-path:url(#SVGID_49_);fill:#FFFFFF;}
	.st74{clip-path:url(#SVGID_50_);}
	.st75{clip-path:url(#SVGID_51_);fill:#1C5766;}
	.st76{clip-path:url(#SVGID_52_);}
	.st77{clip-path:url(#SVGID_53_);fill:#FFFFFF;}
	.st78{clip-path:url(#SVGID_54_);}
	.st79{clip-path:url(#SVGID_55_);fill:#FFFFFF;}
	.st80{clip-path:url(#SVGID_56_);}
	.st81{clip-path:url(#SVGID_57_);fill:#8CC99A;}
	.st82{clip-path:url(#SVGID_58_);}
	.st83{clip-path:url(#SVGID_59_);fill:#8CC99A;}
	.st84{clip-path:url(#SVGID_60_);}
	.st85{clip-path:url(#SVGID_61_);fill:#8CC99A;}
	.st86{clip-path:url(#SVGID_62_);}
	.st87{clip-path:url(#SVGID_63_);fill:#8CC99A;}
	.st88{clip-path:url(#SVGID_64_);}
	.st89{clip-path:url(#SVGID_65_);fill:#F4ED6B;}
	.st90{clip-path:url(#SVGID_66_);}
	.st91{clip-path:url(#SVGID_67_);fill:#F4ED6B;}
	.st92{clip-path:url(#SVGID_68_);}
	.st93{clip-path:url(#SVGID_69_);fill:#8CC99A;}
	.st94{clip-path:url(#SVGID_70_);}
	.st95{clip-path:url(#SVGID_71_);fill:#2787A2;}
	.st96{clip-path:url(#SVGID_72_);}
	.st97{clip-path:url(#SVGID_73_);fill:#1C5766;}
	.st98{clip-path:url(#SVGID_74_);}
	.st99{opacity:0.1;clip-path:url(#SVGID_75_);fill:#383838;}
	.st100{clip-path:url(#SVGID_76_);}
	.st101{clip-path:url(#SVGID_77_);fill:#209596;}
	.st102{clip-path:url(#SVGID_78_);}
	.st103{clip-path:url(#SVGID_79_);fill:#38B0B7;}
	.st104{clip-path:url(#SVGID_80_);}
	.st105{clip-path:url(#SVGID_81_);fill:#209596;}
	.st106{clip-path:url(#SVGID_82_);}
	.st107{clip-path:url(#SVGID_83_);fill:#FFFFFF;}
	.st108{clip-path:url(#SVGID_84_);}
	.st109{clip-path:url(#SVGID_85_);fill:#FFFFFF;}
	.st110{clip-path:url(#SVGID_86_);}
	.st111{clip-path:url(#SVGID_87_);fill:#FFFFFF;}
	.st112{clip-path:url(#SVGID_88_);}
	.st113{clip-path:url(#SVGID_89_);fill:#FFFFFF;}
	.st114{clip-path:url(#SVGID_90_);}
	.st115{clip-path:url(#SVGID_91_);fill:#2D7B8E;}
	.st116{clip-path:url(#SVGID_92_);}
	.st117{clip-path:url(#SVGID_93_);fill:#625D55;}
	.st118{clip-path:url(#SVGID_94_);}
	.st119{clip-path:url(#SVGID_95_);fill:#625D55;}
	.st120{clip-path:url(#SVGID_96_);}
	.st121{clip-path:url(#SVGID_97_);fill:#625D55;}
	.st122{clip-path:url(#SVGID_98_);}
	.st123{clip-path:url(#SVGID_99_);fill:#625D55;}
	.st124{clip-path:url(#SVGID_100_);}
	.st125{clip-path:url(#SVGID_101_);fill:#F69E79;}
	.st126{clip-path:url(#SVGID_102_);}
	.st127{clip-path:url(#SVGID_103_);fill:#F69E79;}
	.st128{clip-path:url(#SVGID_104_);}
	.st129{clip-path:url(#SVGID_105_);fill:#FFFFFF;}
	.st130{clip-path:url(#SVGID_106_);}
	.st131{clip-path:url(#SVGID_107_);fill:#FFFFFF;}
	.st132{clip-path:url(#SVGID_108_);}
	.st133{clip-path:url(#SVGID_109_);fill:#EF8B6C;}
	.st134{clip-path:url(#SVGID_110_);}
	.st135{clip-path:url(#SVGID_111_);fill:#FFFFFF;}
	.st136{clip-path:url(#SVGID_112_);}
	.st137{opacity:0.1;clip-path:url(#SVGID_113_);fill:#11100F;}
	.st138{clip-path:url(#SVGID_114_);}
	.st139{clip-path:url(#SVGID_115_);fill:#8CC99A;}
	.st140{clip-path:url(#SVGID_116_);}
	.st141{clip-path:url(#SVGID_117_);fill:#8CC99A;}
	.st142{clip-path:url(#SVGID_118_);}
	.st143{clip-path:url(#SVGID_119_);fill:#8CC99A;}
	.st144{clip-path:url(#SVGID_120_);}
	.st145{opacity:0.1;clip-path:url(#SVGID_121_);fill:#11100F;}
	.st146{clip-path:url(#SVGID_122_);}
	.st147{clip-path:url(#SVGID_123_);fill:#8CC99A;}
	.st148{clip-path:url(#SVGID_124_);}
	.st149{clip-path:url(#SVGID_125_);fill:#8CC99A;}
	.st150{clip-path:url(#SVGID_126_);}
	.st151{clip-path:url(#SVGID_254_);fill:#8CC99A;}
</style>
<g>
	<g>
		<polygon class="st0" points="81.8,54 71.9,50.3 63.3,56.3 63.7,45.8 55.3,39.4 65.5,36.6 68.9,26.6 74.8,35.4 85.3,35.6 
			78.7,43.9 		"/>
		<polygon class="st0" points="103.8,40 99.8,38.5 96.4,40.9 96.6,36.7 93.2,34.2 97.3,33.1 98.6,29.1 101,32.6 105.2,32.7 
			102.6,36 		"/>
	</g>
	<g>
		<polygon class="st0" points="255.2,57.4 251.3,53.2 245.6,54 248.4,49 245.9,43.9 251.5,45 255.6,41 256.3,46.7 261.4,49.4 
			256.2,51.8 		"/>
		<polygon class="st0" points="275.4,65.6 276.6,56.6 269.8,50.4 278.8,48.8 282.5,40.4 286.9,48.5 296,49.4 289.7,56.1 291.6,65 
			283.3,61.1 		"/>
	</g>
	<g>
		<ellipse class="st1" cx="147.2" cy="243" rx="147.2" ry="8.3"/>
		<g>
			<g>
				<g>
					<polygon class="st2" points="29.5,213.5 29.5,213.5 29.4,215.1 29.2,218.3 29,222.6 27.8,242.4 20.9,242.4 19.8,222.6 
						19.6,218.3 19.4,215.1 19.3,213.5 19.3,213.5 					"/>
					<polygon class="st2" points="272.5,213.5 272.5,213.5 272.4,215.1 270.8,242.4 263.9,242.4 262.4,215.1 262.3,213.5 
						262.3,213.5 					"/>
					<path class="st3" d="M239.3,169.9c0,4.1-3.4,7.5-7.5,7.5H60c-4.1,0-7.5-3.4-7.5-7.5v-50.5c0-4.1,3.4-7.5,7.5-7.5h171.7
						c4.1,0,7.5,3.4,7.5,7.5V169.9z"/>
					<path class="st4" d="M239.3,119.3v4.4c0-4.1-3.4-7.5-7.5-7.5H60c-4.1,0-7.5,3.4-7.5,7.5v-4.4c0-4.1,3.4-7.5,7.5-7.5h171.8
						C235.9,111.9,239.3,115.2,239.3,119.3z"/>
					<path class="st5" d="M272.5,187.3c0,8.9-7.2,16.1-16.1,16.1h-221c-8.9,0-16.1-7.2-16.1-16.1v-7.2c0-8.9,7.2-16.1,16.1-16.1h221
						c8.9,0,16.1,7.2,16.1,16.1V187.3z"/>
					<rect x="2.6" y="186.9" class="st6" width="286.6" height="26.6"/>
					<path class="st0" d="M142.4,164H63.5c0-7.8,10.9-14.3,24.1-14.3h30.6c7.8,0,14.7,2.2,19.1,5.6
						C140.5,157.7,142.4,160.7,142.4,164z"/>
					<path class="st0" d="M228.2,164h-78.8c0-7.8,10.9-14.3,24.1-14.3h30.6C217.4,149.7,228.2,156.2,228.2,164z"/>
				</g>
				<g>
					<path class="st7" d="M146.8,134.5c0,0.4,0,0.8,0,1.2c-0.1,0-0.2,0-0.4,0c-0.1,0-0.2,0-0.4,0c0-0.3,0-0.7,0-1.2
						c0-1.4,0.2-2.5,0.4-2.5C146.6,132,146.8,133.1,146.8,134.5z"/>
					<path class="st7" d="M145,137c0,0.1,0,0.2,0,0.4c-0.3,0-0.7,0-1.2,0c-1.4,0-2.5-0.2-2.5-0.4c0-0.2,1.1-0.4,2.5-0.4
						c0.4,0,0.8,0,1.2,0C145,136.7,145,136.8,145,137z"/>
					<path class="st7" d="M146.8,139.4c0,1.4-0.2,2.5-0.4,2.5c-0.2,0-0.4-1.1-0.4-2.5c0-0.4,0-0.8,0-1.2c0.1,0,0.2,0,0.4,0
						c0.1,0,0.2,0,0.4,0C146.8,138.6,146.8,139,146.8,139.4z"/>
					<path class="st7" d="M151.3,137c0,0.2-1.1,0.4-2.5,0.4c-0.4,0-0.8,0-1.2,0c0-0.1,0-0.2,0-0.4c0-0.1,0-0.2,0-0.4
						c0.3,0,0.7,0,1.2,0C150.2,136.5,151.3,136.7,151.3,137z"/>
					<path class="st7" d="M147.7,136.6c-0.1-0.5-0.5-0.8-1-1c-0.1,0-0.2,0-0.4,0c-0.1,0-0.2,0-0.4,0c-0.5,0.1-0.8,0.5-1,1
						c0,0.1,0,0.2,0,0.4c0,0.1,0,0.2,0,0.4c0.1,0.5,0.5,0.8,1,1c0.1,0,0.2,0,0.4,0c0.1,0,0.2,0,0.4,0c0.5-0.1,0.8-0.5,1-1
						c0-0.1,0-0.2,0-0.4C147.7,136.8,147.7,136.7,147.7,136.6z"/>
				</g>
				<g>
					<path class="st7" d="M116.6,134.5c0,0.4,0,0.8,0,1.2c-0.1,0-0.2,0-0.4,0c-0.1,0-0.2,0-0.4,0c0-0.3,0-0.7,0-1.2
						c0-1.4,0.2-2.5,0.4-2.5C116.4,132,116.6,133.1,116.6,134.5z"/>
					<path class="st7" d="M114.8,137c0,0.1,0,0.2,0,0.4c-0.3,0-0.7,0-1.2,0c-1.4,0-2.5-0.2-2.5-0.4c0-0.2,1.1-0.4,2.5-0.4
						c0.4,0,0.8,0,1.2,0C114.8,136.7,114.8,136.8,114.8,137z"/>
					<path class="st7" d="M116.6,139.4c0,1.4-0.2,2.5-0.4,2.5c-0.2,0-0.4-1.1-0.4-2.5c0-0.4,0-0.8,0-1.2c0.1,0,0.2,0,0.4,0
						c0.1,0,0.2,0,0.4,0C116.5,138.6,116.6,139,116.6,139.4z"/>
					<path class="st7" d="M121.1,137c0,0.2-1.1,0.4-2.5,0.4c-0.4,0-0.8,0-1.2,0c0-0.1,0-0.2,0-0.4c0-0.1,0-0.2,0-0.4
						c0.3,0,0.7,0,1.2,0C120,136.5,121.1,136.7,121.1,137z"/>
					<path class="st7" d="M117.5,136.6c-0.1-0.5-0.5-0.8-1-1c-0.1,0-0.2,0-0.4,0c-0.1,0-0.2,0-0.4,0c-0.5,0.1-0.8,0.5-1,1
						c0,0.1,0,0.2,0,0.4c0,0.1,0,0.2,0,0.4c0.1,0.5,0.5,0.8,1,1c0.1,0,0.2,0,0.4,0c0.1,0,0.2,0,0.4,0c0.5-0.1,0.8-0.5,1-1
						c0-0.1,0-0.2,0-0.4C117.5,136.8,117.5,136.7,117.5,136.6z"/>
				</g>
				<g>
					<path class="st7" d="M86.3,134.5c0,0.4,0,0.8,0,1.2c-0.1,0-0.2,0-0.4,0c-0.1,0-0.2,0-0.4,0c0-0.3,0-0.7,0-1.2
						c0-1.4,0.2-2.5,0.4-2.5C86.1,132,86.3,133.1,86.3,134.5z"/>
					<path class="st7" d="M84.5,137c0,0.1,0,0.2,0,0.4c-0.3,0-0.7,0-1.2,0c-1.4,0-2.5-0.2-2.5-0.4c0-0.2,1.1-0.4,2.5-0.4
						c0.4,0,0.8,0,1.2,0C84.6,136.7,84.5,136.8,84.5,137z"/>
					<path class="st7" d="M86.3,139.4c0,1.4-0.2,2.5-0.4,2.5c-0.2,0-0.4-1.1-0.4-2.5c0-0.4,0-0.8,0-1.2c0.1,0,0.2,0,0.4,0
						c0.1,0,0.2,0,0.4,0C86.3,138.6,86.3,139,86.3,139.4z"/>
					<path class="st7" d="M90.9,137c0,0.2-1.1,0.4-2.5,0.4c-0.4,0-0.8,0-1.2,0c0-0.1,0-0.2,0-0.4c0-0.1,0-0.2,0-0.4
						c0.3,0,0.7,0,1.2,0C89.8,136.5,90.9,136.7,90.9,137z"/>
					<path class="st7" d="M87.2,136.6c-0.1-0.5-0.5-0.8-1-1c-0.1,0-0.2,0-0.4,0c-0.1,0-0.2,0-0.4,0c-0.5,0.1-0.8,0.5-1,1
						c0,0.1,0,0.2,0,0.4c0,0.1,0,0.2,0,0.4c0.1,0.5,0.5,0.8,1,1c0.1,0,0.2,0,0.4,0c0.1,0,0.2,0,0.4,0c0.5-0.1,0.8-0.5,1-1
						c0-0.1,0-0.2,0-0.4C87.3,136.8,87.3,136.7,87.2,136.6z"/>
				</g>
				<g>
					<path class="st7" d="M177,134.5c0,0.4,0,0.8,0,1.2c-0.1,0-0.2,0-0.4,0c-0.1,0-0.2,0-0.4,0c0-0.3,0-0.7,0-1.2
						c0-1.4,0.2-2.5,0.4-2.5C176.8,132,177,133.1,177,134.5z"/>
					<path class="st7" d="M175.2,137c0,0.1,0,0.2,0,0.4c-0.3,0-0.7,0-1.2,0c-1.4,0-2.5-0.2-2.5-0.4c0-0.2,1.1-0.4,2.5-0.4
						c0.4,0,0.8,0,1.2,0C175.2,136.7,175.2,136.8,175.2,137z"/>
					<path class="st7" d="M177,139.4c0,1.4-0.2,2.5-0.4,2.5c-0.2,0-0.4-1.1-0.4-2.5c0-0.4,0-0.8,0-1.2c0.1,0,0.2,0,0.4,0
						c0.1,0,0.2,0,0.4,0C177,138.6,177,139,177,139.4z"/>
					<path class="st7" d="M181.6,137c0,0.2-1.1,0.4-2.5,0.4c-0.4,0-0.8,0-1.2,0c0-0.1,0-0.2,0-0.4c0-0.1,0-0.2,0-0.4
						c0.3,0,0.7,0,1.2,0C180.5,136.5,181.6,136.7,181.6,137z"/>
					<path class="st7" d="M177.9,136.6c-0.1-0.5-0.5-0.8-1-1c-0.1,0-0.2,0-0.4,0c-0.1,0-0.2,0-0.4,0c-0.5,0.1-0.8,0.5-1,1
						c0,0.1,0,0.2,0,0.4c0,0.1,0,0.2,0,0.4c0.1,0.5,0.5,0.8,1,1c0.1,0,0.2,0,0.4,0c0.1,0,0.2,0,0.4,0c0.5-0.1,0.8-0.5,1-1
						c0-0.1,0-0.2,0-0.4C178,136.8,178,136.7,177.9,136.6z"/>
				</g>
				<g>
					<path class="st7" d="M207.2,134.5c0,0.4,0,0.8,0,1.2c-0.1,0-0.2,0-0.4,0c-0.1,0-0.2,0-0.4,0c0-0.3,0-0.7,0-1.2
						c0-1.4,0.2-2.5,0.4-2.5C207,132,207.2,133.1,207.2,134.5z"/>
					<path class="st7" d="M205.4,137c0,0.1,0,0.2,0,0.4c-0.3,0-0.7,0-1.2,0c-1.4,0-2.5-0.2-2.5-0.4c0-0.2,1.1-0.4,2.5-0.4
						c0.4,0,0.8,0,1.2,0C205.5,136.7,205.4,136.8,205.4,137z"/>
					<path class="st7" d="M207.2,139.4c0,1.4-0.2,2.5-0.4,2.5c-0.2,0-0.4-1.1-0.4-2.5c0-0.4,0-0.8,0-1.2c0.1,0,0.2,0,0.4,0
						c0.1,0,0.2,0,0.4,0C207.2,138.6,207.2,139,207.2,139.4z"/>
					<path class="st7" d="M211.8,137c0,0.2-1.1,0.4-2.5,0.4c-0.4,0-0.8,0-1.2,0c0-0.1,0-0.2,0-0.4c0-0.1,0-0.2,0-0.4
						c0.3,0,0.7,0,1.2,0C210.7,136.5,211.8,136.7,211.8,137z"/>
					<path class="st7" d="M208.1,136.6c-0.1-0.5-0.5-0.8-1-1c-0.1,0-0.2,0-0.4,0c-0.1,0-0.2,0-0.4,0c-0.5,0.1-0.8,0.5-1,1
						c0,0.1,0,0.2,0,0.4c0,0.1,0,0.2,0,0.4c0.1,0.5,0.5,0.8,1,1c0.1,0,0.2,0,0.4,0c0.1,0,0.2,0,0.4,0c0.5-0.1,0.8-0.5,1-1
						c0-0.1,0-0.2,0-0.4C208.2,136.8,208.2,136.7,208.1,136.6z"/>
				</g>
				<path class="st8" d="M142.4,164H78.1c9.8,0,47.9-3.5,59.2-8.7C140.5,157.7,142.4,160.7,142.4,164z"/>
				<path class="st8" d="M228.2,164H164c9.8,0,47.9-3.5,59.2-8.7C226.4,157.7,228.2,160.7,228.2,164z"/>
			</g>
			<rect x="8.8" y="213.5" class="st9" width="274.1" height="4.8"/>
			<rect x="8.8" y="213.5" class="st10" width="274.1" height="2.4"/>
			<polygon class="st10" points="29.2,218.3 29,222.6 19.8,222.6 19.6,218.3 			"/>
			<polygon class="st10" points="272.2,218.3 271.9,222.6 262.8,222.6 262.5,218.3 			"/>
		</g>
		<g>
			<g>
				<path class="st11" d="M155,25.5c0,0,3.7-14.1,20.6-15.3c19.8-1.4,26.3,15.9,26.3,15.9S186.4,11.4,155,25.5z"/>
				<g>
					<path class="st12" d="M166.7,7.5c0,0-9-4-9.5-1.5s1.1,13.9,3.8,12.6c2.6-1.3,7.8-6.5,7.8-6.5L166.7,7.5z"/>
					<path class="st12" d="M173.1,11.1c0,0,9,4,9.5,1.5s-1.1-13.9-3.8-12.6s-7.8,6.5-7.8,6.5L173.1,11.1z"/>
					<circle class="st13" cx="169.8" cy="9.3" r="3.8"/>
				</g>
			</g>
			<g>
				<path class="st14" d="M193.2,128.8c0.6-0.8,0.3-3,0.3-3l-0.7-1.2c0.1-0.1,0.1-0.1,0.2-0.2c0.6-0.8,0.2-1.9-0.3-2.8
					c-1.4-2.7-3.2-5.3-5.7-6.9l-2.3-4l9.1-30.2l-15.4-6c0,0-0.9,32.2-0.9,33.9c0,0.1,0,0.2,0,0.3c0,0,0.4,5.6,3.3,11.2
					c0.1,0.5,0.3,1,0.5,1.5c1,2.4,2.5,4.6,4.4,6.6c0.5,0.5,1,1,1.7,1.2c0.7,0.2,1.5,0.2,2-0.3c0.1-0.1,0.2-0.3,0.3-0.4
					c0.4,0.3,0.8,0.6,1.3,0.7C191.8,129.6,192.7,129.4,193.2,128.8z"/>
			</g>
			<g>
				<path class="st14" d="M159.8,130.2c-0.6-0.8-0.3-3-0.3-3l0.7-1.2c-0.1-0.1-0.1-0.1-0.2-0.2c-0.6-0.8-0.2-1.9,0.3-2.8
					c1.4-2.7,3.2-5.3,5.7-6.9l2.3-4l-10.9-36l16-0.6c0,0,2.1,32.7,2,34.4c0,0.1,0,0.2,0,0.3c0,0-0.4,5.6-3.3,11.2
					c-0.1,0.5-0.3,1-0.5,1.5c-1,2.4-2.5,4.6-4.4,6.6c-0.5,0.5-1,1-1.7,1.2c-0.7,0.2-1.5,0.2-2-0.3c-0.1-0.1-0.2-0.3-0.3-0.4
					c-0.4,0.3-0.8,0.6-1.3,0.7C161.2,130.9,160.3,130.8,159.8,130.2z"/>
			</g>
			<g>
				<path class="st14" d="M158.4,52.4l-14.1-19.9l-4.8,3.8l19.3,35C158.9,71.2,159.4,54.3,158.4,52.4z"/>
				<g>
					<path class="st14" d="M137.5,33.6l-0.7,1.5c-0.3,0.6-1,0.8-1.5,0.5l-3.9-2c-0.6-0.3-0.8-1-0.5-1.6l0.7-1.5
						c0.3-0.6,1-0.8,1.5-0.5l3.9,2C137.6,32.3,137.8,33,137.5,33.6z"/>
					<path class="st14" d="M136.1,35.4c0,0,1.3-12.4,9.7-7.3C154.1,33.3,141.9,45.2,136.1,35.4z"/>
					<path class="st14" d="M142.9,28.1l-1.6,0.5c-0.6,0.2-1.2-0.1-1.4-0.7l-1.4-4.3c-0.2-0.6,0.1-1.3,0.7-1.5l1.6-0.5
						c0.6-0.2,1.2,0.1,1.4,0.7l1.4,4.3C143.8,27.3,143.5,27.9,142.9,28.1z"/>
					<path class="st14" d="M140.5,30.6l-1.1,1.3c-0.4,0.5-1.1,0.5-1.6,0.1l-4.7-4.2c-0.5-0.4-0.5-1.2-0.1-1.6l1.1-1.3
						c0.4-0.5,1.1-0.5,1.6-0.1l4.7,4.2C140.9,29.3,140.9,30.1,140.5,30.6z"/>
					<path class="st14" d="M145.8,31.1l-0.4-0.3c-0.8-0.6-1-1.7-0.4-2.5l1.8-2.7c0.5-0.8,1.6-1,2.4-0.4l0.4,0.3
						c0.8,0.6,1,1.7,0.4,2.5l-1.8,2.7C147.7,31.4,146.6,31.6,145.8,31.1z"/>
				</g>
			</g>
			<g>
				<path class="st14" d="M197.6,52.4l14.1-19.9l4.8,3.8l-19.3,35C197.1,71.2,196.6,54.3,197.6,52.4z"/>
				<g>
					<path class="st14" d="M218.4,33.6l0.7,1.5c0.3,0.6,1,0.8,1.5,0.5l3.9-2c0.6-0.3,0.8-1,0.5-1.6l-0.7-1.5c-0.3-0.6-1-0.8-1.5-0.5
						l-3.9,2C218.4,32.3,218.2,33,218.4,33.6z"/>
					<path class="st14" d="M219.9,35.4c0,0-1.3-12.4-9.7-7.3C201.9,33.3,214.1,45.2,219.9,35.4z"/>
					<path class="st14" d="M213.1,28.1l1.6,0.5c0.6,0.2,1.2-0.1,1.4-0.7l1.4-4.3c0.2-0.6-0.1-1.3-0.7-1.5l-1.6-0.5
						c-0.6-0.2-1.2,0.1-1.4,0.7l-1.4,4.3C212.2,27.3,212.5,27.9,213.1,28.1z"/>
					<path class="st14" d="M215.5,30.6l1.1,1.3c0.4,0.5,1.1,0.5,1.6,0.1l4.7-4.2c0.5-0.4,0.5-1.2,0.1-1.6l-1.1-1.3
						c-0.4-0.5-1.1-0.5-1.6-0.1l-4.7,4.2C215.1,29.3,215.1,30.1,215.5,30.6z"/>
					<path class="st14" d="M210.2,31.1l0.4-0.3c0.8-0.6,1-1.7,0.4-2.5l-1.8-2.7c-0.5-0.8-1.6-1-2.4-0.4l-0.4,0.3
						c-0.8,0.6-1,1.7-0.4,2.5l1.8,2.7C208.3,31.4,209.4,31.6,210.2,31.1z"/>
				</g>
			</g>
			<g>
				<path class="st15" d="M160.3,50.1c0,0-5.7-3.4-5.2,0.8c0.3,2.3,0.1,16.8,0.1,16.8l3.4-6.8l5.3-8.6L160.3,50.1z"/>
			</g>
			<g>
				<path class="st15" d="M194.7,50.2c0,0,6-2.8,5.1,1.3c-0.5,2.2-1.8,16.8-1.8,16.8l-2.7-7.1l-4.4-9.1L194.7,50.2z"/>
			</g>
			<ellipse class="st14" cx="196.4" cy="41.6" rx="7.1" ry="7.1"/>
			<g>
				<path class="st16" d="M193.4,54.4c-4.6-0.9-9.6-1.5-14.8-1.9c-5.3-0.4-10.3-0.7-15-0.6c-4,3.6-14.3,28.5-16,34.5
					c6.5,1.8,13.8,11.8,22.3,12.5c11.3,1,29.9-5.3,35.4-4C202.5,88.2,196.7,58.7,193.4,54.4z"/>
				<path class="st17" d="M193,52.6c-4.6-0.9-9.6-1.5-14.8-1.9c-5.3-0.4-8.4-0.4-13-0.3c-4.3,2.9-16.3,28.2-18,34.2
					c6.5,1.8,13.8,11.8,22.3,12.5c11.3,1,30.3-3.5,35.8-2.2C202.3,88.5,196.3,56.9,193,52.6z"/>
				<g>
					<g>
						<g>
							<defs>
								<path id="SVGID_253_" d="M193,52.6c-4.6-0.9-9.6-1.5-14.8-1.9c-5.3-0.4-10.3-0.7-15-0.6c-2.7,5.2-14.3,28.5-16,34.5
									c6.5,1.8,13.8,11.8,22.3,12.5c11.3,1,30.3-3.5,35.8-2.2C202.1,87.6,196.3,56.9,193,52.6z"/>
							</defs>
							<clipPath id="SVGID_1_">
								<use xlink:href="#SVGID_253_"  style="overflow:visible;"/>
							</clipPath>
							<g class="st18">
								<ellipse class="st19" cx="156.3" cy="62.7" rx="5.8" ry="5.5"/>
								<ellipse class="st19" cx="195.1" cy="87.9" rx="5.8" ry="5.5"/>
								<ellipse class="st19" cx="170.2" cy="89.9" rx="5.8" ry="5.5"/>
								<ellipse class="st19" cx="197.1" cy="67.3" rx="5.8" ry="5.5"/>
								<ellipse class="st19" cx="159.1" cy="77.6" rx="5.8" ry="5.5"/>
								<ellipse class="st19" cx="182.6" cy="78.4" rx="5.8" ry="5.5"/>
								<ellipse class="st19" cx="173.4" cy="67.1" rx="5.8" ry="5.5"/>
							</g>
						</g>
					</g>
				</g>
			</g>
			<path class="st0" d="M162.3,51.9c-0.4,1-0.7,2.1-0.6,3.1c0,1,0.7,2.2,1.6,2.5c1.3,0.4,2.8-0.8,4,0c1.8,1.1,0.9,4.9,2.8,5.3
				c1.3,0.3,2.1-1.4,3.3-1.9c1-0.4,2.2,0,3.1,0.7c0.9,0.7,1.7,1.6,2.5,2.2c0.2,0.2,0.5,0.4,0.8,0.4c1,0,1-1.8,1.7-2.6
				c0.9-1.2,2.6-0.8,4-0.1c1.3,0.6,3.1,1.1,4-0.1c0.7-0.9,0.5-2.3,1.4-2.9c0.5-0.4,1.3-0.2,2.1-0.1c0.7,0.1,1.6-0.1,1.8-0.8
				c0.2-0.5-0.2-1-0.4-1.5c-0.9-1.3-1.7-2.6-2.6-3.8c-9.7,3-20.4,2.8-30.1-0.5"/>
			<path class="st20" d="M194.3,43.2c-4.3-4.2-10.2-6.8-16.4-6.9c-6.3-0.1-12.2,2.2-16.8,6.2c5.1-0.3,10.8-0.4,16.7-0.3
				C183.7,42.3,189.2,42.6,194.3,43.2z"/>
			<ellipse class="st14" cx="177.2" cy="35.1" rx="19.1" ry="19.1"/>
			<ellipse class="st21" cx="177.3" cy="31" rx="13.9" ry="13.9"/>
			
				<ellipse transform="matrix(2.438350e-02 -0.9997 0.9997 2.438350e-02 133.5972 191.3372)" class="st14" cx="164.8" cy="27.2" rx="13.2" ry="11.4"/>
			
				<ellipse transform="matrix(2.438350e-02 -0.9997 0.9997 2.438350e-02 133.5972 191.3372)" class="st21" cx="164.8" cy="27.2" rx="11.8" ry="10"/>
			
				<ellipse transform="matrix(2.438350e-02 -0.9997 0.9997 2.438350e-02 133.5972 191.3372)" class="st0" cx="164.8" cy="27.2" rx="10" ry="8.5"/>
			
				<ellipse transform="matrix(2.438350e-02 -0.9997 0.9997 2.438350e-02 157.3314 216.9172)" class="st14" cx="189.8" cy="27.9" rx="13.2" ry="11.4"/>
			
				<ellipse transform="matrix(2.438350e-02 -0.9997 0.9997 2.438350e-02 157.3314 216.9172)" class="st21" cx="189.8" cy="27.9" rx="11.8" ry="10"/>
			
				<ellipse transform="matrix(2.438350e-02 -0.9997 0.9997 2.438350e-02 157.3314 216.9172)" class="st0" cx="189.8" cy="27.9" rx="10" ry="8.5"/>
			<g>
				
					<ellipse transform="matrix(2.438350e-02 -0.9997 0.9997 2.438350e-02 139.1781 186.7213)" class="st22" cx="165.3" cy="22.1" rx="3.4" ry="3.3"/>
				
					<ellipse transform="matrix(2.438350e-02 -0.9997 0.9997 2.438350e-02 141.6859 186.5451)" class="st0" cx="166.4" cy="20.7" rx="1" ry="1"/>
			</g>
			<g>
				
					<ellipse transform="matrix(2.438350e-02 -0.9997 0.9997 2.438350e-02 162.6311 211.7451)" class="st22" cx="189.8" cy="22.5" rx="3.4" ry="3.3"/>
				
					<ellipse transform="matrix(2.438350e-02 -0.9997 0.9997 2.438350e-02 165.1377 211.4617)" class="st0" cx="190.9" cy="21.1" rx="1" ry="1"/>
			</g>
			<ellipse class="st14" cx="158.2" cy="39.3" rx="7.1" ry="7.1"/>
			<path class="st14" d="M177.5,56.6c10.9,0.3,19.6-4.7,25.6-13c-4.8-6.9-11-11.1-19.9-12.7c-0.1,0-0.1,0-0.2,0
				c-0.4,0-0.8-0.1-1.2-0.2c-0.2,0-0.5,0-0.7-0.1c0,0,0,0-0.1,0c-0.6,0-1.3-0.2-1.9-0.1l0,0c-0.3,0-0.6,0-1,0c-0.4,0-0.6,0-1,0l0,0
				c-0.6,0-1.3,0-1.9,0.1c0,0,0,0-0.1,0c-0.2,0-0.5,0-0.7,0c-0.4,0-0.8,0.1-1.2,0.1c-0.1,0-0.1,0-0.2,0c-9,1.1-16,5.2-21.1,12
				C157.9,50.6,166.6,56.3,177.5,56.6z"/>
			<g>
				<path class="st23" d="M188.6,40.5c-5.9-1.4-10.4-1.2-10.4-1.2s-4.4-0.2-10.5,0.7c-8.1,1.1-7.2,0-9.3-0.2
					c2.2,9.5,9.4,17.4,19.4,17.7c10,0.2,17.4-6.9,20.4-16.4C196.1,41.2,192.4,41.4,188.6,40.5z"/>
				<g>
					<ellipse class="st23" cx="176.5" cy="52.1" rx="7.3" ry="7.3"/>
					<path class="st14" d="M176.8,48.1c2.8,0.1,5.3,1.3,7,3.3c-1.2-2.8-3.8-4.7-7.1-4.8c-3.4-0.1-6.3,2-7.6,4.9
						C171,49.4,173.8,48.1,176.8,48.1z"/>
				</g>
				<path class="st24" d="M161.8,40.7c-2.3-0.1-3.7-0.5-4.3-1.4c-0.5-0.7-0.2-1.3-0.2-1.4c0-0.2,0.2-0.2,0.3-0.1s0.2,0.2,0.1,0.3
					c0,0-0.2,0.4,0.1,0.9c0.5,0.7,2.3,1.7,8.9,0.8c10.7-1.4,12.4-1.6,22.2,0.1c5.9,1,8.8,1.1,9.8,0.3c0.2-0.2,0.4-0.5,0.4-0.8
					c0-0.2,0.2-0.3,0.2-0.3c0.2,0,0.3,0.2,0.2,0.3c0,0.5-0.3,0.9-0.5,1.1c-1.2,0.9-4,0.8-10.2-0.2c-9.7-1.7-11.4-1.6-22.1-0.1
					C164.8,40.6,163.2,40.8,161.8,40.7z"/>
			</g>
			<g>
				<path class="st25" d="M170.8,19.4c0,0-0.3-0.2-0.6-0.3c-0.2,0-0.4-0.2-0.8-0.3c-0.3-0.2-0.6-0.2-1-0.4c-0.3-0.2-0.8-0.2-1.2-0.2
					c-0.4,0-0.9-0.2-1.4-0.2c-0.5,0-1,0-1.4-0.1c-0.5,0-1,0.1-1.5,0.2c-0.2,0-0.2,0-0.4,0.1l-0.4,0c-0.2,0-0.5,0.1-0.7,0.2
					c-0.2,0.1-0.5,0.2-0.7,0.3c-0.2,0.1-0.5,0.2-0.7,0.3c-0.2,0.1-0.4,0.2-0.6,0.3c-0.2,0.1-0.4,0.3-0.5,0.3
					c-0.2,0.1-0.4,0.3-0.5,0.3c-0.2,0.2-0.3,0.3-0.5,0.5c-0.2,0.1-0.3,0.3-0.4,0.3c-0.2,0.2-0.2,0.3-0.3,0.3
					c-0.2,0.3-0.4,0.5-0.5,0.6c-0.2,0.3-0.4,0.6-0.4,0.6s0.2-0.2,0.5-0.5c0.2-0.2,0.4-0.3,0.6-0.5c0.1-0.1,0.2-0.2,0.4-0.3
					c0.2-0.1,0.2-0.3,0.4-0.3c0.2-0.1,0.3-0.2,0.5-0.3c0.2-0.1,0.3-0.2,0.5-0.3c0.2-0.1,0.4-0.2,0.5-0.3c0.2-0.1,0.4-0.2,0.6-0.3
					c0.2-0.1,0.4-0.2,0.6-0.3c0.1,0,0.2-0.1,0.3-0.1s0.2-0.1,0.3-0.1c0.5-0.1,1-0.2,1.4-0.3c0.4-0.1,1-0.1,1.4-0.2
					c0.4,0,1-0.1,1.4,0c0.4,0,0.9,0,1.3,0.1c0.4,0,0.8,0.1,1.2,0.2c0.3,0,0.7,0.1,1,0.2c0.3,0,0.6,0.1,0.8,0.2c0.2,0,0.4,0,0.5,0.2
					C170.7,19.3,170.8,19.4,170.8,19.4z"/>
				<g>
					<path class="st25" d="M162.5,18.4c0,0-0.6,0-1.3,0.1c-0.4,0-0.9,0.1-1.3,0.1c-0.2,0-0.5,0-0.7,0c-0.2,0-0.5,0-0.7,0
						c-0.2,0-0.5,0-0.7,0c-0.2,0-0.2,0-0.3,0c-0.1,0-0.2,0-0.3,0c-0.1,0-0.2,0-0.3,0c-0.1-0.1-0.2,0-0.3,0c-0.2,0-0.4-0.2-0.6-0.2
						c-0.1-0.1-0.2,0-0.3-0.2c-0.1-0.1-0.2,0-0.3-0.2c-0.2,0-0.3-0.2-0.3-0.2c-0.2-0.2-0.3-0.2-0.3-0.2s0,0,0,0.1
						c0,0.1,0.1,0.2,0.1,0.2c0.1,0.1,0.2,0.2,0.3,0.4c0.1,0.1,0.1,0.2,0.2,0.2s0.2,0.2,0.3,0.2c0.2,0.2,0.3,0.3,0.6,0.4
						c0.1,0.1,0.3,0.2,0.3,0.2c0.1,0.1,0.2,0,0.3,0.2c0.2,0,0.5,0.2,0.8,0.2c0.2,0,0.6,0,0.8,0.1c0.2,0,0.6,0,0.8,0
						c0.2,0,0.6,0,0.8-0.1c0.5-0.1,1-0.2,1.3-0.3c0.4-0.1,0.7-0.3,1-0.4C162.4,18.4,162.5,18.4,162.5,18.4z"/>
					<path class="st25" d="M160.2,19.3c0,0-0.6,0-1.3,0.1c-0.4,0-0.9,0.1-1.3,0.1c-0.2,0-0.5,0-0.7,0c-0.2,0-0.5,0-0.7,0
						c-0.2,0-0.5,0-0.7,0c-0.2,0-0.2,0-0.3,0c-0.1,0-0.2,0-0.3,0c-0.1,0-0.2,0-0.3,0c-0.1-0.1-0.2,0-0.3,0c-0.2,0-0.4-0.2-0.6-0.2
						c-0.1-0.1-0.2,0-0.3-0.2c-0.1-0.1-0.2,0-0.3-0.2c-0.2,0-0.3-0.2-0.3-0.2c-0.2-0.2-0.3-0.2-0.3-0.2s0,0,0,0.1
						c0,0.1,0.1,0.2,0.1,0.2c0.1,0.1,0.2,0.2,0.3,0.4c0.1,0.1,0.1,0.2,0.2,0.2c0.1,0.1,0.2,0.2,0.3,0.2c0.2,0.2,0.3,0.3,0.6,0.4
						c0.1,0.1,0.3,0.2,0.3,0.2c0.1,0.1,0.2,0,0.3,0.2c0.2,0,0.5,0.2,0.8,0.2c0.2,0,0.6,0,0.8,0.1c0.2,0,0.6,0,0.8,0
						c0.2,0,0.6,0,0.8-0.1c0.5-0.1,1-0.2,1.3-0.3c0.4-0.1,0.7-0.3,1-0.4C160.1,19.4,160.2,19.3,160.2,19.3z"/>
					<path class="st25" d="M159.1,19.8c0,0-0.2,0-0.3,0c-0.2,0-0.5,0.1-0.9,0.1c-0.3,0.1-0.7,0.1-1.2,0.3c-0.2,0-0.4,0-0.6,0.1
						c-0.2,0-0.5,0-0.6,0c-0.2,0-0.5,0-0.6,0c-0.1,0-0.2,0-0.3,0c-0.1,0-0.2,0-0.3,0c-0.2,0-0.4,0-0.6,0c-0.2,0-0.3,0-0.5-0.2
						c-0.1,0-0.2,0-0.2,0c-0.1,0-0.2,0-0.2,0c-0.2,0-0.3-0.2-0.3-0.2c-0.2,0-0.3-0.2-0.3-0.2s0,0,0.1,0.1c0,0.1,0.1,0.2,0.2,0.2
						c0.1,0.1,0.2,0.2,0.3,0.3s0.1,0.1,0.2,0.2c0.1,0.1,0.2,0,0.3,0.2c0.2,0,0.3,0.2,0.6,0.3c0.1,0.1,0.2,0,0.3,0.2
						c0.1,0.1,0.2,0,0.3,0c0.2,0,0.5,0,0.7,0.1c0.2,0,0.5,0,0.7,0c0.2,0,0.5,0,0.7-0.1c0.2,0,0.5-0.1,0.7-0.2
						c0.5-0.1,0.8-0.3,1.2-0.5c0.3-0.2,0.6-0.3,0.8-0.5C159.1,19.9,159.1,19.8,159.1,19.8z"/>
					<path class="st25" d="M158.4,20.2c0,0-0.1,0-0.2,0.1c-0.2,0.1-0.3,0.1-0.5,0.2c-0.2,0.1-0.5,0.2-0.8,0.4
						c-0.2,0.1-0.3,0.1-0.4,0.2c-0.2,0.1-0.3,0.1-0.4,0.2c-0.2,0.1-0.3,0.1-0.4,0.2c-0.1,0-0.2,0-0.2,0.1c-0.1,0-0.2,0-0.2,0.1
						c-0.2,0-0.2,0.1-0.4,0.1c-0.2,0-0.2,0-0.4,0c-0.1,0-0.1,0-0.2,0c-0.1,0-0.1,0-0.2,0c-0.1,0-0.2,0-0.2,0c-0.2,0-0.2,0-0.2,0
						s0,0,0,0.1c0,0,0.1,0.1,0.1,0.2c0.1,0.1,0.2,0.2,0.3,0.2c0.1,0,0.1,0.1,0.2,0c0.1,0,0.1,0.1,0.2,0c0.2,0,0.2,0,0.4,0.2
						c0.2,0,0.3,0,0.5,0c0.2,0,0.3,0,0.6,0c0.2,0,0.3-0.1,0.5-0.1c0.2-0.1,0.3-0.1,0.5-0.2c0.2-0.1,0.3-0.2,0.5-0.3
						c0.2-0.2,0.5-0.3,0.7-0.6c0.2-0.2,0.3-0.3,0.4-0.5C158.4,20.3,158.4,20.2,158.4,20.2z"/>
				</g>
			</g>
			<g>
				<path class="st25" d="M185.4,19.4c0,0,0.2-0.1,0.6-0.2c0.2-0.1,0.5-0.2,0.8-0.2s0.6-0.2,1-0.2c0.4-0.1,0.8-0.1,1.2-0.2
					c0.4,0,0.9-0.1,1.4,0c0.5,0,1,0.1,1.4,0.2c0.5,0.1,1,0.2,1.5,0.3c0.2,0,0.2,0.1,0.4,0.1l0.4,0.2c0.2,0.1,0.5,0.2,0.7,0.3
					c0.2,0.1,0.5,0.2,0.6,0.3c0.2,0.2,0.4,0.2,0.6,0.4c0.2,0.2,0.4,0.2,0.6,0.4c0.2,0.2,0.3,0.3,0.5,0.4c0.2,0.2,0.3,0.3,0.5,0.4
					c0.2,0.2,0.2,0.3,0.4,0.5s0.2,0.3,0.3,0.4c0.1,0.2,0.2,0.2,0.3,0.4c0.2,0.2,0.3,0.5,0.4,0.6c0.2,0.4,0.3,0.6,0.3,0.6
					s-0.2-0.2-0.4-0.6c-0.2-0.2-0.3-0.4-0.5-0.6c-0.1-0.1-0.2-0.2-0.3-0.3c-0.2-0.1-0.2-0.2-0.4-0.4c-0.2-0.2-0.2-0.2-0.4-0.4
					c-0.2-0.2-0.3-0.2-0.5-0.4c-0.2-0.2-0.3-0.2-0.6-0.4c-0.2-0.1-0.4-0.2-0.6-0.3c-0.1-0.1-0.4-0.2-0.6-0.3
					c-0.1-0.1-0.2-0.1-0.3-0.2c-0.1-0.1-0.2-0.1-0.3-0.2c-0.4-0.2-0.9-0.3-1.4-0.5c-0.5-0.2-1-0.2-1.4-0.3c-0.4-0.1-1-0.2-1.4-0.2
					c-0.5,0-0.9-0.1-1.3-0.1s-0.8,0-1.2,0c-0.4,0-0.7,0-1,0.1c-0.3,0-0.6,0.1-0.8,0.1s-0.4,0.1-0.5,0.1
					C185.5,19.4,185.4,19.4,185.4,19.4z"/>
				<g>
					<path class="st25" d="M193.8,19.4c0,0,0.6,0.1,1.3,0.2c0.4,0.1,0.8,0.2,1.3,0.2c0.2,0,0.5,0.1,0.7,0.1s0.5,0.1,0.7,0.1
						c0.2,0,0.5,0,0.7,0c0.2,0,0.2,0,0.4,0c0.1,0,0.2,0,0.3,0s0.2,0,0.3-0.1c0.1,0,0.2,0,0.3-0.1c0.2-0.1,0.4-0.1,0.6-0.2
						c0.1,0,0.2-0.1,0.2-0.1s0.2-0.1,0.2-0.1c0.2-0.1,0.2-0.2,0.4-0.2c0.2-0.2,0.3-0.2,0.3-0.2s0,0-0.1,0.1c0,0.1-0.1,0.2-0.2,0.2
						c-0.1,0.1-0.2,0.2-0.3,0.3c-0.1,0.1-0.2,0.1-0.2,0.2c-0.1,0.1-0.2,0.1-0.2,0.2c-0.2,0.1-0.4,0.2-0.6,0.3
						c-0.1,0.1-0.2,0.1-0.3,0.2c-0.2,0.1-0.2,0.1-0.4,0.1c-0.2,0.1-0.6,0.1-0.8,0.1c-0.2,0-0.6,0-0.8,0s-0.6-0.1-0.8-0.1
						c-0.2-0.1-0.6-0.1-0.8-0.2c-0.5-0.2-1-0.3-1.3-0.5c-0.4-0.2-0.6-0.3-0.9-0.5C194,19.5,193.8,19.4,193.8,19.4z"/>
					<path class="st25" d="M196,20.6c0,0,0.6,0.1,1.3,0.2c0.4,0.1,0.8,0.2,1.3,0.2c0.2,0,0.5,0.1,0.7,0.1c0.2,0,0.5,0.1,0.7,0.1
						c0.2,0,0.5,0,0.7,0c0.2,0,0.2,0,0.4,0c0.1,0,0.2,0,0.3,0c0.1,0,0.2,0,0.3-0.1c0.1,0,0.2,0,0.3-0.1c0.2-0.1,0.4-0.1,0.6-0.2
						c0.1,0,0.2-0.1,0.2-0.1s0.2-0.1,0.2-0.1c0.2-0.1,0.2-0.2,0.4-0.2c0.2-0.2,0.3-0.2,0.3-0.2s0,0-0.1,0.1c0,0.1-0.1,0.2-0.2,0.2
						c-0.1,0.1-0.2,0.2-0.3,0.3c-0.1,0.1-0.2,0.1-0.2,0.2c-0.1,0.1-0.2,0.1-0.2,0.2c-0.2,0.1-0.4,0.2-0.6,0.3
						c-0.1,0.1-0.2,0.1-0.3,0.2c-0.2,0.1-0.2,0.1-0.4,0.1c-0.2,0.1-0.6,0.1-0.8,0.1s-0.6,0-0.8,0c-0.2,0-0.6-0.1-0.8-0.1
						c-0.2-0.1-0.6-0.1-0.8-0.2c-0.5-0.2-1-0.3-1.3-0.5c-0.4-0.2-0.6-0.3-0.9-0.5C196.1,20.7,196,20.6,196,20.6z"/>
					<path class="st25" d="M197,21.1c0,0,0.1,0,0.3,0.1c0.2,0.1,0.5,0.2,0.8,0.2c0.3,0.1,0.7,0.2,1.1,0.3c0.2,0.1,0.4,0.1,0.6,0.2
						c0.2,0.1,0.4,0.1,0.6,0.2c0.2,0.1,0.4,0.1,0.6,0.1c0.1,0,0.2,0,0.3,0c0.1,0,0.2,0,0.3,0c0.2,0,0.4,0,0.6,0c0.1,0,0.4,0,0.6-0.1
						c0.1,0,0.2,0,0.2-0.1c0.1,0,0.2-0.1,0.2-0.1c0.2,0,0.2-0.1,0.3-0.1c0.2-0.1,0.3-0.2,0.3-0.2s0,0-0.1,0.1c0,0.1-0.1,0.1-0.2,0.2
						c-0.1,0.1-0.2,0.2-0.3,0.2c-0.1,0.1-0.2,0.1-0.2,0.2c-0.1,0.1-0.2,0.1-0.2,0.2c-0.2,0.1-0.4,0.2-0.6,0.2
						c-0.1,0-0.2,0.1-0.3,0.1s-0.2,0-0.3,0.1c-0.2,0-0.5,0-0.7,0s-0.5-0.1-0.7-0.1c-0.2-0.1-0.5-0.1-0.7-0.2
						c-0.2-0.1-0.5-0.2-0.6-0.2c-0.4-0.2-0.8-0.4-1.1-0.6c-0.3-0.2-0.6-0.4-0.7-0.6C197.1,21.3,197,21.1,197,21.1z"/>
					<path class="st25" d="M197.6,21.6c0,0,0.1,0,0.2,0.1c0.2,0.1,0.3,0.2,0.6,0.3c0.2,0.2,0.5,0.2,0.7,0.4c0.2,0.1,0.2,0.2,0.4,0.2
						c0.2,0.1,0.2,0.2,0.4,0.2c0.2,0.1,0.2,0.2,0.4,0.2c0.1,0,0.2,0.1,0.2,0.1c0.1,0,0.2,0.1,0.2,0.1c0.2,0.1,0.2,0.1,0.4,0.2
						c0.2,0,0.2,0.1,0.3,0.1s0.1,0,0.2,0c0.1,0,0.1,0,0.2,0c0.1,0,0.2,0,0.2,0c0.2,0,0.2,0,0.2,0s0,0-0.1,0.1c0,0-0.1,0.1-0.2,0.1
						c-0.1,0-0.2,0.1-0.2,0.2c-0.1,0-0.1,0.1-0.2,0.1c-0.1,0-0.2,0-0.2,0.1c-0.2,0-0.3,0.1-0.5,0.1c-0.2,0-0.3,0-0.5,0
						c-0.2,0-0.3-0.1-0.5-0.2c-0.2-0.1-0.3-0.2-0.5-0.2c-0.2-0.1-0.3-0.2-0.5-0.2c-0.2-0.1-0.2-0.2-0.4-0.3
						c-0.2-0.2-0.5-0.5-0.6-0.6c-0.2-0.2-0.2-0.4-0.3-0.6C197.6,21.8,197.6,21.6,197.6,21.6z"/>
				</g>
			</g>
		</g>
		<g>
			<g>
				<path class="st14" d="M118.3,232.9c0.8-1,0.4-3.9,0.4-3.9l-0.9-1.5c0.1-0.1,0.2-0.2,0.3-0.3c0.7-1,0.2-2.4-0.3-3.5
					c-1.7-3.4-4.1-6.7-7.3-8.7l-3-5l11.6-38.2l-19.5-7.6c0,0-1.1,40.8-1.1,43c0,0.1,0,0.3,0.1,0.4c0,0,0.4,7.1,4.2,14.2
					c0.1,0.7,0.4,1.3,0.7,2c1.3,3.1,3.2,5.9,5.5,8.3c0.6,0.6,1.3,1.3,2.1,1.6c0.8,0.3,1.9,0.2,2.5-0.4c0.2-0.2,0.3-0.4,0.4-0.6
					c0.5,0.4,1.1,0.7,1.7,0.9C116.5,233.8,117.7,233.6,118.3,232.9z"/>
			</g>
			<g>
				<path class="st14" d="M75.9,234.6c-0.8-1-0.4-3.9-0.4-3.9l0.9-1.5c-0.1-0.1-0.2-0.2-0.3-0.3c-0.7-1-0.2-2.4,0.3-3.5
					c1.7-3.4,4.1-6.7,7.3-8.7l3-5L73,166.1l20.2-0.8c0,0,2.6,41.5,2.6,43.6c0,0.1,0,0.3-0.1,0.4c0,0-0.4,7.1-4.2,14.2
					c-0.1,0.7-0.4,1.3-0.7,2c-1.3,3.1-3.2,5.9-5.5,8.3c-0.6,0.6-1.3,1.3-2.1,1.6c-0.8,0.3-1.9,0.2-2.5-0.4c-0.2-0.2-0.3-0.4-0.4-0.6
					c-0.5,0.4-1.1,0.7-1.7,0.9C77.7,235.5,76.6,235.3,75.9,234.6z"/>
			</g>
			<g>
				<g>
					<defs>
						<path id="SVGID_251_" d="M121.1,176.5c0,0-1.3,0.9-2.3,1.1c-1,0.2-0.7-1.4-0.7-1.4S120.1,175.9,121.1,176.5"/>
					</defs>
					<clipPath id="SVGID_2_">
						<use xlink:href="#SVGID_251_"  style="overflow:visible;"/>
					</clipPath>
					<g class="st26">
						<defs>
							<rect id="SVGID_252_" x="-480" y="-3424.1" width="722.5" height="5917.6"/>
						</defs>
						<clipPath id="SVGID_3_">
							<use xlink:href="#SVGID_252_"  style="overflow:visible;"/>
						</clipPath>
						<rect x="115.6" y="173.6" class="st27" width="8" height="6.5"/>
					</g>
				</g>
				<g>
					<defs>
						<path id="SVGID_249_" d="M69.9,175.4l1.3,2.7c0,0-0.1-1.4,0.2-2.4C71.6,174.6,69.9,175.4,69.9,175.4"/>
					</defs>
					<clipPath id="SVGID_4_">
						<use xlink:href="#SVGID_249_"  style="overflow:visible;"/>
					</clipPath>
					<g class="st28">
						<defs>
							<rect id="SVGID_250_" x="-480" y="-3424.1" width="722.5" height="5917.6"/>
						</defs>
						<clipPath id="SVGID_5_">
							<use xlink:href="#SVGID_250_"  style="overflow:visible;"/>
						</clipPath>
						<rect x="67.4" y="172.6" class="st29" width="6.5" height="8"/>
					</g>
				</g>
				<g>
					<defs>
						<path id="SVGID_247_" d="M72.1,146.1l1-7.5l-4.3-2.6c0,0-7.8,17.9,2.6,21.8C77.8,160.2,72.1,146.1,72.1,146.1"/>
					</defs>
					<clipPath id="SVGID_6_">
						<use xlink:href="#SVGID_247_"  style="overflow:visible;"/>
					</clipPath>
					<g class="st30">
						<defs>
							<rect id="SVGID_248_" x="-480" y="-3424.1" width="722.5" height="5917.6"/>
						</defs>
						<clipPath id="SVGID_7_">
							<use xlink:href="#SVGID_248_"  style="overflow:visible;"/>
						</clipPath>
						<rect x="63.4" y="133.4" class="st31" width="13.5" height="27.1"/>
					</g>
				</g>
				<g>
					<defs>
						<path id="SVGID_245_" d="M120.3,153.3l-1-7.5l6.2-3.3c0,0,3.2,18.5-4.4,22.6C114.8,168.5,120.3,153.3,120.3,153.3"/>
					</defs>
					<clipPath id="SVGID_8_">
						<use xlink:href="#SVGID_245_"  style="overflow:visible;"/>
					</clipPath>
					<g class="st32">
						<defs>
							<rect id="SVGID_246_" x="-480" y="-3424.1" width="722.5" height="5917.6"/>
						</defs>
						<clipPath id="SVGID_9_">
							<use xlink:href="#SVGID_246_"  style="overflow:visible;"/>
						</clipPath>
						<rect x="115.6" y="140" class="st33" width="13" height="28.1"/>
					</g>
				</g>
				<g>
					<defs>
						<path id="SVGID_243_" d="M73.5,178.1c0,0,0,0.3,0.1,0.8c0,0.3,0.1,0.5,0.1,0.9c0,0.2,0.1,0.3,0.1,0.5c0.1,0.2,0.1,0.4,0.1,0.6
							c0.2,0.8,0.5,1.7,0.8,2.7c0.1,0.5,0.3,1.1,0.4,1.6c0.1,0.3,0.1,0.6,0.2,0.9c0,0.3,0.1,0.6,0.1,0.9c0,0.3,0,0.6,0,0.9l0,0.5
							c0,0.2,0,0.3-0.1,0.5c0,0.2,0,0.3-0.1,0.5c0,0.2-0.1,0.3-0.1,0.5l-0.1,0.2c0,0.1,0,0.1-0.1,0.2c-0.1,0.1-0.1,0.3-0.2,0.4
							c-0.5,1.1-1.1,1.8-1.5,2.5c-0.4,0.7-0.8,1.3-1,1.7c-0.2,0.4-0.4,0.7-0.4,0.7s0-0.3,0-0.8c0-0.5,0.1-1.2,0.4-2.1
							c0.2-0.9,0.7-1.8,0.9-2.7c0-0.1,0.1-0.2,0.1-0.3c0-0.1,0-0.1,0-0.2l0-0.2c0-0.2,0.1-0.5,0.1-0.7l0-0.4c0-0.1,0-0.3,0-0.4
							c0-0.2,0-0.5,0-0.8c0-0.5-0.1-1-0.2-1.6c-0.1-0.5-0.2-1.1-0.2-1.6c-0.2-1.1-0.2-2.1-0.2-3c0-0.2,0-0.4,0-0.6
							c0-0.2,0.1-0.4,0.1-0.6c0-0.4,0.2-0.7,0.2-0.9c0.1-0.2,0.2-0.4,0.2-0.5C73.5,178.2,73.5,178.1,73.5,178.1"/>
					</defs>
					<clipPath id="SVGID_10_">
						<use xlink:href="#SVGID_243_"  style="overflow:visible;"/>
					</clipPath>
					<g class="st34">
						<defs>
							<rect id="SVGID_244_" x="-480" y="-3424.1" width="722.5" height="5917.6"/>
						</defs>
						<clipPath id="SVGID_11_">
							<use xlink:href="#SVGID_244_"  style="overflow:visible;"/>
						</clipPath>
						<rect x="69.4" y="175.6" class="st35" width="8.5" height="22.6"/>
					</g>
				</g>
				<g>
					<defs>
						<path id="SVGID_241_" d="M80.9,132.7v16.8l-15-3.2c-0.2,1.2,3.7-19,8.2-20.2C79.7,124.7,80.9,132.7,80.9,132.7"/>
					</defs>
					<clipPath id="SVGID_12_">
						<use xlink:href="#SVGID_241_"  style="overflow:visible;"/>
					</clipPath>
					<g class="st36">
						<defs>
							<rect id="SVGID_242_" x="-480" y="-3424.1" width="722.5" height="5917.6"/>
						</defs>
						<clipPath id="SVGID_13_">
							<use xlink:href="#SVGID_242_"  style="overflow:visible;"/>
						</clipPath>
						<rect x="63.4" y="123.4" class="st37" width="20.1" height="28.6"/>
					</g>
				</g>
				<g>
					<defs>
						<polygon id="SVGID_239_" points="74.9,136.6 98.4,150 121.1,133.3 114.7,124.6 77.1,123.9 						"/>
					</defs>
					<clipPath id="SVGID_14_">
						<use xlink:href="#SVGID_239_"  style="overflow:visible;"/>
					</clipPath>
					<g class="st38">
						<defs>
							<rect id="SVGID_240_" x="-480" y="-3424.1" width="722.5" height="5917.6"/>
						</defs>
						<clipPath id="SVGID_15_">
							<use xlink:href="#SVGID_240_"  style="overflow:visible;"/>
						</clipPath>
						<rect x="72.4" y="121.4" class="st39" width="51.2" height="31.1"/>
					</g>
				</g>
				<g>
					<defs>
						<path id="SVGID_237_" d="M96,197.2c0,0,13.8,5.7,27.1-0.2C108.6,195,96,197.2,96,197.2"/>
					</defs>
					<clipPath id="SVGID_16_">
						<use xlink:href="#SVGID_237_"  style="overflow:visible;"/>
					</clipPath>
					<g class="st40">
						<defs>
							<rect id="SVGID_238_" x="-480" y="-3424.1" width="722.5" height="5917.6"/>
						</defs>
						<clipPath id="SVGID_17_">
							<use xlink:href="#SVGID_238_"  style="overflow:visible;"/>
						</clipPath>
						<rect x="93.5" y="193.6" class="st41" width="32.1" height="8.5"/>
					</g>
				</g>
				<g>
					<defs>
						<path id="SVGID_235_" d="M67.9,195.6c0,0,13.6,5.7,27.1,0.3C80.7,193.3,67.9,195.6,67.9,195.6"/>
					</defs>
					<clipPath id="SVGID_18_">
						<use xlink:href="#SVGID_235_"  style="overflow:visible;"/>
					</clipPath>
					<g class="st42">
						<defs>
							<rect id="SVGID_236_" x="-480" y="-3424.1" width="722.5" height="5917.6"/>
						</defs>
						<clipPath id="SVGID_19_">
							<use xlink:href="#SVGID_236_"  style="overflow:visible;"/>
						</clipPath>
						<rect x="65.4" y="192.1" class="st43" width="32.1" height="8.5"/>
					</g>
				</g>
				<g>
					<defs>
						<path id="SVGID_233_" d="M118.3,172.6c1.5,1.9,1.8,4.4,1.7,6.7c-0.1,2.3-0.5,4.7,0.1,7c0.6,2.5,2.1,4.7,2.2,7.3
							c0,1.4-0.3,3,0.9,3.9c-8.8,1.6-18,1.7-26.9,0.3c0.2-3.9,0.3-7.8-0.6-11.6c-0.4-1.6-1-3.2-1.3-4.8c-0.5-2.5-0.3-5.1,0.6-7.5"/>
					</defs>
					<clipPath id="SVGID_20_">
						<use xlink:href="#SVGID_233_"  style="overflow:visible;"/>
					</clipPath>
					<g class="st44">
						<defs>
							<rect id="SVGID_234_" x="-480" y="-3424.1" width="722.5" height="5917.6"/>
						</defs>
						<clipPath id="SVGID_21_">
							<use xlink:href="#SVGID_234_"  style="overflow:visible;"/>
						</clipPath>
						<rect x="91.5" y="170.1" class="st45" width="34.1" height="31.1"/>
					</g>
				</g>
				<g>
					<defs>
						<path id="SVGID_231_" d="M72.7,171.6c-1.5,1.9-1.8,4.4-1.7,6.7c0.1,2.3,0.5,4.7-0.1,7c-0.6,2.5-2.1,4.7-2.2,7.3
							c0,1.4,0.3,3-0.9,3.9c8.8,1.6,18,1.7,26.9,0.3c-0.2-3.9-0.3-7.8,0.6-11.6c0.4-1.6,1-3.2,1.3-4.8c0.5-2.5,0.3-5.1-0.6-7.5"/>
					</defs>
					<clipPath id="SVGID_22_">
						<use xlink:href="#SVGID_231_"  style="overflow:visible;"/>
					</clipPath>
					<g class="st46">
						<defs>
							<rect id="SVGID_232_" x="-480" y="-3424.1" width="722.5" height="5917.6"/>
						</defs>
						<clipPath id="SVGID_23_">
							<use xlink:href="#SVGID_232_"  style="overflow:visible;"/>
						</clipPath>
						<rect x="65.4" y="169.1" class="st47" width="34.1" height="31.1"/>
					</g>
				</g>
				<g>
					<defs>
						<path id="SVGID_229_" d="M104,129.4c0,4.7-3.6,8.5-8,8.5s-8-3.8-8-8.5"/>
					</defs>
					<clipPath id="SVGID_24_">
						<use xlink:href="#SVGID_229_"  style="overflow:visible;"/>
					</clipPath>
					<g class="st48">
						<defs>
							<rect id="SVGID_230_" x="-480" y="-3424.1" width="722.5" height="5917.6"/>
						</defs>
						<clipPath id="SVGID_25_">
							<use xlink:href="#SVGID_230_"  style="overflow:visible;"/>
						</clipPath>
						<rect x="85.5" y="126.9" class="st49" width="21.1" height="13.5"/>
					</g>
				</g>
				<g>
					<defs>
						<path id="SVGID_227_" d="M70.9,155.6l-1,18.7c0,0,32.2,3,53.2,1.2c-1.6-12.2-2.6-20.5-2.6-20.5L70.9,155.6z"/>
					</defs>
					<clipPath id="SVGID_26_">
						<use xlink:href="#SVGID_227_"  style="overflow:visible;"/>
					</clipPath>
					<g class="st50">
						<defs>
							<rect id="SVGID_228_" x="-480" y="-3424.1" width="722.5" height="5917.6"/>
						</defs>
						<clipPath id="SVGID_27_">
							<use xlink:href="#SVGID_228_"  style="overflow:visible;"/>
						</clipPath>
						<rect x="67.4" y="152.5" class="st51" width="58.2" height="26.1"/>
					</g>
				</g>
				<g>
					<defs>
						<path id="SVGID_225_" d="M69.4,97.1c0,0,2.9,1.4,5.2,1.2c2-0.2,1.1-2.1,1.1-2.1S73.4,94.9,69.4,97.1"/>
					</defs>
					<clipPath id="SVGID_28_">
						<use xlink:href="#SVGID_225_"  style="overflow:visible;"/>
					</clipPath>
					<g class="st52">
						<defs>
							<rect id="SVGID_226_" x="-480" y="-3424.1" width="722.5" height="5917.6"/>
						</defs>
						<clipPath id="SVGID_29_">
							<use xlink:href="#SVGID_226_"  style="overflow:visible;"/>
						</clipPath>
						<rect x="66.9" y="93.3" class="st53" width="11.5" height="7.5"/>
					</g>
				</g>
				<g>
					<defs>
						<path id="SVGID_223_" d="M111.5,119.4c-4.1-3.8-9.5-6-15.3-6c-5.8,0-11.2,2.3-15.3,6c4.7-0.4,9.9-0.6,15.3-0.6
							C101.7,118.8,106.8,119,111.5,119.4"/>
					</defs>
					<clipPath id="SVGID_30_">
						<use xlink:href="#SVGID_223_"  style="overflow:visible;"/>
					</clipPath>
					<g class="st54">
						<defs>
							<rect id="SVGID_224_" x="-480" y="-3424.1" width="722.5" height="5917.6"/>
						</defs>
						<clipPath id="SVGID_31_">
							<use xlink:href="#SVGID_224_"  style="overflow:visible;"/>
						</clipPath>
						<rect x="78.4" y="110.9" class="st55" width="35.6" height="11"/>
					</g>
				</g>
				<g>
					<defs>
						<path id="SVGID_221_" d="M114.6,111.1c0,10.1-8.2,18.3-18.3,18.3s-18.3-8.2-18.3-18.3s8.2-18.3,18.3-18.3
							S114.6,101,114.6,111.1"/>
					</defs>
					<clipPath id="SVGID_32_">
						<use xlink:href="#SVGID_221_"  style="overflow:visible;"/>
					</clipPath>
					<g class="st56">
						<defs>
							<rect id="SVGID_222_" x="-480" y="-3424.1" width="722.5" height="5917.6"/>
						</defs>
						<clipPath id="SVGID_33_">
							<use xlink:href="#SVGID_222_"  style="overflow:visible;"/>
						</clipPath>
						<rect x="75.4" y="90.3" class="st57" width="41.6" height="41.6"/>
					</g>
				</g>
				<g>
					<defs>
						<path id="SVGID_219_" d="M109.5,107.4c0,7.5-6.1,13.5-13.5,13.5c-7.5,0-13.5-6.1-13.5-13.5c0-7.5,6.1-13.5,13.5-13.5
							C103.5,93.8,109.5,99.9,109.5,107.4"/>
					</defs>
					<clipPath id="SVGID_34_">
						<use xlink:href="#SVGID_219_"  style="overflow:visible;"/>
					</clipPath>
					<g class="st58">
						<defs>
							<rect id="SVGID_220_" x="-480" y="-3424.1" width="722.5" height="5917.6"/>
						</defs>
						<clipPath id="SVGID_35_">
							<use xlink:href="#SVGID_220_"  style="overflow:visible;"/>
						</clipPath>
						<rect x="79.9" y="91.3" class="st59" width="32.1" height="32.1"/>
					</g>
				</g>
				<g>
					<defs>
						<path id="SVGID_217_" d="M94,104.1c0,7.1-4.9,12.8-11,12.8c-6.1,0-11-5.7-11-12.8c0-7.1,4.9-12.8,11-12.8
							C89,91.3,94,97,94,104.1"/>
					</defs>
					<clipPath id="SVGID_36_">
						<use xlink:href="#SVGID_217_"  style="overflow:visible;"/>
					</clipPath>
					<g class="st60">
						<defs>
							<rect id="SVGID_218_" x="-480" y="-3424.1" width="722.5" height="5917.6"/>
						</defs>
						<clipPath id="SVGID_37_">
							<use xlink:href="#SVGID_218_"  style="overflow:visible;"/>
						</clipPath>
						<rect x="69.4" y="88.8" class="st61" width="27.1" height="30.6"/>
					</g>
				</g>
				<g>
					<defs>
						<path id="SVGID_215_" d="M93,104.3c0,6.4-4.3,11.5-9.5,11.5c-5.3,0-9.5-5.2-9.5-11.5c0-6.4,4.3-11.5,9.5-11.5
							C88.7,92.8,93,98,93,104.3"/>
					</defs>
					<clipPath id="SVGID_38_">
						<use xlink:href="#SVGID_215_"  style="overflow:visible;"/>
					</clipPath>
					<g class="st62">
						<defs>
							<rect id="SVGID_216_" x="-480" y="-3424.1" width="722.5" height="5917.6"/>
						</defs>
						<clipPath id="SVGID_39_">
							<use xlink:href="#SVGID_216_"  style="overflow:visible;"/>
						</clipPath>
						<rect x="71.4" y="90.3" class="st63" width="24.1" height="28.1"/>
					</g>
				</g>
				<g>
					<defs>
						<path id="SVGID_213_" d="M91,104.1c0,5.4-3.6,9.8-8,9.8c-4.4,0-8-4.4-8-9.8s3.6-9.8,8-9.8C87.4,94.3,91,98.7,91,104.1"/>
					</defs>
					<clipPath id="SVGID_40_">
						<use xlink:href="#SVGID_213_"  style="overflow:visible;"/>
					</clipPath>
					<g class="st64">
						<defs>
							<rect id="SVGID_214_" x="-480" y="-3424.1" width="722.5" height="5917.6"/>
						</defs>
						<clipPath id="SVGID_41_">
							<use xlink:href="#SVGID_214_"  style="overflow:visible;"/>
						</clipPath>
						<rect x="72.4" y="91.8" class="st65" width="21.1" height="24.6"/>
					</g>
				</g>
				<g>
					<defs>
						<path id="SVGID_211_" d="M87,102.8c0,1.9-1.6,3.5-3.5,3.5s-3.5-1.6-3.5-3.5c0-1.9,1.6-3.5,3.5-3.5S87,100.9,87,102.8"/>
					</defs>
					<clipPath id="SVGID_42_">
						<use xlink:href="#SVGID_211_"  style="overflow:visible;"/>
					</clipPath>
					<g class="st66">
						<defs>
							<rect id="SVGID_212_" x="-480" y="-3424.1" width="722.5" height="5917.6"/>
						</defs>
						<clipPath id="SVGID_43_">
							<use xlink:href="#SVGID_212_"  style="overflow:visible;"/>
						</clipPath>
						<rect x="77.4" y="96.8" class="st67" width="12" height="12"/>
					</g>
				</g>
				<g>
					<defs>
						<path id="SVGID_209_" d="M120.1,104.1c0,7.1-4.9,12.8-11,12.8c-6.1,0-11-5.7-11-12.8c0-7.1,4.9-12.8,11-12.8
							C115.1,91.3,120.1,97,120.1,104.1"/>
					</defs>
					<clipPath id="SVGID_44_">
						<use xlink:href="#SVGID_209_"  style="overflow:visible;"/>
					</clipPath>
					<g class="st68">
						<defs>
							<rect id="SVGID_210_" x="-480" y="-3424.1" width="722.5" height="5917.6"/>
						</defs>
						<clipPath id="SVGID_45_">
							<use xlink:href="#SVGID_210_"  style="overflow:visible;"/>
						</clipPath>
						<rect x="95.5" y="88.8" class="st69" width="27.1" height="30.6"/>
					</g>
				</g>
				<g>
					<defs>
						<path id="SVGID_207_" d="M118.1,104.3c0,6.4-4.3,11.5-9.5,11.5c-5.3,0-9.5-5.2-9.5-11.5c0-6.4,4.3-11.5,9.5-11.5
							C113.8,92.8,118.1,98,118.1,104.3"/>
					</defs>
					<clipPath id="SVGID_46_">
						<use xlink:href="#SVGID_207_"  style="overflow:visible;"/>
					</clipPath>
					<g class="st70">
						<defs>
							<rect id="SVGID_208_" x="-480" y="-3424.1" width="722.5" height="5917.6"/>
						</defs>
						<clipPath id="SVGID_47_">
							<use xlink:href="#SVGID_208_"  style="overflow:visible;"/>
						</clipPath>
						<rect x="96.5" y="90.3" class="st71" width="24.1" height="28.1"/>
					</g>
				</g>
				<g>
					<defs>
						<path id="SVGID_205_" d="M116.6,104.1c0,5.4-3.6,9.8-8,9.8c-4.4,0-8-4.4-8-9.8s3.6-9.8,8-9.8C113,94.3,116.6,98.7,116.6,104.1
							"/>
					</defs>
					<clipPath id="SVGID_48_">
						<use xlink:href="#SVGID_205_"  style="overflow:visible;"/>
					</clipPath>
					<g class="st72">
						<defs>
							<rect id="SVGID_206_" x="-480" y="-3424.1" width="722.5" height="5917.6"/>
						</defs>
						<clipPath id="SVGID_49_">
							<use xlink:href="#SVGID_206_"  style="overflow:visible;"/>
						</clipPath>
						<rect x="98" y="91.8" class="st73" width="21.1" height="24.6"/>
					</g>
				</g>
				<g>
					<defs>
						<path id="SVGID_203_" d="M113,102.8c0,1.9-1.6,3.5-3.5,3.5c-1.9,0-3.5-1.6-3.5-3.5c0-1.9,1.6-3.5,3.5-3.5
							C111.5,99.3,113,100.9,113,102.8"/>
					</defs>
					<clipPath id="SVGID_50_">
						<use xlink:href="#SVGID_203_"  style="overflow:visible;"/>
					</clipPath>
					<g class="st74">
						<defs>
							<rect id="SVGID_204_" x="-480" y="-3424.1" width="722.5" height="5917.6"/>
						</defs>
						<clipPath id="SVGID_51_">
							<use xlink:href="#SVGID_204_"  style="overflow:visible;"/>
						</clipPath>
						<rect x="103.5" y="96.8" class="st75" width="12" height="12"/>
					</g>
				</g>
				<g>
					<defs>
						<path id="SVGID_201_" d="M84.5,101.1c0,0.4-0.3,0.8-0.8,0.8c-0.4,0-0.8-0.3-0.8-0.8s0.3-0.8,0.8-0.8
							C84.1,100.3,84.5,100.7,84.5,101.1"/>
					</defs>
					<clipPath id="SVGID_52_">
						<use xlink:href="#SVGID_201_"  style="overflow:visible;"/>
					</clipPath>
					<g class="st76">
						<defs>
							<rect id="SVGID_202_" x="-480" y="-3424.1" width="722.5" height="5917.6"/>
						</defs>
						<clipPath id="SVGID_53_">
							<use xlink:href="#SVGID_202_"  style="overflow:visible;"/>
						</clipPath>
						<rect x="80.4" y="97.8" class="st77" width="6.5" height="6.5"/>
					</g>
				</g>
				<g>
					<defs>
						<path id="SVGID_199_" d="M111,101.1c0,0.4-0.3,0.8-0.8,0.8c-0.4,0-0.8-0.3-0.8-0.8s0.3-0.8,0.8-0.8
							C110.7,100.3,111,100.7,111,101.1"/>
					</defs>
					<clipPath id="SVGID_54_">
						<use xlink:href="#SVGID_199_"  style="overflow:visible;"/>
					</clipPath>
					<g class="st78">
						<defs>
							<rect id="SVGID_200_" x="-480" y="-3424.1" width="722.5" height="5917.6"/>
						</defs>
						<clipPath id="SVGID_55_">
							<use xlink:href="#SVGID_200_"  style="overflow:visible;"/>
						</clipPath>
						<rect x="107" y="97.8" class="st79" width="6.5" height="6.5"/>
					</g>
				</g>
				<g>
					<defs>
						<path id="SVGID_197_" d="M84.5,115.9c0,4.2-3.4,7.5-7.5,7.5s-7.5-3.4-7.5-7.5c0-4.2,3.4-7.5,7.5-7.5S84.5,111.7,84.5,115.9"/>
					</defs>
					<clipPath id="SVGID_56_">
						<use xlink:href="#SVGID_197_"  style="overflow:visible;"/>
					</clipPath>
					<g class="st80">
						<defs>
							<rect id="SVGID_198_" x="-480" y="-3424.1" width="722.5" height="5917.6"/>
						</defs>
						<clipPath id="SVGID_57_">
							<use xlink:href="#SVGID_198_"  style="overflow:visible;"/>
						</clipPath>
						<rect x="66.9" y="105.9" class="st81" width="20.1" height="20.1"/>
					</g>
				</g>
				<g>
					<defs>
						<path id="SVGID_195_" d="M122.6,115.9c0,4.2-3.4,7.5-7.5,7.5c-4.2,0-7.5-3.4-7.5-7.5c0-4.2,3.4-7.5,7.5-7.5
							C119.2,108.4,122.6,111.7,122.6,115.9"/>
					</defs>
					<clipPath id="SVGID_58_">
						<use xlink:href="#SVGID_195_"  style="overflow:visible;"/>
					</clipPath>
					<g class="st82">
						<defs>
							<rect id="SVGID_196_" x="-480" y="-3424.1" width="722.5" height="5917.6"/>
						</defs>
						<clipPath id="SVGID_59_">
							<use xlink:href="#SVGID_196_"  style="overflow:visible;"/>
						</clipPath>
						<rect x="105" y="105.9" class="st83" width="20.1" height="20.1"/>
					</g>
				</g>
				<g>
					<defs>
						<path id="SVGID_193_" d="M95.7,133.4c10.4,0,19.6-5.1,25.3-13c-4.7-7-12-11.9-20.6-13.2c-0.1,0-0.1,0-0.1,0
							c-0.4-0.1-0.7-0.1-1.1-0.1c-0.2,0-0.5-0.1-0.7-0.1c0,0,0,0,0,0c-0.6-0.1-1.2-0.1-1.8-0.1c0,0,0,0,0,0c-0.3,0-0.6,0-0.9,0
							s-0.6,0-0.9,0c0,0,0,0,0,0c-0.6,0-1.2,0.1-1.8,0.1c0,0,0,0,0,0c-0.2,0-0.5,0-0.7,0.1c-0.4,0-0.7,0.1-1.1,0.1c0,0-0.1,0-0.1,0
							c-8.5,1.4-15.9,6.3-20.6,13.2C76.2,128.3,85.4,133.4,95.7,133.4"/>
					</defs>
					<clipPath id="SVGID_60_">
						<use xlink:href="#SVGID_193_"  style="overflow:visible;"/>
					</clipPath>
					<g class="st84">
						<defs>
							<rect id="SVGID_194_" x="-480" y="-3424.1" width="722.5" height="5917.6"/>
						</defs>
						<clipPath id="SVGID_61_">
							<use xlink:href="#SVGID_194_"  style="overflow:visible;"/>
						</clipPath>
						<rect x="67.9" y="104.3" class="st85" width="55.7" height="31.6"/>
					</g>
				</g>
				<g>
					<defs>
						<path id="SVGID_191_" d="M95.7,133.4c10.4,0,19.6-5.1,25.3-13c-4.7-7-12-11.9-20.6-13.2c-0.1,0-0.1,0-0.1,0
							c-0.4-0.1-0.7-0.1-1.1-0.1c-0.2,0-0.5-0.1-0.7-0.1c0,0,0,0,0,0c-0.6-0.1-1.2-0.1-1.8-0.1c0,0,0,0,0,0c-0.3,0-0.6,0-0.9,0
							s-0.6,0-0.9,0c0,0,0,0,0,0c-0.6,0-1.2,0.1-1.8,0.1c0,0,0,0,0,0c-0.2,0-0.5,0-0.7,0.1c-0.4,0-0.7,0.1-1.1,0.1c0,0-0.1,0-0.1,0
							c-8.5,1.4-15.9,6.3-20.6,13.2C76.2,128.3,85.4,133.4,95.7,133.4"/>
					</defs>
					<clipPath id="SVGID_62_">
						<use xlink:href="#SVGID_191_"  style="overflow:visible;"/>
					</clipPath>
					<g class="st86">
						<defs>
							<rect id="SVGID_192_" x="-480" y="-3424.1" width="722.5" height="5917.6"/>
						</defs>
						<clipPath id="SVGID_63_">
							<use xlink:href="#SVGID_192_"  style="overflow:visible;"/>
						</clipPath>
						<rect x="67.9" y="104.3" class="st87" width="55.7" height="31.6"/>
					</g>
				</g>
				<g>
					<defs>
						<path id="SVGID_189_" d="M106.2,116.3c-6-1.2-10.4-0.9-10.4-0.9s-4.5-0.3-10.4,0.9c-3.8,0.8-7.4,0.5-9.4,0.3
							c1.7,9.6,9.9,16.8,19.8,16.8s18.1-7.3,19.8-16.8C113.5,116.9,110,117.1,106.2,116.3"/>
					</defs>
					<clipPath id="SVGID_64_">
						<use xlink:href="#SVGID_189_"  style="overflow:visible;"/>
					</clipPath>
					<g class="st88">
						<defs>
							<rect id="SVGID_190_" x="-480" y="-3424.1" width="722.5" height="5917.6"/>
						</defs>
						<clipPath id="SVGID_65_">
							<use xlink:href="#SVGID_190_"  style="overflow:visible;"/>
						</clipPath>
						<rect x="73.4" y="112.9" class="st89" width="44.7" height="23.1"/>
					</g>
				</g>
				<g>
					<defs>
						<path id="SVGID_187_" d="M104.5,126.4c0-4.7-3.8-8.5-8.5-8.5c-4.7,0-8.5,3.8-8.5,8.5c0,4.7,3.8,8.5,8.5,8.5
							C100.7,134.9,104.5,131.1,104.5,126.4"/>
					</defs>
					<clipPath id="SVGID_66_">
						<use xlink:href="#SVGID_187_"  style="overflow:visible;"/>
					</clipPath>
					<g class="st90">
						<defs>
							<rect id="SVGID_188_" x="-480" y="-3424.1" width="722.5" height="5917.6"/>
						</defs>
						<clipPath id="SVGID_67_">
							<use xlink:href="#SVGID_188_"  style="overflow:visible;"/>
						</clipPath>
						<rect x="85" y="115.4" class="st91" width="22.1" height="22.1"/>
					</g>
				</g>
				<g>
					<defs>
						<path id="SVGID_185_" d="M96,119.3c3,0,5.7,1.2,7.5,3.1c-1.3-2.6-4.3-4.5-7.6-4.5c-3.6,0-6.7,2.1-7.9,5
							C89.8,120.7,92.7,119.3,96,119.3"/>
					</defs>
					<clipPath id="SVGID_68_">
						<use xlink:href="#SVGID_185_"  style="overflow:visible;"/>
					</clipPath>
					<g class="st92">
						<defs>
							<rect id="SVGID_186_" x="-480" y="-3424.1" width="722.5" height="5917.6"/>
						</defs>
						<clipPath id="SVGID_69_">
							<use xlink:href="#SVGID_186_"  style="overflow:visible;"/>
						</clipPath>
						<rect x="85.5" y="115.4" class="st93" width="20.6" height="10"/>
					</g>
				</g>
				<g>
					<defs>
						<path id="SVGID_183_" d="M116.4,110.4c-0.3,0-0.6,0.3-0.6,0.6c0,0.3,0.3,0.6,0.6,0.6c1.1,0,2,1,2,2.2c0,1.2-0.9,2.2-2,2.2
							c0,0-0.1,0-0.1,0c0,0-4.8,1.2-10.2,0c-5.4-1.2-9.4-1-9.8-1c-0.4,0-4.4-0.2-9.8,1c-5.4,1.2-10.2,0-10.2,0c0,0-0.1,0-0.1,0
							c-1.1,0-2-1-2-2.2c0-1.2,0.9-2.2,2-2.2c0.3,0,0.6-0.3,0.6-0.6c0-0.3-0.3-0.6-0.6-0.6c-1.8,0-3.2,1.6-3.2,3.5
							c0,1.9,1.4,3.5,3.1,3.5c0.4,0.1,2.5,0.5,5.3,0.5c1.6,0,3.4-0.1,5.3-0.5c5.4-1.2,9.5-0.9,9.6-0.9c0,0,0,0,0,0c0,0,0,0,0,0
							c0,0,4.1-0.2,9.6,0.9c1.9,0.4,3.7,0.5,5.3,0.5c2.8,0,4.9-0.4,5.3-0.5c1.7,0,3.1-1.6,3.1-3.5
							C119.6,111.9,118.1,110.4,116.4,110.4"/>
					</defs>
					<clipPath id="SVGID_70_">
						<use xlink:href="#SVGID_183_"  style="overflow:visible;"/>
					</clipPath>
					<g class="st94">
						<defs>
							<rect id="SVGID_184_" x="-480" y="-3424.1" width="722.5" height="5917.6"/>
						</defs>
						<clipPath id="SVGID_71_">
							<use xlink:href="#SVGID_184_"  style="overflow:visible;"/>
						</clipPath>
						<rect x="70.4" y="107.9" class="st95" width="51.7" height="12.5"/>
					</g>
				</g>
				<g>
					<defs>
						<path id="SVGID_181_" d="M116.4,110.4c-0.3,0-0.6,0.3-0.6,0.6c0,0.3,0.3,0.6,0.6,0.6c1.1,0,2,1,2,2.2c0,1.2-0.9,2.2-2,2.2
							c0,0-0.1,0-0.1,0c0,0-4.8,1.2-10.2,0c-5.4-1.2-9.4-1-9.8-1c-0.4,0-4.4-0.2-9.8,1c-5.4,1.2-10.2,0-10.2,0c0,0-0.1,0-0.1,0
							c-1.1,0-2-1-2-2.2c0-1.2,0.9-2.2,2-2.2c0.3,0,0.6-0.3,0.6-0.6c0-0.3-0.3-0.6-0.6-0.6c-1.8,0-3.2,1.6-3.2,3.5
							c0,1.9,1.4,3.5,3.1,3.5c0.4,0.1,2.5,0.5,5.3,0.5c1.6,0,3.4-0.1,5.3-0.5c5.4-1.2,9.5-0.9,9.6-0.9c0,0,0,0,0,0c0,0,0,0,0,0
							c0,0,4.1-0.2,9.6,0.9c1.9,0.4,3.7,0.5,5.3,0.5c2.8,0,4.9-0.4,5.3-0.5c1.7,0,3.1-1.6,3.1-3.5
							C119.6,111.9,118.1,110.4,116.4,110.4"/>
					</defs>
					<clipPath id="SVGID_72_">
						<use xlink:href="#SVGID_181_"  style="overflow:visible;"/>
					</clipPath>
					<g class="st96">
						<defs>
							<rect id="SVGID_182_" x="-480" y="-3424.1" width="722.5" height="5917.6"/>
						</defs>
						<clipPath id="SVGID_73_">
							<use xlink:href="#SVGID_182_"  style="overflow:visible;"/>
						</clipPath>
						<rect x="70.4" y="107.9" class="st97" width="51.7" height="12.5"/>
					</g>
				</g>
				<g>
					<defs>
						<path id="SVGID_179_" d="M75.9,97.1c0,0,1.8,1.1,2.3,1.4c0.5,0.3,7.3,3.1,9.5,3.6c0.3,0.1,0.5,0.1,0.8,0.2
							c0.1,0,0.3,0.1,0.4,0.1c0.1,0,0.3,0,0.4,0.1c0.6,0.1,1.1,0.1,1.7,0.2c1.2,0.1,2.3,0,3.5-0.1c1.2-0.1,2.4-0.3,3.5-0.5
							c1.2-0.2,2.3-0.5,3.4-0.8c2.2-0.6,4.2-1.3,5.9-2c0.9-0.3,1.6-0.6,2.3-0.9c0.7-0.3,1.3-0.5,1.8-0.7c0.5-0.2,0.9-0.4,1.1-0.5
							c0.3-0.1,0.4-0.2,0.4-0.2s-0.1,0.1-0.4,0.3c-0.2,0.2-0.6,0.4-1.1,0.7c-0.5,0.3-1,0.6-1.7,1c-0.7,0.4-1.4,0.8-2.2,1.2
							c-0.8,0.4-1.7,0.9-2.7,1.3c-1,0.4-2,0.8-3.1,1.2c-1.1,0.4-2.3,0.7-3.4,1c-0.6,0.1-1.2,0.3-1.8,0.4c-0.6,0.1-1.2,0.2-1.8,0.3
							c-1.2,0.1-2.5,0.2-3.7,0.1c-0.6,0-1.2-0.1-1.8-0.2c-0.2,0-0.3-0.1-0.5-0.1c-0.1,0-0.3-0.1-0.4-0.1c-0.3-0.1-0.6-0.1-0.9-0.2
							c-1.1-0.3-2.2-0.6-3.2-0.9c-1-0.3-2-0.7-2.8-1.1c-0.9-0.4-1.6-0.8-2.3-1.2c-0.7-0.4-1.2-0.8-1.6-1.2c-0.4-0.4-0.7-0.7-0.9-1
							C76.4,98,75.9,97.1,75.9,97.1"/>
					</defs>
					<clipPath id="SVGID_74_">
						<use xlink:href="#SVGID_179_"  style="overflow:visible;"/>
					</clipPath>
					<g class="st98">
						<defs>
							<rect id="SVGID_180_" x="-480" y="-3424.1" width="722.5" height="5917.6"/>
						</defs>
						<clipPath id="SVGID_75_">
							<use xlink:href="#SVGID_180_"  style="overflow:visible;"/>
						</clipPath>
						<rect x="73.4" y="94.3" class="st99" width="42.1" height="12.5"/>
					</g>
				</g>
				<g>
					<defs>
						<path id="SVGID_177_" d="M80.1,91.4l-14.2,5.4c0,0,0.1,1.3,1,1.2c0.9-0.1,4.2-2.9,8.1-1.4c3.9,1.5,7.8,7,20.4,5.6
							c11.6-1.3,21.2-6.9,21.2-6.9S85.1,90.5,80.1,91.4"/>
					</defs>
					<clipPath id="SVGID_76_">
						<use xlink:href="#SVGID_177_"  style="overflow:visible;"/>
					</clipPath>
					<g class="st100">
						<defs>
							<rect id="SVGID_178_" x="-480" y="-3424.1" width="722.5" height="5917.6"/>
						</defs>
						<clipPath id="SVGID_77_">
							<use xlink:href="#SVGID_178_"  style="overflow:visible;"/>
						</clipPath>
						<rect x="63.4" y="88.8" class="st101" width="55.7" height="16.1"/>
					</g>
				</g>
				<g>
					<defs>
						<path id="SVGID_175_" d="M79.9,91.6l36.3,3.7c0,0,1.4-7.6-2.2-12.3c-4.9-6.5-18.2-12.1-29.9-2.9C80.5,83,79.9,91.6,79.9,91.6"
							/>
					</defs>
					<clipPath id="SVGID_78_">
						<use xlink:href="#SVGID_175_"  style="overflow:visible;"/>
					</clipPath>
					<g class="st102">
						<defs>
							<rect id="SVGID_176_" x="-480" y="-3424.1" width="722.5" height="5917.6"/>
						</defs>
						<clipPath id="SVGID_79_">
							<use xlink:href="#SVGID_176_"  style="overflow:visible;"/>
						</clipPath>
						<rect x="77.4" y="72.7" class="st103" width="41.6" height="25.1"/>
					</g>
				</g>
				<g>
					<defs>
						<path id="SVGID_173_" d="M102,75.8c0,0.8-0.7,1.5-1.6,1.4c-0.8,0-1.5-0.8-1.4-1.6c0-0.8,0.7-1.5,1.6-1.4
							C101.4,74.3,102,75,102,75.8"/>
					</defs>
					<clipPath id="SVGID_80_">
						<use xlink:href="#SVGID_173_"  style="overflow:visible;"/>
					</clipPath>
					<g class="st104">
						<defs>
							<rect id="SVGID_174_" x="-480" y="-3424.1" width="722.5" height="5917.6"/>
						</defs>
						<clipPath id="SVGID_81_">
							<use xlink:href="#SVGID_174_"  style="overflow:visible;"/>
						</clipPath>
						<rect x="96.5" y="71.7" class="st105" width="8" height="8"/>
					</g>
				</g>
				<g>
					<defs>
						<path id="SVGID_171_" d="M102.7,77.6c-0.1-0.1-0.2-0.2-0.2-0.2l0.1-0.1c0,0,0.1,0.1,0.2,0.2L102.7,77.6z"/>
					</defs>
					<clipPath id="SVGID_82_">
						<use xlink:href="#SVGID_171_"  style="overflow:visible;"/>
					</clipPath>
					<g class="st106">
						<defs>
							<rect id="SVGID_172_" x="-480" y="-3424.1" width="722.5" height="5917.6"/>
						</defs>
						<clipPath id="SVGID_83_">
							<use xlink:href="#SVGID_172_"  style="overflow:visible;"/>
						</clipPath>
						<rect x="100" y="74.7" class="st107" width="5.3" height="5.3"/>
					</g>
				</g>
				<g>
					<defs>
						<path id="SVGID_169_" d="M107.3,91.8l-0.2,0c0-0.2,0.1-0.5,0.1-0.7l0.2,0C107.4,91.3,107.3,91.6,107.3,91.8z M107.5,90.3
							l-0.2,0c0-0.2,0-0.5,0-0.7l0.2,0C107.5,89.9,107.5,90.1,107.5,90.3z M107.4,88.9c0-0.2,0-0.5,0-0.7l0.2,0c0,0.2,0,0.5,0,0.7
							L107.4,88.9z M107.2,87.4c0-0.2-0.1-0.5-0.1-0.7l0.2,0c0,0.2,0.1,0.5,0.1,0.7L107.2,87.4z M107,86c-0.1-0.2-0.1-0.5-0.2-0.7
							l0.2-0.1c0.1,0.2,0.1,0.5,0.2,0.7L107,86z M106.6,84.6c-0.1-0.2-0.2-0.5-0.2-0.7l0.2-0.1c0.1,0.2,0.2,0.5,0.3,0.7L106.6,84.6z
							 M106,83.3c-0.1-0.2-0.2-0.4-0.3-0.7l0.2-0.1c0.1,0.2,0.2,0.4,0.3,0.7L106,83.3z M105.4,82c-0.1-0.2-0.2-0.4-0.4-0.6l0.1-0.1
							c0.1,0.2,0.2,0.4,0.4,0.6L105.4,82z M104.7,80.7c-0.1-0.2-0.3-0.4-0.4-0.6l0.1-0.1c0.1,0.2,0.3,0.4,0.4,0.6L104.7,80.7z
							 M103.9,79.6c-0.1-0.2-0.3-0.4-0.4-0.6l0.1-0.1c0.1,0.2,0.3,0.4,0.4,0.6L103.9,79.6z M103,78.4c-0.2-0.2-0.3-0.4-0.5-0.5
							l0.1-0.1c0.2,0.2,0.3,0.4,0.5,0.5L103,78.4z"/>
					</defs>
					<clipPath id="SVGID_84_">
						<use xlink:href="#SVGID_169_"  style="overflow:visible;"/>
					</clipPath>
					<g class="st108">
						<defs>
							<rect id="SVGID_170_" x="-480" y="-3424.1" width="722.5" height="5917.6"/>
						</defs>
						<clipPath id="SVGID_85_">
							<use xlink:href="#SVGID_170_"  style="overflow:visible;"/>
						</clipPath>
						<rect x="100" y="75.2" class="st109" width="10" height="19.1"/>
					</g>
				</g>
				<g>
					<defs>
						<path id="SVGID_167_" d="M107.2,93.1l-0.1,0c0-0.1,0.1-0.2,0.1-0.3l0.1,0C107.2,92.9,107.2,93,107.2,93.1"/>
					</defs>
					<clipPath id="SVGID_86_">
						<use xlink:href="#SVGID_167_"  style="overflow:visible;"/>
					</clipPath>
					<g class="st110">
						<defs>
							<rect id="SVGID_168_" x="-480" y="-3424.1" width="722.5" height="5917.6"/>
						</defs>
						<clipPath id="SVGID_87_">
							<use xlink:href="#SVGID_168_"  style="overflow:visible;"/>
						</clipPath>
						<rect x="104.5" y="90.3" class="st111" width="5.2" height="5.3"/>
					</g>
				</g>
				<g>
					<defs>
						<path id="SVGID_165_" d="M85.1,90.8l-0.2,0c0,0,0-0.2,0-0.4l0.2,0C85.1,90.6,85.1,90.8,85.1,90.8 M85.3,89.7l-0.2,0
							c0-0.2,0.1-0.4,0.1-0.7l0.2,0C85.4,89.2,85.3,89.5,85.3,89.7 M85.6,88.3l-0.2,0c0.1-0.2,0.1-0.5,0.2-0.7l0.2,0
							C85.7,87.8,85.6,88.1,85.6,88.3 M85.9,86.9l-0.2-0.1c0.1-0.2,0.1-0.5,0.2-0.7l0.2,0.1C86.1,86.5,86,86.7,85.9,86.9 M86.4,85.6
							l-0.2-0.1c0.1-0.2,0.2-0.4,0.3-0.7l0.2,0.1C86.6,85.2,86.5,85.4,86.4,85.6 M87,84.3l-0.2-0.1c0.1-0.2,0.2-0.4,0.3-0.6l0.2,0.1
							C87.2,83.9,87.1,84.1,87,84.3 M87.7,83.1L87.6,83c0.1-0.2,0.3-0.4,0.4-0.6l0.1,0.1C88,82.7,87.8,82.9,87.7,83.1 M88.6,82
							l-0.1-0.1c0.1-0.1,0.3-0.3,0.4-0.4c0,0,0.1,0,0.1-0.1l0.1,0.1c0,0-0.1,0-0.1,0.1C88.9,81.7,88.7,81.9,88.6,82 M89.7,81.1
							L89.6,81c0.2-0.1,0.4-0.2,0.6-0.3l0.1,0.2C90.1,80.9,89.9,81,89.7,81.1 M90.9,80.5l-0.1-0.2c0.2-0.1,0.4-0.2,0.6-0.3l0.1,0.2
							C91.4,80.3,91.1,80.4,90.9,80.5 M92.2,79.9l-0.1-0.2c0.2-0.1,0.4-0.2,0.7-0.3l0.1,0.2C92.7,79.7,92.4,79.8,92.2,79.9
							 M93.5,79.3l-0.1-0.2c0.2-0.1,0.4-0.2,0.7-0.3l0.1,0.2C94,79.1,93.8,79.2,93.5,79.3 M94.9,78.7l-0.1-0.2
							c0.2-0.1,0.4-0.2,0.7-0.3l0.1,0.2C95.3,78.6,95.1,78.6,94.9,78.7 M96.2,78.2L96.1,78c0.2-0.1,0.5-0.2,0.7-0.3l0.1,0.2
							C96.6,78,96.4,78.1,96.2,78.2 M97.5,77.7l-0.1-0.2c0.2-0.1,0.5-0.2,0.7-0.3l0.1,0.2C98,77.5,97.7,77.6,97.5,77.7 M98.8,77.2
							L98.8,77c0.4-0.2,0.7-0.3,0.7-0.3l0.1,0.2C99.5,76.9,99.3,77,98.8,77.2"/>
					</defs>
					<clipPath id="SVGID_88_">
						<use xlink:href="#SVGID_165_"  style="overflow:visible;"/>
					</clipPath>
					<g class="st112">
						<defs>
							<rect id="SVGID_166_" x="-480" y="-3424.1" width="722.5" height="5917.6"/>
						</defs>
						<clipPath id="SVGID_89_">
							<use xlink:href="#SVGID_166_"  style="overflow:visible;"/>
						</clipPath>
						<rect x="82.4" y="74.2" class="st113" width="19.6" height="19.1"/>
					</g>
				</g>
				<g>
					<defs>
						<path id="SVGID_163_" d="M112,133v17l15.6-4.1c0,0-4.4-18.6-9.4-19.8C112.4,124.6,112,133,112,133"/>
					</defs>
					<clipPath id="SVGID_90_">
						<use xlink:href="#SVGID_163_"  style="overflow:visible;"/>
					</clipPath>
					<g class="st114">
						<defs>
							<rect id="SVGID_164_" x="-480" y="-3424.1" width="722.5" height="5917.6"/>
						</defs>
						<clipPath id="SVGID_91_">
							<use xlink:href="#SVGID_164_"  style="overflow:visible;"/>
						</clipPath>
						<rect x="109.5" y="123.4" class="st115" width="20.6" height="29.1"/>
					</g>
				</g>
				<g>
					<defs>
						<path id="SVGID_161_" d="M97.5,177.6c0,0,0.1,0,0.2-0.1c0.1-0.1,0.3-0.2,0.6-0.2c0.5-0.2,1.4-0.3,2.4-0.4
							c1.9-0.2,4.5-0.2,7.1-0.2c2.6,0,5.1,0.2,7.1,0.4c1,0.1,1.8,0.2,2.3,0.3c0.6,0.1,0.9,0.2,0.9,0.2s-0.3,0.1-0.9,0.1
							c-0.6,0.1-1.4,0.2-2.3,0.2c-1.9,0.2-4.5,0.2-7.1,0.2c-1.3,0-2.6-0.1-3.8-0.1c-0.6,0-1.2-0.1-1.7-0.1c-0.6,0-1.1-0.1-1.6-0.2
							c-0.5,0-0.9-0.1-1.3-0.1c-0.4,0-0.7,0-1,0c-0.3,0-0.5,0-0.6,0C97.6,177.6,97.5,177.6,97.5,177.6"/>
					</defs>
					<clipPath id="SVGID_92_">
						<use xlink:href="#SVGID_161_"  style="overflow:visible;"/>
					</clipPath>
					<g class="st116">
						<defs>
							<rect id="SVGID_162_" x="-480" y="-3424.1" width="722.5" height="5917.6"/>
						</defs>
						<clipPath id="SVGID_93_">
							<use xlink:href="#SVGID_162_"  style="overflow:visible;"/>
						</clipPath>
						<rect x="95" y="174.1" class="st117" width="25.6" height="6.5"/>
					</g>
				</g>
				<g>
					<defs>
						<path id="SVGID_159_" d="M96.2,185.6c0,0,0,0,0.1,0.1c0.1,0.1,0.2,0.1,0.4,0.2c0.1,0.1,0.3,0.3,0.5,0.4
							c0.2,0.2,0.4,0.4,0.6,0.6c0.2,0.2,0.4,0.5,0.5,0.8c0.2,0.3,0.3,0.6,0.4,1c0.1,0.2,0.1,0.4,0.1,0.6c0,0.2,0.1,0.4,0.1,0.6
							c0,0.4,0,0.8,0,1.2c-0.1,0.4-0.1,0.8-0.3,1.2c-0.1,0.2-0.1,0.3-0.2,0.5c-0.1,0.2-0.2,0.3-0.2,0.5c-0.3,0.6-0.7,1.2-1,1.6
							c-0.3,0.5-0.5,0.8-0.6,1.1c-0.1,0.1-0.1,0.3-0.1,0.4c0,0.1-0.1,0.1-0.1,0.1s0,0-0.1-0.1c0-0.1-0.1-0.2-0.2-0.4
							c-0.1-0.3-0.3-0.8-0.2-1.4c0-0.6,0.2-1.3,0.3-1.9c0-0.2,0.1-0.3,0.1-0.5c0-0.1,0.1-0.4,0.1-0.5c0.1-0.3,0.1-0.6,0.1-0.9
							c0-0.3,0.1-0.6,0.1-0.9c0-0.3,0-0.6,0-0.9c0-0.6-0.1-1.2-0.2-1.7c-0.1-0.5-0.2-1-0.2-1.3C96.3,185.8,96.2,185.6,96.2,185.6"/>
					</defs>
					<clipPath id="SVGID_94_">
						<use xlink:href="#SVGID_159_"  style="overflow:visible;"/>
					</clipPath>
					<g class="st118">
						<defs>
							<rect id="SVGID_160_" x="-480" y="-3424.1" width="722.5" height="5917.6"/>
						</defs>
						<clipPath id="SVGID_95_">
							<use xlink:href="#SVGID_160_"  style="overflow:visible;"/>
						</clipPath>
						<rect x="93.5" y="183.1" class="st119" width="8" height="16.1"/>
					</g>
				</g>
				<g>
					<defs>
						<path id="SVGID_157_" d="M98,197.5c0,0,0.1,0,0.2-0.1c0.1-0.1,0.3-0.2,0.5-0.3c0.5-0.2,1.2-0.5,2.1-0.7
							c0.4-0.1,0.9-0.2,1.5-0.2c0.3,0,0.5,0,0.8,0l0.2,0l0.2,0c0.1,0,0.3,0,0.4,0c0.6,0,1.1,0.1,1.7,0.2c0.6,0.1,1.1,0.2,1.6,0.3
							c0.2,0,0.6,0.1,0.8,0.1c0.3,0,0.5,0.1,0.8,0.1c0.5,0.1,1,0.1,1.5,0.2c1,0.1,2,0.1,2.8,0.1c0.4,0,0.8,0,1.2,0
							c0.4,0,0.7,0,0.9,0c0.5,0,0.8,0,0.8,0s-0.1,0-0.2,0.1c-0.1,0.1-0.3,0.2-0.5,0.3c-0.2,0.1-0.5,0.3-0.8,0.4
							c-0.3,0.1-0.7,0.3-1.1,0.4c-0.4,0.1-0.9,0.3-1.4,0.4c-0.5,0.1-1.1,0.2-1.6,0.2c-0.6,0-1.2,0.1-1.8,0c-0.3,0-0.6,0-0.9-0.1
							c-0.3,0-0.6-0.1-0.9-0.1c-0.6-0.1-1.2-0.2-1.7-0.4c-0.5-0.1-1-0.3-1.5-0.4c-0.1,0-0.2-0.1-0.4-0.1c-0.1,0-0.2-0.1-0.4-0.1
							c-0.2-0.1-0.5-0.1-0.7-0.1c-0.5-0.1-0.9-0.1-1.3-0.2c-0.4-0.1-0.8-0.1-1.1-0.1c-0.3,0-0.7,0-0.9-0.1
							C98.3,197.5,98,197.5,98,197.5"/>
					</defs>
					<clipPath id="SVGID_96_">
						<use xlink:href="#SVGID_157_"  style="overflow:visible;"/>
					</clipPath>
					<g class="st120">
						<defs>
							<rect id="SVGID_158_" x="-480" y="-3424.1" width="722.5" height="5917.6"/>
						</defs>
						<clipPath id="SVGID_97_">
							<use xlink:href="#SVGID_158_"  style="overflow:visible;"/>
						</clipPath>
						<rect x="95.5" y="193.6" class="st121" width="23.1" height="8"/>
					</g>
				</g>
				<g>
					<defs>
						<path id="SVGID_155_" d="M73.4,197c0,0,0.1,0,0.2-0.1c0.1-0.1,0.3-0.2,0.5-0.3c0.5-0.2,1.2-0.5,2.1-0.7
							c0.4-0.1,0.9-0.2,1.5-0.2c0.3,0,0.5,0,0.8,0l0.2,0l0.2,0c0.1,0,0.3,0,0.4,0c0.6,0,1.1,0.1,1.7,0.2c0.6,0.1,1.1,0.2,1.6,0.3
							c0.2,0,0.6,0.1,0.8,0.1c0.3,0,0.5,0.1,0.8,0.1c0.5,0.1,1,0.1,1.5,0.2c1,0.1,2,0.1,2.8,0.1c0.4,0,0.8,0,1.2,0
							c0.4,0,0.7,0,0.9,0c0.5,0,0.8,0,0.8,0s-0.1,0-0.2,0.1c-0.1,0.1-0.3,0.2-0.5,0.3c-0.2,0.1-0.5,0.3-0.8,0.4
							c-0.3,0.1-0.7,0.3-1.1,0.4c-0.4,0.1-0.9,0.3-1.4,0.4c-0.5,0.1-1.1,0.2-1.6,0.2c-0.6,0-1.2,0.1-1.8,0c-0.3,0-0.6,0-0.9-0.1
							c-0.3,0-0.6-0.1-0.9-0.1c-0.6-0.1-1.2-0.2-1.7-0.4c-0.5-0.1-1-0.3-1.5-0.4c-0.1,0-0.2-0.1-0.4-0.1c-0.1,0-0.2-0.1-0.4-0.1
							c-0.2-0.1-0.5-0.1-0.7-0.1c-0.5-0.1-0.9-0.1-1.3-0.2c-0.4,0-0.8-0.1-1.1-0.1c-0.3,0-0.7,0-0.9-0.1C73.7,197,73.4,197,73.4,197
							"/>
					</defs>
					<clipPath id="SVGID_98_">
						<use xlink:href="#SVGID_155_"  style="overflow:visible;"/>
					</clipPath>
					<g class="st122">
						<defs>
							<rect id="SVGID_156_" x="-480" y="-3424.1" width="722.5" height="5917.6"/>
						</defs>
						<clipPath id="SVGID_99_">
							<use xlink:href="#SVGID_156_"  style="overflow:visible;"/>
						</clipPath>
						<rect x="70.9" y="193.1" class="st123" width="23.1" height="8"/>
					</g>
				</g>
				<g>
					<defs>
						<polygon id="SVGID_153_" points="95.5,150.4 65.4,135.5 67.6,176.3 95.5,185.6 						"/>
					</defs>
					<clipPath id="SVGID_100_">
						<use xlink:href="#SVGID_153_"  style="overflow:visible;"/>
					</clipPath>
					<g class="st124">
						<defs>
							<rect id="SVGID_154_" x="-480" y="-3424.1" width="722.5" height="5917.6"/>
						</defs>
						<clipPath id="SVGID_101_">
							<use xlink:href="#SVGID_154_"  style="overflow:visible;"/>
						</clipPath>
						<rect x="62.9" y="132.9" class="st125" width="35.1" height="55.2"/>
					</g>
				</g>
				<g>
					<defs>
						<polygon id="SVGID_151_" points="98,150.4 128.1,135.5 125.9,176.3 98,185.6 						"/>
					</defs>
					<clipPath id="SVGID_102_">
						<use xlink:href="#SVGID_151_"  style="overflow:visible;"/>
					</clipPath>
					<g class="st126">
						<defs>
							<rect id="SVGID_152_" x="-480" y="-3424.1" width="722.5" height="5917.6"/>
						</defs>
						<clipPath id="SVGID_103_">
							<use xlink:href="#SVGID_152_"  style="overflow:visible;"/>
						</clipPath>
						<rect x="95.5" y="132.9" class="st127" width="35.1" height="55.2"/>
					</g>
				</g>
				<g>
					<defs>
						<polygon id="SVGID_149_" points="95.5,148.1 120.5,133.4 126.1,136.1 97.6,151.5 						"/>
					</defs>
					<clipPath id="SVGID_104_">
						<use xlink:href="#SVGID_149_"  style="overflow:visible;"/>
					</clipPath>
					<g class="st128">
						<defs>
							<rect id="SVGID_150_" x="-480" y="-3424.1" width="722.5" height="5917.6"/>
						</defs>
						<clipPath id="SVGID_105_">
							<use xlink:href="#SVGID_150_"  style="overflow:visible;"/>
						</clipPath>
						<rect x="93" y="130.9" class="st129" width="35.6" height="23.1"/>
					</g>
				</g>
				<g>
					<defs>
						<polygon id="SVGID_147_" points="98.5,148.1 72.7,133.4 66.9,136.1 96.4,151.5 						"/>
					</defs>
					<clipPath id="SVGID_106_">
						<use xlink:href="#SVGID_147_"  style="overflow:visible;"/>
					</clipPath>
					<g class="st130">
						<defs>
							<rect id="SVGID_148_" x="-480" y="-3424.1" width="722.5" height="5917.6"/>
						</defs>
						<clipPath id="SVGID_107_">
							<use xlink:href="#SVGID_148_"  style="overflow:visible;"/>
						</clipPath>
						<rect x="64.4" y="130.9" class="st131" width="36.6" height="23.1"/>
					</g>
				</g>
				<g>
					<defs>
						<path id="SVGID_145_" d="M96.8,186.1h-1.1c-0.9,0-1.7-0.8-1.7-1.8v-32c0-1,0.8-1.8,1.7-1.8h1.1c0.9,0,1.7,0.8,1.7,1.8v32
							C98.5,185.3,97.7,186.1,96.8,186.1"/>
					</defs>
					<clipPath id="SVGID_108_">
						<use xlink:href="#SVGID_145_"  style="overflow:visible;"/>
					</clipPath>
					<g class="st132">
						<defs>
							<rect id="SVGID_146_" x="-480" y="-3424.1" width="722.5" height="5917.6"/>
						</defs>
						<clipPath id="SVGID_109_">
							<use xlink:href="#SVGID_146_"  style="overflow:visible;"/>
						</clipPath>
						<rect x="91.5" y="148" class="st133" width="9.5" height="40.6"/>
					</g>
				</g>
				<g>
					<defs>
						<polyline id="SVGID_143_" points="118.1,133.3 116.9,131.9 97,147 						"/>
					</defs>
					<clipPath id="SVGID_110_">
						<use xlink:href="#SVGID_143_"  style="overflow:visible;"/>
					</clipPath>
					<g class="st134">
						<defs>
							<rect id="SVGID_144_" x="-480" y="-3424.1" width="722.5" height="5917.6"/>
						</defs>
						<clipPath id="SVGID_111_">
							<use xlink:href="#SVGID_144_"  style="overflow:visible;"/>
						</clipPath>
						<rect x="94.5" y="129.4" class="st135" width="26.1" height="20.1"/>
					</g>
				</g>
				<g>
					<defs>
						<path id="SVGID_141_" d="M120.5,154.7c-1.3,0.8-2.2,2.1-1.9,3.5c0.2,0.7,0.7,1.4,1.4,1.9c-0.6,0.7-0.9,1.5-0.7,2.3
							c0.3,1.2,1.6,2.1,2.9,2.5c1.4,0.3,2.8,0.2,4.2,0.1c0,0,0.7-0.1,1.3-0.6c0.3-1,0.4-2.1,0.3-3.2c0.3-0.1,0.7-0.3,1.1-0.6
							c0.4-1.3,0.5-2.6,0.4-3.9c-0.1-0.8-0.2-1.6-0.9-2.1c-0.2-0.1-0.3-0.2-0.5-0.3c0.1-0.7,0.2-1.3,0.1-2c-0.1-0.6-0.2-1.2-0.8-1.6
							c-0.5-0.4-1.2-0.5-1.9-0.6c-1.5-0.2-3.1-0.1-4.4,0.4c-1.3,0.5-2.2,1.7-1.9,2.8C119.5,153.8,119.9,154.3,120.5,154.7"/>
					</defs>
					<clipPath id="SVGID_112_">
						<use xlink:href="#SVGID_141_"  style="overflow:visible;"/>
					</clipPath>
					<g class="st136">
						<defs>
							<rect id="SVGID_142_" x="-480" y="-3424.1" width="722.5" height="5917.6"/>
						</defs>
						<clipPath id="SVGID_113_">
							<use xlink:href="#SVGID_142_"  style="overflow:visible;"/>
						</clipPath>
						<rect x="116.1" y="147.5" class="st137" width="16.1" height="20.1"/>
					</g>
				</g>
				<g>
					<defs>
						<path id="SVGID_139_" d="M128,153.9c-1.4,0.1-2.9,0.2-4.3-0.1c-1.4-0.3-2.7-0.9-3.1-1.9c-0.3-1,0.5-2,1.8-2.5
							c1.3-0.5,2.9-0.6,4.4-0.5c0.7,0,1.4,0.1,1.9,0.5c0.6,0.4,0.7,0.9,0.8,1.4c0.1,0.9,0,1.7-0.2,2.6
							C128.7,153.9,128,153.9,128,153.9"/>
					</defs>
					<clipPath id="SVGID_114_">
						<use xlink:href="#SVGID_139_"  style="overflow:visible;"/>
					</clipPath>
					<g class="st138">
						<defs>
							<rect id="SVGID_140_" x="-480" y="-3424.1" width="722.5" height="5917.6"/>
						</defs>
						<clipPath id="SVGID_115_">
							<use xlink:href="#SVGID_140_"  style="overflow:visible;"/>
						</clipPath>
						<rect x="118.1" y="146.5" class="st139" width="14" height="10"/>
					</g>
				</g>
				<g>
					<defs>
						<path id="SVGID_137_" d="M129.1,160.4c-1.7,0.2-3.5,0.3-5.2-0.1c-1.7-0.4-3.3-1.5-3.7-3c-0.4-1.6,0.7-3.2,2.3-4
							c1.6-0.8,3.5-0.9,5.3-0.8c0.8,0.1,1.7,0.2,2.3,0.7c0.7,0.6,0.9,1.4,1,2.2c0.1,1.4,0,2.8-0.3,4.1
							C130,160.3,129.1,160.4,129.1,160.4"/>
					</defs>
					<clipPath id="SVGID_116_">
						<use xlink:href="#SVGID_137_"  style="overflow:visible;"/>
					</clipPath>
					<g class="st140">
						<defs>
							<rect id="SVGID_138_" x="-480" y="-3424.1" width="722.5" height="5917.6"/>
						</defs>
						<clipPath id="SVGID_117_">
							<use xlink:href="#SVGID_138_"  style="overflow:visible;"/>
						</clipPath>
						<rect x="117.6" y="150" class="st141" width="16.1" height="13"/>
					</g>
				</g>
				<g>
					<defs>
						<path id="SVGID_135_" d="M128.5,164.4c-1.4,0.1-2.9,0.3-4.3-0.1c-1.4-0.3-2.7-1.3-3-2.6c-0.3-1.4,0.6-2.8,1.9-3.5
							c1.3-0.7,2.9-0.8,4.4-0.7c0.7,0.1,1.4,0.2,1.9,0.6c0.6,0.5,0.7,1.2,0.8,1.9c0.1,1.2,0,2.4-0.3,3.6
							C129.2,164.3,128.5,164.4,128.5,164.4"/>
					</defs>
					<clipPath id="SVGID_118_">
						<use xlink:href="#SVGID_135_"  style="overflow:visible;"/>
					</clipPath>
					<g class="st142">
						<defs>
							<rect id="SVGID_136_" x="-480" y="-3424.1" width="722.5" height="5917.6"/>
						</defs>
						<clipPath id="SVGID_119_">
							<use xlink:href="#SVGID_136_"  style="overflow:visible;"/>
						</clipPath>
						<rect x="118.6" y="155" class="st143" width="14" height="12"/>
					</g>
				</g>
				<g>
					<defs>
						<path id="SVGID_133_" d="M73.1,160.7c1.3-0.8,2.1-2.2,1.8-3.5c-0.2-0.7-0.7-1.3-1.4-1.8c0.6-0.7,0.9-1.5,0.6-2.3
							c-0.3-1.2-1.6-2.1-3-2.4c-1.4-0.3-2.8-0.2-4.2,0c0,0-0.7,0.1-1.3,0.6c-0.3,1.1-0.3,2.1-0.2,3.2c-0.3,0.1-0.7,0.3-1,0.6
							c-0.3,1.3-0.4,2.6-0.3,3.9c0.1,0.8,0.3,1.6,1,2.1c0.2,0.1,0.3,0.2,0.5,0.3c-0.1,0.7-0.1,1.3,0,2c0.1,0.6,0.2,1.2,0.8,1.6
							c0.5,0.4,1.2,0.5,1.9,0.5c1.5,0.1,3.1,0,4.4-0.5c1.3-0.6,2.2-1.7,1.8-2.8C74.2,161.6,73.7,161.1,73.1,160.7"/>
					</defs>
					<clipPath id="SVGID_120_">
						<use xlink:href="#SVGID_133_"  style="overflow:visible;opacity:0.1;"/>
					</clipPath>
					<g class="st144">
						<defs>
							<rect id="SVGID_134_" x="-480" y="-3424.1" width="722.5" height="5917.6"/>
						</defs>
						<clipPath id="SVGID_121_">
							<use xlink:href="#SVGID_134_"  style="overflow:visible;"/>
						</clipPath>
						<rect x="61.4" y="148" class="st145" width="16.1" height="20.1"/>
					</g>
				</g>
				<g>
					<defs>
						<path id="SVGID_131_" d="M65.5,160.1c1.4-0.1,2.9-0.2,4.3,0c1.4,0.2,2.7,0.9,3.1,1.8c0.4,1-0.5,2-1.8,2.5
							c-1.3,0.5-2.9,0.6-4.4,0.5c-0.7,0-1.4-0.1-1.9-0.4c-0.6-0.3-0.7-0.9-0.8-1.4c-0.1-0.9-0.1-1.7,0.2-2.6
							C64.8,160.2,65.5,160.1,65.5,160.1"/>
					</defs>
					<clipPath id="SVGID_122_">
						<use xlink:href="#SVGID_131_"  style="overflow:visible;"/>
					</clipPath>
					<g class="st146">
						<defs>
							<rect id="SVGID_132_" x="-480" y="-3424.1" width="722.5" height="5917.6"/>
						</defs>
						<clipPath id="SVGID_123_">
							<use xlink:href="#SVGID_132_"  style="overflow:visible;"/>
						</clipPath>
						<rect x="61.4" y="157.5" class="st147" width="14" height="10"/>
					</g>
				</g>
				<g>
					<defs>
						<path id="SVGID_129_" d="M64.8,154.2c1.7-0.2,3.5-0.3,5.2,0c1.7,0.4,3.4,1.4,3.8,2.8c0.4,1.5-0.7,3-2.2,3.8
							c-1.6,0.8-3.5,0.9-5.3,0.8c-0.8-0.1-1.7-0.2-2.3-0.7c-0.7-0.5-0.9-1.3-1-2.1c-0.1-1.3-0.1-2.6,0.3-3.8
							C64,154.3,64.8,154.2,64.8,154.2"/>
					</defs>
					<clipPath id="SVGID_124_">
						<use xlink:href="#SVGID_129_"  style="overflow:visible;"/>
					</clipPath>
					<g class="st148">
						<defs>
							<rect id="SVGID_130_" x="-480" y="-3424.1" width="722.5" height="5917.6"/>
						</defs>
						<clipPath id="SVGID_125_">
							<use xlink:href="#SVGID_130_"  style="overflow:visible;"/>
						</clipPath>
						<rect x="60.4" y="151.5" class="st149" width="16.1" height="12.5"/>
					</g>
				</g>
				<g>
					<defs>
						<path id="SVGID_127_" d="M65.5,150.7c1.4-0.2,2.9-0.3,4.3,0c1.4,0.3,2.7,1.3,3.1,2.6c0.3,1.4-0.5,2.8-1.8,3.5
							c-1.3,0.7-2.9,0.8-4.4,0.7c-0.7-0.1-1.4-0.2-1.9-0.6c-0.6-0.5-0.7-1.2-0.8-1.9c-0.1-1.2,0-2.4,0.2-3.6
							C64.8,150.8,65.5,150.7,65.5,150.7"/>
					</defs>
					<clipPath id="SVGID_126_">
						<use xlink:href="#SVGID_127_"  style="overflow:visible;"/>
					</clipPath>
					<g class="st150">
						<defs>
							<rect id="SVGID_128_" x="-480" y="-3424.1" width="722.5" height="5917.6"/>
						</defs>
						<clipPath id="SVGID_254_">
							<use xlink:href="#SVGID_128_"  style="overflow:visible;"/>
						</clipPath>
						<rect x="61.4" y="148" class="st151" width="14" height="12"/>
					</g>
				</g>
			</g>
		</g>
	</g>
</g>
</svg>
