<?xml version="1.0" encoding="UTF-8" standalone="no"?>
<svg
   xmlns:dc="http://purl.org/dc/elements/1.1/"
   xmlns:cc="http://creativecommons.org/ns#"
   xmlns:rdf="http://www.w3.org/1999/02/22-rdf-syntax-ns#"
   xmlns:svg="http://www.w3.org/2000/svg"
   xmlns="http://www.w3.org/2000/svg"
   xml:space="preserve"
   style="enable-background:new 101 317 848 160;"
   viewBox="101 317 848 160"
   y="0px"
   x="0px"
   id="Layer_1"
   version="1.1"><metadata
   id="metadata118"><rdf:RDF><cc:Work
       rdf:about=""><dc:format>image/svg+xml</dc:format><dc:type
         rdf:resource="http://purl.org/dc/dcmitype/StillImage" /><dc:title></dc:title></cc:Work></rdf:RDF></metadata><defs
   id="defs116" />
<style
   id="style2"
   type="text/css">
	.st0{fill:#2986A2;}
	.st1{fill:#FCB653;}
	.st2{fill:#FFFFFF;}
	.st3{opacity:0.5;fill:#FFFFFF;enable-background:new    ;}
	.st4{fill:#2886A2;}
	.st5{fill:#195766;}
	.st6{fill:#4C724A;}
	.st7{fill:#73B481;}
	.st8{fill:#8CCC9B;}
	.st9{fill:#FBED6B;}
	.st10{fill:#777463;}
	.st11{opacity:0.2;enable-background:new    ;}
	.st12{fill:#3F3D32;}
</style>
<g
   id="Layer_2">
</g>

<text
   transform="scale(1.061927,0.94168431)"
   id="text4630"
   y="438.21173"
   x="303.93515"
   style="font-style:normal;font-weight:normal;font-size:43.45075607px;line-height:1.25;font-family:sans-serif;letter-spacing:0px;word-spacing:0px;fill:#000000;fill-opacity:1;stroke:none;stroke-width:1.0862689"
   xml:space="preserve"><tspan
     style="font-style:normal;font-variant:normal;font-weight:normal;font-stretch:normal;font-size:52.14090347px;font-family:'Albertus Medium';-inkscape-font-specification:'Albertus Medium, ';stroke-width:1.0862689"
     y="438.21173"
     x="303.93515"
     id="tspan4628"><tspan
       dx="8.181818 -1.8181819 -1.8181819 -1.8181819 0 0 0 -1.8181819 -0.90909094"
       id="tspan4632"
       style="fill:#008080;fill-opacity:0.94117647">FROG POND</tspan></tspan></text>
<path
   style="fill:#f6a22e;fill-opacity:1;stroke-width:1.20247996"
   id="path27"
   d="m 925.30379,430.79715 -1.08223,-11.66405 c -3.7277,-0.36074 -6.4934,-3.12645 -6.85414,-6.85413 -0.36075,-3.72769 2.40495,-6.85414 5.7719,-7.93637 l -1.08223,-10.94257 c -3.72769,-0.36074 -6.49339,-3.12644 -6.85414,-6.85413 -0.36074,-3.72769 2.40496,-6.85414 5.77191,-7.93638 l -1.08223,-10.94256 c -3.7277,-0.36075 -6.4934,-3.12645 -6.85414,-6.85413 -0.36075,-3.72769 2.40495,-6.85414 5.7719,-7.93637 l -0.72149,-10.94257 c -0.72148,0 -1.32272,0.36075 -2.04421,0.36075 -8.89835,0.72148 -16.83472,-5.77191 -17.43596,-15.03101 l -248.5526,19.60043 c -2.7657,0.36074 -4.80991,2.7657 -4.44918,5.5314 l 8.89836,110.74841 c 0.36074,2.7657 2.76571,4.80991 5.53141,4.44918 l 250.8373,-19.96117 c -0.96198,-8.29712 5.53142,-16.11324 14.42977,-16.83473 z"
   class="st1" />


<g
   id="g107">
	
	<ellipse
   style="fill:#238b91;fill-opacity:1"
   id="ellipse49"
   ry="20.5"
   rx="99.8"
   cy="438.7"
   cx="210.2"
   class="st5" />
	<path
   id="path51"
   d="M251,424.7c-10.8-10-24.8-16-40.2-16s-29.4,6-40.2,16c12.3-1.1,25.9-1.7,40.2-1.7S238.5,423.5,251,424.7z"
   class="st6" />
	<path
   id="path53"
   d="M251,419.8c-12.3-1.1-25.9-1.7-40.2-1.7s-27.9,0.6-40.2,1.7c-10,9.1-17.1,21.4-20.2,35.4   c17.1,2.6,37.9,4,60.4,4s43.6-1.4,60.4-4C268.1,441.2,260.7,428.7,251,419.8z"
   class="st7" />
	<path
   id="path55"
   d="M237.9,458.3c12-0.6,23.4-1.7,33.1-3.1c-1.4-6-3.4-12-6.3-17.4"
   class="st8" />
	<path
   id="path57"
   d="M238.2,458.3c0.6,0,1.1,0,1.7,0s1.1,0,1.4,0c0.6,0,1.1,0,1.7,0s0.9,0,1.4,0c0.6,0,1.1,0,1.7-0.3   c0.6,0,0.9,0,1.4,0c0.6,0,1.1,0,1.7-0.3c0.6,0,0.9,0,1.4,0s1.1,0,1.7-0.3c0.6,0,0.9,0,1.4,0c0.6,0,1.1,0,1.7-0.3c0.3,0,0.9,0,1.1,0   c0.6,0,1.4-0.3,2-0.3c0.3,0,0.6,0,0.9,0c0.9,0,2-0.3,2.9-0.3c-0.3-1.1-0.6-2-0.9-3.1c0-0.3,0-0.6-0.3-0.9c-0.3-0.9-0.6-2-0.9-2.9   v-0.3c-0.3-0.9-0.6-1.7-1.1-2.6c0-0.3-0.3-0.6-0.3-0.6c-0.3-0.9-0.9-1.7-1.1-2.9l0,0l0,0c-3.1-6.6-7.7-12.5-12.8-17.1   c-10.5-0.9-22.5-1.4-34.8-1.4s-23.9,0.6-34.8,1.4c-8.6,7.7-14.8,18.2-17.4,30.5c14.5,2,32.5,3.4,52.2,3.4   C219.9,459.2,229.3,458.9,238.2,458.3L238.2,458.3C237.9,458.3,237.9,458.3,238.2,458.3z"
   class="st9" />
	
	
	
	<circle
   id="circle65"
   r="47.6"
   cy="402.4"
   cx="210.5"
   class="st8" />
	<circle
   style="fill:#73b481;fill-opacity:1"
   id="circle67"
   r="34.5"
   cy="392.5"
   cx="210.5"
   class="st7" />
	<ellipse
   id="ellipse69"
   ry="32.8"
   rx="28.5"
   cy="383.6"
   cx="177.2"
   class="st8" />
	<ellipse
   id="ellipse71"
   ry="29.4"
   rx="24.8"
   cy="383.6"
   cx="177.2"
   class="st7" />
	<ellipse
   id="ellipse73"
   ry="25.1"
   rx="21.4"
   cy="383.6"
   cx="177.2"
   class="st2" />
	<ellipse
   id="ellipse75"
   ry="8.3"
   rx="8.3"
   cy="379.9"
   cx="176.3"
   class="st5" />
	<ellipse
   id="ellipse77"
   ry="32.8"
   rx="28.5"
   cy="383.6"
   cx="243.9"
   class="st8" />
	<ellipse
   id="ellipse79"
   ry="29.4"
   rx="24.8"
   cy="383.6"
   cx="243.9"
   class="st7" />
	<ellipse
   id="ellipse81"
   ry="25.1"
   rx="21.4"
   cy="383.6"
   cx="243.9"
   class="st2" />
	<ellipse
   id="ellipse83"
   ry="8.3"
   rx="8.3"
   cy="379.9"
   cx="244.7"
   class="st5" />
	<ellipse
   id="ellipse85"
   ry="2.6"
   rx="2.6"
   cy="376.5"
   cx="179.2"
   class="st2" />
	<ellipse
   id="ellipse87"
   ry="2.6"
   rx="2.6"
   cy="376.5"
   cx="247.6"
   class="st2" />
	<circle
   id="circle89"
   r="19.7"
   cy="413.6"
   cx="160.6"
   class="st8" />
	<circle
   id="circle91"
   r="19.7"
   cy="413.6"
   cx="260.4"
   class="st8" />
	<path
   id="path93"
   d="M210.5,458c26.8,0,50.7-12.8,65.9-33.1c-12.3-17.7-31.4-30.2-53.3-33.6h-0.3c-0.9-0.3-2-0.3-2.9-0.3   c-0.6,0-1.1,0-2-0.3l0,0c-1.4,0-3.1-0.3-4.6-0.3l0,0c-0.9,0-1.7,0-2.3,0c-0.9,0-1.7,0-2.3,0l0,0c-1.7,0-3.1,0-4.6,0.3l0,0   c-0.6,0-1.1,0-2,0.3c-0.9,0-2,0.3-2.9,0.3h-0.3c-22.2,3.4-41.3,16-53.3,33.6C159.8,444.9,183.7,458,210.5,458z"
   class="st8" />
	<path
   id="path95"
   d="M210.5,458c26.8,0,50.7-12.8,65.9-33.1c-12.3-17.7-31.4-30.2-53.3-33.6h-0.3c-0.9-0.3-2-0.3-2.9-0.3   c-0.6,0-1.1,0-2-0.3l0,0c-1.4,0-3.1-0.3-4.6-0.3l0,0c-0.9,0-1.7,0-2.3,0c-0.9,0-1.7,0-2.3,0l0,0c-1.7,0-3.1,0-4.6,0.3l0,0   c-0.6,0-1.1,0-2,0.3c-0.9,0-2,0.3-2.9,0.3h-0.3c-22.2,3.4-41.3,16-53.3,33.6C159.8,444.9,183.7,458,210.5,458z"
   class="st8" />
	<path
   id="path97"
   d="M237.9,415.8c-15.7-3.1-27.4-2.6-27.4-2.6s-11.7-0.6-27.4,2.6c-10,2-19.4,1.4-24.5,0.9   c4.3,24.5,25.9,43.3,51.9,43.3s47.6-18.8,51.9-43.6C257.3,417.3,247.9,417.8,237.9,415.8z"
   class="st9" />
	<circle
   id="circle99"
   r="22.2"
   cy="442.6"
   cx="210.5"
   class="st9" />
	<path
   id="path101"
   d="M210.8,424.7c8,0,14.8,3.4,19.7,8.8c-3.4-7.7-11.1-12.8-20.2-12.8c-9.4,0-17.7,6-20.8,14.5   C194.6,428.7,202.3,424.7,210.8,424.7z"
   class="st8" />
	<path
   style="fill:#73b481;fill-opacity:1"
   id="path103"
   d="M262.7,399.9c-0.9,0-1.4,0.6-1.4,1.4s0.6,1.4,1.4,1.4c2.9,0,5.4,2.3,5.4,5.4s-2.3,5.4-5.4,5.4h-0.3   c0,0-12.5,2.9-26.2,0c-14-2.9-24.2-2.3-25.4-2.3c-1.1,0-11.4-0.6-25.4,2.3s-26.2,0.1-26.2,0.1h-0.3c-2.9,0-5.4-2.3-5.4-5.4   s2.3-5.4,5.4-5.4c0.9,0,1.4-0.6,1.4-1.4s-0.6-1.4-1.4-1.4c-4.6,0-8.3,3.7-8.3,8.3s3.7,8.3,8,8.3c1.1,0.3,6.3,1.1,13.7,1.1   c4,0,8.8-0.3,13.7-1.4c14-2.9,24.5-2.3,24.8-2.3l0,0l0,0c0,0,10.8-0.6,24.8,2.3c4.8,0.9,9.7,1.4,13.7,1.4c7.4,0,12.8-1.1,13.7-1.1   c4.6,0,8-3.7,8-8.3C270.7,403.6,267.3,399.9,262.7,399.9z"
   class="st4" />
	
</g>
<g
   style="fill:#008080;fill-opacity:0.94117647"
   transform="translate(17.80379,49.79715)"
   id="g111">
	<path
   style="fill:#008080;fill-opacity:0.94117647"
   id="path109"
   d="m 909.5,407.7 c -6.3,0 -11.2,-5.1 -11.2,-11.2 0,-6.3 5.1,-11.2 11.2,-11.2 6.3,0 11.2,5 11.2,11.2 0,6.2 -5,11.2 -11.2,11.2 z m 0,-20.7 c -5.3,0 -9.5,4.3 -9.5,9.5 0,5.3 4.3,9.5 9.5,9.5 5.2,0 9.5,-4.3 9.5,-9.5 -0.2,-5.4 -4.3,-9.5 -9.5,-9.5 z m 3,15.9 -3.4,-5.1 H 907 v 5.1 h -1.8 V 390 h 5.3 c 2.1,0 4.3,1.6 4.3,4 0,2.8 -2.6,3.8 -3.3,3.8 l 3.4,5.1 z m -2.2,-11.2 h -3.4 v 4.5 h 3.4 c 1.1,0 2.3,-0.9 2.3,-2.3 0,-1.4 -1.1,-2.2 -2.3,-2.2 z"
   class="st0" />
</g>
<text
   transform="scale(1.061927,0.94168431)"
   id="text4630-1"
   y="438.17377"
   x="615.63147"
   style="font-style:normal;font-weight:normal;font-size:43.45075607px;line-height:1.25;font-family:sans-serif;letter-spacing:0px;word-spacing:0px;fill:#ffffff;fill-opacity:1;stroke:none;stroke-width:1.0862689"
   xml:space="preserve"><tspan
     dx="5.4545455 0 0 -7.2727275 -2.7272727"
     style="font-style:normal;font-variant:normal;font-weight:normal;font-stretch:normal;font-size:52.14090347px;font-family:'Albertus Medium';-inkscape-font-specification:'Albertus Medium, ';fill:#008080;stroke-width:1.0862689"
     y="438.17377"
     x="615.63147"
     id="tspan4628-3">TRAVELS</tspan></text>
</svg>