<svg xmlns="http://www.w3.org/2000/svg" viewBox="0 0 612 122" enable-background="new 0 0 612 122"><switch><g><path fill-rule="evenodd" fill="#cde6ee" d="m599.2 80.5c0-2.8 2.6-5.1 5.4-5.1 2.6 0 5.1 2.3 5.1 5.1 0 2.8-2.6 5.1-5.1 5.1-2.8 0-5.4-2.3-5.4-5.1m5.4 4.3c2.3 0 4-2 4-4.3 0-2.6-1.7-4.3-4-4.3-2.6 0-4.3 1.7-4.3 4.3.1 2.3 1.8 4.3 4.3 4.3m-1.1-1.5h-.9v-5.7h2.3c1.1 0 2 .3 2 1.4 0 1.1-.6 1.7-1.7 1.7l1.7 2.6h-.9l-1.7-2.6h-.9v2.6h.1m1.1-3.1c.6 0 1.4-.3 1.4-1.1 0-.6-.9-.9-1.4-.9h-1.1v2h1.1"/><path fill-rule="evenodd" fill="#cde6ee" d="m490.7 31.1h-15.3v1.4c2.6.3 5.4.6 5.4 3.7 0 1.7-.6 4.3-1.4 6l-9.7 27.6-10.2-27.8c-1.1-3.1-2.3-4.8-2.3-6.2 0-2.8 3.7-3.1 6-3.1v-1.4h-20.7v1.4c4.3 0 5.4.6 8 7.4l2.6 6.8-8.2 22.7-11.6-30.6c-.3-1.1-.9-2.6-.9-3.7 0-2.3 1.7-2.6 5.1-2.8v-1.4h-19v1.4c4.3.6 5.4 2.8 8 9.7 2.8 8 11.1 31.2 15.1 43.7h1.1l11.9-34.7c3.4 9.1 9.9 26.1 12.5 34.7h1.1c4.8-15.9 11.1-33.2 16.2-48.3 1.1-3.4 2.6-4.5 6.2-5.1v-1.4h.1"/><path fill-rule="evenodd" fill="#cde6ee" d="m498.4 47.6c-10.5 0-16.8 8.8-16.8 18.7 0 11.1 7.1 19.6 17 19.6 11.9 0 17.3-11.4 17.3-19.6.1-11.6-7.3-18.7-17.5-18.7m1.4 36c-9.4 0-11.1-15.1-11.1-21.3 0-8.2 4.3-12.5 9.1-12.5 7.1 0 11.1 8.8 11.1 19 0 11.7-5.1 14.8-9.1 14.8"/><path fill-rule="evenodd" fill="#cde6ee" d="m523.1 78.2c0 4.5-1.4 4.8-5.7 5.4v1.4h18.7v-1.4c-4 0-6.5-.3-6.5-6v-18.4c0-2.6 3.4-6.5 5.1-6.5 2 0 2.8 2.8 5.4 2.8 2 0 3.1-1.7 3.1-3.7 0-2.6-1.7-4.3-4.3-4.3-3.1 0-5.7 1.4-9.4 7.4v-7.4h-.6c-3.7 1.4-7.7 3.1-11.4 4.3v1.4c.6-.3 1.4-.3 2.6-.3 1.1 0 2.8 0 2.8 4.8v20.5h.2"/><path fill-rule="evenodd" fill="#cde6ee" d="m542.1 85.1h18.2v-1.4c-4.5 0-5.7-.9-5.7-5.4v-48.9h-.3c-4.3 1.4-8.2 2.6-12.5 3.4v1.4c.9 0 1.7-.3 2.6-.3 3.1 0 3.7 1.4 3.7 5.1v38.9c0 4.5-1.4 5.4-6 5.7v1.5"/><path fill-rule="evenodd" fill="#cde6ee" d="m596.7 80.2c-5.1.6-5.1-1.1-5.1-4.5v-46.3h-.6c-3.7 1.4-7.4 2.6-11.4 3.4v1.4c.6 0 1.4 0 2 0 3.4 0 3.4 1.7 3.4 4v12.8c-2.6-2.3-5.1-3.4-8.2-3.4-8.8 0-16.2 9.4-16.2 19.9 0 16.8 11.1 18.5 14.2 18.5 5.7 0 8.5-3.1 9.9-5.4h.3v5.1l.3.3c4-1.7 7.7-2.8 11.4-4.3v-1.5m-11.7-3.7c-.9 3.1-3.7 5.1-7.1 5.1-5.1 0-10.8-4.5-10.8-16.8 0-11.1 5.4-15.1 9.7-15.1 3.7 0 7.7 2.6 8.2 8v18.8"/><path fill-rule="evenodd" fill="#cde6ee" d="m76.6 20.3c6.5 13.3 7.4 31.8 2 45.7 1.4.3 2.8.6 4.3.3 3.7-7.7 7.7-15.3 13.6-22.2 0-.9.3-2 1.4-2.3 1.1-.3 2.6-.6 3.1.6 5.7 13.1 7.1 28.1 7.1 42.9 0 .9-.3 1.4-1.1 1.4-2.6-.6-4.8-3.4-6-5.7 0 0-.6-5.1-.6-6.2-1.1.6-10.8 0-10.8 0-2 4-3.1 8.2-4.3 12.5-.6 1.1-2.6 1.1-4 .9-3.1-1.1-3.1-4.8-3.4-7.7.6-3.1 2-5.7 2.8-8.5 0-.9-2-3.7-2.6-4.3-2.8 5.1-6 10.2-10.5 14.8-7.5 6.5-16.6 12.2-27.1 9.4-4.8-1.1-9.7-5.4-11.9-9.9-1.4.6-3.1 1.1-4.8 1.4-6.5 1.4-13.6 0-17.9-5.7-8-11.4-3.7-28.1.6-39.8 4.8-10.8 13.1-22.2 24.4-27.3 1.1-.3 3.1-.3 2.8.9-1.7 4.3-6 6.5-8.5 10.2-10.2 13.6-15.6 29.8-13.9 47.4.6 3.7 2.6 8 6.2 9.1 2.8 1.1 6.5.6 8.8-1.4-2.6-11.6-5.1-27.8 4.5-37.2 3.7-3.7 8.2-6.5 13.4-6.8 1.7 0 4 .6 5.4 2 5.1 7.1 4.8 18.2.9 25.6-3.1 6-8.2 11.4-13.6 16.2.3 2.3 2.8 4.8 4.8 5.7 6.8 2.6 12.8-1.1 17.6-5.7 9.1-9.9 12.5-22.2 13.1-35.2-.1-14.9-4.3-28.8-15.4-38.4-.6-.3-.3-1.7.6-1.4 8.5 2.2 15.3 11.3 19 18.7m155.6 4.5c-21.8-13.9-50.2-23.5-77.8-15.6-3.7 1.1-5.4 4.8-5.7 8 1.7 2.3 4.3 2 7.1 2 .9-.6 2-.6 2-1.4-.9-2-3.4-1.4-5.1-2.6.9-.9 2.3-.6 3.1-.9 26.7-4 53.1 4.3 74.1 19.3 11.1 8 21.6 19.9 17.9 34.4-4.8 13.6-23.6 15.9-38.1 15.6-3.1 0-6-.3-8.8-1.4 0-8.8-.3-19.6-.3-25 6-.3 17.6 1.4 25.3 4.8 1.4 1.1-2.8 4-4.5 5.4-.9 1.1 2.6 2.3 4.8 2 3.4-.6 6.2-3.4 7.4-6.2 1.1-3.1-.3-5.4-2.3-7.4-8.2-7.1-19.6-7.1-30.7-7.4 0-4-.3-9.7-.9-13.1-.9-3.7-2.6-5.1-5.1-5.7-2 2.3-2.3 5.1-2.6 8.2-.6 4-.9 8-1.4 11.4 0 0-6 1.4-9.7 2.3-3.4.9-17.3 5.1-16.2 12.2 1.4 6.5 11.6 13.9 18.5 18.5 2.3 1.4 4.5 2.8 7.1 4 .3 3.4.9 6.5 2.8 9.1.9.6 3.1.3 5.1 0 2.3-.9 2.3-3.4 2.6-5.4 2.6.6 5.4 1.1 9.4 1.7 16.8 2 37.5-2.6 46.6-19.6 7.7-15.9-5.7-31.5-15.6-40.3-1.3-1.2-6.4-5.2-9-6.9m42.1-11c-8.3 1.4-17.3 6.2-19.9 15-.9 3.1 0 6.2 2.6 8.5-.3 2.3-.6 5.1 1.7 6.5 2.6 1.4 3.1-1.7 4.5-2.8 7.4 3.1 14.8-.6 20.5-4.8 4.5-4 9.9-8.5 7.7-14.8-1.1-2.3-3.7-4-6.2-4-2.7-3.1-6.7-4.2-10.9-3.6m-4.8 7.6c-3.7 2.8-7.1 6.5-9.7 10.2-1.4-2.3.9-4.8 2.6-6.8 1.7-1.7 4.5-3.4 7.1-3.4m17 2.6c.9 2.3-2.3 6-5.1 7.7-4.3 2.6-9.4 4.5-15.1 3.7.9-2 2.3-3.7 4.5-6 4-3.7 9.1-8.5 14.2-6.8.9 0 1.2.2 1.5 1.4m-244 13.9c-.6-.9-1.1-.9-1.7-.3-4.5 5.4-4.8 12.8-6 19.6-.3 3.7-.6 8.5.3 11.9 5.7-6.5 8.5-14.2 9.1-23.3 0-2.8-.3-5.6-1.7-7.9m293.7 4c-1.4-.3-1.1 1.7-.9 2.8 1.7 7.4 4.5 14.8 5.1 22.4.3 1.7.9 4-.3 5.1-6-7.1-9.4-15.6-16.2-21.9-1.1-.9-2.6 0-3.1 1.4-3.4 6.5-4.5 13.9-5.1 21.6-.3 4-1.1 9.7 3.1 11.6 1.4.6 3.1.3 3.4-.9 2-6.2 1.7-13.6 2-20.5 0-.6.6-2 .9-1.4 2.8 5.7 6 10.8 9.1 15.9 1.7 2.6 3.1 5.1 6 5.1 3.1-.6 5.4-2.8 6.8-5.4 3.4-9.7 1.1-21-3.7-29-1.7-2.6-3.7-6-7.1-6.8m-216.2 1.4c-4.3 2.6-5.7 6.8-6.8 11.1-2.3 8-5.1 17.3-2 26.1.9 2.6 3.7 4.3 6.2 4.5 6.2-.3 13.1-4.5 14.8-10.8.3-1.4.6-4-.6-4-4 .3-7.7 2.6-11.4 3.7-.9.3-2.6 1.1-2.8-.3 0-7.1 2-13.4 3.7-19.9.9-3.1 2-6.2.9-9.4-.2-.4-.8-1.6-2-1m8.9.6c-1.7.9-2.8 2.8-2.8 5.1.6 6 6.8 8.5 11.6 10.5-.9 2.6-2 5.1-2.6 7.7-1.4 8.5-3.1 20.5 2.6 27.6 1.4 1.7 3.4 2.8 5.7 2.3.6-.3 1.1-.6 1.1-1.4-.9-11.1-.9-23.9 2-34.1 0 0 3.1.3 6.5-.3 3.4-.6 5.7-2.8 6.8-5.4 0-4-.6-8.5-4.5-10.2-5.7-2-10.5 2.6-13.9 6.5-4.3-.9-8.5-2-11.9-5.4-.4-.9-.1-2.1-.6-2.9m265 5.1c-7.1 8.2-14.5 19.3-8.8 30.4-3.7 9.9-6.8 20.2-7.7 31.5.3 2.8 2.6 5.1 4.8 6.8.9.3 2.8 1.4 3.1.3 2-10.8 4.5-21 8.2-31.2 3.7.6 6 .3 10.8-1.7 8-4 15.6-12.5 16.2-21.9 0-5.1-1.7-9.7-6.2-12.5-1.4-.9-2.8-.6-4 0-8.5 4.8-18.7 16.2-21 21-.3-9.4 7.7-15.6 8.5-24.4 0-2-3.1.3-3.9 1.7m-84.4-.6c-11.4-2-24.4-1.4-32.7 6.5-1.4 1.4-1.4 4.5-1.1 6.5.3 1.1 2 2.6 3.1 3.1 9.1 2 20.7-.6 28.4 5.7 1.1 1.1.3 2.6-.9 3.1-7.4 2.8-14.8 5.1-23.3 3.1-1.1-.3-2.8-1.4-2.3-2.6 3.4-5.1 9.1 0 13.4.6 2 .6 6.8 0 9.1-2.6.6-1.4-2-2.3-3.7-2.8-6-1.4-14.2-3.4-19.9.3-1.4 1.1-2.8 4.5-1.7 7.1 4.5 7.4 13.4 9.9 21.6 8.5 5.7-.9 12.5-2.8 13.6-9.1.9-4 .6-8.5-2.8-11.4-8-5.1-19-2.3-27.8-6-.3-.3 0-.6.6-.9 9.1-2.8 19.9-1.7 29.5-4 1.1-.3 2.6-2.6 2-3.7-1.4-.8-3.1-1.1-5.1-1.4m68.2-.6c-5.4-.9-16.8 1.4-24.7 2.6-1.1.3-.9 1.1-.6 2 .6 3.1 4 2.6 6.5 4-1.1 2-1.7 4.3-2.8 6.5-1.4.3-3.4 0-3.4 2-.3 1.1.6 1.7.6 3.4-1.1 3.1-3.4 6.5-2.6 10.8.9 3.7 2.8 7.7 5.4 8.2 8.5 1.7 15.3-3.1 21.6-8 1.1-1.1-.9-4.5-1.7-4.5-5.7-.6-11.1 1.7-16.8 1.7.6-2.8 1.4-5.1 2.8-7.4 4.5-.6 11.4.3 14.2-2 .9-.9.6-3.7-.3-4.3-3.4-1.1-8.2-.9-11.6-.6.6-1.7 1.1-3.7 1.7-5.7 3.1.3 6 0 8.8 0 2.8-.3 6.2.3 8.2-2 .6-1.4-1.7-4.5-2.8-5.4-1.4-1-2-1.3-2.5-1.3m-110.5.3c-1.4 0-2 2.3-2.3 3.4-1.1 8-1.7 17-1.4 25.8 0 3.4-.6 7.7 3.4 8.5 1.7.3 4.8 0 5.1-1.1.6-10.2-.3-21.6-1.1-32.4 0-.8-1.4-3.6-3.7-4.2m-111.9 1.4c.6 1.1-.9 2-1.4 2.3-1.4.9-3.1.9-4.5.6 0-.6.6-1.7 1.4-2.6 1.1-.8 3.3-1.7 4.5-.3m-57.4 6.6c-1.7 2.8-3.1 6-4.3 9.1-.3.3-.6.9 0 .9 2.6.3 4.3 0 6.2-.9-.5-3.2-.5-6.3-1.9-9.1m317 7.6c-.9 6.2-8.8 11.6-12.8 12.8-1.1.3-1.7.3-3.1.6 2-5.4 8.2-14.2 14.5-19.6 1.1-1.1 1.7 4 1.4 6.2m-224.1-5.9c-.6 7.4-.6 15.9-.6 21-8.2-2.3-16.8-7.1-22.4-14.5-1.4-2.3 3.7-3.4 6-4 5.3-1.7 11-2.2 17-2.5"/></g></switch></svg>