<svg xmlns="http://www.w3.org/2000/svg" width="180.2" height="16.9" viewBox="0 0 180.2 16.9"><defs><style>.cls-1{isolation:isolate;}.cls-2{opacity:0.1;mix-blend-mode:multiply;}.cls-3{fill:#d3398d;}.cls-4{fill:#fff;}</style></defs><title>vip-exclusive</title><g class="cls-1"><g id="Layer_2" data-name="Layer 2"><g id="body"><g class="cls-2"><path d="M5,16.17a2.29,2.29,0,0,1-2.5-2.5V5.21A2.29,2.29,0,0,1,5,2.71h6.08a2.07,2.07,0,0,1,0,4.14H7.28V7.3h3.66a2.07,2.07,0,1,1,0,4.14H7.28V12h3.8a2.07,2.07,0,0,1,0,4.14Z"/><path d="M11.08,3.21a1.57,1.57,0,0,1,0,3.14H6.78V7.8h4.16a1.57,1.57,0,1,1,0,3.14H6.78v1.59h4.3a1.57,1.57,0,0,1,0,3.14H5a1.8,1.8,0,0,1-2-2V5.21a1.8,1.8,0,0,1,2-2h6.08m0-1H5a2.78,2.78,0,0,0-3,3v8.46a2.78,2.78,0,0,0,3,3h6.08a2.57,2.57,0,0,0,.93-5,2.57,2.57,0,0,0,.15-4.6,2.57,2.57,0,0,0-1.08-4.9Z"/><path d="M23.67,16.36a2.34,2.34,0,0,1-1.74-.77l-2.41-2.88-2.4,2.87a2.32,2.32,0,0,1-1.75.78A2.34,2.34,0,0,1,13,14a2.24,2.24,0,0,1,.58-1.53L16.46,9.3,13.85,6.42a2.23,2.23,0,0,1-.58-1.57,2.34,2.34,0,0,1,2.35-2.33,2.3,2.3,0,0,1,1.83.9L19.52,6,21.6,3.41a2.34,2.34,0,0,1,4.18,1.44,2.14,2.14,0,0,1-.41,1.36L22.59,9.3l2.84,3.18A2.23,2.23,0,0,1,26,14,2.35,2.35,0,0,1,23.67,16.36Z"/><path d="M23.43,3a1.85,1.85,0,0,1,1.85,1.83,1.78,1.78,0,0,1-.28,1L21.92,9.3l3.14,3.51a1.79,1.79,0,0,1,.45,1.2,1.85,1.85,0,0,1-1.84,1.85,1.81,1.81,0,0,1-1.36-.6l-2.79-3.32-2.78,3.32a1.81,1.81,0,0,1-1.37.6A1.85,1.85,0,0,1,13.54,14a1.79,1.79,0,0,1,.45-1.2L17.13,9.3,14.22,6.08a1.75,1.75,0,0,1-.45-1.23A1.85,1.85,0,0,1,15.62,3a1.81,1.81,0,0,1,1.44.71l2.46,3,2.47-3A1.81,1.81,0,0,1,23.43,3m0-1a2.78,2.78,0,0,0-2.22,1.09L19.52,5.17,17.83,3.1A2.79,2.79,0,0,0,15.62,2a2.84,2.84,0,0,0-2.85,2.83,2.75,2.75,0,0,0,.7,1.91L15.79,9.3l-2.54,2.85A2.71,2.71,0,0,0,12.54,14a2.84,2.84,0,0,0,5,1.9l2-2.42,2,2.41a2.84,2.84,0,0,0,5-1.89,2.76,2.76,0,0,0-.71-1.87L23.26,9.3l2.48-2.75a2.67,2.67,0,0,0,.54-1.7A2.84,2.84,0,0,0,23.43,2Z"/><path d="M32.46,16.4c-4.21,0-7.27-2.92-7.27-6.95S28.25,2.5,32.46,2.5a6.44,6.44,0,0,1,5,2A2.38,2.38,0,0,1,38,6.07a2.29,2.29,0,0,1-2.29,2.27A2.24,2.24,0,0,1,34,7.57a2.05,2.05,0,0,0-1.58-.74A2.45,2.45,0,0,0,30,9.45a2.45,2.45,0,0,0,2.44,2.62A2.05,2.05,0,0,0,34,11.33a2.24,2.24,0,0,1,1.71-.77,2.26,2.26,0,0,1,1.68,3.78A6.49,6.49,0,0,1,32.46,16.4Z"/><path d="M32.46,3a5.93,5.93,0,0,1,4.6,1.85,1.87,1.87,0,0,1,.48,1.22,1.78,1.78,0,0,1-1.79,1.77,1.74,1.74,0,0,1-1.33-.6,2.57,2.57,0,0,0-2-.91,3,3,0,0,0-2.94,3.12,3,3,0,0,0,2.94,3.12,2.55,2.55,0,0,0,2-.92,1.76,1.76,0,0,1,1.33-.59A1.76,1.76,0,0,1,37.06,14a6,6,0,0,1-4.6,1.89c-3.81,0-6.77-2.62-6.77-6.45S28.65,3,32.46,3m0-1C28,2,24.69,5.13,24.69,9.45S28,16.9,32.46,16.9a7,7,0,0,0,5.33-2.21,2.8,2.8,0,0,0,.73-1.86,2.77,2.77,0,0,0-2.77-2.77,2.7,2.7,0,0,0-2.09.95,1.57,1.57,0,0,1-1.2.56,2,2,0,0,1-1.94-2.12,2,2,0,0,1,1.94-2.12,1.59,1.59,0,0,1,1.21.57,2.72,2.72,0,0,0,2.08.94,2.78,2.78,0,0,0,2.79-2.77,2.86,2.86,0,0,0-.73-1.88A6.91,6.91,0,0,0,32.46,2Z"/><path d="M41.21,16.17a2.29,2.29,0,0,1-2.5-2.5V4.91a2.39,2.39,0,1,1,4.77,0v7h2.77a2.15,2.15,0,1,1,0,4.29Z"/><path d="M41.1,3A1.89,1.89,0,0,1,43,4.91v7.47h3.27a1.65,1.65,0,1,1,0,3.29h-5a1.8,1.8,0,0,1-2-2V4.91A1.89,1.89,0,0,1,41.1,3m0-1a2.89,2.89,0,0,0-2.89,2.89v8.76a2.78,2.78,0,0,0,3,3h5a2.65,2.65,0,1,0,0-5.29H44V4.91A2.88,2.88,0,0,0,41.1,2Z"/><path d="M54.85,16.4c-4.13,0-6.5-2.13-6.5-5.85V4.93a2.42,2.42,0,0,1,4.83,0v5.49a1.66,1.66,0,0,0,3.32,0V4.93a2.42,2.42,0,0,1,4.83,0v5.6C61.33,14.26,59,16.4,54.85,16.4Z"/><path d="M58.91,3a1.91,1.91,0,0,1,1.92,1.91v5.6c0,3.11-1.77,5.37-6,5.37s-6-2.26-6-5.35V4.93a1.92,1.92,0,0,1,3.84,0v5.49a2.16,2.16,0,0,0,4.31,0V4.93A1.92,1.92,0,0,1,58.91,3m0-1A2.91,2.91,0,0,0,56,4.93v5.49c0,1-.55,1.15-1.15,1.15-.83,0-1.16-.33-1.16-1.15V4.93a2.92,2.92,0,0,0-5.84,0v5.62c0,4,2.62,6.35,7,6.35s7-2.38,7-6.37V4.93A2.91,2.91,0,0,0,58.91,2Z"/><path d="M67.69,16.4A9.48,9.48,0,0,1,63,15.33a2.21,2.21,0,1,1,2.17-3.84,5.23,5.23,0,0,0,2.67.73,1.27,1.27,0,0,0,.89-.23s0-.22-1.35-.46l-.16,0c-2-.37-5.45-1-5.45-4.44,0-2.26,1.82-4.54,5.87-4.54a10.29,10.29,0,0,1,4.09.81,2.18,2.18,0,0,1-.9,4.17,2.36,2.36,0,0,1-.94-.19,7.13,7.13,0,0,0-2.46-.61c-.69,0-.83.14-.83.14a4.35,4.35,0,0,0,1.42.4c1.93.33,5.52.95,5.52,4.32C73.58,14.54,71.32,16.4,67.69,16.4Z"/><path d="M67.68,3a9.77,9.77,0,0,1,3.88.77A1.68,1.68,0,0,1,70.87,7a2.09,2.09,0,0,1-.75-.15,7.67,7.67,0,0,0-2.65-.65c-1.12,0-1.33.33-1.33.65,0,.49.51.65,1.84.88,2,.35,5.1.95,5.1,3.83s-2,4.34-5.39,4.34a9,9,0,0,1-4.41-1,1.69,1.69,0,0,1-.89-1.5,1.7,1.7,0,0,1,1.7-1.7,1.65,1.65,0,0,1,.86.23,5.74,5.74,0,0,0,2.93.8c.71,0,1.39-.24,1.39-.73s-.53-.73-1.76-1c-2.06-.38-5.2-.86-5.2-4,0-2.12,1.76-4,5.37-4m0-1c-4.4,0-6.37,2.53-6.37,5a4.1,4.1,0,0,0,2.07,3.73,2.69,2.69,0,0,0-.58,5,9.9,9.9,0,0,0,4.89,1.14c3.94,0,6.39-2,6.39-5.34A4,4,0,0,0,71.8,7.84a2.69,2.69,0,0,0,.18-5A11,11,0,0,0,67.68,2Z"/><path d="M76.2,16.36A2.39,2.39,0,0,1,73.81,14V4.91a2.39,2.39,0,0,1,4.78,0V14A2.39,2.39,0,0,1,76.2,16.36Z"/><path d="M76.2,3a1.89,1.89,0,0,1,1.89,1.89V14a1.89,1.89,0,0,1-3.78,0V4.91A1.89,1.89,0,0,1,76.2,3m0-1a2.89,2.89,0,0,0-2.89,2.89V14a2.89,2.89,0,0,0,5.78,0V4.91A2.89,2.89,0,0,0,76.2,2Z"/><path d="M85.36,16.36a3.81,3.81,0,0,1-3.57-2.48l-3-8A2.87,2.87,0,0,1,78.67,5a2.49,2.49,0,0,1,4.85-.76L85.36,10,87.2,4.25A2.48,2.48,0,0,1,92.05,5a2.8,2.8,0,0,1-.16.85l-3,8A3.81,3.81,0,0,1,85.36,16.36Z"/><path d="M89.56,3a2,2,0,0,1,2,2,2.28,2.28,0,0,1-.13.69l-3,8a3.31,3.31,0,0,1-6.2,0l-3-8A2.28,2.28,0,0,1,79.17,5,2,2,0,0,1,83,4.4l2.32,7.2,2.32-7.2A2,2,0,0,1,89.56,3m0-1a3,3,0,0,0-2.83,2.07L85.36,8.34,84,4.1a3,3,0,0,0-5.82.9,3.33,3.33,0,0,0,.18,1l3,8.05a4.31,4.31,0,0,0,8.08,0l2.95-8a3.1,3.1,0,0,0,.2-1,3,3,0,0,0-3-3Z"/><path d="M94.63,16.17a2.3,2.3,0,0,1-2.5-2.5V5.21a2.3,2.3,0,0,1,2.5-2.5h6.08a2.07,2.07,0,1,1,0,4.14h-3.8V7.3h3.67a2.07,2.07,0,0,1,0,4.14H96.91V12h3.8a2.07,2.07,0,1,1,0,4.14Z"/><path d="M100.71,3.21a1.57,1.57,0,1,1,0,3.14h-4.3V7.8h4.17a1.57,1.57,0,1,1,0,3.14H96.41v1.59h4.3a1.57,1.57,0,1,1,0,3.14H94.63a1.8,1.8,0,0,1-2-2V5.21a1.8,1.8,0,0,1,2-2h6.08m0-1H94.63a2.78,2.78,0,0,0-3,3v8.46a2.78,2.78,0,0,0,3,3h6.08a2.57,2.57,0,0,0,.94-5,2.57,2.57,0,0,0,.14-4.6,2.57,2.57,0,0,0-1.08-4.9Z"/><path d="M118.31,16.36A2.39,2.39,0,0,1,116,14.65l-.09-.31H112l-.1.32a2.39,2.39,0,0,1-4.68-.69,2.25,2.25,0,0,1,.15-.82l3-8.15a3.81,3.81,0,0,1,7.14,0l3,8.15a2.52,2.52,0,0,1,.14.82A2.39,2.39,0,0,1,118.31,16.36Zm-3.69-6.16-.64-2-.65,2Z"/><path d="M114,3a3.29,3.29,0,0,1,3.1,2.15l3,8.15a2,2,0,0,1,.11.65,1.89,1.89,0,0,1-3.7.54l-.2-.67h-4.64l-.21.67a1.89,1.89,0,0,1-3.7-.54,1.78,1.78,0,0,1,.12-.65l3-8.15A3.3,3.3,0,0,1,114,3m-1.33,7.68h2.65L114,6.53l-1.33,4.17M114,2a4.31,4.31,0,0,0-4,2.8l-3,8.15a2.85,2.85,0,0,0-.18,1,2.89,2.89,0,0,0,5.65.87h3.15A2.89,2.89,0,0,0,121.2,14a3,3,0,0,0-.17-1l-3-8.16A4.32,4.32,0,0,0,114,2Z"/><path d="M127.16,16.4c-4.22,0-7.27-2.92-7.27-6.95s3-6.95,7.27-6.95a6.43,6.43,0,0,1,5,2,2.39,2.39,0,0,1,.62,1.56,2.29,2.29,0,0,1-2.29,2.27,2.22,2.22,0,0,1-1.71-.77,2.08,2.08,0,0,0-1.58-.74,2.45,2.45,0,0,0-2.44,2.62,2.45,2.45,0,0,0,2.44,2.62,2.08,2.08,0,0,0,1.58-.74,2.22,2.22,0,0,1,1.71-.77,2.26,2.26,0,0,1,1.68,3.78A6.49,6.49,0,0,1,127.16,16.4Z"/><path d="M127.16,3a5.92,5.92,0,0,1,4.59,1.85,1.88,1.88,0,0,1,.49,1.22,1.78,1.78,0,0,1-1.79,1.77,1.72,1.72,0,0,1-1.33-.6,2.59,2.59,0,0,0-2-.91,3,3,0,0,0-2.94,3.12,3,3,0,0,0,2.94,3.12,2.56,2.56,0,0,0,2-.92,1.75,1.75,0,0,1,1.33-.59,1.78,1.78,0,0,1,1.77,1.77,1.8,1.8,0,0,1-.47,1.18,6,6,0,0,1-4.59,1.89c-3.82,0-6.77-2.62-6.77-6.45s3-6.45,6.77-6.45m0-1c-4.5,0-7.77,3.13-7.77,7.45s3.27,7.45,7.77,7.45a7,7,0,0,0,5.33-2.21,2.8,2.8,0,0,0,.73-1.86,2.77,2.77,0,0,0-2.77-2.77,2.7,2.7,0,0,0-2.09.95,1.59,1.59,0,0,1-1.2.56,2,2,0,0,1-1.94-2.12,2,2,0,0,1,1.94-2.12,1.58,1.58,0,0,1,1.2.57,2.79,2.79,0,0,0,4.88-1.83,2.83,2.83,0,0,0-.74-1.88A6.89,6.89,0,0,0,127.16,2Z"/><path d="M140,16.4c-4.21,0-7.27-2.92-7.27-6.95S135.79,2.5,140,2.5a6.46,6.46,0,0,1,5,2,2.43,2.43,0,0,1,.61,1.56,2.29,2.29,0,0,1-2.29,2.27,2.24,2.24,0,0,1-1.71-.77A2.07,2.07,0,0,0,140,6.83a2.45,2.45,0,0,0-2.44,2.62A2.45,2.45,0,0,0,140,12.07a2.07,2.07,0,0,0,1.58-.74,2.24,2.24,0,0,1,1.71-.77A2.26,2.26,0,0,1,145,14.34,6.49,6.49,0,0,1,140,16.4Z"/><path d="M140,3a6,6,0,0,1,4.6,1.85,1.87,1.87,0,0,1,.48,1.22,1.78,1.78,0,0,1-1.79,1.77,1.72,1.72,0,0,1-1.33-.6,2.59,2.59,0,0,0-2-.91,3,3,0,0,0-2.94,3.12A3,3,0,0,0,140,12.57a2.56,2.56,0,0,0,2-.92,1.75,1.75,0,0,1,1.33-.59A1.76,1.76,0,0,1,144.6,14,6,6,0,0,1,140,15.9c-3.82,0-6.77-2.62-6.77-6.45S136.18,3,140,3m0-1c-4.5,0-7.77,3.13-7.77,7.45S135.5,16.9,140,16.9a7,7,0,0,0,5.33-2.21,2.8,2.8,0,0,0,.73-1.86,2.77,2.77,0,0,0-2.77-2.77,2.7,2.7,0,0,0-2.09.95,1.57,1.57,0,0,1-1.2.56,2,2,0,0,1-1.94-2.12A2,2,0,0,1,140,7.33a1.55,1.55,0,0,1,1.2.57,2.79,2.79,0,0,0,4.88-1.83,2.86,2.86,0,0,0-.73-1.88A6.91,6.91,0,0,0,140,2Z"/><path d="M148.75,16.17a2.29,2.29,0,0,1-2.5-2.5V5.21a2.29,2.29,0,0,1,2.5-2.5h6.07a2.07,2.07,0,0,1,0,4.14H151V7.3h3.67a2.07,2.07,0,0,1,0,4.14H151V12h3.8a2.07,2.07,0,0,1,0,4.14Z"/><path d="M154.82,3.21a1.57,1.57,0,0,1,0,3.14h-4.3V7.8h4.17a1.57,1.57,0,0,1,0,3.14h-4.17v1.59h4.3a1.57,1.57,0,0,1,0,3.14h-6.07a1.8,1.8,0,0,1-2-2V5.21a1.8,1.8,0,0,1,2-2h6.07m0-1h-6.07a2.78,2.78,0,0,0-3,3v8.46a2.78,2.78,0,0,0,3,3h6.07a2.57,2.57,0,0,0,.94-5,2.58,2.58,0,0,0,1.5-2.34,2.56,2.56,0,0,0-1.36-2.26,2.57,2.57,0,0,0-1.08-4.9Z"/><path d="M162.73,16.4a9.45,9.45,0,0,1-4.65-1.07,2.2,2.2,0,1,1,2.16-3.84,5.26,5.26,0,0,0,2.67.73c.55,0,.86-.16.89-.23s0-.22-1.35-.46l-.16,0c-2-.37-5.45-1-5.45-4.44,0-2.26,1.82-4.54,5.87-4.54a10.22,10.22,0,0,1,4.09.81,2.18,2.18,0,0,1-.89,4.17,2.32,2.32,0,0,1-.94-.19,7.22,7.22,0,0,0-2.47-.61c-.68,0-.83.14-.83.14a4.35,4.35,0,0,0,1.42.4c1.93.33,5.52.95,5.52,4.32C168.61,14.54,166.36,16.4,162.73,16.4Z"/><path d="M162.71,3a9.79,9.79,0,0,1,3.89.77A1.68,1.68,0,0,1,165.91,7a2,2,0,0,1-.75-.15,7.77,7.77,0,0,0-2.66-.65c-1.12,0-1.32.33-1.32.65,0,.49.5.65,1.83.88,2.05.35,5.1.95,5.1,3.83s-2,4.34-5.38,4.34a8.91,8.91,0,0,1-4.41-1,1.68,1.68,0,0,1-.9-1.5,1.71,1.71,0,0,1,1.7-1.7,1.62,1.62,0,0,1,.86.23,5.74,5.74,0,0,0,2.93.8c.71,0,1.39-.24,1.39-.73s-.53-.73-1.76-1c-2.06-.38-5.2-.86-5.2-4,0-2.12,1.76-4,5.37-4m0-1c-4.4,0-6.37,2.53-6.37,5a4.1,4.1,0,0,0,2.07,3.73,2.71,2.71,0,0,0-2,2.6,2.67,2.67,0,0,0,1.41,2.37,9.91,9.91,0,0,0,4.9,1.14c3.93,0,6.38-2,6.38-5.34a4,4,0,0,0-2.28-3.72,2.69,2.69,0,0,0,.18-5,11,11,0,0,0-4.3-.85Z"/><path d="M173.81,16.4a9.48,9.48,0,0,1-4.65-1.07,2.21,2.21,0,1,1,2.17-3.84,5.23,5.23,0,0,0,2.67.73,1.27,1.27,0,0,0,.89-.23s0-.22-1.35-.46l-.16,0c-2-.37-5.45-1-5.45-4.44,0-2.26,1.81-4.54,5.86-4.54a10.3,10.3,0,0,1,4.1.81A2.18,2.18,0,0,1,177,7.5a2.36,2.36,0,0,1-.94-.19,7.18,7.18,0,0,0-2.46-.61c-.69,0-.83.14-.83.14a4.35,4.35,0,0,0,1.42.4c1.93.33,5.52.95,5.52,4.32C179.7,14.54,177.44,16.4,173.81,16.4Z"/><path d="M173.79,3a9.79,9.79,0,0,1,3.89.77A1.68,1.68,0,0,1,177,7a2.09,2.09,0,0,1-.75-.15,7.67,7.67,0,0,0-2.65-.65c-1.12,0-1.33.33-1.33.65,0,.49.51.65,1.83.88,2.06.35,5.11.95,5.11,3.83s-2,4.34-5.39,4.34a9,9,0,0,1-4.41-1,1.69,1.69,0,0,1-.9-1.5,1.71,1.71,0,0,1,1.71-1.7,1.61,1.61,0,0,1,.85.23,5.77,5.77,0,0,0,2.94.8c.71,0,1.38-.24,1.38-.73s-.52-.73-1.75-1c-2.06-.38-5.2-.86-5.2-4,0-2.12,1.76-4,5.36-4m0-1c-4.39,0-6.36,2.53-6.36,5a4.08,4.08,0,0,0,2.07,3.73,2.7,2.7,0,0,0-2,2.6,2.66,2.66,0,0,0,1.42,2.37,9.85,9.85,0,0,0,4.89,1.14c3.94,0,6.39-2,6.39-5.34a4,4,0,0,0-2.28-3.72,2.69,2.69,0,0,0,.17-5,10.92,10.92,0,0,0-4.3-.85Z"/></g><path class="cls-3" d="M3,14.17a2.29,2.29,0,0,1-2.5-2.5V3.21A2.29,2.29,0,0,1,3,.71H9.08a2.07,2.07,0,0,1,0,4.14H5.28V5.3H8.94a2.07,2.07,0,0,1,0,4.14H5.28V10h3.8a2.07,2.07,0,0,1,0,4.14Z"/><path class="cls-4" d="M9.08,1.21a1.57,1.57,0,1,1,0,3.14H4.78V5.8H8.94a1.57,1.57,0,0,1,0,3.14H4.78v1.59h4.3a1.57,1.57,0,0,1,0,3.14H3a1.8,1.8,0,0,1-2-2V3.21a1.8,1.8,0,0,1,2-2H9.08m0-1H3a2.78,2.78,0,0,0-3,3v8.46a2.78,2.78,0,0,0,3,3H9.08a2.57,2.57,0,0,0,.93-5,2.57,2.57,0,0,0,.15-4.6A2.57,2.57,0,0,0,9.08.21Z"/><path class="cls-3" d="M21.67,14.36a2.34,2.34,0,0,1-1.74-.77l-2.41-2.88-2.4,2.87a2.32,2.32,0,0,1-1.75.78A2.34,2.34,0,0,1,11,12a2.24,2.24,0,0,1,.58-1.53L14.46,7.3,11.85,4.42a2.23,2.23,0,0,1-.58-1.57A2.34,2.34,0,0,1,13.62.52a2.3,2.3,0,0,1,1.83.9L17.52,4,19.6,1.41a2.34,2.34,0,0,1,4.18,1.44,2.14,2.14,0,0,1-.41,1.36L20.59,7.3l2.84,3.18A2.23,2.23,0,0,1,24,12,2.35,2.35,0,0,1,21.67,14.36Z"/><path class="cls-4" d="M21.43,1a1.85,1.85,0,0,1,1.85,1.83,1.78,1.78,0,0,1-.28,1L19.92,7.3l3.14,3.51a1.79,1.79,0,0,1,.45,1.2,1.85,1.85,0,0,1-1.84,1.85,1.81,1.81,0,0,1-1.36-.6L17.52,9.94l-2.78,3.32a1.81,1.81,0,0,1-1.37.6A1.85,1.85,0,0,1,11.54,12a1.79,1.79,0,0,1,.45-1.2L15.13,7.3,12.22,4.08a1.75,1.75,0,0,1-.45-1.23A1.85,1.85,0,0,1,13.62,1a1.81,1.81,0,0,1,1.44.71l2.46,3,2.47-3A1.81,1.81,0,0,1,21.43,1m0-1a2.78,2.78,0,0,0-2.22,1.09L17.52,3.17,15.83,1.1A2.79,2.79,0,0,0,13.62,0a2.84,2.84,0,0,0-2.85,2.83,2.75,2.75,0,0,0,.7,1.91L13.79,7.3l-2.54,2.85A2.71,2.71,0,0,0,10.54,12a2.84,2.84,0,0,0,5,1.9l2-2.42,2,2.41a2.84,2.84,0,0,0,5-1.89,2.76,2.76,0,0,0-.71-1.87L21.26,7.3l2.48-2.75a2.67,2.67,0,0,0,.54-1.7A2.84,2.84,0,0,0,21.43,0Z"/><path class="cls-3" d="M30.46,14.4c-4.21,0-7.27-2.92-7.27-6.95S26.25.5,30.46.5a6.44,6.44,0,0,1,5,2A2.38,2.38,0,0,1,36,4.07a2.29,2.29,0,0,1-2.29,2.27A2.24,2.24,0,0,1,32,5.57a2.05,2.05,0,0,0-1.58-.74A2.45,2.45,0,0,0,28,7.45a2.45,2.45,0,0,0,2.44,2.62A2.05,2.05,0,0,0,32,9.33a2.24,2.24,0,0,1,1.71-.77,2.26,2.26,0,0,1,1.68,3.78A6.49,6.49,0,0,1,30.46,14.4Z"/><path class="cls-4" d="M30.46,1a5.93,5.93,0,0,1,4.6,1.85,1.87,1.87,0,0,1,.48,1.22,1.78,1.78,0,0,1-1.79,1.77,1.74,1.74,0,0,1-1.33-.6,2.57,2.57,0,0,0-2-.91,3,3,0,0,0-2.94,3.12,3,3,0,0,0,2.94,3.12,2.55,2.55,0,0,0,2-.92,1.76,1.76,0,0,1,1.33-.59A1.76,1.76,0,0,1,35.06,12a6,6,0,0,1-4.6,1.89c-3.81,0-6.77-2.62-6.77-6.45S26.65,1,30.46,1m0-1C26,0,22.69,3.13,22.69,7.45S26,14.9,30.46,14.9a7,7,0,0,0,5.33-2.21,2.8,2.8,0,0,0,.73-1.86,2.77,2.77,0,0,0-2.77-2.77A2.7,2.7,0,0,0,31.66,9a1.57,1.57,0,0,1-1.2.56,2,2,0,0,1-1.94-2.12,2,2,0,0,1,1.94-2.12,1.59,1.59,0,0,1,1.21.57,2.72,2.72,0,0,0,2.08.94,2.78,2.78,0,0,0,2.79-2.77,2.86,2.86,0,0,0-.73-1.88A6.91,6.91,0,0,0,30.46,0Z"/><path class="cls-3" d="M39.21,14.17a2.29,2.29,0,0,1-2.5-2.5V2.91a2.39,2.39,0,1,1,4.77,0v7h2.77a2.15,2.15,0,1,1,0,4.29Z"/><path class="cls-4" d="M39.1,1A1.89,1.89,0,0,1,41,2.91v7.47h3.27a1.65,1.65,0,1,1,0,3.29h-5a1.8,1.8,0,0,1-2-2V2.91A1.89,1.89,0,0,1,39.1,1m0-1a2.89,2.89,0,0,0-2.89,2.89v8.76a2.78,2.78,0,0,0,3,3h5a2.65,2.65,0,1,0,0-5.29H42V2.91A2.88,2.88,0,0,0,39.1,0Z"/><path class="cls-3" d="M52.85,14.4c-4.13,0-6.5-2.13-6.5-5.85V2.93a2.42,2.42,0,0,1,4.83,0V8.42a1.66,1.66,0,0,0,3.32,0V2.93a2.42,2.42,0,0,1,4.83,0v5.6C59.33,12.26,57,14.4,52.85,14.4Z"/><path class="cls-4" d="M56.91,1a1.91,1.91,0,0,1,1.92,1.91v5.6c0,3.11-1.77,5.37-6,5.37s-6-2.26-6-5.35V2.93a1.92,1.92,0,0,1,3.84,0V8.42a2.16,2.16,0,0,0,4.31,0V2.93A1.92,1.92,0,0,1,56.91,1m0-1A2.91,2.91,0,0,0,54,2.93V8.42c0,1-.55,1.15-1.15,1.15-.83,0-1.16-.33-1.16-1.15V2.93a2.92,2.92,0,0,0-5.84,0V8.55c0,4,2.62,6.35,7,6.35s7-2.38,7-6.37V2.93A2.91,2.91,0,0,0,56.91,0Z"/><path class="cls-3" d="M65.69,14.4A9.48,9.48,0,0,1,61,13.33a2.21,2.21,0,1,1,2.17-3.84,5.23,5.23,0,0,0,2.67.73,1.27,1.27,0,0,0,.89-.23s0-.22-1.35-.46l-.16,0c-2-.37-5.45-1-5.45-4.44,0-2.26,1.82-4.54,5.87-4.54a10.29,10.29,0,0,1,4.09.81,2.18,2.18,0,0,1-.9,4.17,2.36,2.36,0,0,1-.94-.19,7.13,7.13,0,0,0-2.46-.61c-.69,0-.83.14-.83.14a4.35,4.35,0,0,0,1.42.4c1.93.33,5.52,1,5.52,4.32C71.58,12.54,69.32,14.4,65.69,14.4Z"/><path class="cls-4" d="M65.68,1a9.77,9.77,0,0,1,3.88.77A1.68,1.68,0,0,1,68.87,5a2.09,2.09,0,0,1-.75-.15,7.67,7.67,0,0,0-2.65-.65c-1.12,0-1.33.33-1.33.65,0,.49.51.65,1.84.88,2,.35,5.1.95,5.1,3.83s-2,4.34-5.39,4.34a9,9,0,0,1-4.41-1,1.69,1.69,0,0,1-.89-1.5,1.7,1.7,0,0,1,1.7-1.7,1.65,1.65,0,0,1,.86.23,5.74,5.74,0,0,0,2.93.8c.71,0,1.39-.24,1.39-.73s-.53-.73-1.76-1c-2.06-.38-5.2-.86-5.2-4,0-2.12,1.76-4,5.37-4m0-1c-4.4,0-6.37,2.53-6.37,5a4.1,4.1,0,0,0,2.07,3.73,2.69,2.69,0,0,0-.58,5,9.9,9.9,0,0,0,4.89,1.14c3.94,0,6.39-2.05,6.39-5.34A4,4,0,0,0,69.8,5.84a2.69,2.69,0,0,0,.18-5A11,11,0,0,0,65.68,0Z"/><path class="cls-3" d="M74.2,14.36A2.39,2.39,0,0,1,71.81,12V2.91a2.39,2.39,0,0,1,4.78,0V12A2.39,2.39,0,0,1,74.2,14.36Z"/><path class="cls-4" d="M74.2,1a1.89,1.89,0,0,1,1.89,1.89V12a1.89,1.89,0,0,1-3.78,0V2.91A1.89,1.89,0,0,1,74.2,1m0-1a2.89,2.89,0,0,0-2.89,2.89V12a2.89,2.89,0,0,0,5.78,0V2.91A2.89,2.89,0,0,0,74.2,0Z"/><path class="cls-3" d="M83.36,14.36a3.81,3.81,0,0,1-3.57-2.48l-3-8A2.87,2.87,0,0,1,76.67,3a2.49,2.49,0,0,1,4.85-.76L83.36,8,85.2,2.25A2.48,2.48,0,0,1,90.05,3a2.8,2.8,0,0,1-.16.85l-3,8A3.81,3.81,0,0,1,83.36,14.36Z"/><path class="cls-4" d="M87.56,1a2,2,0,0,1,2,2,2.28,2.28,0,0,1-.13.69l-3,8a3.31,3.31,0,0,1-6.2,0l-3-8A2.28,2.28,0,0,1,77.17,3,2,2,0,0,1,81,2.4l2.32,7.2,2.32-7.2A2,2,0,0,1,87.56,1m0-1a3,3,0,0,0-2.83,2.07L83.36,6.34,82,2.1a3,3,0,0,0-5.82.9,3.33,3.33,0,0,0,.18,1l3,8.05a4.31,4.31,0,0,0,8.08,0l2.95-8a3.1,3.1,0,0,0,.2-1,3,3,0,0,0-3-3Z"/><path class="cls-3" d="M92.63,14.17a2.3,2.3,0,0,1-2.5-2.5V3.21a2.3,2.3,0,0,1,2.5-2.5h6.08a2.07,2.07,0,1,1,0,4.14h-3.8V5.3h3.67a2.07,2.07,0,0,1,0,4.14H94.91V10h3.8a2.07,2.07,0,1,1,0,4.14Z"/><path class="cls-4" d="M98.71,1.21a1.57,1.57,0,1,1,0,3.14h-4.3V5.8h4.17a1.57,1.57,0,1,1,0,3.14H94.41v1.59h4.3a1.57,1.57,0,1,1,0,3.14H92.63a1.8,1.8,0,0,1-2-2V3.21a1.8,1.8,0,0,1,2-2h6.08m0-1H92.63a2.78,2.78,0,0,0-3,3v8.46a2.78,2.78,0,0,0,3,3h6.08a2.57,2.57,0,0,0,.94-5,2.57,2.57,0,0,0,.14-4.6A2.57,2.57,0,0,0,98.71.21Z"/><path class="cls-3" d="M116.31,14.36A2.39,2.39,0,0,1,114,12.65l-.09-.31H110l-.1.32a2.39,2.39,0,0,1-4.68-.69,2.25,2.25,0,0,1,.15-.82l3-8.15a3.81,3.81,0,0,1,7.14,0l3,8.15a2.52,2.52,0,0,1,.14.82A2.39,2.39,0,0,1,116.31,14.36ZM112.62,8.2l-.64-2-.65,2Z"/><path class="cls-4" d="M112,1a3.29,3.29,0,0,1,3.1,2.15l3,8.15a2,2,0,0,1,.11.65,1.89,1.89,0,0,1-3.7.54l-.2-.67h-4.64l-.21.67a1.89,1.89,0,0,1-3.7-.54,1.78,1.78,0,0,1,.12-.65l3-8.15A3.3,3.3,0,0,1,112,1M110.65,8.7h2.65L112,4.53,110.65,8.7M112,0a4.31,4.31,0,0,0-4,2.8l-3,8.15a2.85,2.85,0,0,0-.18,1,2.89,2.89,0,0,0,5.65.87h3.15A2.89,2.89,0,0,0,119.2,12a3,3,0,0,0-.17-1l-3-8.16A4.32,4.32,0,0,0,112,0Z"/><path class="cls-3" d="M125.16,14.4c-4.22,0-7.27-2.92-7.27-6.95s3-6.95,7.27-6.95a6.43,6.43,0,0,1,5,2,2.39,2.39,0,0,1,.62,1.56,2.29,2.29,0,0,1-2.29,2.27,2.22,2.22,0,0,1-1.71-.77,2.08,2.08,0,0,0-1.58-.74,2.45,2.45,0,0,0-2.44,2.62,2.45,2.45,0,0,0,2.44,2.62,2.08,2.08,0,0,0,1.58-.74,2.22,2.22,0,0,1,1.71-.77,2.26,2.26,0,0,1,1.68,3.78A6.49,6.49,0,0,1,125.16,14.4Z"/><path class="cls-4" d="M125.16,1a5.92,5.92,0,0,1,4.59,1.85,1.88,1.88,0,0,1,.49,1.22,1.78,1.78,0,0,1-1.79,1.77,1.72,1.72,0,0,1-1.33-.6,2.59,2.59,0,0,0-2-.91,3,3,0,0,0-2.94,3.12,3,3,0,0,0,2.94,3.12,2.56,2.56,0,0,0,2-.92,1.75,1.75,0,0,1,1.33-.59,1.78,1.78,0,0,1,1.77,1.77,1.8,1.8,0,0,1-.47,1.18,6,6,0,0,1-4.59,1.89c-3.82,0-6.77-2.62-6.77-6.45s3-6.45,6.77-6.45m0-1c-4.5,0-7.77,3.13-7.77,7.45s3.27,7.45,7.77,7.45a7,7,0,0,0,5.33-2.21,2.8,2.8,0,0,0,.73-1.86,2.77,2.77,0,0,0-2.77-2.77,2.7,2.7,0,0,0-2.09.95,1.59,1.59,0,0,1-1.2.56,2,2,0,0,1-1.94-2.12,2,2,0,0,1,1.94-2.12,1.58,1.58,0,0,1,1.2.57,2.79,2.79,0,0,0,4.88-1.83,2.83,2.83,0,0,0-.74-1.88A6.89,6.89,0,0,0,125.16,0Z"/><path class="cls-3" d="M138,14.4c-4.21,0-7.27-2.92-7.27-6.95S133.79.5,138,.5a6.46,6.46,0,0,1,5,2,2.43,2.43,0,0,1,.61,1.56,2.29,2.29,0,0,1-2.29,2.27,2.24,2.24,0,0,1-1.71-.77A2.07,2.07,0,0,0,138,4.83a2.45,2.45,0,0,0-2.44,2.62A2.45,2.45,0,0,0,138,10.07a2.07,2.07,0,0,0,1.58-.74,2.24,2.24,0,0,1,1.71-.77A2.26,2.26,0,0,1,143,12.34,6.49,6.49,0,0,1,138,14.4Z"/><path class="cls-4" d="M138,1a6,6,0,0,1,4.6,1.85,1.87,1.87,0,0,1,.48,1.22,1.78,1.78,0,0,1-1.79,1.77,1.72,1.72,0,0,1-1.33-.6,2.59,2.59,0,0,0-2-.91,3,3,0,0,0-2.94,3.12A3,3,0,0,0,138,10.57a2.56,2.56,0,0,0,2-.92,1.75,1.75,0,0,1,1.33-.59A1.76,1.76,0,0,1,142.6,12,6,6,0,0,1,138,13.9c-3.82,0-6.77-2.62-6.77-6.45S134.18,1,138,1m0-1c-4.5,0-7.77,3.13-7.77,7.45S133.5,14.9,138,14.9a7,7,0,0,0,5.33-2.21,2.8,2.8,0,0,0,.73-1.86,2.77,2.77,0,0,0-2.77-2.77A2.7,2.7,0,0,0,139.2,9a1.57,1.57,0,0,1-1.2.56,2,2,0,0,1-1.94-2.12A2,2,0,0,1,138,5.33a1.55,1.55,0,0,1,1.2.57,2.79,2.79,0,0,0,4.88-1.83,2.86,2.86,0,0,0-.73-1.88A6.91,6.91,0,0,0,138,0Z"/><path class="cls-3" d="M146.75,14.17a2.29,2.29,0,0,1-2.5-2.5V3.21a2.29,2.29,0,0,1,2.5-2.5h6.07a2.07,2.07,0,0,1,0,4.14H149V5.3h3.67a2.07,2.07,0,0,1,0,4.14H149V10h3.8a2.07,2.07,0,0,1,0,4.14Z"/><path class="cls-4" d="M152.82,1.21a1.57,1.57,0,0,1,0,3.14h-4.3V5.8h4.17a1.57,1.57,0,0,1,0,3.14h-4.17v1.59h4.3a1.57,1.57,0,0,1,0,3.14h-6.07a1.8,1.8,0,0,1-2-2V3.21a1.8,1.8,0,0,1,2-2h6.07m0-1h-6.07a2.78,2.78,0,0,0-3,3v8.46a2.78,2.78,0,0,0,3,3h6.07a2.57,2.57,0,0,0,.94-5,2.58,2.58,0,0,0,1.5-2.34,2.56,2.56,0,0,0-1.36-2.26,2.57,2.57,0,0,0-1.08-4.9Z"/><path class="cls-3" d="M160.73,14.4a9.45,9.45,0,0,1-4.65-1.07,2.2,2.2,0,1,1,2.16-3.84,5.26,5.26,0,0,0,2.67.73c.55,0,.86-.16.89-.23s0-.22-1.35-.46l-.16,0c-2-.37-5.45-1-5.45-4.44,0-2.26,1.82-4.54,5.87-4.54a10.22,10.22,0,0,1,4.09.81,2.18,2.18,0,0,1-.89,4.17,2.32,2.32,0,0,1-.94-.19,7.22,7.22,0,0,0-2.47-.61c-.68,0-.83.14-.83.14a4.35,4.35,0,0,0,1.42.4c1.93.33,5.52,1,5.52,4.32C166.61,12.54,164.36,14.4,160.73,14.4Z"/><path class="cls-4" d="M160.71,1a9.79,9.79,0,0,1,3.89.77A1.68,1.68,0,0,1,163.91,5a2,2,0,0,1-.75-.15,7.77,7.77,0,0,0-2.66-.65c-1.12,0-1.32.33-1.32.65,0,.49.5.65,1.83.88,2.05.35,5.1.95,5.1,3.83s-2,4.34-5.38,4.34a8.91,8.91,0,0,1-4.41-1,1.68,1.68,0,0,1-.9-1.5,1.71,1.71,0,0,1,1.7-1.7,1.62,1.62,0,0,1,.86.23,5.74,5.74,0,0,0,2.93.8c.71,0,1.39-.24,1.39-.73s-.53-.73-1.76-1c-2.06-.38-5.2-.86-5.2-4,0-2.12,1.76-4,5.37-4m0-1c-4.4,0-6.37,2.53-6.37,5a4.1,4.1,0,0,0,2.07,3.73,2.71,2.71,0,0,0-2,2.6,2.67,2.67,0,0,0,1.41,2.37,9.91,9.91,0,0,0,4.9,1.14c3.93,0,6.38-2.05,6.38-5.34a4,4,0,0,0-2.28-3.72,2.69,2.69,0,0,0,.18-5,11,11,0,0,0-4.3-.85Z"/><path class="cls-3" d="M171.81,14.4a9.48,9.48,0,0,1-4.65-1.07,2.21,2.21,0,1,1,2.17-3.84,5.23,5.23,0,0,0,2.67.73,1.27,1.27,0,0,0,.89-.23s0-.22-1.35-.46l-.16,0c-2-.37-5.45-1-5.45-4.44,0-2.26,1.81-4.54,5.86-4.54a10.3,10.3,0,0,1,4.1.81A2.18,2.18,0,0,1,175,5.5a2.36,2.36,0,0,1-.94-.19,7.18,7.18,0,0,0-2.46-.61c-.69,0-.83.14-.83.14a4.35,4.35,0,0,0,1.42.4c1.93.33,5.52,1,5.52,4.32C177.7,12.54,175.44,14.4,171.81,14.4Z"/><path class="cls-4" d="M171.79,1a9.79,9.79,0,0,1,3.89.77A1.68,1.68,0,0,1,175,5a2.09,2.09,0,0,1-.75-.15,7.67,7.67,0,0,0-2.65-.65c-1.12,0-1.33.33-1.33.65,0,.49.51.65,1.83.88,2.06.35,5.11.95,5.11,3.83s-2,4.34-5.39,4.34a9,9,0,0,1-4.41-1,1.69,1.69,0,0,1-.9-1.5,1.71,1.71,0,0,1,1.71-1.7,1.61,1.61,0,0,1,.85.23,5.77,5.77,0,0,0,2.94.8c.71,0,1.38-.24,1.38-.73s-.52-.73-1.75-1c-2.06-.38-5.2-.86-5.2-4,0-2.12,1.76-4,5.36-4m0-1c-4.39,0-6.36,2.53-6.36,5a4.08,4.08,0,0,0,2.07,3.73,2.7,2.7,0,0,0-2,2.6,2.66,2.66,0,0,0,1.42,2.37,9.85,9.85,0,0,0,4.89,1.14c3.94,0,6.39-2.05,6.39-5.34a4,4,0,0,0-2.28-3.72,2.69,2.69,0,0,0,.17-5,10.92,10.92,0,0,0-4.3-.85Z"/></g></g></g></svg>