<svg height="365" viewBox="0 0 248 365" width="248" xmlns="http://www.w3.org/2000/svg"><path d="m159.84 362.13a2.2 2.2 0 0 1 -2-2.45 24 24 0 0 0 -1.43-13.17 27.59 27.59 0 0 1 -1.62-15.1 28.48 28.48 0 0 1 5.91-14.15 24.62 24.62 0 0 0 5.18-12.34 24 24 0 0 0 -1.43-13.17 27.53 27.53 0 0 1 -1.62-15.09 28.48 28.48 0 0 1 5.91-14.14 24.58 24.58 0 0 0 5.18-12.33 2.32 2.32 0 0 1 2.64-1.86 2.2 2.2 0 0 1 2 2.45 28.39 28.39 0 0 1 -5.91 14.14 24.67 24.67 0 0 0 -5.18 12.33 23.88 23.88 0 0 0 1.44 13.17 27.64 27.64 0 0 1 1.61 15.09 28.39 28.39 0 0 1 -5.91 14.15 24.67 24.67 0 0 0 -5.18 12.34 23.91 23.91 0 0 0 1.44 13.18 27.7 27.7 0 0 1 1.61 15.1 2.32 2.32 0 0 1 -2.64 1.85z" fill="#c5e8e8"/><path d="m182.18 260.31c-.45 3.05-5.64 4.91-11.59 4.15s-10.42-3.84-10-6.88 6.67-11.93 12.62-11.18 9.42 10.87 8.97 13.91z" fill="#8eddd5"/><path d="m167.2 258.41c.4-2.7 4.19-10.15 7.93-11.41a6.32 6.32 0 0 0 -1.89-.6c-6-.75-12.18 8.13-12.62 11.18s4 6.13 10 6.88c.66.08 1.31.12 2 .15-3.5-.92-5.82-3.49-5.42-6.2z" fill="#a5f2ec"/><path d="m179 246.28c-.3 2.08-3.08 3.45-6.21 3.05s-5.41-2.41-5.11-4.49 3.09-3.45 6.22-3.05 5.43 2.4 5.1 4.49z" fill="#8eddd5"/><path d="m240.3 181.9c-6 40.66-43.51 67.21-67 64.23s-52-37.91-46-78.57c4.92-33.49 33.83-54.74 65.05-50.78s52.87 31.63 47.95 65.12z" fill="#a5f2ec"/><path d="m136.85 189c5.36-36.53 36.89-59.72 71-55.4 3.79.48 4.54-2.85.84-4.83a50 50 0 0 0 -17.31-5.47c-27.5-3.49-53 15.23-57.3 44.74a66.61 66.61 0 0 0 0 19c .38 3.29 2.38 4.51 2.77 1.96z" fill="#c4f7f2"/><path d="m229 137.29a59.44 59.44 0 0 1 4.17 32.76c-6 40.66-43.52 67.21-67 64.23-10.89-1.38-22.86-9.64-32-22.13 9.19 19 25 32.2 39.07 34 23.51 3 61.05-23.57 67-64.23 2.6-17.25-1.96-32.92-11.24-44.63z" fill="#8eddd5"/><path d="m154.81 130.4a6.92 6.92 0 0 0 -7.81 5.6 6.59 6.59 0 0 0 6 7.3 6.92 6.92 0 0 0 7.86-5.55 6.6 6.6 0 0 0 -6.05-7.35z" fill="#f8f8f8"/><path d="m169.3 364.64a2.14 2.14 0 0 1 -2.84-.41 23.61 23.61 0 0 0 -9.43-7.42 27.3 27.3 0 0 1 -10.81-8.52 24.79 24.79 0 0 1 -5.49-12.14 21.4 21.4 0 0 0 -4.76-10.6 23.68 23.68 0 0 0 -9.44-7.41 27.3 27.3 0 0 1 -10.8-8.51 24.75 24.75 0 0 1 -5.48-12.14 21.31 21.31 0 0 0 -4.77-10.59 1.81 1.81 0 0 1  .44-2.64 2.14 2.14 0 0 1 2.84.41 24.67 24.67 0 0 1 5.49 12.13 21.4 21.4 0 0 0 4.75 10.6 23.61 23.61 0 0 0 9.44 7.41 27.22 27.22 0 0 1 10.79 8.51 24.7 24.7 0 0 1 5.49 12.14 21.43 21.43 0 0 0 4.77 10.6 23.72 23.72 0 0 0 9.44 7.42 27.28 27.28 0 0 1 10.8 8.52 1.8 1.8 0 0 1 -.43 2.64z" fill="#c5e8e8"/><path d="m117.2 288.59c1.7 2.16-.33 6.22-4.54 9.08s-9 3.44-10.68 1.29-3.58-11.18.63-14 12.9 1.48 14.59 3.63z" fill="#8eddd5"/><path d="m106.63 295.8c-1.51-1.92-4-8.68-2.46-11.57a5 5 0 0 0 -1.56.69c-4.21 2.86-2.33 11.89-.63 14s6.48 1.57 10.68-1.29c.47-.32.9-.66 1.32-1-2.73 1.37-5.85 1.08-7.35-.83z" fill="#a5f2ec"/><path d="m106.13 281.6c1.16 1.47.31 3.88-1.9 5.39s-4.93 1.53-6.09.05-.31-3.88 1.89-5.38 4.97-1.53 6.1-.06z" fill="#8eddd5"/><path d="m102.62 207.12c22.64 28.72 16.43 66.3-.17 77.61s-57 5.47-79.69-23.25c-18.65-23.65-14.4-53.1 7.65-68.11s53.59-9.9 72.21 13.75z" fill="#a5f2ec"/><path d="m42.63 269.45c-20.34-25.8-15.71-57.92 8.35-74.3 2.67-1.82 1-4.31-2.61-3.48a42.56 42.56 0 0 0 -14.37 6.33c-19.43 13.22-23.17 39.16-6.74 60a64.31 64.31 0 0 0 12.31 11.9c2.43 1.75 4.51 1.39 3.06-.45z" fill="#c4f7f2"/><path d="m66.65 185.6a58.53 58.53 0 0 1 23.85 18.11c22.65 28.71 16.44 66.29-.16 77.59-7.7 5.24-20.52 6.79-34.31 4.1 18.06 6.71 36.5 6.08 46.42-.67 16.6-11.31 22.81-48.89.17-77.61a57.42 57.42 0 0 0 -35.97-21.52z" fill="#8eddd5"/><path d="m15.87 222.86a5.38 5.38 0 0 0 -1.31 7.86 6.37 6.37 0 0 0 8.44 1.21 5.37 5.37 0 0 0 1.31-7.86 6.36 6.36 0 0 0 -8.44-1.21z" fill="#f8f8f8"/><path d="m168.4 364.77a3 3 0 0 1 -3.63-1.79c-2.51-7.61-5.66-10.78-9-14.14-3.63-3.66-7.38-7.45-10.28-16.23s-2.07-13.87-1.27-18.79c.73-4.52 1.43-8.79-1.08-16.4s-5.66-10.77-9-14.13c-3.63-3.66-7.38-7.44-10.28-16.22a34.16 34.16 0 0 1 -1.26-18.78c.73-4.52 1.43-8.79-1.08-16.39a2.68 2.68 0 0 1 1.92-3.38 3 3 0 0 1 3.64 1.79 34.19 34.19 0 0 1 1.26 18.79c-.73 4.52-1.43 8.79 1.08 16.39s5.66 10.77 9 14.13c3.64 3.66 7.39 7.44 10.28 16.22a34.12 34.12 0 0 1 1.3 18.79c-.73 4.52-1.42 8.79 1.09 16.4s5.66 10.78 9 14.14c3.63 3.66 7.38 7.45 10.28 16.23a2.68 2.68 0 0 1 -1.97 3.37z" fill="#c5e8e8"/><path d="m136.49 239.3c1.2 3.65-3.6 8.25-10.73 10.28s-13.88.72-15.08-2.92.82-16.66 7.95-18.66 16.66 7.66 17.86 11.3z" fill="#d86cb7"/><path d="m118.56 244.41c-1.07-3.24-1-13.46 2.53-16.69a7.5 7.5 0 0 0 -2.46.25c-7.13 2-9.16 15-7.95 18.69s7.95 5 15.08 2.92c.8-.23 1.55-.5 2.29-.78-4.37.63-8.42-1.15-9.49-4.39z" fill="#ea7fc3"/><path d="m125.07 225c .82 2.5-1.54 5.38-5.29 6.45s-7.44-.09-8.26-2.59 1.54-5.38 5.29-6.44 7.44.11 8.26 2.58z" fill="#c74a5f"/><path d="m158 122.88c16.06 48.68-11.33 96.74-39.48 104.75s-79.82-17.51-95.88-66.19c-13.23-40.1 7.41-78 44.78-88.66s77.35 10.01 90.58 50.1z" fill="#ea7fc3"/><path d="m45.45 180.87c-14.45-43.73 8.08-85.1 48.85-96.71 4.54-1.29 3.51-5.4-1.76-5.84a63 63 0 0 0 -22.54 2.21c-32.92 9.38-51.1 42.78-39.45 78.1a85.78 85.78 0 0 0 10.61 21.44c2.37 3.52 5.31 3.93 4.29.8z" fill="#ed94cd"/><path d="m120.31 78.1a78.07 78.07 0 0 1 23.05 34.9c16.07 48.68-11.33 96.74-39.48 104.75-13 3.72-31.14.21-48.4-9.45 21 16.95 46.22 24.15 63 19.36 28.15-8 55.54-56.07 39.48-104.75-6.77-20.66-20.68-36.09-37.65-44.81z" fill="#d86cb7"/><g fill="#fff"><circle cx="125.5" cy="48.5" opacity=".75" r="6.5"/><circle cx="76.5" cy="14.5" opacity=".5" r="14.5"/><circle cx="238" cy="281" opacity=".25" r="10"/><circle cx="6" cy="176" opacity=".75" r="6"/></g></svg>