<svg xmlns="http://www.w3.org/2000/svg" viewBox="0 0 528.63 197.17"><g data-name="Layer 1"><path d="M214,127.41h-1a42.35,42.35,0,0,1-36.62-22.82l-.78-1.49-1.62.44a32.53,32.53,0,0,1-8.5,1.13h-.73a32.57,32.57,0,0,1-1.9-65l1.55-.13.33-1.51A32,32,0,0,1,195.9,12.91h.72a31.67,31.67,0,0,1,11.14,2.26l1.44.58,1-1.21a33.08,33.08,0,0,1,26-12.46H237A33.29,33.29,0,0,1,262.1,14.35l1.1,1.35,1.53-.84A33.62,33.62,0,0,1,281,10.67h.77a33.8,33.8,0,0,1,32.64,29.51l.2,1.6,1.59.21a32.57,32.57,0,0,1-4.42,64.84H311a32.35,32.35,0,0,1-12.79-2.92l-2.06-.94-.77,2.13a30.58,30.58,0,0,1-28.54,20.24h-.68a30,30,0,0,1-20.72-9L244,114.94l-1.48,1.35A42.15,42.15,0,0,1,214,127.41Z" style="fill:#fff"/><path d="M236.19,4.18h.72a31.2,31.2,0,0,1,23.56,11.49l2.21,2.71,3.06-1.69A31.51,31.51,0,0,1,281,12.76h.72A31.7,31.7,0,0,1,312.3,40.44l.39,3.2,3.19.43a30.48,30.48,0,0,1-4.14,60.68H311a30.48,30.48,0,0,1-12-2.74L295,100.13l-1.55,4.25a28.46,28.46,0,0,1-26.57,18.87h-.63a27.92,27.92,0,0,1-19.29-8.36L244.09,112l-3,2.71A40.07,40.07,0,0,1,214,125.32h-.91a40.27,40.27,0,0,1-34.82-21.69l-1.55-3-3.24.87a30.63,30.63,0,0,1-7.95,1.06h-.69a30.48,30.48,0,0,1-1.78-60.86l3.09-.25.66-3A29.94,29.94,0,0,1,195.9,15h.68A29.78,29.78,0,0,1,207,17.12l2.88,1.16,1.94-2.43A31,31,0,0,1,236.19,4.18m0-4.18a35.34,35.34,0,0,0-27.66,13.25,33.58,33.58,0,0,0-11.86-2.42h-.77a34,34,0,0,0-33.18,26.71,34.67,34.67,0,0,0,2,69.21h.78a34.65,34.65,0,0,0,9-1.2A44.35,44.35,0,0,0,213,129.48h1a44.21,44.21,0,0,0,30-11.66,32.09,32.09,0,0,0,22.17,9.59h.72a32.57,32.57,0,0,0,30.5-21.62A34.49,34.49,0,0,0,311,108.92h.79a34.66,34.66,0,0,0,4.71-69A35.76,35.76,0,0,0,281.77,8.59H281A35.55,35.55,0,0,0,263.72,13,35.37,35.37,0,0,0,237,0Z" style="fill:#dd52a5"/><g style="fill:#d3398d"><path d="M192.55,84.18,181.15,51a8.79,8.79,0,0,1-.48-2.85,8.16,8.16,0,0,1,8.33-8A8.24,8.24,0,0,1,196.63,46l8.86,29.78,10.18-29.35a8.14,8.14,0,0,1,15.84,2.81,8.78,8.78,0,0,1-.6,2.83L218,84.75a13.61,13.61,0,0,1-25.49-.57Z"/><path d="M235.14,86.21,236,49a7.76,7.76,0,0,1,15.52.35l-.83,37.25a7.76,7.76,0,0,1-15.52-.35Z"/><path d="M259,86.74l.81-36c.11-5.29,3.1-8.15,8.4-8l19.12.43c12,.27,18.25,8.4,18,18s-6.84,17.05-18.82,16.79l-11.83-.27-.21,9.45A7.76,7.76,0,1,1,259,86.74ZM285,56l-9.83-.22-.2,9,9.83.22a4.5,4.5,0,1,0,.2-9Z"/></g><path d="M7.1,178.74V127.19c0-7.59,4.18-11.76,11.76-11.76H54.59a9.23,9.23,0,1,1,0,18.46H29.3v8.58H53.82a9.24,9.24,0,0,1,0,18.47H29.3v17.8a11.1,11.1,0,1,1-22.2,0Z" style="fill:#ff7ebf"/><path d="M54.59,115.43a9.23,9.23,0,1,1,0,18.46H29.3v8.58H53.82a9.24,9.24,0,0,1,0,18.47H29.3v17.8a11.1,11.1,0,1,1-22.2,0V127.19c0-7.59,4.18-11.76,11.76-11.76H54.59m0-7.1H18.86C7.4,108.33,0,115.73,0,127.19v51.55a18.2,18.2,0,1,0,36.4,0V168H53.82a16.32,16.32,0,0,0,9.52-29.59,16.32,16.32,0,0,0-8.75-30.11Z" style="fill:#fff"/><path d="M72.17 125.54a11.27 11.27 0 0 1 22.54 0v32.32c0 7 3.63 12.64 12.75 12.64s12.64-5.61 12.64-12.64V125.54a11.27 11.27 0 0 1 22.54 0v33c0 18.25-10.45 31.55-35.18 31.55s-35.29-13.3-35.29-31.44" style="fill:#ff7ebf"/><path d="M131.31,114.33a11.28,11.28,0,0,1,11.33,11.21v33c0,18.25-10.45,31.55-35.18,31.55s-35.29-13.3-35.29-31.44V125.54a11.27,11.27,0,0,1,22.54,0v32.32c0,7,3.63,12.64,12.75,12.64s12.64-5.61,12.64-12.64V125.54a11.26,11.26,0,0,1,11.21-11.21m0-7.1A18.33,18.33,0,0,0,113,125.54v32.32c0,3.59-.88,5.54-5.54,5.54-4.23,0-5.65-1.4-5.65-5.54V125.54a18.37,18.37,0,0,0-36.74,0v33.09c0,24.13,15.85,38.54,42.39,38.54s42.28-14.45,42.28-38.65v-33a18.39,18.39,0,0,0-18.43-18.31Z" style="fill:#fff"/><path d="M200.45,184l-23.74-34.63v29.35a11.11,11.11,0,1,1-22.21,0v-49.9A14.57,14.57,0,0,1,169,114.33a14.27,14.27,0,0,1,11.87,6.26l22,31.77V125.43a11.11,11.11,0,0,1,22.21,0v51A13.51,13.51,0,0,1,200.45,184Z" style="fill:#ff7ebf"/><path d="M214,114.33a11.14,11.14,0,0,1,11.1,11.1v51A13.51,13.51,0,0,1,200.45,184l-23.74-34.63v29.35a11.11,11.11,0,1,1-22.21,0v-49.9A14.57,14.57,0,0,1,169,114.33a14.27,14.27,0,0,1,11.87,6.26l22,31.77V125.43A11.14,11.14,0,0,1,214,114.33m0-7.1a18.22,18.22,0,0,0-18.21,18.2v4.2l-9.05-13.08a21.19,21.19,0,0,0-17.7-9.32,21.63,21.63,0,0,0-21.61,21.61v49.9a18.2,18.2,0,1,0,36.4,0V172.3L194.6,188a20.61,20.61,0,0,0,37.58-11.6v-51a18.22,18.22,0,0,0-18.2-18.2Z" style="fill:#fff"/><path d="m265 178.74v-51.55c0-7.59 4.18-11.76 11.77-11.76h35.72a9.23 9.23 0 1 1 0 18.46h-25.31v8.58h24.51a9.24 9.24 0 1 1 0 18.47h-24.51v17.8a11.11 11.11 0 1 1 -22.21 0" style="fill:#ff7ebf"/><path d="M312.46,115.43a9.23,9.23,0,1,1,0,18.46H287.18v8.58h24.51a9.24,9.24,0,1,1,0,18.47H287.18v17.8a11.11,11.11,0,1,1-22.21,0V127.19c0-7.59,4.18-11.76,11.77-11.76h35.72m0-7.1H276.74c-11.46,0-18.86,7.4-18.86,18.86v51.55a18.2,18.2,0,1,0,36.4,0V168h17.41a16.32,16.32,0,0,0,9.53-29.59,16.32,16.32,0,0,0-8.76-30.11Z" style="fill:#fff"/><path d="M478.66,178.74v-44h-11.1a9.67,9.67,0,0,1,0-19.34h44.3a9.67,9.67,0,1,1,0,19.34h-11v44a11.11,11.11,0,1,1-22.21,0Z" style="fill:#ff7ebf"/><path d="M511.86,115.43a9.67,9.67,0,1,1,0,19.34h-11v44a11.11,11.11,0,1,1-22.21,0v-44h-11.1a9.67,9.67,0,0,1,0-19.34h44.3m0-7.1h-44.3a16.77,16.77,0,1,0,0,33.54h4v36.87a18.2,18.2,0,1,0,36.4,0V141.87h3.89a16.77,16.77,0,0,0,0-33.54Z" style="fill:#fff"/><path d="m330.05 177v-49.8c0-7.59 4.17-11.76 11.76-11.76h35.73a9.23 9.23 0 0 1 0 18.46h-25.29v8.58h24.52a9.24 9.24 0 0 1 0 18.47h-24.52v9.34h25.29a9.24 9.24 0 0 1 0 18.47h-35.73c-7.59-.01-11.76-4.19-11.76-11.76" style="fill:#ff7ebf"/><path d="M377.54,115.43a9.23,9.23,0,0,1,0,18.46H352.25v8.58h24.52a9.24,9.24,0,0,1,0,18.47H352.25v9.34h25.29a9.24,9.24,0,0,1,0,18.47H341.81c-7.59,0-11.76-4.18-11.76-11.76v-49.8c0-7.59,4.17-11.76,11.76-11.76h35.73m0-7.1H341.81c-11.46,0-18.86,7.4-18.86,18.86V177c0,11.45,7.4,18.86,18.86,18.86h35.73a16.33,16.33,0,0,0,8.16-30.48,16.32,16.32,0,0,0,.59-26.93,16.32,16.32,0,0,0-8.75-30.11Z" style="fill:#fff"/><path d="M392.81,175.34a10,10,0,0,1,10-10,9.58,9.58,0,0,1,5.05,1.32,33.54,33.54,0,0,0,17.26,4.73c4.18,0,8.14-1.43,8.14-4.29s-3.08-4.29-10.34-5.6c-12.09-2.2-30.56-5.06-30.56-23.42,0-12.42,10.34-23.74,31.55-23.74a58.28,58.28,0,0,1,22.87,4.5,9.89,9.89,0,0,1-4.07,18.91,11.63,11.63,0,0,1-4.4-.88c-6.48-2.53-11.54-3.85-15.61-3.85-6.59,0-7.8,2-7.8,3.85,0,2.86,3,3.85,10.77,5.17,12.09,2.09,30,5.6,30,22.53,0,16.16-12,25.51-31.66,25.51-10.66,0-18.9-2.09-25.94-5.94A9.92,9.92,0,0,1,392.81,175.34Z" style="fill:#ff7ebf"/><g style="fill:#fff"><path d="M423.92,114.33a58.28,58.28,0,0,1,22.87,4.5,9.89,9.89,0,0,1-4.07,18.91,11.63,11.63,0,0,1-4.4-.88c-6.48-2.53-11.54-3.85-15.61-3.85-6.59,0-7.8,2-7.8,3.85,0,2.86,3,3.85,10.77,5.17,12.09,2.09,30,5.6,30,22.53,0,16.16-12,25.51-31.66,25.51-10.66,0-18.9-2.09-25.94-5.94a9.92,9.92,0,0,1-5.28-8.79,10,10,0,0,1,10-10,9.58,9.58,0,0,1,5.05,1.32,33.54,33.54,0,0,0,17.26,4.73c4.18,0,8.14-1.43,8.14-4.29s-3.08-4.29-10.34-5.6c-12.09-2.2-30.56-5.06-30.56-23.42,0-12.42,10.34-23.74,31.55-23.74m0-7.1c-11.57,0-21.35,3.07-28.28,8.87a28.26,28.26,0,0,0-10.36,22c0,9.09,3.66,16.49,10.65,21.61a17.09,17.09,0,0,0-1.27,30.67c8.4,4.59,18,6.82,29.37,6.82s20.89-2.85,27.64-8.25c7.28-5.81,11.12-14.23,11.12-24.36,0-9.22-4.13-16.7-12-21.77a17,17,0,0,0-1.09-30.43,65.26,65.26,0,0,0-25.79-5.13Z"/><path d="M17.08 130.81a10 10 0 0 1 -.35 -1.3c-.06-.31 0 .15 0 0s0-.23 0-.34 0-.45 0-.67 0-.4 0-.6l.06-.33a8.31 8.31 0 0 1 .35 -1.3 3 3 0 0 1 .11 -.32c.06-.15.06-.12 0 0 .1-.2.19-.41.3-.61s.22-.39.34-.58l.19-.27c0-.06.24-.31 0-.06a10.55 10.55 0 0 1 .92 -1l.21-.18c.32-.27-.16.1 0 0l.62-.41A1.6 1.6 0 1 0 18.26 120 10 10 0 0 0 14 131.66a1.6 1.6 0 0 0 3.08 -.85" style="opacity:.5"/><path d="M81.55,122c.37.14-.31-.15,0,0l.25.12a6.05,6.05,0,0,1,.55.32l.24.16c.09.07.29.13,0,0a1.92,1.92,0,0,1,.43.38,6.25,6.25,0,0,1,.44.45l.19.22c.25.29-.19-.28,0,0a8.34,8.34,0,0,1,.63,1l.12.26c.13.27-.07-.2,0,0l.21.6c0,.18.1.37.14.55l.06.34c.06.31,0-.23,0,0a9.67,9.67,0,0,1,0,1.2l0,.29c0,.2.06-.33,0,0s-.09.45-.16.67a1.62,1.62,0,0,0,1.12,2,1.64,1.64,0,0,0,2-1.12,8.84,8.84,0,0,0-5.4-10.5,1.6,1.6,0,0,0-2,1.11,1.64,1.64,0,0,0,1.11,2Z" style="opacity:.5"/><path d="m128.44 121.56c.34-.06-.34 0 0 0h.31c.21 0 .42 0 .62 0 0 0 .28.06.31 0-.25 0-.29 0-.11 0h.1c.2 0 .41.08.61.14l.59.2c.32.11-.28-.14 0 0l.28.14a6 6 0 0 1 .55 .31l.26.17c.06 0 .34.31.18.13s.07.06.12.1a2.39 2.39 0 0 1 .23 .22 4.67 4.67 0 0 1 .44 .45l.21.24c.09.11-.21-.29 0 0s.23.34.34.52l.29.55c.06.13-.13-.34 0 0 0 .1.07.2.1.3s.12.4.16.6 0 .38 0 .15 0 .14 0 .21a1.6 1.6 0 1 0 3.2 0 8.38 8.38 0 0 0 -9.68 -7.52 1.6 1.6 0 0 0 -1.12 2 1.64 1.64 0 0 0 2 1.11" style="opacity:.5"/><path d="M171.85 119a14.59 14.59 0 0 0 -12 6.93 1.6 1.6 0 0 0 2.77 1.62c.14-.23.28-.45.43-.67l.18-.26c.3-.41-.09.11.09-.12a13.41 13.41 0 0 1 1 -1.11c.17-.17.35-.33.53-.49l.31-.26.11-.09a13.18 13.18 0 0 1 1.27 -.83 12.66 12.66 0 0 1 1.27 -.65L168 123l.37-.14.68-.22c.49-.14 1-.24 1.47-.34h.13.4c.26 0 .53 0 .79 0a1.6 1.6 0 0 0 0 -3.2" style="opacity:.5"/><path d="M213.13,121.19c.32.12-.34-.17,0,0l.21.11a3.3,3.3,0,0,1,.45.26l.2.13c.16.12,0,.15-.06,0,.06.11.26.22.35.31a4.27,4.27,0,0,1,.36.38s.1.15.16.18c-.15-.19-.18-.23-.11-.13l.09.11a6.71,6.71,0,0,1,.51.86l.1.21c.12.26-.1-.26,0-.07s.12.33.17.49.08.31.11.47a2.33,2.33,0,0,1,0,.28c.05.28,0-.31,0-.1a8.18,8.18,0,0,1,0,1c0,.07-.06.35,0,.07s0,0,0,.07a4.9,4.9,0,0,1-.13.55,1.61,1.61,0,0,0,1.11,2,1.63,1.63,0,0,0,2-1.12,7.53,7.53,0,0,0-.58-5.43,7.45,7.45,0,0,0-4-3.61,1.61,1.61,0,0,0-2,1.12,1.65,1.65,0,0,0,1.12,2Z" style="opacity:.5"/><path d="M274.21,122.28a23.72,23.72,0,0,0-3.52,9.76,1.6,1.6,0,0,0,1.6,1.6,1.65,1.65,0,0,0,1.6-1.6c0,.32.05-.3.06-.35,0-.21.07-.42.12-.62q.1-.54.24-1.08a20.35,20.35,0,0,1,.67-2.18,13.4,13.4,0,0,1,.82-1.86,19.8,19.8,0,0,1,1.18-2,1.62,1.62,0,0,0-.58-2.19,1.64,1.64,0,0,0-2.19.57Z" style="opacity:.5"/><path d="M310.88,121.47v3.78a1.69,1.69,0,0,0,.47,1.14,1.64,1.64,0,0,0,1.13.46,1.62,1.62,0,0,0,1.6-1.6v-3.78a1.65,1.65,0,0,0-.47-1.13,1.59,1.59,0,0,0-1.13-.47,1.64,1.64,0,0,0-1.6,1.6Z" style="opacity:.5"/><path d="M374.4,122.16a4.28,4.28,0,0,1,.76.41l.17.11c.22.15-.24-.2-.09-.07l.33.3.28.3.14.16c.12.14-.23-.32-.08-.1a7,7,0,0,1,.46.74l.09.18c0,.06.13.3,0,0s0,0,0,0a1.46,1.46,0,0,1,.07.19,3.6,3.6,0,0,1,.12.44,1.67,1.67,0,0,0,.08.4s-.05-.43,0-.14a1.48,1.48,0,0,1,0,.21c0,.14,0,.27,0,.41a2.18,2.18,0,0,1,0,.25c0,.06,0,.32,0,0s0,0,0,0a2,2,0,0,1-.05.24,1.63,1.63,0,0,0,1.12,2,1.62,1.62,0,0,0,2-1.12,7,7,0,0,0-3.75-7.79,1.75,1.75,0,0,0-1.23-.16,1.61,1.61,0,0,0-.39,2.93Z" style="opacity:.5"/><path d="M441.13 122.54a3.91 3.91 0 0 1 .44 .26l.25.17s-.27-.23-.08-.06a7.79 7.79 0 0 1 .76 .76c.23.26 0 0 0 0l.15.21.27.44c.09.16.17.33.25.5s-.05-.09 0-.09l.11.29a8 8 0 0 1 .25 1c.06.29 0-.27 0-.07v.26a4.34 4.34 0 0 1 0 .51c0 .17 0 .34 0 .51 0 .08 0 .17-.05.25a4.43 4.43 0 0 1 -.13 .49 2.25 2.25 0 0 0 -.08 .24c-.1.3.14-.31 0 0a1.65 1.65 0 0 0 .57 2.19 1.62 1.62 0 0 0 2.19 -.57 7.76 7.76 0 0 0 -3.23 -10 1.6 1.6 0 1 0 -1.61 2.77" style="opacity:.5"/><path d="M464.73,122.25a4.5,4.5,0,0,0-.44,2.34,5.18,5.18,0,0,0,.75,2.26,4.85,4.85,0,0,0,3.95,2.36,1.62,1.62,0,0,0,1.6-1.61A1.64,1.64,0,0,0,469,126l-.34,0,.42.06a3.49,3.49,0,0,1-.7-.2l.39.16a3.57,3.57,0,0,1-.68-.4l.33.25a3.88,3.88,0,0,1-.65-.63l.25.32a4.64,4.64,0,0,1-.49-.83l.16.38a4.31,4.31,0,0,1-.24-.87l.06.43a3.37,3.37,0,0,1,0-.84l-.05.43a2.86,2.86,0,0,1,.19-.71l-.16.38,0,0a1.75,1.75,0,0,0,.16-1.23,1.6,1.6,0,0,0-2-1.12,1.55,1.55,0,0,0-1,.74Z" style="opacity:.5"/><path d="M506.81,130.82a6.74,6.74,0,0,0,2.76-.92,7.38,7.38,0,0,0,2.11-2,6.76,6.76,0,0,0,1.11-5.3,1.62,1.62,0,0,0-2-1.12,1.64,1.64,0,0,0-1.12,2,2.21,2.21,0,0,0,.05.25c-.14-.44,0-.25,0-.1a4.26,4.26,0,0,1,0,.5c0,.16-.1.71,0,.15,0,.17-.05.33-.09.49s-.09.33-.14.48a2.34,2.34,0,0,0-.09.24,1,1,0,1,0,0-.12,5.32,5.32,0,0,1-.5.87,1.77,1.77,0,0,0-.12.17c.25-.39.12-.16,0-.06s-.23.25-.35.37l-.37.33c-.24.2.32-.22.06,0l-.21.14a2.67,2.67,0,0,1-.43.25.76.76,0,0,1-.22.11l.23-.09-.16.06-.43.14c-.14,0-.78.13-.2,0a1.82,1.82,0,0,0-1.13.47,1.67,1.67,0,0,0-.47,1.14,1.65,1.65,0,0,0,.47,1.13,1.56,1.56,0,0,0,1.13.47Z" style="opacity:.5"/><path d="M338.26,127.09c0-.14-.06-.27-.08-.41.11.55,0,0,0-.1a2.8,2.8,0,0,1,0-.41c0-.16.11-.66,0-.11.06-.27.11-.54.19-.8s.1-.26.14-.39c-.11.41-.1.22,0,.08l.09-.19a5.06,5.06,0,0,1,.43-.7c.18-.26-.08.08-.08.09s.15-.18.16-.19l.28-.3.31-.27c.22-.2-.25.17-.1.07l.17-.12a4.64,4.64,0,0,1,.79-.43,1.63,1.63,0,0,0,.74-1,1.7,1.7,0,0,0-.16-1.23,1.66,1.66,0,0,0-1-.74,1.87,1.87,0,0,0-1.23.16,7,7,0,0,0-3.75,7.8,1.63,1.63,0,0,0,2,1.12,1.65,1.65,0,0,0,1.12-2Z" style="opacity:.5"/></g></g></svg>