<svg xmlns="http://www.w3.org/2000/svg" viewBox="0 0 452 76.95"><path d="m48 28.95l-48 10 24 12-14 26 45-13-7-35" style="fill:#e5b957"/><path d="m40 56.95l15 7-1.75-8.74-13.25 1.74" style="opacity:.1"/><path d="m404 26.95l48 10-24 12 14 26-45-13 7-35" style="fill:#e5b957"/><path d="m412 54.95l-15 7 1.75-8.74 13.25 1.74" style="opacity:.1"/><path d="M40 13.18A1432.3 1432.3 0 0 1 411 11V54.76A1433.48 1433.48 0 0 0 40 57" style="fill:#ffd673"/><g style="fill:#00717c"><path d="m92.19 38.87l-1.61-14-5 .58-.37-3.23 13.74-1.58.37 3.23-5 .57 1.62 14"/><path d="m115 36.42l-.73-7.27-8.15.83.73 7.26-3.67.37-1.74-17.25 3.67-.37.69 6.78 8.2-.77-.68-6.78 3.7-.37 1.74 17.25"/><path d="m122 35.76l-1.48-17.28 12.23-1.06.27 3.24-8.55.74.32 3.62 8.37-.71.27 3.23-8.37.72.34 3.94 8.55-.73.28 3.24"/><path d="m143.72 34l-1.18-17.3 12.24-.84.22 3.24-8.56.59.25 3.63 8.38-.57.22 3.24-8.38.57.49 7.19"/><path d="M168.26,32.46l-3.73-6-2.7.15.33,6.15-3.68.2-.95-17.31,8.1-.44c3.61-.2,6,2,6.14,5.26a5,5,0,0,1-3.53,5.35l4.28,6.37ZM168,20.68a2.33,2.33,0,0,0-2.69-2.17l-3.9.21.26,4.67,3.89-.21A2.35,2.35,0,0,0,168,20.68Z"/><path d="M173.93,23.47a9.07,9.07,0,0,1,18.12-.71,9.07,9.07,0,0,1-18.12.71Zm14.32-.56c-.13-3.25-2.27-5.61-5.47-5.48s-5.18,2.65-5.05,5.89,2.27,5.61,5.5,5.49S188.38,26.13,188.25,22.91Z"/><path d="m193.87 22.71c-.13-5.48 3.95-9.06 9-9.18a8.09 8.09 0 0 1 7.24 3.7l-3 1.73a5 5 0 0 0 -4.11 -2.16 5.4 5.4 0 0 0 -5.32 5.82 5.4 5.4 0 0 0 5.59 5.56 5.72 5.72 0 0 0 3.63 -1.41v-2.08l-4.57.11-.08-3.22 8.26-.2.16 6.66a9.63 9.63 0 0 1 -7.28 3.42c-5.15.12-9.39-3.29-9.52-8.75"/><path d="m219.35 22.2c0-5.48 4.14-9 9.24-9a8.1 8.1 0 0 1 7.16 3.86l-3 1.67a5 5 0 0 0 -4.12 -2.25 5.39 5.39 0 0 0 -5.44 5.7 5.4 5.4 0 0 0 5.47 5.68 5.79 5.79 0 0 0 3.67 -1.33v-2.07h-4.63v-3.21h8.26v6.65a9.6 9.6 0 0 1 -7.35 3.27c-5.08-.01-9.24-3.51-9.26-8.97"/><path d="m239 23.9l.14-10.4 3.74.05-.14 10.3a4.07 4.07 0 1 0 8.14 .11l.14-10.3 3.77.05-.14 10.4c-.06 4.29-2.65 7.22-7.93 7.15s-7.82-3.07-7.72-7.36"/><path d="m269 31.45l-1-3-7.43-.21-1.17 2.9-4.19-.12 7.17-17.14 4.63.13 6.19 17.52m-8.6-13.86l-2.91 7.39 5.4.15"/><path d="m284.51 32.06l-3.13-6.3-2.7-.11-.27 6.15-3.69-.15.75-17.33 8.1.35c3.61.15 5.74 2.61 5.6 5.83a5 5 0 0 1 -4 5l3.64 6.77m-3.43-11.95a2.35 2.35 0 0 0 -2.47 -2.43l-3.91-.16-.21 4.67 3.9.17a2.34 2.34 0 0 0 2.69 -2.25"/><path d="M303.34,33.06l-.92-3L295,29.64l-1.25,2.87-4.18-.24,7.65-16.93,4.62.26,5.69,17.7Zm-4-13.9-3.12,7.29,5.4.31Z"/><path d="m321 34.27l-7.44-11.87-.82 11.28-3.68-.27 1.25-17.29 3.79.27 7.22 11.44.79-10.83 3.68.27-1.25 17.29"/><path d="m331.89 35.16l1.22-14-5.05-.44.28-3.24 13.79 1.2-.29 3.24-5-.44-1.23 14.05"/><path d="m342.92 36.14l1.72-17.26 12.21 1.22-.32 3.23-8.53-.85-.36 3.63 8.36.83-.32 3.23-8.36-.83-.39 3.93 8.54.85-.33 3.24"/><path d="m357.94 37.66l1.94-17.23 12.19 1.37-.36 3.2-8.53-1-.4 3.62 8.34.93-.36 3.23-8.34-.93-.42 3.99 8.53 1-.39 3.16"/></g></svg>